<?xml version="1.0" encoding="utf-8"?>
<!-- Generator: Adobe Illustrator 28.3.0, SVG Export Plug-In . SVG Version: 6.00 Build 0)  -->
<svg version="1.1" id="Calque_1" xmlns="http://www.w3.org/2000/svg" xmlns:xlink="http://www.w3.org/1999/xlink" x="0px" y="0px"
	 viewBox="0 0 100 100" style="enable-background:new 0 0 100 100;" xml:space="preserve">
<style type="text/css">
	.st0{display:none;}
	.st1{display:inline;fill:#C6C4C0;}
	.st2{display:inline;fill:#736E6B;}
	.st3{display:inline;fill:#EBE8E3;}
	.st4{fill:#08151D;}
	.st5{fill:#EBE8E3;}
	.st6{fill:#E2B580;}
	.st7{fill:#311D10;}
	.st8{fill:#322B29;}
	.st9{fill:#E9CEAD;}
	.st10{fill:#C89860;}
	.st11{fill:#F1E9D8;}
	.st12{fill:#F6EBC4;}
	.st13{fill:#632C18;}
	.st14{fill:#C9BFAE;}
	.st15{fill:#CFCED3;}
	.st16{fill:#858786;}
	.st17{fill:#AF7C45;}
	.st18{fill:#774A26;}
	.st19{fill:#8C5D33;}
	.st20{fill:#080909;}
	.st21{fill:#9C6D3D;}
	.st22{fill:#563319;}
	.st23{fill:#502A1E;}
	.st24{fill:#833547;}
	.st25{fill:#FEFFFF;}
	.st26{display:inline;fill:#9E303F;}
	.st27{display:inline;fill:#E83A84;}
	.st28{fill:#0B0A0B;}
	.st29{fill:#211819;}
	.st30{fill:#05A67A;}
	.st31{fill:#3C1337;}
</style>
<g>
	<g>
		<g id="Background_00000181050649015754667630000016465282492821494449_" class="st0">
			<path class="st1" d="M26.3-4.6c-3.1,1.8-6.5,3.2-10,4.5c-2.3,0-2.6,0.7-3.2,1c-0.1,0-0.3-0.3-0.9,0c-0.4,0.2-0.6,1.1-0.7,1.1
				c-0.4,0.3-0.8,0-0.9,0c-0.4,0.2-2.8,3.3-3.9,4c1.4,0.6-0.1,1.6-0.6,2.6C4.4,12.3,2.7,16,1,19.6c-0.2,0.5-0.9,0.7-1.1,1.3
				c-0.1,0.3-0.2,1.7-0.6,2.5c0,0.1-0.5,0.5-0.7,1c-0.4,1.1-0.2,2-0.3,2.1c0,0.1-0.6,0.1-0.7,0.4c-0.1,0.2,0.1,0.9,0,1.1
				c-0.2,0.6-0.8,1.3-0.9,1.4c-0.7,2.4-1.3,10.2-0.8,13C-5.2,44-4,45.5-3.9,47c0.3,2.7,0.6,9.3,1.1,11.5c0,0.2,0.6,0.8,0.7,1.1
				c0.4,1.6,0.7,2.8,1.3,4.4c0.1,0.4,0.1,1.9,0.3,2.1c0.1,0.1,0.5,0,0.7,0.4c0.7,1.2,0.1,1.2,0.3,1.8c0.2,0.6,1.1,1.1,1.1,1.1
				c2,3.2,1.1,2.9,1.1,3.1c0.3,1.3,0.7,2.1,1.1,0.9c3.9,4.9,7.9,9.5,12.6,13.6c2.2,1.3,6.1,4.8,7.6,5.8c5.3,3.4,16.7,5.9,23.1,7.2
				c2-0.2,1.9,0.4,2,0.4c0.7,0.2,0.7-0.4,0.8-0.4c0.3,0,0.4,0.2,0.7,0.1c2.9-0.4,5.9-1,8.9-1.3c3-1.3,6.4-1.5,9.2-3.1
				C81.4,92.7,87.3,85.6,95,75.8c6.5-10.3,9-22.6,9.2-34.7c0.8-1.5-0.3-3-0.3-3.1c-0.2-1.4,0.3-1.7,0.3-1.8c0-0.5-0.8-0.8-1-1.3
				c-0.3-0.9-0.2-5.1-1.4-5.9c-0.2-1.2-1.1-5.4-1.4-6.2c-0.1-0.4-1.5-3-2-4c-0.1-0.2,0.1-0.8,0-1c-0.1-0.2-1-1-2.4-4.2
				c-0.1-0.1-0.6-0.5-0.7-0.9c-0.1-0.1,0.3-0.5,0.3-0.6c-0.3-1.4-1-0.9-1.6-1.3c-0.2-0.1-0.4-1.2-0.6-1.4c-0.3-0.5-1.8-2.6-1.8-3.1
				c0-0.1,1-1.9-0.9-1.5c-1.9-3.6-4.7-3.4-5.9-4c-1.9-0.9-7.9-3.9-8.7-5.4c15.6,0,31.2,0,46.8,0c0,52.6,0,52.6,0,105.3
				c-72.4,0-72.4,0-144.9,0c0-52.6,0-52.6,0-105.3C-5.9-4.6,10.2-4.5,26.3-4.6z"/>
			<path class="st1" d="M71.7-4.6c0.1,1.3,3.5,0.9,4.3,2.4c2.2,0.9,8.8,4.3,9.8,6c0.2,0.4,0.1,0.6,0.8,1.7c0,0-0.2,0.2-0.1,0.3
				c0.1,0.2,0.6,0,0.6,0.1C87.4,6.1,87,6.1,87,6.1c2,2.3,2.1,1.4,2.9,1.8c0.9,0.4,8.1,10.7,7.8,12.7c1.6,3,2.3,6.3,3.1,9.6
				c0,0.2,0.5,0.9,0.6,1c0.2,0.7-0.2,0.9-0.1,1c0.5,2.7,1.3,5.2,1,7.9c1.3,1.4,0.2,4.7,0.1,6.1c-0.1,1.5,0.3,3,0.1,4.5
				c-0.1,1.1-0.8,2.9-1,4.1c0,0,0.3,0.2,0.1,0.8c0,0.1-0.4,0.3-0.4,0.4c-0.1,0.7-0.1,1.6-0.3,2.3c-0.2,0.6-1.9,6.6-2,6.9
				c-1.2,3.4-4.3,8-5.7,11.5c-3.2,3.6-6.1,7.6-10,10.7c-1.7,1.4-7.6,5-9.5,5.8C69.4,95.1,54.3,99.1,49,99c-8.9-1.1-20-3.1-26.9-9.2
				c-1.6-0.4-3.5-2.2-5-3.2c-0.2-0.2-1.8-0.9-1.8-1c-1.7-1.4-9.7-10.4-11-12.4c-1.9-2.9-4.7-9.1-5.7-12.5c-1.3-4.9-2.3-17-1.7-21.9
				c0.3-2.3,1.6-5.1,2.3-7.4c0.4-1.6,0.8-4.7,1.3-6.1c0.2-0.5,0.9-1.1,1.1-1.7c1.1-2.8,2.3-5.5,3.4-8.4c1.8-1.4,1.2-1.8,1.3-2
				C6.7,12.8,9,9,9.2,8.9c0.5-0.2,0.9,0.2,1,0.1c0.1-0.1,1.2-1.1,1.6-1.3c0.1,0,1.3,0.3,1.3-0.3c-1.3-1.3,0.4,0.1,1-0.8
				c-3.7-2,6.2-6.3,8-7.3c1.2-0.6,3.1-2,3.8-2.4c1.3-0.7,2.6-0.7,3.2-1.4C43.3-4.6,57.5-4.6,71.7-4.6z"/>
			<path class="st1" d="M29.1-4.6c-0.6,0.7-1.8,0.7-3.2,1.4c-0.7,0.4-2.7,1.8-3.8,2.4c-1.8,1-11.7,5.3-8,7.3c-0.6,1-2.3-0.4-1,0.8
				c0,0.6-1.3,0.3-1.3,0.3C11.5,7.9,10.4,9,10.2,9c0,0-0.5-0.3-1-0.1C9,9,6.7,12.8,6.3,13.4c-0.1,0.2,0.6,0.6-1.3,2
				c-1.1,2.8-2.3,5.6-3.4,8.4c-0.2,0.6-0.9,1.2-1.1,1.7c-0.5,1.4-0.8,4.5-1.3,6.1c-0.6,2.3-2,5.1-2.3,7.4c-0.6,4.9,0.4,17,1.7,21.9
				c0.9,3.4,3.7,9.5,5.7,12.4c1.3,2,9.2,11,11,12.4c0.1,0.1,1.6,0.8,1.8,1c1.4,1.1,3.3,2.9,4.9,3.2C29,96,40.1,97.9,49,99
				c5.3,0.1,20.3-3.9,24.9-5.8c1.9-0.8,7.7-4.4,9.5-5.8c3.9-3.1,6.8-7.1,10-10.7c1.4-3.5,4.5-8.1,5.7-11.5c0.1-0.3,1.8-6.3,2-6.9
				c0.2-0.6,0.1-1.6,0.3-2.3c0-0.1,0.4-0.3,0.4-0.4c0.1-0.6-0.2-0.8-0.1-0.8c0.2-1.2,0.9-3,1-4.1c0.2-1.5-0.2-3.1-0.1-4.5
				c0.1-1.4,1.1-4.6-0.1-6.1c0.3-2.8-0.5-5.2-1-7.9c0,0,0.3-0.3,0.1-1c0-0.1-0.5-0.8-0.6-1c-0.8-3.3-1.5-6.6-3.1-9.6
				c0.3-2-7-12.3-7.8-12.7C89.2,7.6,89,8.4,87,6.2c-0.1-0.1,0.4,0,0.2-0.2c-0.1-0.1-0.5,0.1-0.6-0.1c-0.1-0.1,0.2-0.3,0.1-0.3
				c-0.8-1.1-0.6-1.3-0.8-1.7c-1.1-1.8-7.7-5.1-9.8-6c-0.8-1.5-4.2-1.1-4.3-2.4c1.5,0,2.9,0,4.4,0C77-3,82.9,0,84.8,0.9
				c1.2,0.6,4.1,0.4,5.9,4c1.9-0.4,0.9,1.3,0.9,1.5c0,0.5,1.5,2.6,1.8,3.1c0.1,0.2,0.4,1.3,0.6,1.4c0.6,0.4,1.2-0.1,1.6,1.3
				c0,0-0.3,0.4-0.3,0.6c0.1,0.4,0.6,0.7,0.7,0.9c1.4,3.2,2.3,4,2.4,4.2c0.1,0.2-0.1,0.8,0,1c0.4,1,1.9,3.6,2,4
				c0.3,0.8,1.2,5,1.4,6.2c1.3,0.8,1.1,5,1.4,5.9c0.2,0.5,1,0.7,1,1.3c0,0.1-0.5,0.4-0.3,1.8c0,0.2,1.1,1.7,0.3,3.1
				c-0.2,12.1-2.7,24.3-9.2,34.7c-7.7,9.9-13.6,17-26.2,20.2c-2.8,1.6-6.2,1.8-9.2,3.1c-3,0.3-6,0.8-8.9,1.3c-0.3,0-0.4-0.2-0.7-0.1
				c-0.2,0-0.1,0.6-0.8,0.4c-0.1,0,0-0.6-2-0.4c-6.3-1.3-17.8-3.8-23.1-7.2c-1.6-1-5.5-4.5-7.6-5.8c-4.7-4.1-8.7-8.7-12.6-13.6
				c-0.4,1.1-0.7,0.4-1.1-0.9c-0.1-0.2,0.9,0.1-1.1-3.1c0-0.1-1-0.6-1.1-1.1c-0.2-0.7,0.4-0.6-0.3-1.8c-0.2-0.4-0.7-0.3-0.7-0.4
				c-0.1-0.3-0.2-1.7-0.3-2.1c-0.5-1.6-0.9-2.8-1.3-4.4c-0.1-0.3-0.7-1-0.7-1.1c-0.5-2.2-0.9-8.7-1.1-11.5C-4,45.5-5.2,44-4.1,42.5
				c-0.4-2.8,0.2-10.6,0.8-13c0-0.1,0.7-0.8,0.8-1.4c0.1-0.2-0.1-0.9,0-1.1c0.1-0.3,0.7-0.4,0.7-0.4c0-0.1-0.1-1,0.3-2.1
				c0.2-0.5,0.7-0.9,0.7-1c0.3-0.9,0.4-2.2,0.6-2.5c0.2-0.6,0.9-0.8,1.1-1.3c1.8-3.6,3.5-7.3,5.2-10.9c0.4-0.9,2-2,0.6-2.6
				c1.1-0.8,3.5-3.8,3.9-4c0.1,0,0.4,0.3,0.9,0c0.1,0,0.3-0.9,0.7-1.1c0.6-0.3,0.7,0,0.9,0c0.7-0.3,1-1,3.2-1
				c3.4-1.3,6.9-2.8,10-4.5C27.2-4.6,28.2-4.6,29.1-4.6z"/>
			<path class="st2" d="M89.1-0.4c0.2,0.1,0.3,0.3,0.1,0.4C88.9,0.1,88.9-0.4,89.1-0.4z"/>
			<path class="st3" d="M74.1,6.9c-2.1,1.7-3.3,4.7-3.6,4.8c-1.6,0.7-6.4-0.8-8.3-0.3c0-1.6-0.2-1.1-2.1-1c-5.2,1.5-7,1.8-1.6-0.4
				c-3.8-0.5-4.9,1.3-2.8-1c-0.2-0.2-0.2-0.2-0.3-0.4c-2.6,0.4-4.7,2.6-5,2.6c-0.3,0-3.2-2.8-5.5-2.2c1.4,1.5,0.5,0.7-2,1
				c1.7,0.7,1.7,0.7,3.5,1.5c-3.2-0.1-8-2.6-7.1-0.1c-2.2-0.4-6.8,0.9-8.4,0.3c-0.4-0.1-2.1-3.8-4.2-5.2c2.3-0.4,3.7-1.8,4-2
				c0.4-0.2,0.9-0.2,1.3-0.4c0,0,0.3-0.6,0.6-0.7c2-1,9.4-2.1,12.6-3.7C51.7-1.6,58,0.6,64.3,2c2,1.2,4.2,2,6.2,3.1
				C72,5.9,72.2,6.8,74.1,6.9z"/>
			<path class="st3" d="M92.7,50.1c0-0.3-0.1-0.7-0.1-1c0-0.1,0.4-0.8,0.3-1.3c-0.3-1.9-5.1-5.5-1.1-4.1c0.5-0.8-9.1-13.8-12.4-15.1
				c4.1-1.5,7.2-5,8.8-9c0.9,1,0.9,1,1.8,2c3.3,8.3,4.9,14.6,5.5,23.6c-1.1,1.8-0.8,2.3-0.8,2.4c-0.2,0.4-1.2,0.7-1.3,0.8
				C93.2,48.5,94.1,48.9,92.7,50.1z"/>
			<path class="st3" d="M9.5,42.7C9.4,42.5,9.1,42,9,41.8c-0.3-4.6,2.3-15.4,5.5-19.2c1.6,2.6,4.4,5,7.4,5.9
				C16.6,31.8,13,37.7,9.5,42.7z"/>
		</g>
		<g>
			<path class="st4" d="M38,85.3c1.8,1.1,3.7,2.1,5.5,3.4c1.2,0.9,2.4,2,3.2,3.2c-5.1-3.3-12.3-6.6-18.5-6.8
				C31.4,83.8,34.8,84.6,38,85.3z"/>
			<path class="st4" d="M69.5,84.6c0.5,0,1.1,0,1.6,0.1c3.4,0.8-0.3,0.6-2.6,1c-4.8,0.8-10.3,3.8-14.4,6.4
				C57.8,87.4,63.4,84.1,69.5,84.6z"/>
			<g>
				<path class="st4" d="M26.7,6.5c2.1,1.4,3.8,5.1,4.2,5.2c1.6,0.6,6.1-0.7,8.4-0.3c-1-2.5,3.9,0.1,7.1,0.1
					c-1.7-0.7-1.7-0.7-3.5-1.5c2.5-0.3,3.4,0.5,2-1c2.2-0.6,5.1,2.2,5.5,2.2c0.3,0,2.3-2.1,5-2.6c0.2,0.2,0.2,0.2,0.3,0.4
					c-2.1,2.2-1,0.5,2.8,1c-5.4,2.2-3.6,1.8,1.6,0.4c1.9-0.1,2.1-0.7,2.1,1c2-0.5,6.8,1,8.3,0.3c0.3-0.1,1.6-3.1,3.6-4.8
					c4.9-4,14.9-2.5,15.4,4.9c0.2,2.1-0.8,5.7-1.6,7.7c-1.6,4-4.7,7.4-8.8,9c3.4,1.3,13,14.3,12.4,15.1c-4-1.3,0.8,2.2,1.1,4.1
					c0.1,0.5-0.3,1.3-0.3,1.3c-0.7-0.3-0.7-0.3-1.3-0.6c-0.4,0.2,1.3,2.2,1.9,8.2C94.9,74.5,83,80.4,67.6,83.3
					c-6.4,1.2-3.6,0.5,0.1-1.1c-4.4,0.8-10,2.3-13.4,5.4c-3.3,2.9,1.7-0.8,4.2-1.8c2.2-0.9,6.9-2.2,2,0c-3.7,2.5-7.3,5.2-10,8.8
					c-3.3-4-7.4-7.2-11.8-9.8c0.1-0.2,3.3,0.8,3.6,0.9c2.5,1,8.8,5.8,3.1,1c-1.6-0.9-1.6-0.9-3.1-1.8c-3.4-1.5-17.8-5.1-5-0.8
					c0.9,0.5-1.6-0.2-2.8-0.4c-9.9-2-23-5.2-26-16.5c-1.5-5.6-1-13,1.6-18.2c-0.1-0.1-0.1-0.1-0.2-0.2c-3.6,2-0.6-3,1.8-5.3
					c-3.2,0.6-1.9,0.1-2.1-0.5c3.5-5,7.2-10.9,12.4-14.2c-2.9-0.8-5.8-3.3-7.4-5.9c-2.2-3.6-4-10.9-1.4-14.6C15.9,4,23,4,26.7,6.5z"
					/>
				<g>
					<path class="st5" d="M67.6,83.3c-0.6,1.9,1.3,0.4,1.8,1.3c-6.1-0.5-11.6,2.8-15.3,7.5c-2.8,1.8-3.5,3.2-3.8,3.2
						c-0.2,0-2.2-2.5-2.8-3c0,0-0.2,0-0.9-0.4c-0.8-1.3-2-2.3-3.2-3.2c-1.7-1.3-3.6-2.3-5.5-3.4c-2-1.1-3.8-0.3-3.5-1.8
						c1.2,0.2,3.6,1,2.8,0.4c-12.9-4.3,1.5-0.6,5,0.8c1.6,0.9,1.6,0.9,3.1,1.8c5.7,4.8-0.6,0-3.1-1c-0.3-0.1-3.5-1.2-3.6-0.9
						c4.4,2.7,8.5,5.8,11.8,9.8c2.8-3.5,6.4-6.3,10-8.8c4.9-2.2,0.2-0.9-2,0c-2.5,1.1-7.5,4.8-4.2,1.8c3.4-3.1,9-4.6,13.4-5.4
						C64.1,83.9,61.2,84.5,67.6,83.3z"/>
					<path class="st6" d="M79.9,37.3c-1,2.1-1,4.5-2.6,6.4c-0.7-1.2-0.3,0.2-0.1,0.7c-1.5,4-3.1,7.7-7.8,8.2
						c-1.9-0.7,0.8-1.8,0.9-1.8c0.6,0,2.9,2.5,0.5-0.3c0.6-0.5,0.6-0.5,1.2-1.1c1.2,0.6,0.2,0,0.2-0.3c0-0.3,1.7-1.3,1.1-4.9
						c-0.4-2.6-2.8-5.5-2.8-5.9c-0.2-0.9,0.8-1.2-1-2.9c2.4-2.7-2,1.1-0.8-1.7c-1.2,1.2-1.5,0.4-1.9,0.4c-4.9,0.5-8,5.8-7.1,9.9
						c-1.4-0.3-3.2-3.1-3.6-3.2c-1.6-0.5-1,1.6-3.8-2c-0.8,1.4-0.8,1.4-1.6,2.8c-0.4-4-0.3-5.3-1.3-0.7c-0.8-1.2-0.8-1.2-1.6-2.4
						c-2.8,5-2.7,2.4-4,2.5c-0.2,0-2.6,2.8-2.9,3.2c0.5-3.1-0.6-6.7-3.2-8.6c-0.6-0.4-3.6-1.8-3.8-1.8c-0.6,0-0.3,1.5-1.7-0.1
						c0.2,0.5,0.2,0.5,0.3,0.9c-0.5,1.6-4.4-3.1-1.3,0.8c-2.4,1.6-1.1,2.5-1.1,2.8c-0.1,0.5-4.1,4.3-2.7,9c0.4,1.3,1.7,2,0.6,2.3
						c2.4,0.4,1.9,1.1,0.4,2.5c-2.8-1.2-4.9-4.9-4.9-7.9c0-0.9,0.6-2.5-0.7,0.3c-1.3-2.2-1.4-4.7-2-7.1c0-0.1,0-0.1,0-0.1
						c0.9-1.8,1.7-3.7,2.7-5.5c-0.4-0.1-0.4-0.1-0.9-0.3c2.5-4.1,6.9-10.6,10.8-13.4C42.4,12,60,12.2,68.3,19c3.1,2.5,7.7,9,10,12.5
						c-0.4,0.1-0.4,0.1-0.8,0.1C78.4,33.4,79.1,35.4,79.9,37.3z"/>
					<path class="st6" d="M16.7,44.8c-0.9,3.5-1.3,4.9-0.6,8.7c1.2,6.2,6.4,11.9,11.7,15.1c4,2.5,8.7,3.9,12.9,6.1
						c3,1.6,5.6,3.1,7.8,5.8c1.4,1.7,2,3.6,2.2,3.5c0.3-1.3,1.2-3.2,2-4.2c1.8-2.2,5.3-4,7.8-5.2c2.7-1.3,6.5-2.7,9.3-4.1
						c11-5.7,18.6-14.2,14.2-27.3c1.9,3.6,2.5,6,2.3,10.3c-0.4,8.2-5.1,14.2-12.1,18c-7.8,4.3-18.9,4.3-23.5,13.2
						c-7-10.6-18.8-8.5-28.3-16.4C16.5,63.3,14,56.4,15,48.7C15.4,45.8,17.5,41.3,16.7,44.8z"/>
					<path class="st7" d="M84,43.1c4.4,13.1-3.2,21.6-14.2,27.3c-2.8,1.4-6.6,2.8-9.3,4.1c2-1.2,2.9-2.6,4.4-4.1
						c0.5-0.5,1.2-0.8,1.8-1.8c0,0.2-0.1,0.7,0.1,0.8C79.2,63,86.3,55.3,81.3,40.7c-0.2-0.5-0.2-1-0.4-1.4c0.4-0.9-0.8-3.2-0.3-3.5
						c0.9,1.9,1.7,4.6,2.6,6.4C83.7,43.2,83.9,42.9,84,43.1z"/>
					<path class="st7" d="M21.1,37.3c-5.7,13.7-3.2,21.6,8.9,29.6c1.5,1,2.9,1.8,4.4,2.7c0.7,0.4,1.6,0.8,1.9,1
						c1.6,1.1,2.8,2.9,4.5,4.1c-4.2-2.2-8.9-3.6-13-6.1c-5.2-3.2-10.5-8.9-11.7-15.1c-0.8-3.8-0.3-5.2,0.6-8.7c0.9,0.7,3-5.4,4-7.4
						c0-0.1,0.4-0.2,0.4-0.2C21.1,37.3,21.1,37.3,21.1,37.3z"/>
					<g>
						<path class="st8" d="M74.6,23.5c0-1,0-1,0-2c1.3-4.1,3.3-12.4,8.8-12.7c8.2-0.6,3.9,13.1-1.6,16.7c-1.1,0.7-4.8,2.1-4.9,1.5
							c2.9-3,6.2-4.8,0.1-2.3c0.2-0.6,2.8-5.5,2.1-5.5C77.4,20.6,74.4,25,74.6,23.5z"/>
						<path class="st9" d="M74.6,21.5c0,1,0,1,0,2c-0.4-0.3-1.1-2.3-1.1-2.6c-0.2-1.7,1-4.4-0.8-0.6c-0.7-1.8-0.3-3.8,0.6-5.4
							c-0.2,0.1-0.2,0.1-0.4,0.1c-2.5,3.7-2.1,1.9-0.1-1.7c-2.3,1.9-3.4,3.3-1-0.7c1.6-2.7,4.3-5.4,7.5-5.9
							c-0.8,0.5-1.8,1.1-2.5,1.8c-2.7,2.6,0.4,0,3-0.6c2.3-0.5,6.9-0.3,2.1,0.1C75.8,9.9,74.3,15.7,74.6,21.5z"/>
					</g>
					<path class="st9" d="M33.9,77.8c6.9,2.2,12.6,4.6,16.7,10.9c3.4-6,10.3-8.9,16.6-10.7c-5.6,2.7-13.2,5.9-16.6,11.2
						C46.4,83.6,39.8,81,33.9,77.8z"/>
					<path class="st9" d="M23.3,28.7c0,0.2,0,0.2,0.1,0.4c-2.5,2.9-7.2,6.9-2.6,4.6c0.1,0.1,0.1,0.1,0.2,0.2
						c-4.6,3.9-4.6,3.9-9.3,7.7C15.3,37.1,18.3,31.8,23.3,28.7z"/>
					<path class="st9" d="M77.7,28.9c4.7,2.7,7.5,7.7,10.8,11.9c-4.2-3.4-4.2-3.4-8.4-6.9c0-0.5,2.2,0.7,2.3,0.4
						C80,31.6,80,31.6,77.7,28.9z"/>
					<path class="st9" d="M87.8,45.5c4.6,5.8,4.1,13.2-0.3,19C90.6,58.6,90.1,51.6,87.8,45.5z"/>
					<path class="st5" d="M89.1,70.6c-3.3,5.4-11.6,9.9-17.9,10.2c5.3-2.1,14.4-5.3,17.2-10.6C88.6,70.4,88.7,70.9,89.1,70.6z"/>
					<path class="st9" d="M13.2,45.8c-2.5,5.9-2.2,12.6,0.3,18.4C9.5,59,8.6,50.9,13.2,45.8z"/>
					<path class="st5" d="M23.8,78.4c-0.4,0.1-0.3,0.4-0.4,0.8c-4.8-1.9-10.3-5.2-12.4-10.1c0.2,0,0.5-0.3,0.5-0.3
						c0.3-0.1,0.4,0.7,0.4-0.3C13,73.1,19.8,76.6,23.8,78.4z"/>
					<path class="st10" d="M80.9,39.3c0.2,0.5,0.3,1,0.4,1.4c-0.8,1.8-1.3,3.6-3.4,4.1c0-0.1-0.5-1.1-0.6-1.1
						c1.5-1.8,1.5-4.3,2.6-6.4C80.2,37.9,80.7,38.7,80.9,39.3z"/>
					<path class="st9" d="M89.1,70.6c-0.4,0.3-0.5-0.2-0.7-0.4c2-3.9,0.6-1.8-1.1-0.4c-3.3,2.9,1-1.3,2.3-3.8c0.3-0.6,1-2.1,1.3-2.7
						c0.8-2.1,1.2-4.9,0.7,0.1C91.4,66.2,90.6,68.3,89.1,70.6z"/>
					<path class="st9" d="M11.7,68.6c0,1-0.1,0.2-0.4,0.3c0,0-0.3,0.2-0.5,0.3c-1.1-2.6-1.7-5.7-1.5-8.5c0.4,1.6,0.9,3.2,1.6,4.7
						c1.4,2.8,5.9,7.6,0.6,2.5C11.6,67.9,11.7,68.4,11.7,68.6z"/>
					<path class="st9" d="M23.8,78.4c1.9,0.8,3.9,1.5,5.8,2.2c-2.3,0.4-4.2-0.5-6.2-1.3C23.5,78.8,23.4,78.5,23.8,78.4z"/>
					<path class="st11" d="M84.1,40.6c2.6,1.2,5.1,2.9,6.3,5.6C87.3,43.4,87.3,43.4,84.1,40.6z"/>
					<path class="st12" d="M16.2,40.7c0.1,0.1,0.1,0.1,0.2,0.2c-2.1,1.5-4,3.4-5.6,5.5C11.6,43.7,13.9,42.2,16.2,40.7z"/>
					<path class="st5" d="M69.5,13.4c0.8-0.2-0.3,0.9-1,2.1c-0.2-1.7-1.7-0.6-4.2-1.3C66.1,14,67.9,14.1,69.5,13.4z"/>
					<path class="st9" d="M63.7,12.4c0.7,0,2.7,0.2,1,0.7C62.2,13.8,57.4,13.5,63.7,12.4z"/>
					<path class="st11" d="M35.3,12.6c6.5,0.3,5.8,1-0.6,0.4C34.2,12.5,34.8,12.9,35.3,12.6z"/>
					<path class="st5" d="M31.9,13.6C34,14,34,14,36.2,14.3C33.5,14,32.3,15.5,31.9,13.6z"/>
					<path class="st12" d="M41,12.1c1.6,0.2,1.6,0.2,3.2,0.4C43.2,13,41.7,13,41,12.1z"/>
					<path class="st13" d="M32.6,15.6c0.1,0,0.1,0,0.2,0.1C31.4,18,30.3,16.2,32.6,15.6z"/>
					<path class="st14" d="M59.2,12.1c3.5-0.4-1.7,0.9-1.8,0.6C57.4,12.7,59.1,12.2,59.2,12.1z"/>
					<path class="st15" d="M32.7,14.8c0.2,0.1,0.2,0.1,0.3,0.2C33.2,15.7,32.6,15.2,32.7,14.8z"/>
					<g>
						<path class="st8" d="M16.2,8.8c7.3-1.2,10.1,10.7,9.5,16.1c-4.1-5.4-6.4-8.1-2.3-0.4c-1.7-0.5-1.7-0.5-3.4-1
							c1.7,1.4,7.3,5.5,1.2,3.3C14.1,24.2,10.2,9.8,16.2,8.8z"/>
						<path class="st9" d="M26.9,22.9c-0.1-0.1-0.1-0.1-0.3-0.1c0.2-6.6-0.3-11.9-7.1-14.7c-5.8-0.6,2.1-1.5,5.9,1.7
							c-0.4-1.3-5.5-4.6-1.1-2.4c2.3,1.1,5.8,5.1,6.1,7.6c-4.2-4.1-0.8-0.7-0.1,1.8c-4.3-4.7-0.4,0.1-1.3,2.7
							c-0.1,0.1-0.1,0.1-0.2,0.2C26.4,16.8,28.9,18.3,26.9,22.9z"/>
						<path class="st16" d="M26.9,22.9c-0.3,0.7-0.3,0.9-0.3-0.1C26.7,22.8,26.7,22.8,26.9,22.9z"/>
					</g>
					<path class="st17" d="M23,44.4c-4.2,8.9,3.1,13.5,7.5,17.4c-0.5,1.1-1.3-0.5-1.3,0.3c2.9,2.4,2.9,2.4,5.7,4.9
						c0.8-0.6-0.8-2-2-3.2c0.9,0.5,1.7,1.6,2.4,2.3c0.1,1,0,1.6-0.3,2.4c-2-0.8-3.8-2.1-5.6-3.4c-0.9,0,0.3,0.4,0.5,1.8
						c-12.1-8-14.6-15.8-8.9-29.6C21.6,39.7,21.8,42.3,23,44.4z"/>
					<path class="st17" d="M67.9,61c-1.3-0.2-1.3-0.2-2.7-0.4c0.3-1.1,0.3-1.7,0.4-2.8c0.3-4.1-0.4-4.8-0.3-5.1c1.2,0,2.5,0.1,3.7,0
						c0.2,0,0.3,0.3,0.3,0.3c0.1,0,0.1-0.3,0.1-0.3c4.7-0.5,6.3-4.2,7.8-8.2c0.2,0.6,0.6,1.3,0.7,1.9C79,53.9,72.9,57,67.9,61z"/>
					<path class="st17" d="M28.7,52.1c0.1,0,0.2,0,0.3,0c0.7,0.3,1.8,0.7,2.5,0.7c0.4,0,0.2,0,0.6-0.1c0.5,0.1,2.3-0.2,2.3-0.4
						c0.5,0.1,1.2,0.1,1.3,0.3c0,0.1-0.3,0.9-0.3,1.8c0,2.9,0,5,1.1,7.8c-0.5,0.1-0.5-1-0.6-1.1c-0.1-0.2-3.6-1.8-4-1.1
						c-5.2-4.5-11.4-7.4-8.2-15.8C23.8,47.1,25.9,50.8,28.7,52.1z"/>
					<path class="st7" d="M23.8,44.1c-3.2,8.4,3,11.4,8.2,15.9c1.5,1.2,4.1,3.3,5.1,4.2c0.5,0.5,0.4,0.7,0.4,0.7
						c-0.2,1.6-4-2.2-5.5-2.1c-0.4-0.3-1-0.7-1.4-1C26.1,58,18.8,53.3,23,44.4C24.4,41.7,23.8,43.2,23.8,44.1z"/>
					<path class="st7" d="M77.4,43.7c0,0,0.5,1.1,0.6,1.1c2.3,5.6,0.7,9.9-3.5,13.9c-2.2,2.1-5,3.6-7.2,5.7c-1-0.6-2.5,0.9-3.2,0
						c0.1-0.2,0.3-0.5,0.4-0.7c0.8,0.1,2.6-1.9,3.5-2.7C73,57,79,53.9,78,46.3c-0.1-0.6-0.5-1.3-0.7-1.9
						C77.1,43.9,76.7,42.5,77.4,43.7z"/>
					<path class="st18" d="M45.8,76c2.4,1.7,1.5,0.7,1.3-0.6c-0.1-0.5-0.3-1.1-0.3-1.6c0.3-0.2,0.5,0.1,0.6,0.1
						c0.4,0.7,0.7,1.4,1,2.1c-1,1.4,0.6,3.1,0.1,4.5c-2.2-2.7-4.8-4.2-7.8-5.8c-1.6-1.2-2.8-3-4.5-4.1c-0.3-0.2-1.3-0.6-1.9-1
						c0.5,0,0.6-0.7,0.7-1.1c0.2-0.8,0.4-1.4,0.3-2.4C37.2,67.9,44.5,75.1,45.8,76z"/>
					<path class="st18" d="M64.9,70.4c-1.5,1.6-2.4,2.9-4.4,4.1c-2.5,1.2-6,3-7.8,5.2c0.3-1.3,1.2-2.4,1.8-3.5
						c0,0.1,0.1,0.2,0.2,0.1c0.3-0.2,3.3-2.8,3.9-3.4c0.8,0.8,4.6-3.7,5.2-5.1c0.1-0.1,0.2-0.2,0.3-0.3C64.6,69,64.6,69,64.9,70.4z"
						/>
					<path class="st18" d="M55.7,74.1c-0.4,0.5-0.8,1.5-1.1,2.1c-0.7,1.1-1.5,2.2-1.8,3.5c-0.8,1.1-1.8,2.9-2,4.2
						c-0.2,0.1-0.8-1.8-2.2-3.5c0.5-1.5-1.2-3.2-0.1-4.5c0.7,1.7,1.2,3.5,2,5.2c0.1,0.2,0.2,0.7,0.3,0.7c0.3,0,1.7-4.2,1.9-4.7
						c0.2-0.8,0.1-2.7,0.9-1.1C54.4,75.3,55.3,73.6,55.7,74.1z"/>
					<path class="st17" d="M66.8,68.6c0,0,0.3-0.2,0.1-0.8c0-0.1-0.8-0.8-0.7-1.3c0.1-0.7,8.5-5.9,8.2-7.8c4.2-3.9,5.9-8.3,3.5-13.9
						c2.1-0.5,2.6-2.3,3.4-4.1c4.9,14.6-2.2,22.2-14.5,28.7C66.7,69.3,66.8,68.8,66.8,68.6z"/>
					<path class="st19" d="M66.8,68.6c-0.6,1-1.4,1.3-1.8,1.8c-0.3-1.4-0.3-1.4-0.7-2.8c0.6-0.6,1.9-2.3,3-3.2c2.2-2,5-3.6,7.2-5.7
						c0.3,1.9-8.1,7.1-8.2,7.9c-0.1,0.5,0.7,1.2,0.7,1.3C67.1,68.4,66.8,68.6,66.8,68.6z"/>
					<path class="st19" d="M35.1,68.5c-0.1,0.4-0.2,1.1-0.7,1.1c-1.5-0.9-2.9-1.7-4.4-2.7c-0.2-1.4-1.4-1.8-0.5-1.8
						C31.2,66.3,33,67.6,35.1,68.5z"/>
					<path class="st20" d="M37.5,64.9c2.2,2.2,5.4,6.4,10.1,7.6c6.3,1.7,12.9-3.2,16.3-8.2c0.8,0.9,2.3-0.6,3.3,0
						c-1,0.9-2.4,2.7-3,3.2c-0.1,0.1-0.2,0.2-0.3,0.3c-1.8,1.7-3.5,3.4-5.2,5.1c-0.6,0.6-3.6,3.2-3.9,3.4c-0.1,0.1-0.2,0-0.2-0.1
						c0.4-0.6,0.7-1.6,1.1-2.1c0.5-0.7,2.8-2.6,1.9-2.4c-1.9,2.6-5.9,2.6-8.8,2.4c-0.1,0-0.2-0.3-1.4-0.3c-0.1,0-0.3-0.3-0.6-0.1
						c0,0.6,0.2,1.1,0.3,1.6c-0.5,0.4-1.2-1.9-2-2.6c-2.8-1.4-0.5,0.4,0.8,3.1c-1.3-0.9-8.7-8.1-10.5-9.9c-0.7-0.7-1.5-1.8-2.4-2.3
						c-0.3-0.3-0.6-0.7-1-1C33.5,62.7,37.2,66.5,37.5,64.9z"/>
					<path class="st17" d="M30.5,61.8c0.4,0.3,1,0.7,1.4,1c0.4,0.3,0.7,0.7,1,1c1.3,1.3,2.9,2.7,2,3.2c-2.9-2.4-2.9-2.4-5.7-4.9
						C29.2,61.3,30,62.9,30.5,61.8z"/>
					<path class="st19" d="M67.9,61c-0.9,0.8-2.8,2.7-3.5,2.7c0.2-0.3,0.5-0.8,0.1-0.8c0.4-0.7,0.5-1.5,0.7-2.3
						C66.6,60.8,66.6,60.8,67.9,61z"/>
					<path class="st9" d="M69,52.6c-1.2,0.1-2.5,0-3.7,0C65.4,52.4,68.5,51.5,69,52.6z"/>
					<path class="st21" d="M36.5,62.1c0.2,0.5,0.4,1.1,0.7,1.6c-0.1,0.3-0.1,0.3-0.1,0.6c-1-1-3.6-3-5.1-4.2c0.3-0.8,3.8,0.9,4,1.1
						C36,61.1,36,62.2,36.5,62.1z"/>
					<path class="st6" d="M31.5,52.8c-0.8,0-1.8-0.4-2.5-0.7c1.7-1.7,1.4-1,3.4-0.2C32,52.3,32,52.3,31.5,52.8z"/>
					<path class="st9" d="M34.4,52.2c0.1,0.2-1.8,0.5-2.3,0.4C32.9,52.2,32.3,51.7,34.4,52.2z"/>
					<path class="st7" d="M48.8,74.1c0.7,2.3,1.3,4.7,1.6,7.1c-0.7-1.7-1.2-3.5-2-5.2c-0.3-0.7-0.6-1.4-1-2.1
						C48.6,73.9,48.7,74.1,48.8,74.1z"/>
					<path class="st22" d="M47.1,75.4c0.3,1.3,1.2,2.3-1.3,0.6c-1.3-2.7-3.6-4.6-0.8-3.1C45.9,73.5,46.6,75.8,47.1,75.4z"/>
					<path class="st22" d="M58.7,73c1.8-1.7,3.5-3.4,5.2-5.1C63.3,69.3,59.5,73.8,58.7,73z"/>
					<path class="st22" d="M55.7,74.1c-0.5-0.6-1.3,1.2-2.2,2c-0.8-1.6-0.7,0.3-0.9,1.1c-0.2,0.5-1.7,4.8-1.9,4.7
						c-0.1,0-0.2-0.5-0.3-0.7c-0.2-2.4-0.8-4.8-1.6-7.1c2.9,0.2,7,0.2,8.8-2.4C58.5,71.5,56.2,73.5,55.7,74.1z"/>
					<g>
						<path class="st9" d="M59.8,44c0.1,0.3,2.2,2.5,3.1,5c0.6,1.7,1,3.8,1.1,5.7c0.3,7.9-3.6,12.9-11.9,11.8c0-0.3,0-0.3,0.1-0.6
							c4.8,2.1,6.5-2.8,6.3-6.7c-0.6-12-15.7-12-16,0C42.5,63,44,68,48.7,65.6c0,0.4,0,0.4,0.1,0.8c-0.5,0.9-12.6,1.2-11.9-12.1
							c0.1-1.4,0.7-4.2,1.3-5.5c0.7-1.7,1.8-3.1,3-4.5c0.3-0.4,2.7-3.2,2.9-3.2c1.2-0.2,1.1,2.5,4-2.5c0.8,1.2,0.8,1.2,1.6,2.4
							c1-4.5,0.9-3.3,1.3,0.7c0.8-1.4,0.8-1.4,1.6-2.8c2.8,3.6,2.2,1.5,3.8,2C56.7,40.9,58.4,43.7,59.8,44z"/>
						<path class="st23" d="M73.4,44.1c0.5,3.5-1.1,4.6-1.1,4.9c0,0.3,1,1-0.2,0.3c-0.6,0.5-0.6,0.5-1.2,1.1
							c2.4,2.9,0.1,0.3-0.5,0.3c-0.2,0-2.8,1.1-0.9,1.8c0,0,0.1,0.3-0.1,0.3c-0.1,0-0.2-0.3-0.3-0.3c-0.5-1.2-3.6-0.2-3.7,0
							c-0.1,0.2,0.6,1,0.3,5.1c-0.7-0.8-0.8-2.6-1.6-3.1c-0.1-1.8-0.5-3.9-1.1-5.7c0.4,0.1,0.5-0.4,0.7-0.6c1-0.6,6.6-2,7.2-5.9
							C72.4,42.8,72.4,44.8,73.4,44.1z"/>
						<path class="st23" d="M66.9,34.1c0.5,0.4,2.6,1.8,2.7,1.3c1.8,1.7,0.8,2,1,2.9c0.1,0.4,2.4,3.2,2.8,5.9c-1,0.7-1-1.3-2.6-1.7
							c0.6-4.1-5-8.2-7.8-4c-2,3,0.8,6.6,0.6,10C63.4,48.5,63.4,49,63,49c-0.9-2.5-3-4.7-3.1-5C58.9,39.9,62,34.6,66.9,34.1z"/>
						<path class="st7" d="M69.6,35.4c-0.1,0.5-2.2-0.9-2.7-1.3c0.4,0,0.7,0.8,1.9-0.4C67.6,36.4,72,32.7,69.6,35.4z"/>
						<path class="st13" d="M58.6,59.1c-5.8,0.3-7.6,3.1-8,3.1c-0.4,0-2-2.6-8-3.1C42.9,47.1,58,47.1,58.6,59.1z"/>
						<path class="st11" d="M64.4,63.7c-0.1,0.2-0.3,0.5-0.4,0.7c-3.4,5.1-10,9.9-16.3,8.2c-4.8-1.2-7.9-5.4-10.1-7.6
							c0,0,0.1-0.2-0.4-0.7c0.1-0.3,0.1-0.3,0.1-0.6c2,3.2,5.6,4,5.9,4.2c0.3,0.2,1.3,3.1,5.4,3.8c6.7,1.3,8.9-3.5,9.3-3.8
							c0.3-0.3,4.8-1.2,6.7-5.1C64.8,62.9,64.5,63.3,64.4,63.7z"/>
						<g>
							<path class="st20" d="M36.9,54.3c-0.7,13.3,11.4,13,11.9,12.1c0-0.4,0-0.4-0.1-0.8c-4.7,2.3-6.3-2.6-6.2-6.5
								c6,0.5,7.6,3.2,8,3.1s2.2-2.8,8-3.1c0.2,3.8-1.5,8.8-6.3,6.7c0,0.3,0,0.3-0.1,0.6c8.3,1.1,12.2-3.9,11.9-11.8
								c0.8,0.5,0.8,2.3,1.6,3.1c-0.1,1.2-0.2,1.7-0.4,2.8c-0.2,0.8-0.3,1.5-0.7,2.3c-1.9,3.9-6.4,4.8-6.7,5.1
								c-0.4,0.3-2.6,5.1-9.3,3.8c-4-0.8-5.1-3.6-5.4-3.8c-0.3-0.2-3.8-1-5.9-4.2c-0.3-0.5-0.5-1-0.7-1.6c-1.1-2.8-1.2-4.9-1.1-7.8
								C36.1,54.3,36.1,54.3,36.9,54.3z"/>
							<path class="st24" d="M50.4,68.2c0.6,0,3,0.5,5,0.3c-2,1.8-4.7,2.2-7.3,1.6c-4.8-2.3-2.8-1.4,0.4-1.6
								C49,68.6,50.2,68.2,50.4,68.2z"/>
						</g>
						<g>
							<path class="st23" d="M41.2,44.3c-1.2,1.4-2.3,2.8-3,4.5c-0.7,0.5-0.6-0.2-0.8-0.3c0.1-4.5,2.8-6.7,1-9.8
								c-2.8-4.9-9.7,0.2-7.5,5.2c-1.6,0.7-2.3,3.3-3.1,3.4c-1.4-4.7,2.6-8.5,2.7-9c0-0.3-1.2-1.2,1.1-2.8c-3.1-3.9,0.8,0.7,1.3-0.8
								c-0.2-0.5-0.2-0.5-0.3-0.9c1.4,1.6,1.1,0.2,1.7,0.1c0.2,0,3.2,1.4,3.8,1.8C40.6,37.6,41.7,41.1,41.2,44.3z"/>
							<path class="st23" d="M30.8,43.8c1.2,2.7,4.2,3.3,6.5,4.7c0.2,0.1,0.2,0.8,0.8,0.3c-0.5,1.3-1.2,4.1-1.3,5.5
								c-0.8,0-0.8,0-1.6,0c0-0.9,0.3-1.7,0.3-1.8c-0.1-0.2-0.8-0.2-1.3-0.3c-2-0.5-1.4,0-2.3,0.4c-0.4,0.2-0.1,0.2-0.6,0.1
								c0.4-0.5,0.4-0.5,0.8-0.9c-2-0.8-1.7-1.5-3.4,0.2c-0.1,0-0.2,0-0.3,0c1.4-1.4,2-2.1-0.4-2.5c1.1-0.4-0.2-1-0.6-2.3
								C28.5,47.1,29.2,44.6,30.8,43.8z"/>
							<g>
								<path class="st20" d="M37.3,48.5c-2.3-1.3-5.3-2-6.5-4.7c-2.2-5,4.7-10.1,7.5-5.2C40.2,41.9,37.5,44.1,37.3,48.5z"/>
								<path class="st5" d="M34.3,37.8c2.6-0.5,4.3,2.3,3.9,4.6c-0.5,0.9-0.2-0.4-0.4-1.3c-1.5-4.7-6.2-2.7-4.7,2.8
									C30.8,42.4,32.3,38.2,34.3,37.8z"/>
								<path class="st25" d="M35.3,39c0.5,0.2,0.5,0.2,0.9,0.5C36.4,42.3,32.8,40.1,35.3,39z"/>
							</g>
						</g>
						<g>
							<path class="st20" d="M70.9,42.4c-0.6,3.9-6.2,5.4-7.2,5.9c0.2-3.3-2.6-6.9-0.6-10C65.9,34.2,71.5,38.3,70.9,42.4z"/>
							<path class="st5" d="M65.6,37.8c3.1-0.6,5,3.7,2.6,5.7c1.3-5.8-3.7-6.5-4.7-1.9c-0.2,0.7,0.3,2-0.3,1.1
								C62.5,41,63.8,38.1,65.6,37.8z"/>
							<path class="st25" d="M65.8,39.2c3,0.2-0.2,3.4-0.5,0.3C65.6,39.4,65.6,39.4,65.8,39.2z"/>
						</g>
					</g>
				</g>
			</g>
		</g>
	</g>
	<g>
		<g id="Background_00000163038935156652319490000005392480180167497357_" class="st0">
			<path class="st26" d="M25.4,95.4c0-24.4,0-24.4,0-48.8c25.1,0,25.1,0,50.2,0c0,24.4,0,24.4,0,48.8C50.5,95.4,50.5,95.4,25.4,95.4
				z"/>
			<path class="st27" d="M75.6,95.4c0,0.7,0,0.7,0,1.4c-25.1,0-25.1,0-50.2,0c0-0.7,0-0.7,0-1.4C50.5,95.4,50.5,95.4,75.6,95.4z"/>
		</g>
		<g>
			<g>
				<path class="st28" d="M66.6,62.2c4.8,0.4,6.2,6.8,3.8,10.9c-1,1.7-3,3.3-4.9,3.9c-0.5,0.2-1.1,0.2-1.6,0.3c-1,0.1-2,0-3-0.2
					c-3.3-0.9-8.4-5.7-10.3-8.6c-2.5,4-7.8,9.1-12.8,8.9c-0.6,0-1.3-0.1-1.9-0.3c-1.5-0.4-3.4-1.8-4.4-3c-3.8-4.5-1.9-11.2,2.8-11.7
					c1-0.1,1.9,0,2.8,0.4c0.3,0.2,0.8,0.5,1,0.8c1,1.2,0,0.3-0.9,0.2c-4.3-0.6-5.3,5.1-0.6,4.3c3.1-0.5,5.8-6.1,10.4-5.8
					c2.7,0.1,3.5,2.2,3.7,2.2c0.3,0,1-2.5,4.7-2.2c3.8,0.3,6.5,5.1,9.1,5.8c2.8,0.7,4.3-1.3,2.8-3.2c-1.1-1.3-3.2-1.3-4.5-0.5
					C63.5,62.7,64.8,62,66.6,62.2z"/>
				<g>
					<g>
						<path class="st29" d="M60.3,66.5C60.3,66.6,60.3,66.6,60.3,66.5c-0.1,0-0.3-0.1-0.4-0.1c-0.7-0.5-1.5-1-2.4-1.3
							c0,0,0,0-0.1,0.1c0.4,0.2,1.5,1.2,0.4,0.8c-0.1-0.1-1.2-0.9-1.3-1c-0.1,0-1.1-0.2-1.3-0.4c1.3,0,2.8,0.4,3.9,1
							C59.8,66,60.3,66.5,60.3,66.5z"/>
						<path class="st29" d="M58.3,64.5c0,0.1,0,0.1-0.1,0.2c-1.9-0.7-3.3-0.8-5.2-0.4c-0.7,0.1-0.8,0.1,0-0.2
							C54.7,63.5,56.5,63.9,58.3,64.5z"/>
						<path class="st29" d="M66.3,63C66.6,63,66.5,63.2,66.3,63C66.3,63,66.3,63,66.3,63z"/>
						<path class="st29" d="M52.8,63.9c-0.5,0.2-1,0.3-1.5,0.5c1.6-1.3,3.9-1.5,5.9-1c0.2,0.3-1.2-0.1-1.5-0.1
							C53.7,63.1,53.6,63.6,52.8,63.9z"/>
						<path class="st28" d="M54.6,64.7c0.2,0,1.3,0.2,0.7,0.3c-0.4,0.1-1.2,0-1.7,0.1c-0.5,0.1-1.6,0.4-1.2,0.1
							C53,64.8,53.9,64.6,54.6,64.7z"/>
						<path class="st30" d="M55.4,65.1c0.8-0.1,1.8,0.7,2.3,1.2c0,0,0,0,0,0.1c-0.7-0.5-1.6-1-2.5-1.1C55.2,65,55.2,65.1,55.4,65.1z
							"/>
						<g>
							<path class="st30" d="M58.3,64.5c-1.7-0.6-3.6-1-5.4-0.4c-0.1-0.1-0.1-0.1-0.2-0.2c0.8-0.3,1-0.8,2.9-0.6
								c0.2,0,1.7,0.4,1.5,0.1c-2-0.5-4.2-0.3-5.9,1c-0.2,0,0-0.2,0-0.2c0.1-0.2,0.5-0.6,0.7-0.8c2.6-2.3,6.2,0,8.2,1.9
								C59.5,65,58.9,64.8,58.3,64.5z"/>
							<path class="st30" d="M58.2,64.7c2,0.7,3.6,2.4,5.5,3.4c0.4,0.2,1.8,0.7,0.3,0.3c-1.4-0.3-2.5-1.2-3.7-1.9
								c-0.1,0-0.6-0.6-1.2-0.9c-1.1-0.6-2.6-1-3.9-1c0.2,0.1,1.3,0.3,1.3,0.4c0.1,0.1,1.2,0.8,1.3,1c0.3,0.3,1.1,1.4,1.3,1.7
								c0.3,0.7,0.6,1.8-0.1,0.3c-0.5-0.7-0.7-1.1-1.4-1.6c0,0,0,0,0-0.1c-0.5-0.6-1.5-1.3-2.3-1.2c0-0.1,0-0.1-0.1-0.2
								c0.6-0.1-0.5-0.3-0.7-0.3c0.1-0.2-0.2-0.2-0.4-0.2c-0.7-0.1-1.3,0.2-1.3-0.2C54.9,63.9,56.3,64,58.2,64.7z"/>
							<path class="st30" d="M60.3,66.6c1.9,1.3,4.2,3.4,7.1,2.1c0.6,0.4-1,0.7-1.3,0.8c-3.2,0.4-4.4-1.7-6.1-3
								C60,66.5,60.2,66.6,60.3,66.6z"/>
							<path class="st30" d="M51.3,64.1c0,0.1-0.2,0.3,0,0.2c0.5-0.2,1-0.3,1.5-0.5c0.1,0.1,0.1,0.1,0.2,0.2c-0.7,0.2-0.6,0.2,0,0.2
								c0,0.4,0.6,0.1,1.3,0.2c0.2,0,0.4,0,0.4,0.2c-0.8,0-1.6,0.1-2.2,0.5c-0.4,0.3,0.7-0.1,1.2-0.1c0.6-0.1,1.3-0.1,1.7-0.1
								c0,0.1,0,0.1,0.1,0.2c-0.2,0-0.2-0.1-0.2,0.2c-0.3,0-0.9-0.1-1.2-0.1c-0.8,0.1,0.7,0.1,0.8,0.1c0.9,0.1,1.8,0.6,2.5,1.1
								c0.6,0.4,1.2,1.1,1.7,1.5c0.7,1.5,0.4,0.3,0.1-0.3c-0.2-0.4-1-1.4-1.3-1.7c1.1,0.4,0-0.5-0.4-0.8c0,0,0,0,0.1-0.1
								c0.8,0.3,1.7,0.8,2.4,1.3c1.7,1.4,2.8,3.4,6.1,3c0.4,0,2-0.4,1.3-0.8c2.5-1.2,2.5-4.8-0.8-5.5c0-0.1,0-0.1-0.1-0.1
								c2.3-0.1,3.7,2.4,4.1,4.4c0.6,3.6-1.7,7.2-5.2,8.3c-6.5,2-10.7-4.4-14.7-8.3C50.9,66.3,50.4,64.8,51.3,64.1z"/>
						</g>
						<g>
							<path class="st28" d="M69.2,68.2c-1.4,3.8-5.1,3.9-7.5,0.8C64.2,71.1,67.5,71.1,69.2,68.2z"/>
							<path class="st28" d="M61.7,72.3c0.4,1.7,1.3,3.1,3.3,3.2C62.8,75.9,61.6,74.4,61.7,72.3z"/>
							<path class="st28" d="M62.2,71.2c1,1.2,2.6,2.1,4.2,1.3c0,0,0,0,0.1,0.1C64.9,73.9,63,72.9,62.2,71.2z"/>
							<path class="st28" d="M55.2,65.3c0.9,0.1,1.8,0.5,2.5,1.1c0.7,0.5,0.9,0.9,1.4,1.6c-0.6-0.4-1.1-1.1-1.7-1.5
								c-0.7-0.5-1.6-1-2.5-1.1c-0.1,0-1.6,0-0.8-0.1C54.3,65.2,54.9,65.3,55.2,65.3z"/>
							<path class="st28" d="M54.9,67.1c0.3,0.2,0.9,1,1,1.3c-0.6-0.8-2.1-1.6-3.1-1.8C53.5,66.5,54.3,66.7,54.9,67.1z"/>
							<path class="st28" d="M57.9,69.7c0.2,0.2,1.4,3.2,1.3,3.3C59,73.1,57.8,70,57.9,69.7z"/>
							<path class="st28" d="M52.2,67.4c1.1,0.3,2.2,1.1,2.7,2.1C54,68.7,53.2,67.9,52.2,67.4z"/>
							<path class="st28" d="M53.1,65.8c0.8,0,1.7,0.2,2.3,0.7C56.7,67.6,54.3,66,53.1,65.8z"/>
						</g>
					</g>
					<g>
						<path class="st29" d="M46.7,64.2c0.2,0,0.4,0,0.6,0.1c1.7,0.3-0.6,0.2-1,0.2c-1.4,0.1-2.5,0.1-3.7,0.8c0-0.1,0-0.1,0-0.2
							C43.8,64.5,45.3,64.1,46.7,64.2z"/>
						<path class="st29" d="M42.7,67c-0.1,0-0.1,0-0.2-0.1c0.8-1.5-0.1-0.2-0.5,0c-0.9,0.5,1.5-1.5,1.6-1.6c0,0,0.2,0.1,0.2-0.1
							c-0.1-0.1-0.1,0.1-0.2,0.1c-0.6,0.2-2.3,1.4-2.4,1.5c0,0-0.1-0.1-0.1-0.1c1.3-0.9,2.1-1.5,3.8-2.1c0.1,0,0.1,0,0.1,0.1
							C45,65,44,64.7,42.7,67z"/>
						<path class="st28" d="M46.9,63.7c-1.8-0.4-3,0-4.6,0.8c0,0,0-0.1,0.2-0.2c0.7-0.5,2.2-1.1,3.1-1.1c0.9,0,2.1,0.6,3,0.9
							C48.8,64.5,47.8,63.9,46.9,63.7z"/>
						<path class="st29" d="M43.8,66.2c0.7-0.6,1.5-1.1,2.4-1.3c0.8-0.1,1,0,1.7,0.2c0,0.1,0,0.1,0,0.2c-1-0.1-2.1,0-3,0.4
							C44.5,65.8,43.7,66.4,43.8,66.2z"/>
						<g>
							<path class="st30" d="M46.2,62.4c0,0.2,0.2,0.1,0.2,0.4c-0.1,0.6-0.8,0.3-0.8,0.5c-0.9,0-2.4,0.6-3.1,1.1
								c-0.2,0.1-0.2,0.2-0.2,0.2c0,0-0.1,0-0.2,0.1c0.1,0.1,0.1-0.1,0.2-0.1c1.6-0.8,2.8-1.2,4.6-0.8c0,0.2-0.3,0.2-0.2,0.4
								c-1.4-0.1-2.9,0.3-4.2,0.9c-2.1,1.1-3.8,3.1-6.3,3.4C40,67.3,42.4,62.5,46.2,62.4z"/>
							<path class="st30" d="M46.2,64.9c-0.9,0.2-1.7,0.7-2.4,1.3c-0.7,0.6-0.8,0.9-1.3,1.7c-0.1,0.2-0.3,0.6-0.4,0.7
								c-0.1,0.1-0.3,0.3-0.2,0.1c0.4-0.5,0.5-1.1,0.8-1.6C44,64.7,45,65,45,64.8c-0.1,0-0.1,0-0.1-0.1c-1.7,0.5-2.5,1.1-3.8,2.1
								c-2,1.4-3.5,3-6.2,2.8c-0.6-0.1-2.4-0.6-2-1.3c1,0.9,2.6,1,3.8,0.7c2.3-0.6,4.4-3,5.8-3.7c1.3-0.7,2.3-0.7,3.7-0.8
								C46.2,64.7,46.2,64.7,46.2,64.9z"/>
							<path class="st30" d="M32.8,68.2c-0.4,0.7,1.5,1.2,2,1.3c2.7,0.3,4.2-1.4,6.2-2.8c0,0,0.1,0.1,0.1,0.1c0.1,0,1.8-1.2,2.4-1.5
								c-0.1,0.1-2.6,2-1.6,1.6c0.4-0.2,1.2-1.5,0.5,0c0.1,0,0.1,0,0.2,0.1c-0.3,0.5-0.5,1.1-0.8,1.6c0,0.2,0.2,0,0.2-0.1
								c0.6-0.3,1.1-1,1.7-1.4c0.1-0.4-1.1,0.7-1.3,0.7c0.5-0.8,0.5-1,1.3-1.7c0,0.2,0.7-0.3,1.2-0.5c0.9-0.4,2-0.5,3-0.4
								c0-0.1,0-0.1,0-0.2c-0.7-0.2-1-0.3-1.7-0.2c0-0.2,0-0.2,0-0.4c0.4,0,2.8,0.1,1-0.2c-0.2,0-0.4,0-0.6-0.1
								c-0.1-0.2,0.2-0.2,0.2-0.4c0.9,0.2,1.9,0.7,1.6,0.4c-0.9-0.3-2-0.9-3-0.9c0-0.2,0.8,0.1,0.8-0.5c0-0.3-0.2-0.1-0.2-0.4
								c1.4,0,3.8,0.9,4.1,2.5c0.1,0.5,0,2-0.2,2.5c-0.1,0.4-2.1,2.6-2.5,3.1c-2.7,2.9-6.2,5.8-10.4,5.5c-4-0.3-7.4-4.5-6.8-8.5
								c0.2-1.9,1.5-4,3.5-4.4c1.5-0.2,0.2,0.1-0.2,0.3C31.4,64.5,31.4,67,32.8,68.2z"/>
						</g>
						<g>
							<path class="st28" d="M31.5,68c1.6,3.4,5.3,3,7.8,0.7c0.1,0,0.1,0,0.1,0C36.8,71.9,32.9,72.6,31.5,68z"/>
							<path class="st28" d="M38.7,71.6c-1.1,1.6-3,2.2-4.7,1.1c0,0,0,0,0-0.1C35.7,73.2,37.4,72.7,38.7,71.6z"/>
							<path class="st28" d="M44.7,68.5c0,1.7-1,3-2.5,3.8C43.3,71.2,44.2,70,44.7,68.5z"/>
							<path class="st28" d="M48.7,66.9c0.6,0-0.5,0.3-1.3,1c-0.8,0.6-2.2,2.4-0.9,0.4C47.1,67.5,47.8,67.3,48.7,66.9z"/>
							<path class="st28" d="M39,72.7c-0.2,1.2-1.1,2.1-2.3,2.4c0-0.1,0-0.1,0-0.2C37.8,74.5,38.4,73.6,39,72.7z"/>
							<path class="st29" d="M47.9,66.3c0.2,0,0.4,0,0.5,0.1c-1.2,0.3-1.2,0.3-2.4,0.6C45.9,66.8,47.5,66.3,47.9,66.3z"/>
							<path class="st29" d="M42.1,68.5c0.1-0.1,0.3-0.5,0.4-0.7c0.2,0,1.3-1.1,1.3-0.7C43.2,67.6,42.7,68.2,42.1,68.5z"/>
							<g>
								<path class="st28" d="M38.9,75.2c1.3-0.9,1.9-1.6,2.3-3.2C41.4,73.6,40.4,74.7,38.9,75.2z"/>
								<path class="st28" d="M38.9,75.2c-0.1,0-0.1,0-0.2,0C38.8,75.1,38.9,75.2,38.9,75.2z"/>
							</g>
						</g>
						<path class="st31" d="M42.3,64.6c0,0-0.1,0.2-0.2,0.1C42.2,64.5,42.2,64.6,42.3,64.6z"/>
						<path class="st31" d="M43.6,65.4c0,0,0.1-0.2,0.2-0.1C43.8,65.4,43.7,65.4,43.6,65.4z"/>
					</g>
				</g>
			</g>
		</g>
	</g>
</g>
</svg>
