<?xml version="1.0" encoding="utf-8"?>
<!-- Generator: Adobe Illustrator 28.3.0, SVG Export Plug-In . SVG Version: 6.00 Build 0)  -->
<svg version="1.1" id="Calque_1" xmlns="http://www.w3.org/2000/svg" xmlns:xlink="http://www.w3.org/1999/xlink" x="0px" y="0px"
	 viewBox="0 0 100 100" style="enable-background:new 0 0 100 100;" xml:space="preserve">
<style type="text/css">
	.st0{fill:#08151D;}
	.st1{fill:#EBE8E3;}
	.st2{fill:#E2B580;}
	.st3{fill:#311D10;}
	.st4{fill:#322B29;}
	.st5{fill:#E9CEAD;}
	.st6{fill:#C89860;}
	.st7{fill:#F1E9D8;}
	.st8{fill:#F6EBC4;}
	.st9{fill:#632C18;}
	.st10{fill:#C9BFAE;}
	.st11{fill:#CFCED3;}
	.st12{fill:#858786;}
	.st13{fill:#AF7C45;}
	.st14{fill:#774A26;}
	.st15{fill:#8C5D33;}
	.st16{fill:#080909;}
	.st17{fill:#9C6D3D;}
	.st18{fill:#563319;}
	.st19{fill:#833547;}
	.st20{fill:#05A67A;}
	.st21{fill:#FEFFFF;}
</style>
<g>
	<path class="st0" d="M38.5,84.4c1.8,1.1,3.7,2.1,5.4,3.4c1.2,0.9,2.4,2,3.2,3.2c-5.1-3.3-12.2-6.5-18.3-6.7
		C31.9,82.9,35.3,83.7,38.5,84.4z"/>
	<path class="st0" d="M69.7,83.7c0.5,0,1.1,0,1.6,0.1c3.4,0.8-0.3,0.6-2.5,1c-4.7,0.8-10.2,3.7-14.3,6.3
		C58.2,86.5,63.6,83.2,69.7,83.7z"/>
	<path class="st0" d="M27.3,6.1c2,1.4,3.8,5.1,4.1,5.2c1.5,0.6,6.1-0.7,8.3-0.3c-1-2.4,3.9,0.1,7,0.1c-1.7-0.7-1.7-0.7-3.4-1.5
		c2.5-0.3,3.3,0.5,2-1c2.2-0.6,5.1,2.2,5.4,2.2c0.3,0,2.3-2.1,4.9-2.5c0.2,0.2,0.2,0.2,0.3,0.4c-2,2.2-1,0.5,2.8,1
		c-5.4,2.1-3.6,1.8,1.6,0.4c1.9-0.1,2.1-0.7,2.1,1c2-0.5,6.7,1,8.3,0.3c0.3-0.1,1.6-3.1,3.6-4.8c4.8-4,14.8-2.4,15.3,4.8
		c0.2,2.1-0.8,5.7-1.6,7.7c-1.6,4-4.7,7.4-8.7,8.9c3.3,1.3,12.9,14.2,12.4,15c-3.9-1.3,0.8,2.2,1.1,4.1c0.1,0.5-0.3,1.3-0.3,1.3
		c-0.7-0.3-0.7-0.3-1.3-0.6c-0.4,0.2,1.3,2.2,1.9,8.1C95,73.6,83.1,79.6,67.9,82.4c-6.3,1.2-3.5,0.5,0.1-1.1
		c-4.4,0.8-10,2.3-13.3,5.3c-3.2,2.9,1.7-0.8,4.2-1.8c2.2-0.9,6.8-2.2,2,0c-3.7,2.5-7.2,5.2-10,8.7c-3.2-4-7.3-7.1-11.7-9.8
		c0.1-0.2,3.2,0.8,3.6,0.9c2.5,1,8.8,5.8,3.1,1c-1.5-0.9-1.5-0.9-3.1-1.8c-3.4-1.5-17.7-5.1-4.9-0.8c0.9,0.5-1.5-0.2-2.7-0.4
		c-9.8-2-22.8-5.2-25.9-16.4c-1.5-5.5-1-13,1.6-18.1c-0.1-0.1-0.1-0.1-0.2-0.2c-3.6,2-0.6-2.9,1.8-5.3c-3.2,0.6-1.9,0.1-2.1-0.5
		c3.5-5,7.1-10.9,12.4-14.1c-2.9-0.8-5.8-3.2-7.3-5.8c-2.2-3.6-4-10.8-1.4-14.5C16.5,3.7,23.6,3.6,27.3,6.1z"/>
	<path class="st1" d="M67.9,82.4c-0.6,1.9,1.3,0.4,1.8,1.3c-6-0.5-11.5,2.8-15.2,7.4c-2.7,1.8-3.5,3.2-3.7,3.2
		c-0.2,0-2.2-2.5-2.8-2.9c0,0-0.2,0-0.9-0.4c-0.8-1.3-2-2.3-3.2-3.2c-1.7-1.3-3.6-2.3-5.4-3.4c-2-1.1-3.8-0.3-3.5-1.8
		c1.2,0.2,3.6,0.9,2.7,0.4c-12.8-4.2,1.5-0.6,4.9,0.8c1.5,0.9,1.5,0.9,3.1,1.8c5.7,4.8-0.6,0-3.1-1c-0.3-0.1-3.5-1.1-3.6-0.9
		c4.4,2.6,8.5,5.8,11.7,9.8c2.8-3.5,6.3-6.2,10-8.7c4.9-2.2,0.2-0.9-2,0c-2.5,1.1-7.5,4.7-4.2,1.8c3.4-3.1,9-4.5,13.3-5.3
		C64.3,82.9,61.5,83.6,67.9,82.4z"/>
	<path class="st2" d="M80.1,36.8c-1,2-1,4.5-2.5,6.3c-0.7-1.2-0.3,0.2-0.1,0.7c-1.5,4-3.1,7.6-7.7,8.2c-1.9-0.7,0.8-1.8,0.9-1.8
		c0.6,0,2.9,2.5,0.5-0.3c0.6-0.5,0.6-0.5,1.2-1c1.2,0.6,0.2,0,0.2-0.3c0-0.3,1.6-1.3,1.1-4.8c-0.4-2.6-2.7-5.4-2.8-5.8
		c-0.2-0.9,0.8-1.2-1-2.9c2.3-2.7-2,1.1-0.8-1.7c-1.2,1.2-1.5,0.4-1.9,0.4c-4.9,0.5-7.9,5.8-7,9.8c-1.4-0.3-3.1-3.1-3.6-3.2
		c-1.6-0.5-1,1.6-3.8-2C52,39.6,52,39.6,51.2,41c-0.4-4-0.3-5.2-1.3-0.7c-0.8-1.2-0.8-1.2-1.5-2.4c-2.8,5-2.7,2.3-3.9,2.5
		c-0.2,0-2.5,2.8-2.9,3.2c0.5-3.1-0.5-6.6-3.2-8.6c-0.6-0.4-3.6-1.8-3.8-1.8c-0.6,0-0.3,1.5-1.7-0.1c0.2,0.5,0.2,0.5,0.3,0.9
		C32.8,35.6,29,31,32,34.9c-2.4,1.6-1.1,2.5-1.1,2.8c-0.1,0.5-4.1,4.2-2.7,8.9c0.4,1.3,1.7,2,0.6,2.3c2.4,0.4,1.8,1.1,0.4,2.5
		c-2.8-1.2-4.9-4.9-4.9-7.9c0-0.9,0.6-2.4-0.7,0.3c-1.3-2.1-1.4-4.7-2-7c0-0.1,0-0.1,0-0.1c0.9-1.8,1.7-3.7,2.7-5.4
		c-0.4-0.1-0.4-0.1-0.8-0.3c2.5-4.1,6.9-10.6,10.7-13.3c8.6-6,26.1-5.8,34.3,0.8c3.1,2.5,7.7,8.9,9.9,12.4C78,31,78,31,77.6,31.1
		C78.6,32.9,79.3,34.8,80.1,36.8z"/>
	<path class="st2" d="M17.3,44.2c-0.9,3.5-1.3,4.8-0.6,8.6c1.2,6.1,6.4,11.8,11.6,15c4,2.5,8.7,3.9,12.9,6c3,1.6,5.5,3.1,7.7,5.8
		c1.4,1.7,2,3.6,2.2,3.5c0.3-1.3,1.2-3.2,2-4.2c1.8-2.2,5.2-4,7.7-5.2c2.7-1.3,6.4-2.6,9.2-4.1C81,64,88.6,55.5,84.2,42.5
		c1.8,3.6,2.5,6,2.2,10.2c-0.4,8.1-5.1,14.1-12,17.9c-7.8,4.2-18.8,4.3-23.3,13.1C44.2,73.2,32.4,75.2,23,67.4
		c-5.9-4.9-8.4-11.7-7.4-19.3C16,45.1,18.1,40.7,17.3,44.2z"/>
	<path class="st3" d="M84.2,42.5C88.6,55.5,81,64,70,69.6c-2.8,1.4-6.5,2.7-9.2,4.1c2-1.2,2.9-2.5,4.4-4.1c0.5-0.5,1.2-0.8,1.8-1.8
		c0,0.2-0.1,0.7,0.1,0.8c12.3-6.5,19.3-14,14.4-28.5c-0.2-0.5-0.2-0.9-0.4-1.4c0.4-0.9-0.8-3.2-0.3-3.4c0.9,1.9,1.7,4.5,2.5,6.3
		C83.8,42.6,84.1,42.3,84.2,42.5z"/>
	<path class="st3" d="M21.6,36.8c-5.6,13.6-3.2,21.4,8.9,29.4c1.4,0.9,2.9,1.8,4.4,2.7c0.6,0.4,1.5,0.7,1.9,1
		c1.6,1.1,2.8,2.9,4.4,4.1c-4.2-2.2-8.8-3.6-12.9-6c-5.2-3.2-10.4-8.8-11.6-15c-0.8-3.8-0.3-5.1,0.6-8.6c0.9,0.7,3-5.4,3.9-7.4
		c0-0.1,0.4-0.2,0.4-0.2C21.6,36.7,21.6,36.7,21.6,36.8z"/>
	<g>
		<path class="st4" d="M74.8,23c0-1,0-1,0-2C76,16.9,78,8.8,83.5,8.4c8.1-0.6,3.9,13-1.6,16.6c-1.1,0.7-4.7,2.1-4.8,1.5
			c2.8-3,6.2-4.8,0.1-2.2c0.2-0.6,2.7-5.4,2-5.4C77.6,20.1,74.6,24.5,74.8,23z"/>
		<path class="st5" d="M74.8,21c0,1,0,1,0,2c-0.4-0.3-1.1-2.3-1.1-2.6c-0.2-1.7,0.9-4.4-0.8-0.6c-0.7-1.8-0.3-3.8,0.6-5.4
			c-0.2,0.1-0.2,0.1-0.4,0.1c-2.4,3.7-2.1,1.9-0.1-1.7c-2.3,1.9-3.3,3.3-1-0.7c1.6-2.7,4.3-5.4,7.4-5.9c-0.8,0.5-1.8,1.1-2.5,1.8
			c-2.7,2.6,0.4,0,2.9-0.6c2.3-0.5,6.8-0.3,2.1,0.1C76,9.5,74.5,15.2,74.8,21z"/>
	</g>
	<path class="st5" d="M34.3,76.9c6.8,2.2,12.5,4.6,16.6,10.8c3.4-6,10.2-8.8,16.5-10.6c-5.6,2.7-13.1,5.8-16.5,11.2
		C46.8,82.7,40.3,80.1,34.3,76.9z"/>
	<path class="st5" d="M23.8,28.2c0,0.2,0,0.2,0.1,0.4c-2.5,2.9-7.1,6.9-2.6,4.6c0.1,0.1,0.1,0.1,0.2,0.2c-4.6,3.8-4.6,3.8-9.2,7.7
		C15.9,36.5,18.9,31.3,23.8,28.2z"/>
	<path class="st5" d="M77.9,28.3c4.7,2.7,7.5,7.6,10.7,11.8c-4.2-3.4-4.2-3.4-8.4-6.8c0-0.5,2.2,0.7,2.2,0.4
		C80.2,31,80.2,31,77.9,28.3z"/>
	<path class="st5" d="M87.9,44.9c4.6,5.8,4.1,13.1-0.3,18.8C90.7,57.9,90.1,51,87.9,44.9z"/>
	<path class="st1" d="M89.2,69.8c-3.3,5.3-11.5,9.8-17.8,10.1c5.2-2.1,14.3-5.2,17.1-10.5C88.7,69.6,88.8,70.1,89.2,69.8z"/>
	<path class="st5" d="M13.8,45.2c-2.5,5.8-2.2,12.5,0.3,18.3C10.1,58.3,9.3,50.3,13.8,45.2z"/>
	<path class="st1" d="M24.3,77.5c-0.4,0.1-0.3,0.4-0.4,0.8c-4.7-1.9-10.2-5.2-12.4-10c0.2,0,0.5-0.3,0.5-0.3
		c0.3-0.1,0.4,0.7,0.4-0.3C13.6,72.2,20.4,75.8,24.3,77.5z"/>
	<path class="st6" d="M81.1,38.7c0.2,0.5,0.3,1,0.4,1.4c-0.8,1.7-1.3,3.6-3.4,4.1c0-0.1-0.5-1.1-0.6-1.1c1.5-1.8,1.5-4.3,2.5-6.3
		C80.3,37.3,80.8,38.1,81.1,38.7z"/>
	<path class="st5" d="M89.2,69.8c-0.4,0.3-0.5-0.2-0.7-0.4c2-3.9,0.5-1.8-1.1-0.4c-3.2,2.8,1-1.3,2.3-3.7c0.3-0.6,1-2,1.3-2.7
		c0.8-2.1,1.2-4.9,0.7,0.1C91.5,65.4,90.6,67.5,89.2,69.8z"/>
	<path class="st5" d="M12.4,67.8c0,1-0.1,0.2-0.4,0.3c0,0-0.3,0.2-0.5,0.3c-1.1-2.5-1.7-5.7-1.5-8.4c0.4,1.6,0.9,3.2,1.6,4.7
		c1.4,2.7,5.8,7.6,0.6,2.5C12.2,67.1,12.3,67.7,12.4,67.8z"/>
	<path class="st5" d="M24.3,77.5c1.9,0.8,3.8,1.5,5.8,2.2c-2.3,0.4-4.2-0.5-6.2-1.3C24,77.9,23.9,77.6,24.3,77.5z"/>
	<path class="st7" d="M84.2,40c2.6,1.2,5.1,2.8,6.2,5.5C87.4,42.8,87.4,42.8,84.2,40z"/>
	<path class="st8" d="M16.8,40.1c0.1,0.1,0.1,0.1,0.2,0.2c-2.1,1.5-4,3.3-5.6,5.4C12.2,43.1,14.5,41.6,16.8,40.1z"/>
	<path class="st1" d="M69.8,13c0.8-0.2-0.3,0.9-1,2.1c-0.2-1.7-1.7-0.6-4.1-1.3C66.3,13.6,68.1,13.6,69.8,13z"/>
	<path class="st5" d="M64,12c0.7,0,2.7,0.2,1,0.7C62.5,13.4,57.7,13.1,64,12z"/>
	<path class="st7" d="M35.8,12.2c6.5,0.3,5.8,0.9-0.6,0.4C34.7,12.1,35.3,12.5,35.8,12.2z"/>
	<path class="st1" d="M32.4,13.1c2.1,0.4,2.1,0.4,4.3,0.8C34,13.6,32.8,15,32.4,13.1z"/>
	<path class="st8" d="M41.4,11.8c1.6,0.2,1.6,0.2,3.2,0.4C43.6,12.6,42.1,12.6,41.4,11.8z"/>
	<path class="st9" d="M33.1,15.1c0.1,0,0.1,0,0.2,0.1C31.9,17.5,30.8,15.7,33.1,15.1z"/>
	<path class="st10" d="M59.5,11.8c3.5-0.4-1.7,0.9-1.8,0.6C57.7,12.2,59.4,11.8,59.5,11.8z"/>
	<path class="st11" d="M33.2,14.4c0.2,0.1,0.2,0.1,0.3,0.2C33.7,15.2,33.1,14.8,33.2,14.4z"/>
	<g>
		<path class="st4" d="M16.8,8.4c7.2-1.2,10,10.7,9.5,15.9c-4.1-5.4-6.3-8-2.2-0.4c-1.7-0.5-1.7-0.5-3.4-1c1.7,1.4,7.3,5.5,1.2,3.3
			C14.7,23.7,10.8,9.4,16.8,8.4z"/>
		<path class="st5" d="M27.4,22.4c-0.1-0.1-0.1-0.1-0.3-0.1c0.2-6.5-0.3-11.8-7.1-14.6c-5.7-0.6,2.1-1.5,5.9,1.7
			c-0.4-1.3-5.5-4.6-1.1-2.4c2.3,1.1,5.8,5,6,7.6c-4.1-4.1-0.8-0.7-0.1,1.8c-4.3-4.7-0.4,0.1-1.3,2.7c-0.1,0.1-0.1,0.1-0.2,0.2
			C27,16.3,29.4,17.9,27.4,22.4z"/>
		<path class="st12" d="M27.4,22.4c-0.3,0.7-0.3,0.9-0.3-0.1C27.3,22.4,27.3,22.4,27.4,22.4z"/>
	</g>
	<path class="st13" d="M23.6,43.8c-4.2,8.8,3,13.5,7.4,17.3c-0.5,1.1-1.3-0.5-1.3,0.3c2.9,2.4,2.9,2.4,5.7,4.8c0.8-0.6-0.8-2-2-3.2
		c0.9,0.5,1.7,1.5,2.4,2.3c0.1,1,0,1.6-0.3,2.4c-2-0.8-3.8-2.1-5.5-3.4c-0.9,0,0.3,0.4,0.5,1.8c-12-8-14.5-15.7-8.9-29.4
		C22.2,39.1,22.3,41.6,23.6,43.8z"/>
	<path class="st13" d="M68.1,60.2c-1.3-0.2-1.3-0.2-2.7-0.4c0.3-1.1,0.3-1.7,0.4-2.8c0.3-4-0.4-4.8-0.3-5.1c1.2,0,2.4,0.1,3.7,0
		c0.2,0,0.3,0.3,0.3,0.3c0.1,0,0.1-0.3,0.1-0.3c4.6-0.5,6.2-4.2,7.7-8.2c0.2,0.6,0.6,1.3,0.7,1.9C79.2,53.2,73.2,56.2,68.1,60.2z"/>
	<path class="st13" d="M29.2,51.4c0.1,0,0.2,0,0.3,0c0.7,0.3,1.8,0.7,2.5,0.7c0.4,0,0.2,0,0.6-0.1c0.5,0.1,2.3-0.2,2.2-0.4
		c0.5,0.1,1.2,0.1,1.3,0.3c0,0.1-0.3,0.8-0.3,1.8c0,2.9,0,5,1.1,7.7c-0.5,0.1-0.5-1-0.6-1c-0.1-0.2-3.6-1.8-3.9-1
		c-5.2-4.5-11.4-7.4-8.1-15.7C24.3,46.5,26.4,50.2,29.2,51.4z"/>
	<path class="st3" d="M24.3,43.5c-3.2,8.4,3,11.3,8.1,15.7c1.4,1.2,4.1,3.2,5.1,4.2c0.5,0.5,0.4,0.7,0.4,0.7c-0.2,1.6-4-2.2-5.5-2.1
		c-0.4-0.3-1-0.7-1.4-1c-4.4-3.8-11.7-8.5-7.5-17.3C24.9,41.1,24.3,42.6,24.3,43.5z"/>
	<path class="st3" d="M77.6,43.1c0,0,0.5,1.1,0.6,1.1c2.3,5.5,0.7,9.9-3.5,13.8c-2.2,2.1-4.9,3.6-7.2,5.6c-1-0.6-2.5,0.9-3.2,0
		c0.1-0.2,0.3-0.5,0.4-0.7c0.8,0.1,2.6-1.9,3.5-2.7c5-4,11-7,10-14.5c-0.1-0.6-0.5-1.3-0.7-1.9C77.3,43.3,76.8,41.9,77.6,43.1z"/>
	<path class="st14" d="M46.2,75.1c2.4,1.7,1.5,0.7,1.3-0.6c-0.1-0.5-0.3-1.1-0.3-1.6c0.3-0.2,0.4,0.1,0.6,0.1c0.4,0.7,0.7,1.4,1,2.1
		c-1,1.4,0.6,3,0.1,4.5c-2.2-2.7-4.8-4.2-7.7-5.8c-1.6-1.1-2.8-2.9-4.4-4.1c-0.3-0.2-1.3-0.6-1.9-1c0.5,0,0.6-0.7,0.7-1.1
		c0.2-0.8,0.4-1.4,0.3-2.4C37.6,67.1,44.9,74.2,46.2,75.1z"/>
	<path class="st14" d="M65.2,69.6c-1.5,1.5-2.4,2.9-4.4,4.1c-2.5,1.2-6,3-7.7,5.2c0.3-1.3,1.2-2.4,1.8-3.5c0,0.1,0.1,0.2,0.2,0.1
		c0.3-0.2,3.2-2.8,3.9-3.4c0.8,0.8,4.5-3.6,5.2-5.1c0.1-0.1,0.2-0.2,0.3-0.3C64.8,68.2,64.8,68.2,65.2,69.6z"/>
	<path class="st14" d="M56.1,73.3c-0.4,0.5-0.8,1.5-1.1,2.1c-0.7,1.1-1.5,2.2-1.8,3.5c-0.8,1.1-1.8,2.9-2,4.2
		c-0.2,0.1-0.8-1.8-2.2-3.5c0.5-1.4-1.2-3.1-0.1-4.5c0.7,1.7,1.2,3.5,2,5.2c0.1,0.2,0.2,0.7,0.3,0.7c0.2,0,1.7-4.2,1.9-4.7
		c0.2-0.8,0.1-2.7,0.9-1.1C54.7,74.5,55.6,72.7,56.1,73.3z"/>
	<path class="st13" d="M67,67.8c0,0,0.3-0.2,0.1-0.8c0-0.1-0.8-0.8-0.7-1.3c0.1-0.7,8.4-5.9,8.2-7.8c4.2-3.9,5.8-8.2,3.5-13.8
		c2.1-0.5,2.6-2.3,3.4-4.1c4.9,14.5-2.1,22.1-14.4,28.5C66.9,68.5,67,68,67,67.8z"/>
	<path class="st15" d="M67,67.8c-0.6,1-1.4,1.3-1.8,1.8c-0.3-1.4-0.3-1.4-0.7-2.8c0.6-0.6,1.9-2.3,2.9-3.2c2.2-2,5-3.6,7.2-5.6
		c0.3,1.9-8,7.1-8.2,7.8c-0.1,0.5,0.7,1.2,0.7,1.3C67.3,67.6,67,67.8,67,67.8z"/>
	<path class="st15" d="M35.5,67.7c-0.1,0.4-0.2,1.1-0.7,1.1c-1.5-0.9-2.9-1.7-4.4-2.7c-0.2-1.4-1.4-1.8-0.5-1.8
		C31.8,65.6,33.5,66.8,35.5,67.7z"/>
	<path class="st16" d="M37.9,64.2c2.2,2.2,5.3,6.3,10,7.6c6.3,1.6,12.8-3.1,16.2-8.2c0.8,0.9,2.2-0.6,3.2,0c-1,0.9-2.4,2.7-2.9,3.2
		c-0.1,0.1-0.2,0.2-0.3,0.3c-1.8,1.7-3.4,3.4-5.2,5.1c-0.6,0.6-3.6,3.2-3.9,3.4c-0.1,0.1-0.2,0-0.2-0.1c0.4-0.6,0.7-1.6,1.1-2.1
		c0.5-0.6,2.8-2.6,1.9-2.4c-1.9,2.6-5.9,2.6-8.8,2.4c-0.1,0-0.2-0.3-1.4-0.3c-0.1,0-0.3-0.3-0.6-0.1c0,0.6,0.2,1.1,0.3,1.6
		c-0.5,0.4-1.2-1.9-2-2.5c-2.8-1.4-0.5,0.4,0.8,3.1c-1.3-0.9-8.6-8.1-10.4-9.8c-0.7-0.7-1.5-1.8-2.4-2.2c-0.3-0.3-0.6-0.7-1-1
		C34,62,37.7,65.7,37.9,64.2z"/>
	<path class="st13" d="M31,61.1c0.4,0.3,1,0.7,1.4,1c0.3,0.3,0.7,0.7,1,1c1.3,1.3,2.9,2.6,2,3.2c-2.8-2.4-2.8-2.4-5.7-4.8
		C29.8,60.5,30.5,62.2,31,61.1z"/>
	<path class="st15" d="M68.1,60.2c-0.9,0.8-2.8,2.7-3.5,2.7c0.2-0.3,0.5-0.8,0.1-0.8c0.4-0.7,0.5-1.5,0.7-2.2
		C66.8,60,66.8,60,68.1,60.2z"/>
	<path class="st5" d="M69.3,51.9c-1.2,0.1-2.4,0-3.7,0C65.7,51.7,68.7,50.8,69.3,51.9z"/>
	<path class="st17" d="M37,61.3c0.2,0.5,0.4,1.1,0.7,1.5c-0.1,0.3-0.1,0.3-0.1,0.6c-1-1-3.6-3-5.1-4.2c0.3-0.8,3.8,0.9,3.9,1
		C36.5,60.4,36.5,61.4,37,61.3z"/>
	<path class="st2" d="M32,52.1c-0.8,0-1.8-0.4-2.5-0.7c1.7-1.7,1.4-1,3.4-0.2C32.5,51.6,32.5,51.6,32,52.1z"/>
	<path class="st5" d="M34.8,51.5c0.1,0.2-1.8,0.5-2.2,0.4C33.4,51.5,32.8,51,34.8,51.5z"/>
	<path class="st3" d="M49.2,73.3c0.7,2.3,1.3,4.6,1.5,7c-0.7-1.7-1.2-3.5-2-5.2c-0.3-0.7-0.6-1.4-1-2.1C49,73,49.1,73.3,49.2,73.3z"
		/>
	<path class="st18" d="M47.5,74.6c0.2,1.3,1.2,2.3-1.3,0.6c-1.3-2.6-3.6-4.5-0.8-3.1C46.3,72.7,47,75,47.5,74.6z"/>
	<path class="st18" d="M59,72.2c1.8-1.6,3.5-3.4,5.2-5.1C63.5,68.5,59.8,73,59,72.2z"/>
	<path class="st18" d="M56.1,73.3c-0.5-0.6-1.3,1.2-2.2,2c-0.8-1.6-0.7,0.3-0.9,1.1c-0.2,0.5-1.6,4.7-1.9,4.7
		c-0.1,0-0.2-0.5-0.3-0.7c-0.2-2.4-0.8-4.7-1.5-7c2.9,0.2,6.9,0.2,8.8-2.4C58.8,70.7,56.5,72.7,56.1,73.3z"/>
	<path class="st5" d="M60.1,43.4c0.1,0.3,2.2,2.5,3.1,4.9c0.6,1.7,1,3.8,1.1,5.6c0.3,7.8-3.6,12.8-11.8,11.7c0-0.3,0-0.3,0.1-0.6
		c4.8,2.1,6.4-2.8,6.2-6.6c-0.6-11.9-15.5-11.9-15.9,0c-0.1,3.9,1.5,8.8,6.1,6.5c0,0.4,0,0.4,0.1,0.8c-0.5,0.9-12.5,1.2-11.8-12
		c0.1-1.4,0.7-4.2,1.3-5.5c0.7-1.7,1.8-3.1,3-4.5c0.3-0.4,2.7-3.2,2.9-3.2c1.2-0.2,1.1,2.4,3.9-2.5c0.8,1.2,0.8,1.2,1.5,2.4
		c1-4.5,0.8-3.3,1.3,0.7c0.8-1.4,0.8-1.4,1.5-2.8c2.8,3.6,2.2,1.5,3.8,2C57,40.3,58.7,43.1,60.1,43.4z"/>
	<path class="st3" d="M69.8,34.8c-0.1,0.5-2.2-0.9-2.7-1.3c0.4,0,0.7,0.8,1.9-0.4C67.8,35.8,72.2,32.1,69.8,34.8z"/>
	<path class="st9" d="M58.9,58.4c-5.7,0.3-7.5,3-7.9,3.1s-2-2.6-7.9-3.1C43.3,46.5,58.3,46.5,58.9,58.4z"/>
	<path class="st7" d="M64.6,62.9c-0.1,0.2-0.3,0.5-0.4,0.7c-3.4,5-10,9.8-16.2,8.1c-4.7-1.2-7.8-5.3-10-7.6c0,0,0.1-0.2-0.4-0.7
		c0.1-0.3,0.1-0.3,0.1-0.6c2,3.2,5.6,4,5.8,4.2c0.3,0.2,1.3,3,5.3,3.8c6.7,1.3,8.9-3.5,9.3-3.8c0.3-0.3,4.8-1.2,6.7-5.1
		C65.1,62.1,64.8,62.6,64.6,62.9z"/>
	<g>
		<path class="st16" d="M37.4,53.6c-0.7,13.2,11.3,12.9,11.8,12c0-0.4,0-0.4-0.1-0.8c-4.7,2.3-6.2-2.6-6.1-6.5
			c6,0.5,7.5,3.1,7.9,3.1c0.4,0,2.2-2.8,7.9-3.1c0.2,3.8-1.5,8.7-6.2,6.6c0,0.3,0,0.3-0.1,0.6c8.2,1,12.2-3.9,11.8-11.7
			c0.8,0.5,0.8,2.3,1.6,3.1c-0.1,1.2-0.2,1.7-0.4,2.8c-0.2,0.8-0.3,1.5-0.7,2.2c-1.9,3.9-6.3,4.8-6.7,5.1c-0.4,0.3-2.6,5.1-9.3,3.8
			c-4-0.8-5.1-3.6-5.3-3.8c-0.3-0.2-3.8-1-5.8-4.2c-0.3-0.5-0.5-1-0.7-1.5c-1.1-2.7-1.2-4.8-1.1-7.7C36.6,53.6,36.6,53.6,37.4,53.6z
			"/>
		<path class="st19" d="M50.8,67.4c0.6,0,3,0.4,5,0.3c-2,1.8-4.7,2.2-7.2,1.6c-4.8-2.3-2.8-1.4,0.4-1.6
			C49.4,67.8,50.6,67.4,50.8,67.4z"/>
	</g>
	<g>
		<path class="st20" d="M73.6,43.4c-0.4-2.6-2.7-5.4-2.8-5.8c-0.2-0.9,0.8-1.2-1-2.9c-0.1,0.5-2.2-0.9-2.7-1.3
			c-4.9,0.5-7.9,5.8-7,9.8c0.1,0.3,2.2,2.5,3.1,4.9c0.6,1.7,1,3.8,1.1,5.6c0.8,0.5,0.8,2.3,1.6,3.1c0.3-4-0.4-4.8-0.3-5.1
			c0.1-0.2,3.1-1.2,3.7,0c0.2,0,0.3,0.3,0.3,0.3c0.1,0,0.1-0.3,0.1-0.3c-1.9-0.7,0.8-1.8,0.9-1.8c0.6,0,2.9,2.5,0.5-0.3
			c0.6-0.5,0.6-0.5,1.2-1c1.2,0.6,0.2,0,0.2-0.3C72.5,48,74.1,46.9,73.6,43.4z M63.9,47.6c0.2-3.3-2.6-6.9-0.6-9.9
			c2.8-4.1,8.3-0.1,7.7,4C70.5,45.5,64.9,47,63.9,47.6z"/>
		<path class="st20" d="M38.4,34.9c-0.6-0.4-3.6-1.8-3.8-1.8c-0.6,0-0.3,1.5-1.7-0.1c0.2,0.5,0.2,0.5,0.3,0.9
			c-0.5,1.6-4.3-3.1-1.3,0.8c-2.4,1.6-1.1,2.5-1.1,2.8c-0.1,0.5-4.1,4.2-2.7,8.9c0.4,1.3,1.7,2,0.6,2.3c2.4,0.4,1.8,1.1,0.4,2.5
			c0.1,0,0.2,0,0.3,0c1.7-1.7,1.4-1,3.4-0.2c-0.4,0.5-0.4,0.5-0.8,0.9c0.4,0,0.2,0,0.6-0.1c0.8-0.4,0.2-0.9,2.2-0.4
			c0.5,0.1,1.2,0.1,1.3,0.3c0,0.1-0.3,0.8-0.3,1.8c0.8,0,0.8,0,1.5,0c0.1-1.4,0.7-4.2,1.3-5.5c0.7-1.7,1.8-3.1,3-4.5
			C42.1,40.4,41,36.9,38.4,34.9z M37.8,47.7c-2.3-1.3-5.3-2-6.5-4.6c-2.2-4.9,4.7-10,7.5-5.1C40.6,41.1,37.9,43.3,37.8,47.7z"/>
	</g>
	<g>
		<path class="st16" d="M37.8,47.9c-2.3-1.3-5.3-2-6.5-4.6c-2.2-4.9,4.7-10,7.5-5.1C40.6,41.2,37.9,43.4,37.8,47.9z"/>
		<path class="st1" d="M34.8,37.2c2.6-0.5,4.3,2.3,3.9,4.6c-0.5,0.9-0.1-0.4-0.4-1.3c-1.5-4.7-6.2-2.6-4.7,2.7
			C31.3,41.8,32.8,37.6,34.8,37.2z"/>
		<path class="st21" d="M35.8,38.4c0.5,0.2,0.5,0.2,0.9,0.5C36.8,41.6,33.3,39.5,35.8,38.4z"/>
	</g>
	<g>
		<path class="st16" d="M71.1,41.8c-0.6,3.9-6.2,5.3-7.2,5.9c0.2-3.3-2.6-6.9-0.6-9.9C66.1,33.7,71.7,37.7,71.1,41.8z"/>
		<path class="st1" d="M65.8,37.2c3.1-0.6,5,3.7,2.5,5.6c1.3-5.7-3.7-6.5-4.7-1.9c-0.2,0.7,0.3,2-0.3,1.1
			C62.8,40.4,64,37.5,65.8,37.2z"/>
		<path class="st21" d="M66.1,38.6c2.9,0.2-0.2,3.4-0.5,0.3C65.9,38.8,65.9,38.8,66.1,38.6z"/>
	</g>
</g>
</svg>
