<?xml version="1.0" encoding="utf-8"?>
<!-- Generator: Adobe Illustrator 28.3.0, SVG Export Plug-In . SVG Version: 6.00 Build 0)  -->
<svg version="1.1" id="Calque_1" xmlns="http://www.w3.org/2000/svg" xmlns:xlink="http://www.w3.org/1999/xlink" x="0px" y="0px"
	 viewBox="0 0 100 100" style="enable-background:new 0 0 100 100;" xml:space="preserve">
<style type="text/css">
	.st0{display:none;}
	.st1{display:inline;fill:#9C9C9C;}
	.st2{fill:#08151D;}
	.st3{fill:#EBE8E3;}
	.st4{fill:#E2B580;}
	.st5{fill:#311D10;}
	.st6{fill:#322B29;}
	.st7{fill:#E9CEAD;}
	.st8{fill:#C89860;}
	.st9{fill:#F1E9D8;}
	.st10{fill:#F6EBC4;}
	.st11{fill:#632C18;}
	.st12{fill:#C9BFAE;}
	.st13{fill:#CFCED3;}
	.st14{fill:#858786;}
	.st15{fill:#AF7C45;}
	.st16{fill:#774A26;}
	.st17{fill:#8C5D33;}
	.st18{fill:#080909;}
	.st19{fill:#9C6D3D;}
	.st20{fill:#563319;}
	.st21{fill:#502A1E;}
	.st22{fill:#833547;}
	.st23{fill:#FEFFFF;}
	.st24{fill:#0A0B0C;}
	.st25{fill:#010202;}
	.st26{fill:#05A67A;}
	.st27{fill:#05A67A;stroke:#000000;stroke-width:3;stroke-miterlimit:10;}
</style>
<g>
	<g id="Background_00000165214221161322318490000015893979963696821421_" class="st0">
		<path class="st1" d="M-3.1,46.8c0,6.5,0,12.9,0,19.4c-28.4,0-28.4,0-56.8,0c0-6.5,0-13,0-19.5c8.4,8,19.6,11.5,31.1,10.9
			C-19.3,57-10.1,53.1-3.1,46.8z"/>
		<path class="st1" d="M-59.8,3.4c0-5.1,0-10.2,0-15.3c28.4,0,28.4,0,56.8,0c0,5.3,0,10.5,0,15.8C-4,3.2-4.7,2.4-5.6,1.8
			C-12-3.1-21.4-6.4-29.4-6.8c-9.3-0.5-19,2.3-26.7,7.5C-57.4,1.5-58.5,2.6-59.8,3.4z"/>
	</g>
	<g>
		<g>
			<path class="st2" d="M37.8,84.8c1.8,1.1,3.7,2.1,5.4,3.4c1.2,0.9,2.4,2,3.2,3.2c-5.1-3.3-12.3-6.5-18.4-6.8
				C31.1,83.2,34.6,84.1,37.8,84.8z"/>
			<path class="st2" d="M69.2,84.1c0.5,0,1.1,0,1.6,0.1c3.4,0.8-0.3,0.6-2.5,1C63.5,86,58,88.9,53.9,91.5
				C57.6,86.9,63.1,83.5,69.2,84.1z"/>
			<g>
				<path class="st2" d="M26.5,6.2c2.1,1.4,3.8,5.1,4.2,5.2c1.5,0.6,6.1-0.7,8.3-0.3c-1-2.5,3.9,0.1,7.1,0.1
					c-1.7-0.7-1.7-0.7-3.5-1.5c2.5-0.3,3.4,0.5,2-1C46.8,8.2,49.7,11,50,11c0.3,0,2.3-2.1,4.9-2.5c0.2,0.2,0.2,0.2,0.3,0.4
					c-2.1,2.2-1,0.5,2.8,1c-5.4,2.2-3.6,1.8,1.6,0.4c1.9-0.1,2.1-0.7,2.1,1c2-0.5,6.7,1,8.3,0.3c0.3-0.1,1.6-3.1,3.6-4.8
					c4.9-4,14.9-2.4,15.4,4.9c0.2,2.1-0.8,5.7-1.6,7.7c-1.6,4-4.7,7.4-8.8,9c3.4,1.3,12.9,14.2,12.4,15.1c-3.9-1.3,0.8,2.2,1.1,4.1
					c0.1,0.5-0.3,1.3-0.3,1.3c-0.7-0.3-0.7-0.3-1.3-0.6c-0.4,0.2,1.3,2.2,1.9,8.2C94.5,74,82.6,79.9,67.3,82.8
					c-6.4,1.2-3.5,0.5,0.1-1.1C63,82.5,57.4,84,54,87c-3.3,2.9,1.7-0.8,4.2-1.8c2.2-0.9,6.9-2.2,2,0c-3.7,2.5-7.3,5.2-10,8.8
					c-3.3-4-7.4-7.2-11.8-9.8c0.1-0.2,3.2,0.8,3.6,0.9c2.5,1,8.8,5.8,3.1,1c-1.5-0.9-1.5-0.9-3.1-1.8c-3.4-1.5-17.8-5.1-4.9-0.8
					c0.9,0.5-1.6-0.2-2.8-0.4c-9.9-2-22.9-5.2-26-16.4c-1.5-5.6-1-13,1.6-18.2c-0.1-0.1-0.1-0.1-0.2-0.2c-3.6,2-0.6-3,1.8-5.3
					c-3.2,0.6-1.9,0.1-2.1-0.5c3.5-5,7.1-10.9,12.4-14.2c-2.9-0.8-5.8-3.3-7.3-5.9c-2.2-3.6-4-10.9-1.4-14.6
					C15.7,3.7,22.8,3.6,26.5,6.2z"/>
				<g>
					<path class="st3" d="M67.3,82.8c-0.6,1.9,1.3,0.4,1.8,1.3c-6.1-0.5-11.6,2.8-15.2,7.5c-2.8,1.8-3.5,3.2-3.7,3.2
						c-0.2,0-2.2-2.5-2.8-3c0,0-0.2,0-0.9-0.4c-0.8-1.3-2-2.3-3.2-3.2c-1.7-1.3-3.6-2.3-5.4-3.4c-2-1.1-3.8-0.3-3.5-1.8
						c1.2,0.2,3.6,1,2.8,0.4c-12.8-4.3,1.5-0.6,4.9,0.8c1.5,0.9,1.5,0.9,3.1,1.8c5.7,4.8-0.6,0-3.1-1c-0.3-0.1-3.5-1.1-3.6-0.9
						c4.4,2.7,8.5,5.8,11.8,9.8c2.8-3.5,6.4-6.2,10-8.8c4.9-2.2,0.2-0.9-2,0C55.7,86.2,50.7,90,54,87c3.4-3.1,9-4.5,13.4-5.4
						C63.8,83.3,60.9,84,67.3,82.8z"/>
					<path class="st4" d="M79.6,36.9c-1,2-1,4.5-2.5,6.3c-0.7-1.2-0.3,0.2-0.1,0.7c-1.5,4-3.1,7.7-7.8,8.2c-1.9-0.7,0.8-1.8,0.9-1.8
						c0.6,0,2.9,2.5,0.5-0.3c0.6-0.5,0.6-0.5,1.2-1.1c1.2,0.6,0.2,0,0.2-0.3c0-0.3,1.7-1.3,1.1-4.9c-0.4-2.6-2.8-5.4-2.8-5.9
						c-0.2-0.9,0.8-1.2-1-2.9c2.3-2.7-2,1.1-0.8-1.7c-1.2,1.2-1.5,0.4-1.9,0.4c-4.9,0.5-8,5.8-7.1,9.9c-1.4-0.3-3.1-3.1-3.6-3.2
						c-1.6-0.5-1,1.6-3.8-2c-0.8,1.4-0.8,1.4-1.5,2.8c-0.4-4-0.3-5.2-1.3-0.7c-0.8-1.2-0.8-1.2-1.5-2.4c-2.8,5-2.7,2.4-4,2.5
						c-0.2,0-2.6,2.8-2.9,3.2c0.5-3.1-0.6-6.7-3.2-8.6c-0.6-0.4-3.6-1.8-3.8-1.8c-0.6,0-0.3,1.5-1.7-0.1c0.2,0.5,0.2,0.5,0.3,0.9
						c-0.5,1.6-4.3-3.1-1.3,0.8c-2.4,1.6-1.1,2.5-1.1,2.8c-0.1,0.5-4.1,4.3-2.7,9c0.4,1.3,1.7,2,0.6,2.3c2.4,0.4,1.9,1.1,0.4,2.5
						c-2.8-1.2-4.9-4.9-4.9-7.9c0-0.9,0.6-2.5-0.7,0.3c-1.3-2.2-1.4-4.7-2-7.1c0-0.1,0-0.1,0-0.1c0.9-1.8,1.7-3.7,2.7-5.4
						c-0.4-0.1-0.4-0.1-0.9-0.3c2.5-4.1,6.9-10.6,10.8-13.3c8.6-6.1,26.2-5.9,34.4,0.9c3.1,2.5,7.7,9,9.9,12.5
						c-0.4,0.1-0.4,0.1-0.8,0.1C78.1,33,78.8,35,79.6,36.9z"/>
					<path class="st4" d="M16.5,44.4c-0.9,3.5-1.3,4.9-0.6,8.7c1.2,6.2,6.4,11.8,11.6,15c4,2.5,8.7,3.9,12.9,6.1
						c3,1.6,5.6,3.1,7.8,5.8c1.4,1.7,2,3.6,2.2,3.5c0.3-1.3,1.2-3.2,2-4.2c1.8-2.2,5.3-4,7.8-5.2c2.7-1.3,6.4-2.6,9.2-4.1
						c11-5.7,18.6-14.2,14.2-27.2c1.9,3.6,2.5,6,2.3,10.2c-0.4,8.1-5.1,14.2-12.1,18c-7.8,4.3-18.9,4.3-23.4,13.1
						c-7-10.5-18.8-8.5-28.2-16.4c-5.9-4.9-8.4-11.8-7.4-19.4C15.2,45.3,17.4,40.9,16.5,44.4z"/>
					<path class="st5" d="M83.7,42.7c4.4,13.1-3.2,21.6-14.2,27.2c-2.8,1.4-6.5,2.8-9.2,4.1c2-1.2,2.9-2.6,4.4-4.1
						c0.5-0.5,1.2-0.8,1.8-1.8c0,0.2-0.1,0.7,0.1,0.8C78.8,62.5,85.9,54.9,81,40.3c-0.2-0.5-0.2-1-0.4-1.4c0.4-0.9-0.8-3.2-0.3-3.5
						c0.9,1.9,1.7,4.5,2.5,6.3C83.3,42.8,83.6,42.5,83.7,42.7z"/>
					<path class="st5" d="M20.9,36.9c-5.7,13.7-3.2,21.5,8.9,29.5c1.5,1,2.9,1.8,4.4,2.7c0.6,0.4,1.5,0.7,1.9,1
						c1.6,1.1,2.8,2.9,4.5,4.1c-4.2-2.2-8.9-3.6-12.9-6.1c-5.2-3.2-10.4-8.9-11.6-15c-0.8-3.8-0.3-5.2,0.6-8.7c0.9,0.7,3-5.4,4-7.4
						c0-0.1,0.4-0.2,0.4-0.2C20.9,36.8,20.9,36.8,20.9,36.9z"/>
					<g>
						<path class="st6" d="M74.2,23.1c0-1,0-1,0-2c1.3-4.1,3.3-12.3,8.8-12.7c8.2-0.6,3.9,13-1.6,16.7c-1.1,0.7-4.7,2.1-4.9,1.5
							c2.9-3,6.2-4.8,0.1-2.3c0.2-0.6,2.7-5.4,2.1-5.4C77.1,20.2,74.1,24.6,74.2,23.1z"/>
						<path class="st7" d="M74.2,21.1c0,1,0,1,0,2c-0.4-0.3-1.1-2.3-1.1-2.6c-0.2-1.7,1-4.4-0.8-0.6C71.6,18.1,72,16,73,14.4
							c-0.2,0.1-0.2,0.1-0.4,0.1c-2.5,3.7-2.1,1.9-0.1-1.7c-2.3,1.9-3.4,3.3-1-0.7c1.6-2.7,4.3-5.4,7.5-5.9
							c-0.8,0.5-1.8,1.1-2.5,1.8c-2.7,2.6,0.4,0,3-0.6c2.3-0.5,6.8-0.3,2.1,0.1C75.5,9.5,74,15.3,74.2,21.1z"/>
					</g>
					<path class="st7" d="M33.7,77.3c6.9,2.2,12.5,4.6,16.7,10.9c3.4-6,10.2-8.9,16.6-10.7c-5.6,2.7-13.2,5.8-16.6,11.2
						C46.2,83.1,39.6,80.5,33.7,77.3z"/>
					<path class="st7" d="M23.1,28.3c0,0.2,0,0.2,0.1,0.4c-2.5,2.9-7.2,6.9-2.6,4.6c0.1,0.1,0.1,0.1,0.2,0.2
						c-4.6,3.8-4.6,3.8-9.2,7.7C15.1,36.7,18.1,31.4,23.1,28.3z"/>
					<path class="st7" d="M77.4,28.5c4.7,2.7,7.5,7.7,10.7,11.9c-4.2-3.4-4.2-3.4-8.4-6.8c0-0.5,2.2,0.7,2.3,0.4
						C79.7,31.2,79.7,31.2,77.4,28.5z"/>
					<path class="st7" d="M87.4,45.1c4.6,5.8,4.1,13.1-0.3,18.9C90.2,58.1,89.7,51.2,87.4,45.1z"/>
					<path class="st3" d="M88.8,70.1c-3.3,5.4-11.6,9.9-17.8,10.2c5.3-2.1,14.4-5.3,17.2-10.6C88.3,69.9,88.3,70.4,88.8,70.1z"/>
					<path class="st7" d="M13.1,45.4c-2.5,5.9-2.2,12.5,0.3,18.3C9.3,58.6,8.5,50.5,13.1,45.4z"/>
					<path class="st3" d="M23.6,77.8c-0.4,0.1-0.3,0.4-0.4,0.8c-4.7-1.9-10.3-5.2-12.4-10c0.2,0,0.5-0.3,0.5-0.3
						c0.3-0.1,0.4,0.7,0.4-0.3C12.8,72.6,19.6,76.1,23.6,77.8z"/>
					<path class="st8" d="M80.6,38.9c0.2,0.5,0.3,1,0.4,1.4c-0.8,1.8-1.3,3.6-3.4,4.1c0-0.1-0.5-1.1-0.6-1.1
						c1.5-1.8,1.5-4.3,2.5-6.3C79.8,37.5,80.3,38.3,80.6,38.9z"/>
					<path class="st7" d="M88.8,70.1c-0.4,0.3-0.5-0.2-0.7-0.4c2-3.9,0.5-1.8-1.1-0.4c-3.3,2.9,1-1.3,2.3-3.7c0.3-0.6,1-2.1,1.3-2.7
						c0.8-2.1,1.2-4.9,0.7,0.1C91,65.7,90.2,67.8,88.8,70.1z"/>
					<path class="st7" d="M11.6,68.1c0,1-0.1,0.2-0.4,0.3c0,0-0.3,0.2-0.5,0.3C9.6,66.1,9,63,9.2,60.2c0.4,1.6,0.9,3.2,1.6,4.7
						c1.4,2.8,5.9,7.6,0.6,2.5C11.4,67.4,11.5,67.9,11.6,68.1z"/>
					<path class="st7" d="M23.6,77.8c1.9,0.8,3.8,1.5,5.8,2.2c-2.3,0.4-4.2-0.5-6.2-1.3C23.3,78.3,23.2,77.9,23.6,77.8z"/>
					<path class="st9" d="M83.8,40.2c2.6,1.2,5.1,2.9,6.3,5.6C86.9,43,86.9,43,83.8,40.2z"/>
					<path class="st10" d="M16,40.3c0.1,0.1,0.1,0.1,0.2,0.2c-2.1,1.5-4,3.4-5.6,5.4C11.4,43.3,13.7,41.8,16,40.3z"/>
					<path class="st3" d="M69.2,13.1c0.8-0.2-0.3,0.9-1,2.1c-0.2-1.7-1.7-0.6-4.2-1.3C65.8,13.7,67.6,13.7,69.2,13.1z"/>
					<path class="st7" d="M63.4,12.1c0.7,0,2.7,0.2,1,0.7C61.9,13.4,57.1,13.2,63.4,12.1z"/>
					<path class="st9" d="M35.1,12.2c6.5,0.3,5.8,1-0.6,0.4C34,12.2,34.6,12.6,35.1,12.2z"/>
					<path class="st3" d="M31.7,13.2c2.2,0.4,2.2,0.4,4.3,0.8C33.3,13.7,32.1,15.1,31.7,13.2z"/>
					<path class="st10" d="M40.7,11.8c1.6,0.2,1.6,0.2,3.2,0.4C43,12.7,41.4,12.7,40.7,11.8z"/>
					<path class="st11" d="M32.4,15.2c0.1,0,0.1,0,0.2,0.1C31.2,17.6,30.1,15.8,32.4,15.2z"/>
					<path class="st12" d="M58.9,11.8c3.5-0.4-1.7,0.9-1.8,0.6C57.1,12.3,58.8,11.8,58.9,11.8z"/>
					<path class="st13" d="M32.5,14.5c0.2,0.1,0.2,0.1,0.3,0.2C33,15.3,32.4,14.9,32.5,14.5z"/>
					<g>
						<path class="st6" d="M16,8.4c7.3-1.2,10.1,10.7,9.5,16c-4.1-5.4-6.3-8.1-2.3-0.4c-1.7-0.5-1.7-0.5-3.4-1
							c1.7,1.4,7.3,5.5,1.2,3.3C13.9,23.8,10,9.4,16,8.4z"/>
						<path class="st7" d="M26.7,22.5c-0.1-0.1-0.1-0.1-0.3-0.1c0.2-6.6-0.3-11.9-7.1-14.7c-5.8-0.6,2.1-1.5,5.9,1.7
							c-0.4-1.3-5.5-4.6-1.1-2.4c2.3,1.1,5.8,5.1,6.1,7.6c-4.2-4.1-0.8-0.7-0.1,1.8c-4.3-4.7-0.4,0.1-1.3,2.7
							c-0.1,0.1-0.1,0.1-0.2,0.2C26.2,16.4,28.7,18,26.7,22.5z"/>
						<path class="st14" d="M26.7,22.5c-0.3,0.7-0.3,0.9-0.3-0.1C26.5,22.5,26.5,22.5,26.7,22.5z"/>
					</g>
					<path class="st15" d="M22.9,44c-4.2,8.9,3.1,13.5,7.5,17.4c-0.5,1.1-1.3-0.5-1.3,0.3c2.9,2.4,2.9,2.4,5.7,4.9
						c0.8-0.6-0.8-2-2-3.2c0.9,0.5,1.7,1.6,2.4,2.3c0.1,1,0,1.6-0.3,2.4c-2-0.8-3.8-2.1-5.6-3.4c-0.9,0,0.3,0.4,0.5,1.8
						c-12.1-8-14.6-15.8-8.9-29.5C21.4,39.3,21.6,41.8,22.9,44z"/>
					<path class="st15" d="M67.6,60.5c-1.3-0.2-1.3-0.2-2.7-0.4c0.3-1.1,0.3-1.7,0.4-2.8c0.3-4-0.4-4.8-0.3-5.1c1.2,0,2.4,0.1,3.7,0
						c0.2,0,0.3,0.3,0.3,0.3c0.1,0,0.1-0.3,0.1-0.3c4.6-0.5,6.2-4.2,7.8-8.2c0.2,0.6,0.6,1.3,0.7,1.9C78.7,53.5,72.6,56.5,67.6,60.5
						z"/>
					<path class="st15" d="M28.5,51.6c0.1,0,0.2,0,0.3,0c0.7,0.3,1.8,0.7,2.5,0.7c0.4,0,0.2,0,0.6-0.1c0.5,0.1,2.4-0.2,2.3-0.4
						c0.5,0.1,1.2,0.1,1.3,0.3c0,0.1-0.3,0.9-0.3,1.8c0,2.9,0,5,1.1,7.8c-0.5,0.1-0.5-1-0.6-1.1c-0.1-0.2-3.6-1.8-4-1.1
						c-5.2-4.5-11.4-7.4-8.2-15.8C23.6,46.7,25.7,50.4,28.5,51.6z"/>
					<path class="st5" d="M23.6,43.7c-3.2,8.4,3,11.3,8.2,15.8c1.5,1.2,4.1,3.3,5.1,4.2c0.5,0.5,0.4,0.7,0.4,0.7
						c-0.2,1.6-4-2.2-5.5-2.1c-0.4-0.3-1-0.7-1.4-1c-4.4-3.8-11.7-8.5-7.5-17.4C24.2,41.2,23.6,42.8,23.6,43.7z"/>
					<path class="st5" d="M77.1,43.3c0,0,0.5,1.1,0.6,1.1c2.3,5.6,0.7,9.9-3.5,13.8c-2.2,2.1-4.9,3.6-7.2,5.7c-1-0.6-2.5,0.9-3.2,0
						c0.1-0.2,0.3-0.5,0.4-0.7c0.8,0.1,2.6-1.9,3.5-2.7c5-4,11.1-7,10-14.6c-0.1-0.6-0.5-1.3-0.7-1.9C76.8,43.5,76.3,42.1,77.1,43.3
						z"/>
					<path class="st16" d="M45.6,75.4c2.4,1.7,1.5,0.7,1.3-0.6c-0.1-0.5-0.3-1.1-0.3-1.6c0.3-0.2,0.4,0.1,0.6,0.1
						c0.4,0.7,0.7,1.4,1,2.1c-1,1.4,0.6,3.1,0.1,4.5c-2.2-2.7-4.8-4.2-7.8-5.8c-1.6-1.2-2.8-3-4.5-4.1c-0.3-0.2-1.3-0.6-1.9-1
						c0.5,0,0.6-0.7,0.7-1.1c0.2-0.8,0.4-1.4,0.3-2.4C36.9,67.4,44.3,74.5,45.6,75.4z"/>
					<path class="st16" d="M64.6,69.9c-1.5,1.5-2.4,2.9-4.4,4.1c-2.5,1.2-6,3-7.8,5.2c0.3-1.3,1.2-2.4,1.8-3.5
						c0,0.1,0.1,0.2,0.2,0.1c0.3-0.2,3.3-2.8,3.9-3.4c0.8,0.8,4.6-3.7,5.2-5.1c0.1-0.1,0.2-0.2,0.3-0.3
						C64.3,68.5,64.3,68.5,64.6,69.9z"/>
					<path class="st16" d="M55.5,73.6c-0.4,0.5-0.8,1.5-1.1,2.1c-0.7,1.1-1.5,2.2-1.8,3.5c-0.8,1.1-1.8,2.9-2,4.2
						c-0.2,0.1-0.8-1.8-2.2-3.5c0.5-1.5-1.2-3.1-0.1-4.5c0.7,1.7,1.2,3.5,2,5.2c0.1,0.2,0.2,0.7,0.3,0.7c0.3,0,1.7-4.2,1.9-4.7
						c0.2-0.8,0.1-2.7,0.9-1.1C54.1,74.8,55,73.1,55.5,73.6z"/>
					<path class="st15" d="M66.5,68.1c0,0,0.3-0.2,0.1-0.8c0-0.1-0.8-0.8-0.7-1.3c0.1-0.7,8.4-5.9,8.2-7.8c4.2-3.9,5.9-8.2,3.5-13.8
						c2.1-0.5,2.6-2.3,3.4-4.1c4.9,14.6-2.2,22.2-14.5,28.6C66.4,68.8,66.5,68.3,66.5,68.1z"/>
					<path class="st17" d="M66.5,68.1c-0.6,1-1.4,1.3-1.8,1.8c-0.3-1.4-0.3-1.4-0.7-2.8c0.6-0.6,1.9-2.3,3-3.2c2.2-2,5-3.6,7.2-5.7
						c0.3,1.9-8.1,7.1-8.2,7.8c-0.1,0.5,0.7,1.2,0.7,1.3C66.7,67.9,66.5,68.1,66.5,68.1z"/>
					<path class="st17" d="M34.8,68c-0.1,0.4-0.2,1.1-0.7,1.1c-1.5-0.9-2.9-1.7-4.4-2.7c-0.2-1.4-1.4-1.8-0.5-1.8
						C31,65.8,32.8,67.1,34.8,68z"/>
					<path class="st18" d="M37.2,64.4c2.2,2.2,5.3,6.4,10.1,7.6c6.3,1.7,12.9-3.2,16.3-8.2c0.8,0.9,2.2-0.6,3.2,0
						c-1,0.9-2.4,2.7-3,3.3c-0.1,0.1-0.2,0.2-0.3,0.3c-1.8,1.7-3.5,3.4-5.2,5.1c-0.6,0.6-3.6,3.2-3.9,3.4c-0.1,0.1-0.2,0-0.2-0.1
						c0.4-0.6,0.7-1.6,1.1-2.1c0.5-0.6,2.8-2.6,1.9-2.4c-1.9,2.6-5.9,2.6-8.8,2.4c-0.1,0-0.2-0.3-1.4-0.3c-0.1,0-0.3-0.3-0.6-0.1
						c0,0.6,0.2,1.1,0.3,1.6c-0.5,0.4-1.2-1.9-2-2.5c-2.8-1.4-0.5,0.4,0.8,3.1c-1.3-0.9-8.6-8.1-10.4-9.9c-0.7-0.7-1.5-1.8-2.4-2.3
						c-0.3-0.3-0.6-0.7-1-1C33.2,62.2,37,66,37.2,64.4z"/>
					<path class="st15" d="M30.3,61.3c0.4,0.3,1,0.7,1.4,1c0.4,0.3,0.7,0.7,1,1c1.3,1.3,2.9,2.7,2,3.3c-2.9-2.4-2.9-2.4-5.7-4.9
						C29,60.8,29.8,62.4,30.3,61.3z"/>
					<path class="st17" d="M67.6,60.5c-0.9,0.8-2.8,2.7-3.5,2.7c0.2-0.3,0.5-0.8,0.1-0.8c0.4-0.7,0.5-1.5,0.7-2.3
						C66.2,60.3,66.2,60.3,67.6,60.5z"/>
					<path class="st7" d="M68.7,52.2c-1.2,0.1-2.4,0-3.7,0C65.1,52,68.2,51,68.7,52.2z"/>
					<path class="st19" d="M36.3,61.6c0.2,0.5,0.4,1.1,0.7,1.5c-0.1,0.3-0.1,0.3-0.1,0.6c-1-1-3.6-3-5.1-4.2
						c0.3-0.8,3.8,0.9,3.9,1.1C35.8,60.7,35.8,61.7,36.3,61.6z"/>
					<path class="st4" d="M31.3,52.3c-0.8,0-1.8-0.4-2.5-0.7c1.7-1.7,1.4-1,3.4-0.2C31.8,51.8,31.8,51.8,31.3,52.3z"/>
					<path class="st7" d="M34.1,51.7c0.1,0.2-1.8,0.5-2.3,0.4C32.7,51.8,32.1,51.3,34.1,51.7z"/>
					<path class="st5" d="M48.5,73.6c0.7,2.3,1.3,4.7,1.5,7.1c-0.7-1.7-1.2-3.5-2-5.2c-0.3-0.7-0.6-1.4-1-2.1
						C48.3,73.4,48.5,73.6,48.5,73.6z"/>
					<path class="st20" d="M46.8,74.9c0.2,1.3,1.2,2.3-1.3,0.6c-1.3-2.7-3.6-4.5-0.8-3.1C45.7,73,46.3,75.3,46.8,74.9z"/>
					<path class="st20" d="M58.4,72.5c1.8-1.7,3.5-3.4,5.2-5.1C63,68.8,59.2,73.3,58.4,72.5z"/>
					<path class="st20" d="M55.5,73.6c-0.5-0.6-1.3,1.2-2.2,2c-0.8-1.6-0.7,0.3-0.9,1.1c-0.2,0.5-1.7,4.7-1.9,4.7
						c-0.1,0-0.2-0.5-0.3-0.7c-0.2-2.4-0.8-4.8-1.5-7.1c2.9,0.2,6.9,0.2,8.8-2.4C58.2,71,55.9,73,55.5,73.6z"/>
					<g>
						<path class="st7" d="M59.5,43.6c0.1,0.3,2.2,2.5,3.1,4.9c0.6,1.7,1,3.8,1.1,5.7C64.1,62,60.2,67,51.9,65.9
							c0-0.3,0-0.3,0.1-0.6c4.8,2.1,6.5-2.8,6.3-6.6c-0.6-12-15.6-12-16,0c-0.1,3.9,1.5,8.8,6.1,6.5c0,0.4,0,0.4,0.1,0.8
							c-0.5,0.9-12.6,1.2-11.9-12.1c0.1-1.4,0.7-4.2,1.3-5.5c0.7-1.7,1.8-3.1,3-4.5c0.3-0.4,2.7-3.2,2.9-3.2c1.2-0.2,1.1,2.5,4-2.5
							c0.8,1.2,0.8,1.2,1.5,2.4c1-4.5,0.8-3.3,1.3,0.7c0.8-1.4,0.8-1.4,1.5-2.8c2.8,3.6,2.2,1.5,3.8,2
							C56.4,40.4,58.1,43.3,59.5,43.6z"/>
						<path class="st21" d="M73.1,43.7c0.5,3.5-1.1,4.6-1.1,4.9c0,0.3,1,1-0.2,0.3c-0.6,0.5-0.6,0.5-1.2,1.1
							c2.4,2.9,0.1,0.3-0.5,0.3c-0.2,0-2.8,1.1-0.9,1.8c0,0,0.1,0.3-0.1,0.3c-0.1,0-0.2-0.3-0.3-0.3c-0.5-1.2-3.6-0.2-3.7,0
							c-0.1,0.2,0.6,1,0.3,5.1c-0.7-0.8-0.8-2.6-1.5-3.1c-0.1-1.8-0.5-3.9-1.1-5.7c0.4,0.1,0.5-0.4,0.7-0.6c1-0.6,6.6-2,7.2-5.9
							C72.1,42.4,72.1,44.4,73.1,43.7z"/>
						<path class="st21" d="M66.6,33.7c0.5,0.4,2.6,1.8,2.7,1.3c1.8,1.7,0.8,2,1,2.9c0.1,0.4,2.4,3.2,2.8,5.9c-1,0.7-1-1.3-2.5-1.7
							c0.6-4.1-5-8.2-7.8-4c-2,3,0.8,6.6,0.6,10c-0.2,0.1-0.3,0.6-0.7,0.6c-0.9-2.5-3-4.7-3.1-4.9C58.7,39.5,61.7,34.2,66.6,33.7z"
							/>
						<path class="st5" d="M69.3,35c-0.1,0.5-2.2-0.9-2.7-1.3c0.4,0,0.7,0.8,1.9-0.4C67.2,36,71.6,32.2,69.3,35z"/>
						<path class="st11" d="M58.3,58.7c-5.7,0.3-7.5,3.1-8,3.1c-0.4,0-2-2.6-8-3.1C42.7,46.7,57.7,46.7,58.3,58.7z"/>
						<path class="st9" d="M64.1,63.2c-0.1,0.2-0.3,0.5-0.4,0.7c-3.4,5-10,9.8-16.3,8.2c-4.8-1.2-7.8-5.4-10.1-7.6
							c0,0,0.1-0.2-0.4-0.7c0.1-0.3,0.1-0.3,0.1-0.6c2,3.2,5.6,4,5.9,4.2c0.3,0.2,1.3,3.1,5.4,3.8c6.7,1.3,8.9-3.5,9.3-3.8
							c0.3-0.3,4.8-1.2,6.7-5.1C64.5,62.4,64.2,62.9,64.1,63.2z"/>
						<g>
							<path class="st18" d="M36.7,53.9C36,67.1,48,66.8,48.5,65.9c0-0.4,0-0.4-0.1-0.8c-4.7,2.3-6.2-2.6-6.1-6.5
								c6,0.5,7.5,3.2,8,3.1c0.4,0,2.2-2.8,8-3.1c0.2,3.8-1.5,8.7-6.3,6.6c0,0.3,0,0.3-0.1,0.6C60.2,67,64.1,62,63.8,54.2
								c0.8,0.5,0.8,2.3,1.5,3.1c-0.1,1.2-0.2,1.7-0.4,2.8c-0.2,0.8-0.3,1.5-0.7,2.3c-1.9,3.9-6.4,4.8-6.7,5.1
								c-0.4,0.3-2.6,5.1-9.3,3.8c-4-0.8-5.1-3.6-5.4-3.8c-0.3-0.2-3.8-1-5.9-4.2c-0.3-0.5-0.5-1-0.7-1.5c-1.1-2.8-1.2-4.8-1.1-7.8
								C35.9,53.9,35.9,53.9,36.7,53.9z"/>
							<path class="st22" d="M50.2,67.7c0.6,0,3,0.5,5,0.3c-2,1.8-4.7,2.2-7.3,1.6c-4.8-2.3-2.8-1.4,0.4-1.6
								C48.7,68.1,50,67.7,50.2,67.7z"/>
						</g>
						<g>
							<path class="st21" d="M40.9,43.8c-1.2,1.4-2.3,2.8-3,4.5c-0.7,0.5-0.6-0.2-0.8-0.3c0.1-4.4,2.8-6.6,1-9.8
								c-2.8-4.9-9.7,0.2-7.5,5.2c-1.6,0.7-2.3,3.3-3.1,3.4c-1.4-4.7,2.6-8.5,2.7-9c0-0.3-1.2-1.2,1.1-2.8c-3.1-3.9,0.8,0.7,1.3-0.8
								c-0.2-0.5-0.2-0.5-0.3-0.9c1.4,1.6,1.1,0.2,1.7,0.1c0.2,0,3.2,1.4,3.8,1.8C40.4,37.2,41.4,40.7,40.9,43.8z"/>
							<path class="st21" d="M30.6,43.4c1.2,2.7,4.2,3.3,6.5,4.7c0.2,0.1,0.2,0.8,0.8,0.3c-0.5,1.3-1.2,4.1-1.3,5.5
								c-0.8,0-0.8,0-1.5,0c0-0.9,0.3-1.7,0.3-1.8c-0.1-0.2-0.8-0.2-1.3-0.3c-2-0.5-1.4,0-2.3,0.4c-0.4,0.2-0.1,0.2-0.6,0.1
								c0.4-0.5,0.4-0.5,0.8-0.9c-2-0.8-1.7-1.5-3.4,0.2c-0.1,0-0.2,0-0.3,0c1.4-1.4,2-2.1-0.4-2.5c1.1-0.4-0.2-1-0.6-2.3
								C28.3,46.7,29,44.1,30.6,43.4z"/>
							<g>
								<path class="st18" d="M37.1,48.1c-2.3-1.3-5.3-2-6.5-4.7c-2.2-4.9,4.7-10,7.5-5.2C39.9,41.4,37.2,43.6,37.1,48.1z"/>
								<path class="st3" d="M34.1,37.3c2.6-0.5,4.3,2.3,3.9,4.6c-0.5,0.9-0.1-0.4-0.4-1.3C36,36,31.4,38,32.8,43.4
									C30.5,42,32.1,37.7,34.1,37.3z"/>
								<path class="st23" d="M35.1,38.6c0.5,0.2,0.5,0.2,0.9,0.5C36.2,41.8,32.6,39.7,35.1,38.6z"/>
							</g>
						</g>
						<g>
							<path class="st18" d="M70.6,42c-0.6,3.9-6.2,5.3-7.2,5.9c0.2-3.3-2.6-6.9-0.6-10C65.6,33.8,71.2,37.9,70.6,42z"/>
							<path class="st3" d="M65.3,37.3c3.1-0.6,5,3.7,2.5,5.7c1.3-5.7-3.7-6.5-4.7-1.9c-0.2,0.7,0.3,2-0.3,1.1
								C62.2,40.6,63.5,37.7,65.3,37.3z"/>
							<path class="st23" d="M65.6,38.8c3,0.2-0.2,3.4-0.5,0.3C65.3,38.9,65.3,38.9,65.6,38.8z"/>
						</g>
					</g>
				</g>
			</g>
		</g>
		<g>
			<g>
				<g>
					<g>
						<g>
							<g>
								<path class="st24" d="M33.3,70.9c0.3,0.2,0.7,0.3,1.1,0.5c1.9,0.9,5.3,2.8,7.2,3.9c-0.1,0-0.1,0-0.3,0c0,0.1,0,0.1,0,0.2
									c-2.8-1.7-5.8-3.2-8.9-4.6C32.6,70.4,32.9,71.2,33.3,70.9z"/>
								<path class="st24" d="M33.3,70.9c-0.4,0.3-0.7-0.5-0.9,0c-0.3-0.3-1.7,2.8-2,3.6c-0.6,1.6-1,3.2-1.2,4.8
									c-0.2,1.8-0.2,3.7,0,5.5c1.7-0.1,3.3-0.4,5-0.7c4.1-0.6,8.2-1.3,12.3-2.3c-0.1-0.1-0.1-0.1-0.1-0.2
									c-6.9-0.5-6.9-0.5-13.9-0.9c-1.6-0.1-2.8-0.4-1.3-1.1c7.2-0.7,5.9,0.1,0-2.1c-0.4-0.7,0.3-0.6,0.8-0.6
									c2.1,0.1,10.9,3.3,14.4,3.6c0.1,0,0.1-0.3,0.1-0.4c-0.1-0.3-5.3-4.1-5.4-4.4c0,0,0.2-0.1,0.2-0.2c0-0.1,0-0.1,0-0.2
									c0.1,0,0.1,0,0.3,0c0.1,0.1,0.1,0.1,0.1,0.1c-0.4,0.4,0.3,0.4,1,0.9c1.3,0.9,2.4,2,3.8,2.8c0.2-0.1,0.1-0.3,0.1-0.4
									c0-0.1,0-0.2,0-0.2c0.3-0.2,5.7,0.1,6.6,0.1c0,0.9,0,0.9,0,1.8c0-0.2,0-1.6,0-1.7c-3,0-3,0-6.1,0c-0.1,0.1,0,1.8,0,2.1
									c0,0.5,0.1,1,0.1,1.4c0,0.3,0,0.6,0,0.8c-0.1,1.2-0.9,1-1.4,2c-1,0.8-2.1,1.6-3.2,2.3c-1.3,0.8-10.1,5.2-10.9,5
									c-0.7-0.1-2.5-5.6-2.7-6.6c-1.5,0.1-1.2-0.6-1.1-3c0.1-4.5,1.2-8.6,3.5-12.5C31.6,70,32.5,70.6,33.3,70.9z"/>
								<path class="st25" d="M46.5,78.7c0,0.1,0.1,0.3-0.1,0.4c-1.4-0.8-2.5-1.9-3.8-2.8c-0.6-0.5-1.3-0.5-1-0.9
									c2.3,1.4,4.5,3.3,4.8,3.4C46.4,78.7,46.5,78.6,46.5,78.7z"/>
								<g>
									<path class="st26" d="M32.4,70.9c3,1.4,6,2.8,8.8,4.6c0,0.1-0.2,0.2-0.2,0.2c0.1,0.3,5.3,4.1,5.4,4.4c0,0.1,0,0.4-0.1,0.4
										C42.9,80.2,34.1,77,32,76.9c-0.4,0-1.2,0-0.8,0.6c5.9,2.2,7.2,1.3,0,2.1c-1.5,0.7-0.3,0.9,1.3,1.1
										c6.9,0.5,6.9,0.5,13.9,0.9c0.1,0.1,0.1,0.1,0.1,0.2c-4.1,1-8.2,1.8-12.3,2.3c-5,0.7-6.7,3-5-4.8c0.4-1.7,0.6-3.3,1.2-4.8
										C30.7,73.7,32.1,70.5,32.4,70.9z"/>
									<g>
										<path class="st26" d="M45.9,83.2c0.2,0,0.3,0,0.3,0.1c-3.9,3.3-8.7,5.3-13.2,7.6c-0.1-0.1-0.1-0.1-0.3-0.1
											c-1-2.1-1-2.1-1.9-4.1c0-0.1,0.2-0.2,0.3-0.2c0.6-0.2,6.2-0.9,9.1-1.5C42.3,84.5,45.6,83.3,45.9,83.2z"/>
										<path class="st26" d="M46,82.3c0.1,0,0.1,0,0.3,0c-4,1.3-9.9,2.6-14.1,3.2c-1.2,0.2-3.3,0.5-2.5,0
											C35.2,84.8,40.7,83.8,46,82.3z"/>
									</g>
								</g>
							</g>
							<g>
								<g>
									<path class="st25" d="M64.6,71.9c-0.8,0.4-5.2,2.6-5.6,3c-0.1,0.1,0,0.3,0,0.3c-1.2,1-2.4,1.9-3.5,2.9
										c-0.3-0.1-0.3-0.1-0.7-0.2c0.5-0.3,2.2-1.8,2.9-2.2c-0.1-0.5-0.3-0.1-0.4-0.3c1.8-1.2,3.8-2.2,5.7-3.2
										C63.2,72.8,64.2,71.7,64.6,71.9z"/>
									<path class="st25" d="M54.7,78.1c-0.5,0.3-0.6,0.2-0.8,0.2c1-1.1,2.2-1.9,3.4-2.8c0.1,0.2,0.3-0.2,0.4,0.3
										C56.9,76.2,55.3,77.8,54.7,78.1z"/>
								</g>
								<path class="st24" d="M68.6,70.4c0.3,0.2,1.3,2.6,1.5,3.1c1,2.7,1.5,5.2,1.6,8.1c0,1.3,0,2.7-0.2,4c-0.2,0.2-0.8,0-1,0.1
									c-0.1,0.1-0.8,2.4-0.9,2.8c-0.3,0.7-1.5,3.6-1.9,3.8c-0.5,0.2-3.2-1.1-3.9-1.4c-2.7-1.3-7.5-3.9-9.6-6
									c-0.2-0.2-1.3-1.2-1.3-1.3s0.2-0.2,0.2-0.4c0-0.2,0-0.4,0-0.5c0-0.6,0-1.1,0-1.7c0-0.2,0-0.3,0-0.5c0-0.9,0-0.9,0-1.8
									c0.4,0,0.7-0.2,0.8-0.2c0.2-0.1,0.3,0.1,0.8-0.2c0.3,0.1,0.3,0.1,0.7,0.2c-0.8,0.8-2.5,1.9-1.5,2.2c2-0.4,13.5-3.8,14.4-3.6
									c0.2,0,0.6,0.5,0.3,0.7c-6.2,2.2-7.6,1.4-0.3,2.1c0.5,0.1,0.4,0.2,0.4,0.7c-5,0.9-10.2,0.7-15.2,1.4
									c5.4,1.1,10.8,2.3,16.4,3c1.5-4.8,0-9.9-2.4-14.1c-1,0.3-2,0.8-3,1.3c-0.4-0.2-1.4,0.8-1.6,0.4c0.8-0.4,4.4-2.2,4.9-2.2
									C67.9,70.1,68.6,70.4,68.6,70.4z"/>
								<path class="st25" d="M66.4,90.9c0.1,0,0.2,0,0.2-0.1c0.3-0.4,1.5-3.4,1.9-4.2c0,0,0.6,0,0.7-0.1c0.2,0.2-1.5,4.3-1.8,4.8
									C67.1,91.2,66.8,91.1,66.4,90.9z"/>
								<g>
									<path class="st26" d="M55.4,78.2c1.1-1,2.3-1.9,3.5-2.9c0,0,0-0.3,0-0.3c0.4-0.3,4.8-2.6,5.6-3c1-0.5,2-0.9,3-1.3
										C70,74.8,71.4,80,70,84.7c-5.5-0.7-10.9-1.9-16.4-3c5-0.8,10.2-0.5,15.2-1.4c0-0.5,0.1-0.6-0.4-0.7
										c-7.3-0.7-5.9,0.1,0.3-2.1c0.3-0.2-0.1-0.6-0.3-0.7C67.4,76.6,56,80,54,80.4C53,80.2,54.6,79,55.4,78.2z"/>
									<path class="st26" d="M68.6,86.6c-0.4,0.9-1.7,3.9-1.9,4.2c-0.1,0.1-0.1,0.1-0.2,0.1c-2.5-1-10.6-5.7-12.8-7.8
										c2,0.6,4.1,1.4,6.1,1.9C62.6,85.7,65.6,86.2,68.6,86.6z"/>
									<path class="st26" d="M53.9,82.3c5.2,1.1,10.4,2.5,15.7,3.2c0.1,0.1,0.1,0.1,0.1,0.2C64.3,85.2,59,83.9,53.9,82.3z"/>
								</g>
							</g>
							<path class="st27" d="M53,83.4c0-0.1,0.2-0.2,0.2-0.4c0-0.2,0-0.4,0-0.5c0-0.6,0-1.1,0-1.7c0-0.2,0-0.3,0-0.5
								c0-0.2,0-1.6,0-1.7c-3,0-3,0-6.1,0c-0.1,0.1,0,1.8,0,2.1c0,0.5,0.1,1,0.1,1.4c0,0.3,0,0.6,0,0.8c-0.1,1.2,0.1,0.5,0.2,0.5
								c0.3-0.1,5.4-0.1,5.7,0C53,83.5,53,83.5,53,83.4z"/>
						</g>
					</g>
				</g>
			</g>
		</g>
	</g>
</g>
</svg>
