<?xml version="1.0" encoding="utf-8"?>
<!-- Generator: Adobe Illustrator 28.3.0, SVG Export Plug-In . SVG Version: 6.00 Build 0)  -->
<svg version="1.1" id="Calque_1" xmlns="http://www.w3.org/2000/svg" xmlns:xlink="http://www.w3.org/1999/xlink" x="0px" y="0px"
	 viewBox="0 0 100 100" style="enable-background:new 0 0 100 100;" xml:space="preserve">
<style type="text/css">
	.st0{fill:#08151D;}
	.st1{fill:#EBE8E3;}
	.st2{fill:#E2B580;}
	.st3{fill:#311D10;}
	.st4{fill:#322B29;}
	.st5{fill:#E9CEAD;}
	.st6{fill:#C89860;}
	.st7{fill:#F1E9D8;}
	.st8{fill:#F6EBC4;}
	.st9{fill:#632C18;}
	.st10{fill:#C9BFAE;}
	.st11{fill:#CFCED3;}
	.st12{fill:#858786;}
	.st13{fill:#AF7C45;}
	.st14{fill:#774A26;}
	.st15{fill:#8C5D33;}
	.st16{fill:#080909;}
	.st17{fill:#9C6D3D;}
	.st18{fill:#563319;}
	.st19{fill:#502A1E;}
	.st20{fill:#833547;}
	.st21{fill:#FEFFFF;}
	.st22{display:none;}
	.st23{display:inline;fill:#A1A09F;}
	.st24{display:inline;fill:#C1C0C0;}
	.st25{display:inline;fill:#696866;}
	.st26{display:inline;fill:#8C8C8B;}
	.st27{display:inline;fill:#7B7B7A;}
	.st28{display:inline;fill:#464646;}
	.st29{display:inline;fill:#090909;}
	.st30{display:inline;fill:#423534;}
	.st31{display:inline;fill:#D5D5D6;}
	.st32{display:inline;fill:#F0EFEF;}
	.st33{fill:#CAB479;}
	.st34{fill:#2A1122;}
	.st35{fill:#AAC9AD;}
	.st36{fill:#210E16;}
	.st37{fill:#DBE9DE;}
	.st38{fill:#090909;}
	.st39{fill:url(#SVGID_1_);}
	.st40{fill:#102116;}
	.st41{fill:#05A67A;}
	.st42{fill:#618D64;}
	.st43{fill:url(#SVGID_00000037656080576072297490000009361573923921243799_);}
</style>
<g>
	<g>
		<path class="st0" d="M37.4,85.5c1.8,1.1,3.8,2.1,5.5,3.4c1.2,0.9,2.4,2,3.2,3.3c-5.2-3.4-12.4-6.6-18.6-6.8
			C30.6,84,34.2,84.8,37.4,85.5z"/>
		<path class="st0" d="M69,84.8c0.5,0,1.2,0,1.6,0.1c3.5,0.8-0.3,0.6-2.6,1c-4.8,0.9-10.4,3.8-14.5,6.4C57.3,87.6,62.9,84.3,69,84.8
			z"/>
		<path class="st1" d="M92.3,49c0,0.3,0.1,0.7,0.1,1c0.3,2.2,1.5,6.5,0.4,6.7c-0.6-6-2.3-8.1-1.9-8.3C91.6,48.7,91.6,48.7,92.3,49z"
			/>
		<g>
			<path class="st0" d="M26,6.1c2.1,1.4,3.8,5.1,4.2,5.3c1.6,0.6,6.2-0.7,8.4-0.3c-1-2.5,3.9,0.1,7.1,0.1c-1.8-0.8-1.8-0.8-3.5-1.5
				c2.5-0.3,3.4,0.5,2-1c2.2-0.6,5.2,2.2,5.5,2.2c0.3,0,2.3-2.1,5-2.6c0.2,0.2,0.2,0.2,0.4,0.4c-2.1,2.3-1,0.5,2.8,1
				c-5.5,2.2-3.6,1.9,1.6,0.4c1.9-0.1,2.1-0.7,2.1,1c2-0.5,6.8,1,8.4,0.3c0.3-0.1,1.6-3.2,3.6-4.8c4.9-4,15-2.5,15.5,4.9
				c0.2,2.1-0.8,5.8-1.6,7.8c-1.6,4.1-4.7,7.5-8.8,9.1c3.4,1.3,13.1,14.4,12.6,15.3c-4-1.4,0.8,2.2,1.1,4.1c0.1,0.5-0.3,1.3-0.3,1.3
				c-0.7-0.3-0.7-0.3-1.3-0.6c-0.4,0.2,1.3,2.3,1.9,8.3c1.8,17.9-10.2,23.9-25.7,26.8c-6.4,1.2-3.6,0.5,0.1-1.1
				c-4.4,0.8-10.1,2.3-13.5,5.4c-3.3,3,1.7-0.8,4.3-1.8c2.2-0.9,6.9-2.2,2,0c-3.7,2.5-7.3,5.3-10.1,8.8c-3.3-4.1-7.4-7.2-11.9-9.9
				c0.1-0.2,3.3,0.8,3.6,0.9c2.5,1,8.9,5.8,3.1,1c-1.6-0.9-1.6-0.9-3.1-1.8c-3.5-1.5-18-5.2-5-0.9c0.9,0.5-1.6-0.2-2.8-0.4
				c-10-2-23.2-5.3-26.2-16.6c-1.5-5.6-1-13.2,1.6-18.4c-0.1-0.1-0.1-0.1-0.2-0.2c-3.7,2-0.7-3,1.8-5.3c-3.2,0.6-2,0.1-2.1-0.5
				c3.5-5.1,7.2-11,12.6-14.3c-2.9-0.9-5.8-3.3-7.4-5.9c-2.2-3.7-4-11-1.4-14.8C15.1,3.6,22.2,3.5,26,6.1z"/>
			<g>
				<path class="st1" d="M67.2,83.5c-0.6,1.9,1.3,0.4,1.8,1.3c-6.1-0.5-11.7,2.8-15.4,7.6c-2.8,1.8-3.5,3.3-3.8,3.3
					c-0.2,0-2.2-2.5-2.8-3c0,0-0.2,0-0.9-0.4c-0.8-1.3-2-2.4-3.2-3.3c-1.7-1.3-3.7-2.3-5.5-3.4c-2-1.1-3.8-0.3-3.6-1.8
					c1.2,0.2,3.7,1,2.8,0.4c-13-4.3,1.5-0.6,5,0.9c1.6,0.9,1.6,0.9,3.1,1.8c5.8,4.8-0.6,0-3.1-1c-0.3-0.1-3.6-1.2-3.6-0.9
					c4.5,2.7,8.6,5.9,11.9,9.9c2.8-3.6,6.4-6.3,10.1-8.8c4.9-2.2,0.2-0.9-2,0c-2.5,1.1-7.6,4.8-4.3,1.8c3.5-3.1,9.1-4.6,13.5-5.4
					C63.6,84.1,60.8,84.7,67.2,83.5z"/>
				<path class="st2" d="M79.6,37.2c-1,2.1-1.1,4.6-2.6,6.4c-0.7-1.2-0.3,0.2-0.1,0.7c-1.5,4-3.2,7.7-7.8,8.3
					c-1.9-0.8,0.8-1.8,0.9-1.8c0.6,0,2.9,2.5,0.5-0.4c0.6-0.5,0.6-0.5,1.2-1.1c1.2,0.6,0.2,0,0.2-0.4c0-0.3,1.7-1.3,1.1-4.9
					c-0.4-2.7-2.8-5.5-2.8-5.9c-0.2-0.9,0.8-1.2-1-2.9c2.4-2.7-2.1,1.1-0.8-1.7c-1.2,1.2-1.5,0.4-1.9,0.4c-5,0.5-8,5.9-7.1,10
					c-1.5-0.3-3.2-3.2-3.6-3.3c-1.6-0.5-1,1.6-3.8-2c-0.8,1.4-0.8,1.4-1.6,2.8c-0.4-4.1-0.3-5.3-1.3-0.7c-0.8-1.2-0.8-1.2-1.6-2.4
					c-2.9,5-2.7,2.4-4,2.6c-0.2,0-2.6,2.9-2.9,3.3c0.5-3.2-0.6-6.7-3.2-8.7c-0.6-0.4-3.6-1.9-3.8-1.8c-0.6,0-0.3,1.5-1.7-0.1
					c0.2,0.5,0.2,0.5,0.4,0.9c-0.5,1.6-4.4-3.1-1.3,0.9c-2.4,1.6-1.1,2.6-1.1,2.8c-0.1,0.5-4.1,4.3-2.7,9c0.4,1.4,1.7,2,0.6,2.3
					c2.4,0.4,1.9,1.1,0.4,2.5c-2.8-1.2-5-5-5-8c0-0.9,0.6-2.5-0.7,0.3c-1.3-2.2-1.5-4.7-2-7.1c0-0.1,0-0.1,0-0.1
					c0.9-1.8,1.7-3.7,2.7-5.5c-0.4-0.1-0.4-0.1-0.9-0.3c2.6-4.1,7-10.7,10.9-13.5c8.7-6.1,26.5-5.9,34.8,0.9
					c3.1,2.5,7.8,9.1,10.1,12.6c-0.4,0.1-0.4,0.1-0.9,0.1C78.1,33.3,78.8,35.2,79.6,37.2z"/>
				<path class="st2" d="M15.9,44.7c-0.9,3.6-1.3,4.9-0.6,8.8c1.2,6.2,6.5,11.9,11.8,15.2c4.1,2.5,8.8,3.9,13,6.1
					c3,1.6,5.6,3.1,7.8,5.8c1.4,1.7,2,3.7,2.2,3.6c0.3-1.3,1.2-3.2,2.1-4.3c1.8-2.2,5.3-4,7.8-5.3c2.7-1.3,6.5-2.7,9.3-4.1
					C80.5,64.8,88.2,56.2,83.7,43c1.9,3.7,2.5,6.1,2.3,10.3c-0.4,8.2-5.1,14.3-12.2,18.2c-7.9,4.3-19,4.4-23.7,13.3
					c-7-10.6-19-8.6-28.5-16.5c-6-5-8.5-11.9-7.5-19.6C14.5,45.7,16.7,41.2,15.9,44.7z"/>
				<path class="st3" d="M83.7,43c4.4,13.2-3.3,21.8-14.3,27.5c-2.8,1.5-6.6,2.8-9.3,4.1c2-1.2,2.9-2.6,4.4-4.1
					c0.5-0.5,1.2-0.8,1.8-1.8c0,0.2-0.1,0.8,0.1,0.9C78.8,63,86,55.3,81,40.6c-0.2-0.5-0.2-1-0.4-1.4c0.4-0.9-0.8-3.2-0.3-3.5
					c0.9,1.9,1.7,4.6,2.6,6.4C83.3,43.1,83.6,42.8,83.7,43z"/>
				<path class="st3" d="M20.3,37.2c-5.7,13.9-3.2,21.7,9,29.8c1.5,1,2.9,1.8,4.4,2.7c0.7,0.4,1.6,0.8,1.9,1c1.6,1.1,2.8,3,4.5,4.1
					c-4.2-2.2-9-3.6-13-6.1c-5.3-3.2-10.5-9-11.8-15.2c-0.8-3.8-0.3-5.2,0.6-8.8c0.9,0.7,3-5.5,4-7.5c0-0.1,0.4-0.2,0.4-0.2
					C20.3,37.1,20.3,37.1,20.3,37.2z"/>
				<g>
					<path class="st4" d="M74.2,23.2c0-1,0-1,0-2c1.3-4.1,3.3-12.4,8.9-12.8c8.3-0.6,3.9,13.2-1.6,16.8c-1.1,0.7-4.8,2.1-4.9,1.5
						c2.9-3,6.2-4.9,0.1-2.3c0.3-0.6,2.8-5.5,2.1-5.5C77,20.3,74.1,24.7,74.2,23.2z"/>
					<path class="st5" d="M74.2,21.2c0,1,0,1,0,2c-0.4-0.3-1.1-2.3-1.1-2.6c-0.2-1.8,1-4.5-0.8-0.6c-0.7-1.8-0.3-3.9,0.6-5.5
						c-0.2,0.1-0.2,0.1-0.4,0.1c-2.5,3.7-2.1,1.9-0.1-1.7c-2.4,1.9-3.4,3.4-1-0.7c1.6-2.7,4.3-5.5,7.6-6C78,6.7,77.1,7.3,76.4,8
						c-2.7,2.6,0.4,0,3-0.6c2.3-0.5,6.9-0.3,2.1,0.1C75.4,9.5,73.9,15.4,74.2,21.2z"/>
				</g>
				<path class="st5" d="M33.2,78c7,2.2,12.7,4.6,16.8,11c3.4-6.1,10.3-8.9,16.8-10.8c-5.7,2.7-13.3,5.9-16.8,11.3
					C45.8,83.8,39.2,81.2,33.2,78z"/>
				<path class="st5" d="M22.5,28.5c0,0.2,0,0.2,0.1,0.4c-2.5,2.9-7.2,7-2.6,4.6c0.1,0.1,0.1,0.1,0.2,0.2c-4.7,3.9-4.7,3.9-9.3,7.8
					C14.4,36.9,17.5,31.6,22.5,28.5z"/>
				<path class="st5" d="M77.4,28.6c4.7,2.7,7.6,7.7,10.8,12c-4.2-3.5-4.2-3.5-8.5-6.9c0-0.5,2.2,0.7,2.3,0.4
					C79.7,31.4,79.7,31.4,77.4,28.6z"/>
				<path class="st5" d="M87.5,45.5c4.6,5.9,4.2,13.3-0.3,19.1C90.3,58.6,89.8,51.6,87.5,45.5z"/>
				<path class="st1" d="M88.8,70.7c-3.4,5.4-11.7,10-18,10.3c5.3-2.1,14.6-5.3,17.3-10.7C88.3,70.5,88.4,71,88.8,70.7z"/>
				<path class="st5" d="M12.4,45.7c-2.5,5.9-2.2,12.6,0.3,18.5C8.6,59.1,7.8,50.9,12.4,45.7z"/>
				<path class="st1" d="M23,78.5c-0.4,0.1-0.3,0.4-0.4,0.9c-4.8-1.9-10.4-5.2-12.6-10.1c0.2,0,0.5-0.3,0.5-0.3
					c0.3-0.1,0.4,0.8,0.4-0.3C12.1,73.2,19,76.8,23,78.5z"/>
				<path class="st6" d="M80.6,39.2c0.2,0.5,0.3,1,0.4,1.4c-0.8,1.8-1.3,3.7-3.4,4.1c0-0.1-0.5-1.1-0.6-1.1c1.5-1.8,1.5-4.3,2.6-6.4
					C79.8,37.7,80.4,38.6,80.6,39.2z"/>
				<path class="st5" d="M88.8,70.7c-0.5,0.3-0.5-0.2-0.7-0.4c2.1-4,0.6-1.8-1.1-0.4c-3.3,2.9,1-1.3,2.3-3.8
					c0.3-0.6,1.1-2.1,1.3-2.7c0.8-2.2,1.3-5,0.7,0.1C91.1,66.2,90.3,68.4,88.8,70.7z"/>
				<path class="st5" d="M10.9,68.7c0,1-0.1,0.2-0.4,0.3c0,0-0.3,0.2-0.5,0.3c-1.1-2.6-1.7-5.8-1.5-8.5c0.4,1.6,0.9,3.3,1.6,4.8
					c1.4,2.8,5.9,7.7,0.6,2.5C10.7,68,10.8,68.5,10.9,68.7z"/>
				<path class="st5" d="M23,78.5c1.9,0.8,3.9,1.5,5.9,2.2c-2.3,0.4-4.2-0.5-6.3-1.3C22.7,79,22.6,78.6,23,78.5z"/>
				<path class="st7" d="M83.8,40.5c2.6,1.2,5.1,2.9,6.3,5.6C87,43.3,87,43.3,83.8,40.5z"/>
				<path class="st8" d="M15.4,40.6c0.1,0.1,0.1,0.1,0.2,0.2c-2.1,1.5-4,3.4-5.6,5.5C10.7,43.6,13.1,42.1,15.4,40.6z"/>
				<path class="st1" d="M69.1,13.1c0.8-0.2-0.3,0.9-1,2.1c-0.2-1.7-1.7-0.6-4.2-1.4C65.7,13.7,67.4,13.7,69.1,13.1z"/>
				<path class="st5" d="M63.3,12.1c0.7,0,2.8,0.3,1,0.7C61.7,13.5,56.9,13.2,63.3,12.1z"/>
				<path class="st7" d="M34.6,12.2c6.6,0.3,5.8,1-0.6,0.4C33.5,12.2,34.2,12.6,34.6,12.2z"/>
				<path class="st1" d="M31.2,13.2c2.2,0.4,2.2,0.4,4.3,0.8C32.8,13.7,31.6,15.1,31.2,13.2z"/>
				<path class="st8" d="M40.3,11.8c1.6,0.2,1.6,0.2,3.2,0.4C42.6,12.7,41,12.7,40.3,11.8z"/>
				<path class="st9" d="M31.9,15.2c0.1,0,0.1,0,0.2,0.1C30.7,17.7,29.6,15.9,31.9,15.2z"/>
				<path class="st10" d="M58.7,11.8c3.6-0.4-1.7,0.9-1.8,0.6C56.9,12.3,58.5,11.8,58.7,11.8z"/>
				<path class="st11" d="M32,14.5c0.2,0.1,0.2,0.1,0.4,0.2C32.5,15.4,31.9,14.9,32,14.5z"/>
				<g>
					<path class="st4" d="M15.4,8.4c7.3-1.2,10.2,10.8,9.6,16.2c-4.2-5.4-6.4-8.2-2.3-0.4c-1.7-0.5-1.7-0.5-3.4-1
						c1.7,1.4,7.4,5.5,1.2,3.4C13.2,23.9,9.3,9.4,15.4,8.4z"/>
					<path class="st5" d="M26.1,22.6c-0.1-0.1-0.1-0.1-0.3-0.1c0.2-6.6-0.3-12-7.2-14.8c-5.8-0.6,2.1-1.5,6,1.7
						c-0.4-1.3-5.6-4.6-1.1-2.4c2.3,1.1,5.8,5.1,6.1,7.7c-4.2-4.1-0.8-0.7-0.1,1.8c-4.4-4.8-0.4,0.1-1.3,2.7
						c-0.1,0.1-0.1,0.1-0.2,0.2C25.7,16.4,28.2,18,26.1,22.6z"/>
					<path class="st12" d="M26.1,22.6c-0.3,0.7-0.3,0.9-0.3-0.1C26,22.6,26,22.6,26.1,22.6z"/>
				</g>
				<path class="st13" d="M22.3,44.3C18,53.3,25.4,58,29.8,61.9c-0.5,1.1-1.3-0.5-1.3,0.4c2.9,2.5,2.9,2.5,5.8,4.9
					c0.8-0.6-0.8-2-2.1-3.3c0.9,0.5,1.7,1.6,2.4,2.3c0.1,1,0,1.6-0.3,2.4c-2-0.8-3.9-2.2-5.6-3.4c-0.9,0,0.3,0.4,0.5,1.8
					c-12.2-8.1-14.7-16-9-29.8C20.8,39.6,21,42.1,22.3,44.3z"/>
				<path class="st13" d="M67.5,61c-1.3-0.2-1.3-0.2-2.7-0.4c0.3-1.2,0.3-1.7,0.4-2.8c0.3-4.1-0.4-4.9-0.3-5.1c1.2,0,2.5,0.1,3.7,0
					c0.2,0,0.3,0.3,0.4,0.3c0.1,0,0.1-0.3,0.1-0.3c4.7-0.5,6.3-4.2,7.8-8.3c0.2,0.6,0.6,1.3,0.7,1.9C78.7,53.9,72.6,57,67.5,61z"/>
				<path class="st13" d="M28,52c0.1,0,0.2,0,0.3,0c0.7,0.3,1.8,0.7,2.6,0.7c0.4,0,0.2,0,0.6-0.1c0.5,0.1,2.4-0.2,2.3-0.4
					c0.5,0.1,1.2,0.1,1.3,0.4c0,0.1-0.3,0.9-0.3,1.8c0,2.9,0,5.1,1.1,7.8c-0.5,0.1-0.5-1-0.6-1.1c-0.1-0.2-3.7-1.8-4-1.1
					C26,55.5,19.7,52.5,23,44C23,47,25.1,50.8,28,52z"/>
				<path class="st3" d="M23,44c-3.2,8.5,3,11.4,8.3,16c1.5,1.3,4.2,3.3,5.1,4.3c0.5,0.5,0.4,0.7,0.4,0.7c-0.2,1.6-4-2.2-5.6-2.1
					c-0.4-0.3-1-0.7-1.4-1C25.4,58,18,53.2,22.3,44.3C23.6,41.5,23,43.1,23,44z"/>
				<path class="st3" d="M77,43.6c0,0,0.5,1.1,0.6,1.1c2.3,5.6,0.7,10-3.6,14c-2.2,2.1-5,3.7-7.3,5.7c-1-0.6-2.5,0.9-3.3,0
					c0.1-0.2,0.3-0.5,0.4-0.7c0.8,0.1,2.6-2,3.6-2.7c5.1-4,11.2-7.1,10.1-14.8c-0.1-0.6-0.5-1.4-0.7-1.9
					C76.7,43.8,76.3,42.4,77,43.6z"/>
				<path class="st14" d="M45.2,76.1c2.5,1.7,1.5,0.7,1.3-0.6c-0.1-0.5-0.3-1.1-0.3-1.6c0.3-0.2,0.5,0.1,0.6,0.1
					c0.4,0.7,0.7,1.4,1,2.1c-1.1,1.4,0.6,3.1,0.1,4.6c-2.2-2.7-4.8-4.3-7.8-5.8c-1.7-1.2-2.8-3-4.5-4.1c-0.4-0.2-1.3-0.6-1.9-1
					c0.6,0,0.6-0.7,0.7-1.1c0.2-0.8,0.4-1.4,0.3-2.4C36.5,67.9,43.9,75.2,45.2,76.1z"/>
				<path class="st14" d="M64.5,70.6c-1.5,1.6-2.4,2.9-4.4,4.1c-2.5,1.2-6.1,3.1-7.8,5.3c0.3-1.3,1.2-2.4,1.8-3.6
					c0,0.1,0.1,0.2,0.2,0.1c0.3-0.2,3.3-2.8,3.9-3.4c0.8,0.8,4.6-3.7,5.3-5.1c0.1-0.1,0.2-0.2,0.3-0.3
					C64.1,69.1,64.1,69.1,64.5,70.6z"/>
				<path class="st14" d="M55.2,74.3c-0.4,0.5-0.8,1.5-1.1,2.1c-0.7,1.1-1.5,2.2-1.8,3.6c-0.8,1.1-1.8,2.9-2.1,4.3
					c-0.2,0.1-0.8-1.9-2.2-3.6c0.5-1.5-1.2-3.2-0.1-4.6c0.7,1.7,1.2,3.6,2,5.3c0.1,0.2,0.2,0.7,0.4,0.7c0.3,0,1.8-4.2,1.9-4.8
					c0.2-0.8,0.1-2.7,0.9-1.1C53.8,75.5,54.7,73.7,55.2,74.3z"/>
				<path class="st13" d="M66.3,68.7c0,0,0.3-0.2,0.1-0.8c0-0.1-0.8-0.8-0.7-1.3c0.1-0.7,8.5-6,8.3-7.9c4.2-4,5.9-8.3,3.6-14
					c2.1-0.5,2.6-2.4,3.4-4.1c5,14.7-2.2,22.4-14.6,28.9C66.3,69.4,66.3,68.9,66.3,68.7z"/>
				<path class="st15" d="M66.3,68.7c-0.6,1-1.4,1.4-1.8,1.8c-0.4-1.4-0.4-1.4-0.7-2.8c0.6-0.6,1.9-2.3,3-3.3c2.3-2.1,5-3.6,7.3-5.7
					c0.3,2-8.1,7.2-8.3,7.9c-0.1,0.5,0.7,1.2,0.7,1.3C66.6,68.5,66.3,68.7,66.3,68.7z"/>
				<path class="st15" d="M34.4,68.6c-0.1,0.4-0.2,1.1-0.7,1.1c-1.5-0.9-3-1.7-4.4-2.7c-0.2-1.4-1.4-1.8-0.5-1.8
					C30.5,66.4,32.3,67.7,34.4,68.6z"/>
				<path class="st16" d="M36.8,65c2.3,2.3,5.4,6.4,10.2,7.7c6.4,1.7,13-3.2,16.5-8.3c0.8,0.9,2.3-0.6,3.3,0c-1.1,0.9-2.4,2.7-3,3.3
					c-0.1,0.1-0.2,0.2-0.3,0.3c-1.8,1.7-3.5,3.5-5.3,5.1c-0.6,0.6-3.6,3.3-3.9,3.4c-0.1,0.1-0.2,0-0.2-0.1c0.4-0.6,0.8-1.6,1.1-2.1
					c0.5-0.7,2.8-2.7,1.9-2.4c-1.9,2.6-6,2.6-8.9,2.4c-0.1,0-0.2-0.3-1.4-0.3c-0.1,0-0.3-0.3-0.6-0.1c0,0.6,0.2,1.1,0.3,1.6
					C46,76,45.3,73.6,44.4,73c-2.9-1.4-0.5,0.4,0.8,3.1c-1.3-0.9-8.7-8.2-10.5-10c-0.7-0.7-1.5-1.8-2.4-2.3c-0.3-0.3-0.6-0.7-1-1
					C32.8,62.8,36.6,66.6,36.8,65z"/>
				<path class="st13" d="M29.8,61.8c0.4,0.3,1,0.7,1.4,1c0.4,0.3,0.7,0.7,1,1c1.3,1.3,2.9,2.7,2.1,3.3c-2.9-2.5-2.9-2.5-5.8-4.9
					C28.5,61.3,29.3,63,29.8,61.8z"/>
				<path class="st15" d="M67.5,61c-1,0.8-2.8,2.8-3.6,2.7c0.2-0.3,0.5-0.8,0.1-0.9c0.4-0.8,0.5-1.5,0.7-2.3
					C66.1,60.8,66.1,60.8,67.5,61z"/>
				<path class="st5" d="M68.6,52.6c-1.2,0.1-2.5,0-3.7,0C65,52.4,68.1,51.4,68.6,52.6z"/>
				<path class="st17" d="M35.8,62.1c0.2,0.5,0.4,1.1,0.7,1.6c-0.1,0.3-0.1,0.3-0.1,0.6c-1-1-3.7-3-5.1-4.3c0.3-0.8,3.8,0.9,4,1.1
					C35.3,61.2,35.3,62.2,35.8,62.1z"/>
				<path class="st2" d="M30.8,52.7c-0.8,0-1.9-0.4-2.6-0.7c1.7-1.7,1.4-1,3.4-0.2C31.2,52.3,31.2,52.3,30.8,52.7z"/>
				<path class="st5" d="M33.7,52.2c0.1,0.2-1.8,0.5-2.3,0.4C32.2,52.2,31.6,51.7,33.7,52.2z"/>
				<path class="st3" d="M48.2,74.3c0.7,2.3,1.3,4.7,1.6,7.1c-0.8-1.7-1.3-3.6-2-5.3c-0.3-0.7-0.6-1.4-1-2.1
					C48,74,48.2,74.2,48.2,74.3z"/>
				<path class="st18" d="M46.5,75.5c0.3,1.3,1.2,2.3-1.3,0.6c-1.3-2.7-3.6-4.6-0.8-3.1C45.3,73.6,46,76,46.5,75.5z"/>
				<path class="st18" d="M58.2,73.1c1.8-1.7,3.5-3.4,5.3-5.1C62.8,69.4,59,73.9,58.2,73.1z"/>
				<path class="st18" d="M55.2,74.3c-0.5-0.6-1.4,1.2-2.2,2c-0.8-1.7-0.7,0.3-0.9,1.1c-0.2,0.5-1.7,4.8-1.9,4.8
					c-0.1,0-0.2-0.5-0.4-0.7c-0.2-2.4-0.8-4.8-1.6-7.1c3,0.2,7,0.2,8.9-2.4C58,71.6,55.7,73.6,55.2,74.3z"/>
				<g>
					<path class="st5" d="M59.3,43.9c0.1,0.3,2.2,2.5,3.1,5c0.6,1.8,1.1,3.8,1.1,5.7c0.3,8-3.7,13-12,11.9c0-0.3,0-0.3,0.1-0.6
						c4.8,2.1,6.5-2.8,6.3-6.7C57.5,47,42.3,47,41.9,59.1c-0.1,3.9,1.5,8.9,6.2,6.6c0,0.4,0,0.4,0.1,0.8c-0.5,0.9-12.7,1.2-12-12.2
						c0.1-1.4,0.8-4.2,1.3-5.6c0.7-1.7,1.8-3.1,3-4.6c0.3-0.4,2.7-3.2,2.9-3.3c1.2-0.2,1.1,2.5,4-2.6c0.8,1.2,0.8,1.2,1.6,2.4
						c1-4.6,0.9-3.3,1.3,0.7C51,40,51,40,51.8,38.6c2.8,3.6,2.2,1.5,3.8,2C56.2,40.7,57.9,43.6,59.3,43.9z"/>
					<path class="st19" d="M73,44c0.5,3.6-1.1,4.7-1.1,4.9c0,0.3,1,1-0.2,0.4c-0.6,0.5-0.6,0.5-1.2,1.1c2.4,2.9,0.1,0.3-0.5,0.4
						c-0.2,0-2.8,1.1-0.9,1.8c0,0,0.1,0.3-0.1,0.3c-0.1,0-0.2-0.3-0.4-0.3c-0.5-1.2-3.7-0.2-3.7,0c-0.1,0.2,0.6,1,0.3,5.1
						c-0.7-0.8-0.8-2.6-1.6-3.1c-0.1-1.9-0.5-4-1.1-5.7c0.4,0.1,0.5-0.4,0.7-0.6c1-0.6,6.7-2.1,7.3-6C72,42.7,72,44.7,73,44z"/>
					<path class="st19" d="M66.5,33.9c0.5,0.4,2.6,1.8,2.7,1.3c1.8,1.7,0.8,2,1,2.9c0.1,0.4,2.5,3.3,2.8,5.9c-1,0.7-1-1.3-2.6-1.7
						c0.6-4.1-5-8.2-7.8-4.1c-2.1,3.1,0.8,6.7,0.6,10c-0.2,0.1-0.3,0.6-0.7,0.6c-0.9-2.5-3.1-4.7-3.1-5
						C58.4,39.8,61.5,34.5,66.5,33.9z"/>
					<path class="st3" d="M69.2,35.2c-0.1,0.5-2.2-0.9-2.7-1.3c0.4,0,0.7,0.8,1.9-0.4C67.1,36.3,71.6,32.5,69.2,35.2z"/>
					<path class="st9" d="M58.1,59.1c-5.8,0.3-7.6,3.1-8.1,3.1c-0.4,0-2-2.7-8.1-3.1C42.3,47,57.5,47,58.1,59.1z"/>
					<path class="st7" d="M63.9,63.7c-0.1,0.2-0.3,0.5-0.4,0.7C60,69.5,53.4,74.3,47,72.7c-4.8-1.2-7.9-5.4-10.2-7.7
						c0,0,0.1-0.2-0.4-0.7c0.1-0.3,0.1-0.3,0.1-0.6c2,3.2,5.6,4,5.9,4.3c0.3,0.2,1.4,3.1,5.4,3.8c6.8,1.3,9-3.5,9.4-3.8
						c0.3-0.3,4.9-1.2,6.8-5.1C64.4,62.9,64.1,63.4,63.9,63.7z"/>
					<g>
						<path class="st16" d="M36.2,54.3c-0.7,13.4,11.5,13.1,12,12.2c0-0.4,0-0.4-0.1-0.8c-4.7,2.4-6.3-2.7-6.2-6.6
							c6,0.5,7.6,3.2,8.1,3.1c0.4,0,2.3-2.8,8.1-3.1c0.2,3.9-1.5,8.8-6.3,6.7c0,0.3,0,0.3-0.1,0.6c8.3,1.1,12.3-3.9,12-11.9
							c0.8,0.5,0.9,2.4,1.6,3.1c-0.1,1.2-0.2,1.7-0.4,2.8c-0.2,0.8-0.3,1.5-0.7,2.3c-1.9,4-6.4,4.9-6.8,5.1
							c-0.4,0.3-2.7,5.1-9.4,3.8c-4-0.8-5.2-3.6-5.4-3.8c-0.3-0.2-3.9-1-5.9-4.3c-0.3-0.5-0.5-1-0.7-1.6c-1.1-2.8-1.2-4.9-1.1-7.8
							C35.5,54.3,35.5,54.3,36.2,54.3z"/>
						<path class="st20" d="M49.9,68.3c0.6,0,3,0.5,5.1,0.4c-2,1.9-4.8,2.2-7.3,1.6c-4.9-2.3-2.9-1.4,0.4-1.6
							C48.4,68.7,49.7,68.3,49.9,68.3z"/>
					</g>
					<g>
						<path class="st19" d="M40.5,44.2c-1.2,1.4-2.3,2.8-3,4.6c-0.7,0.5-0.6-0.2-0.9-0.3c0.1-4.5,2.8-6.7,1-9.9
							c-2.8-4.9-9.8,0.2-7.6,5.2c-1.6,0.7-2.3,3.3-3.1,3.4c-1.4-4.7,2.6-8.6,2.7-9c0-0.3-1.3-1.3,1.1-2.8c-3.1-4,0.8,0.7,1.3-0.9
							c-0.2-0.5-0.2-0.5-0.4-0.9c1.4,1.6,1.1,0.2,1.7,0.1c0.2,0,3.3,1.4,3.8,1.8C40,37.5,41,41,40.5,44.2z"/>
						<path class="st19" d="M30.1,43.8c1.2,2.7,4.2,3.4,6.6,4.7c0.2,0.1,0.2,0.8,0.9,0.3c-0.5,1.3-1.2,4.1-1.3,5.6
							c-0.8,0-0.8,0-1.6,0c0-0.9,0.3-1.7,0.3-1.8c-0.1-0.2-0.8-0.2-1.3-0.4c-2.1-0.5-1.4,0-2.3,0.4c-0.4,0.2-0.1,0.2-0.6,0.1
							c0.4-0.5,0.4-0.5,0.9-0.9c-2-0.8-1.7-1.5-3.4,0.2c-0.1,0-0.2,0-0.3,0c1.4-1.4,2-2.1-0.4-2.5c1.2-0.4-0.2-1-0.6-2.3
							C27.8,47,28.5,44.5,30.1,43.8z"/>
						<g>
							<path class="st16" d="M36.7,48.5c-2.3-1.3-5.4-2-6.6-4.7c-2.2-5,4.7-10.1,7.6-5.2C39.5,41.8,36.8,44,36.7,48.5z"/>
							<path class="st1" d="M33.6,37.6c2.6-0.5,4.3,2.3,3.9,4.6c-0.5,0.9-0.2-0.4-0.4-1.3c-1.5-4.8-6.2-2.7-4.8,2.8
								C30,42.3,31.6,38,33.6,37.6z"/>
							<path class="st21" d="M34.6,38.9c0.5,0.2,0.5,0.2,0.9,0.5C35.7,42.2,32.1,40,34.6,38.9z"/>
						</g>
					</g>
					<g>
						<path class="st16" d="M70.5,42.3c-0.6,3.9-6.3,5.4-7.3,6c0.2-3.4-2.6-7-0.6-10C65.4,34.1,71.1,38.2,70.5,42.3z"/>
						<path class="st1" d="M65.1,37.6c3.2-0.6,5,3.8,2.6,5.7c1.4-5.8-3.7-6.6-4.8-1.9c-0.2,0.7,0.3,2-0.3,1.1
							C62.1,40.9,63.3,37.9,65.1,37.6z"/>
						<path class="st21" d="M65.4,39c3,0.2-0.2,3.4-0.5,0.4C65.2,39.2,65.2,39.2,65.4,39z"/>
					</g>
				</g>
			</g>
		</g>
	</g>
	<g>
		<g id="Background_00000062878337394185013110000010329248141396745877_" class="st22">
			<path class="st23" d="M33.3,11.1c-0.1,0.2-0.1,0.2-0.3,0.4c-2.5,0.9-5.1,2.7-7,4.6c-3.1,3.1-8,10.7-9.5,14.9
				c-0.4,1-0.4,1.8-0.5,2c-0.1,0.3-0.4,0.8-0.5,1.1c-0.1,0.3,0.1,0.7,0.1,1c0,0.1-0.3,0.2-0.5,2.2c-0.1,1.4,0,8.9,0.2,10.5
				c0,0.4,0.5,3.3,0.6,3.5c0.6,1.4,4.7,1.6,6,1.4c0.2,0,1.2-0.2,0.6-0.3c0.1,0,0.6-0.1,1.4-0.1c1.7,0,3.5,0.3,5.2-0.2
				c0-0.1,0-0.1,0-0.2c0.3,0.1,1,0.1,0.9,0.3c-1.1,0-2.2,0.1-3.3,0.2c-0.2,0-0.4,0-0.6,0c-0.4,0-1.2,0.1-1.5,0.3
				c-0.5-0.4-3.1,0.8-3.1,1c-0.1,0.8,7,1.5,7.9,1.6c0.6,0.1,1.2,0,1.8,0c1.9,0.2,3.8,0.5,5.6,0.6c2.2,0.2,9.7,0.6,11.3,0.3
				c1.1-0.2,0.5-0.9,0.8-1.2c0.4-0.5,5.8-0.4,6,0c0.1,0.3-0.8,0.8,0.2,1.1c1.3,0.5,12.7-0.3,15.1-0.7c2-0.1,9-0.5,10.4-1.3
				c1.1-0.6-0.5-1-0.9-1.3c-0.1-0.1-0.4-0.2,0-0.2c0.3,0.2,0.9,0,0.9,0c1,0,2,0.2,3.1,0.1c0.8-0.1,3.9-0.6,4.4-1.3
				c0.3-0.6,1.1-5.8,1.1-6.9c0.1-1.3,0-6.3-0.1-7.7c-0.2-2.4-0.9-6-2.2-8c-1.2-3-2.7-5.9-4.7-8.5c-0.8-0.7-1.2-1.8-1.9-2.7
				c-0.9-1.1-1.3-1.3-1.5-1.5c-0.1-0.1-0.3-0.5-0.3-0.6c-1.2-1.2-3-2.4-4.4-3.2c-0.2-0.1-0.8-0.1-0.9-0.2c-0.2-0.1-0.1-0.4-0.2-0.5
				c-0.4-0.3-1.2,0-1.2-0.6c2.9,0,5.7,0,8.6,0c0.1,0.6,1,0.6,1.4,1c1.1,1.4,2.5,2.4,3.5,3.8c1.3,1.8,2.1,3.9,3.3,5.8
				c1.3,3.5,2.4,7.1,2.9,10.9c0.2,1.4,0.1,3.1,0.5,3.8c0,3.2,0,6.3,0,9.5c-0.6,1.3-0.4,3.6-0.7,5c-0.2,0.7-0.8,1.5-0.8,1.7
				c0,0.1,0,1.3,0,1.6c0,0.1-0.2,0.6-0.2,0.7c-0.1,0.4,0.2,0.8,0.2,1c-0.1,0.9-0.6,3.2-0.8,4c-0.2,0.8-1.4,3.6-1.7,4.3
				c-0.2,0.5-0.8,1-0.8,1.1c-1.9,3.5-1.9,3.9-6,6.6c-3,0-6.1,0-9.1,0c0.6-0.6,2-0.9,2.7-1.3c0.1-0.1,0.2-0.4,0.4-0.5
				c0.1-0.1,0.3,0.2,1.8-0.7c2.7-1.7,5.3-7.9,7-10.7c0.1-1,0.7-1.5,0.7-2.9c0-1.8-2.2,0-3.2,0.3c-1.6,0.4-14.4,1.6-16.9,1.7
				c-7,0.4-18.3,0.4-25.4,0c-6.1-0.3-12.1-1.2-18.2-1.5c-1.6,0.4-0.2,1.3,0.7,3.1c0.4,0.8,0.7,1.7,1.1,2.5c0.1,0.2,0.3,0.2,0.3,0.2
				c0.2,0.4,0.8,1.6,1,1.9c0.9,1.4,3.9,5,5.2,5.9c0.9,0.6,3.1,1.4,3.5,2c-2.6,0-5.3,0-7.9,0c-2.2-1.4-3.1-1.7-4.7-4
				c-0.7-1.1-3.8-7.1-4.2-8.2c-0.9-2.7-1-6.4-1.1-6.8c-0.1-0.2-1.2-0.8-1.6-1.8c-0.1-0.3-1-5.5-1.1-6.3c-0.2-2.2-0.3-6.7,0.2-8.7
				c-0.1-1.8,0.4-3.5,0.9-5.1c0.1-0.2,0.4-0.4,0.4-0.5c0.3-1,0.5-2.4,0.8-3.4c0-0.1,0.4-0.5,0.5-0.6c0.4-1,0.7-2.4,0.8-2.6
				c0.1-0.3,0.4-0.5,0.5-0.7c0.1-0.3,0.2-1.3,0.4-1.6c0.9-2.2,3.7-7.1,5.6-8.4c0.9-0.6,2.5-1,3.2-1.9C28.1,11.1,30.7,11.1,33.3,11.1
				z"/>
			<path class="st24" d="M68.2,11.1c0.1,0.8,0.8,0.6,0.9,0.6c0.1,0.1,1.2,1,2.1,1.6s2.3,1.2,2.9,1.6c0.4,0.3,3.9,3.5,4.3,3.9
				c1.1,1.3,3.6,5.4,5,7.1c1.7,3.7,3.5,7.5,4.2,11.6c0,2.8,0.3,6.8-0.2,9.6c-0.1,0.8-0.7,2.1-0.8,2.8c-0.1,0.4,0.1,1.3-0.1,1.7
				c-0.4,1-5,1.2-6,0.9c0,0.1,0,0.1,0,0.2c-0.1,0-0.7,0.2-0.9,0c-0.4,0-0.1,0.2,0,0.2c-0.4,0.1-0.6,0.1-1.1,0
				c-0.3,0-0.3-0.2-1.3-0.3c-0.5-0.1-1-0.1-1.6-0.2c-0.8-0.1-2.2-0.2-2.9-0.2c1.2-0.4,2.3-0.9,3.3-1.7c0.4-0.3,1.2-1.1,1.5-1.5
				c0.1,0,0.1,0,0.1,0c-0.4,0.3-0.7,1.8-0.7,2.1c0.1,0.4,0.3,0.1,0.3,0.4c-1.2,0.6-2.8,0.4-1.9,0.9c0.9-0.2,1.3,0,1.5,0
				c0.1,0-0.1-0.2,1.1-0.2c0.8,0,6.2,0.2,6.4-0.5c-1.1-2.4-0.9-9.4-1.1-9.9c-0.2-0.5-0.5-0.4-0.6-0.6c-0.2-0.4,0.1-0.4,0.1-0.4
				c0-0.1-0.3,0-0.4,0c-0.2-0.2,0.3-0.2-0.4-0.5c0.7-0.5,2.3-0.6,2.4-0.9c0-0.1,0-2.1,0-2.2c0-0.2-0.4-0.2-0.3-0.4
				c0.1-0.2,0.3,0.4,0.4-0.3c0.1-0.4,0-2.4-0.1-2.7c-0.1-0.3-2.7-1.2-3.2-1.3c-1.1-0.3-2.7-0.7-3.8-0.9c0.2-0.2,0.3-0.4,0.4-0.1
				c0.8-0.8,0.1-0.2-0.1-0.4c0.2-0.5-0.1-0.4-0.1-0.5c-0.1-0.4,0.2-0.4,0.2-0.4c0.1-0.2-2.3-2.6-2.6-2.9c-0.6-0.7-0.8-1.1-1.6-2
				c0,0-0.2-0.5-0.2-0.6c-0.3-0.3-1.4-0.6-1.5-0.7c-0.1-0.1,0.1-0.3,0-0.4c-0.2-0.3-5.1-4.4-6-4.3c-1.7-1.1-1.7-0.6-1.8-0.6
				c-1.6-0.2-1.1-0.6-1.7-0.9c-0.2-0.1-0.7,0-1.1-0.6c-1.5-0.1-3-1.2-4.5-1c-1.4-0.4-2.9-0.4-4.3-0.5c-0.6,0-0.7,0.2-0.9,0.2
				c-0.2,0-1.1-0.3-1.1-0.3c-0.1,0-1.9,0.3-2.2,0.3c0,0-0.3,0.3-0.5,0.3c-0.3,0-0.5-0.1-0.8-0.1c-0.1,0-1.4,0.4-1.9,0.6
				c-0.2,0-0.6,0-0.7,0c-0.9,0.3-1.8,1-1.9,1c-0.2,0.1-0.8-0.1-1,0c-0.1,0-0.6,0.5-2.3,1.2c-0.1,0-0.5,0-0.7,0c0,0-0.2,0.2-0.5,0.3
				c-0.2,0.1-0.2-0.1-0.2-0.1c-1.4,0.6-2.9,2.2-3.5,2.7c0,0-0.6-0.1-0.8,0.6c-3.3,1.9-4.4,4.3-6.2,7.5c0.4,0.6-0.8,0.6-0.2,1
				c-1.1,0.2-3,0.6-4,0.8c-0.7,0.2-5,1.5-5.1,1.9c-0.1,0.3,0,5.2,0.1,5.5c0,0.1,0.1-0.1,0.2,0c0.3,0.2,0.6,0.2,1,0.3
				c0,0.6,1.1,0.4,0.3,1c-0.2,1.9-0.1,3.5,0,5.4c0,0,0.2,0.2,0.2,0.2c0,0.5-0.1,2.1-0.1,2.2c0.1,0.4,0.6,0.5,0.6,0.8
				c0,0-0.2,0.1-0.2,0.2c0.2,2.1-0.4,2,0.7,2.2c0.8,0.2,2.5,0,3,0.3c-0.8,0-1.3,0.1-1.4,0.1c-1.2,0-5.4,0.4-5.7-1.2
				c0-0.2,0.1-0.5,0.1-0.7c-0.5-3.2-0.7-4.5-0.6-7.8c0-0.5,0.2-1.2,0.2-1.3c0-0.2-0.3-1.1-0.2-2.7c0.2-1.7,0.7-3.4,1.1-4.8
				c0,0-0.2,0-0.2-0.2c0.2-1.2,3.6-5.7,4.2-7.7c0.8-1.3,1.9-2.4,2.8-3.7c0.3-0.4,0.6-1.3,0.9-1.6c0.4-0.5,0.8-0.5,1-0.7
				c0.1-0.1,0-0.8,1.4-2.3c1.1-1.2,2-1.4,2.2-1.6c1.2-1,2.8-2.4,4.1-3.2c0.2-0.1,1.5-0.9,1.5-0.9c0.4-0.1,0.5,0.6,1.1,0
				c-0.8-0.7,1-0.4,1.4-1C47.9,11.1,58,11.1,68.2,11.1z"/>
			<path class="st24" d="M66.7,71.8c-9.8,0-19.5,0-29.2,0c-0.4-0.8-3.1-1.5-4.7-2.5c-1.2-0.8-3.7-2.9-4.5-4.1
				c-0.1-0.2-0.3-0.7-0.4-0.9c-0.5-0.8-1.4-1.8-1.8-2.6c-0.2-0.4-0.1-0.9-0.3-1.3c-0.5-1-2-2.3-1.4-2.7c0.5-0.2,7.4,0.1,8.6,0.2
				c1.8,0.1,4.7,0.7,6.1,0.7c0.3,0,0.7-0.2,1.9-0.2c4.1,0.2,8.3,0.5,12.4,0.5c3.6,0,7.1-0.4,10.7-0.3c1-0.5,1.8-0.1,2.5-0.2
				c1.3-0.1,3.2-0.5,3.5-0.5c2.4-0.2,4.9-0.1,7.3-0.3c0.7-0.1,4.3-0.9,4.4-0.4c-1.4,1.6-2.1,3.9-2.9,5.2c-1.6,2.8-3,4.4-5.5,6.2
				c0,0-0.3,0-0.5,0.1c-0.2,0.2-0.2,0.5-0.3,0.5c-0.8,0.6-1.2,0.6-1.3,0.6c-0.1,0.1-0.4,0.4-0.7,0.5C69.6,70.6,66.7,71.2,66.7,71.8z
				"/>
			<path class="st25" d="M20,11.1c-0.2,0.7-1.2,1.3-1.5,1.6c-0.2,0.2-0.3,0.6-0.5,0.8c0,0-0.5,0.3-0.8,0.7C16,16,13.8,21.4,13,23.6
				c-0.4,1.2-2,5.3-2.2,6.1c-0.5,1.9-1.1,7.1-1.1,9.1c-0.1,2.5,0.3,6.8,0.7,9.3c0.1,0.4,0.6,2.8,0.6,2.9c0.1,0.3,0.6,0.8,0.8,1.3
				c0.6,1.7,1,7,1.6,9.3c0.1,0.2,0.4,0.6,0.5,0.8c0.1,0.2,0.2,0.9,0.3,1.3c0.2,0.5,2.1,4.4,2.4,4.8c1,1.6,1.7,2,2.9,3.2
				c-1.7,0-3.5,0-5.2,0c-0.7-0.7-1.7-1.2-2.4-2c-1.2-1.4-1.4-2.9-1.6-3.4c-0.2-0.4-0.7-1.2-1.1-2.4c-0.4-1-0.4-2.2-1.1-3.1
				c0-13.5,0-27.1,0-40.6C8.7,20.3,8.8,19,9,18.5c0.3-0.6,2.5-4.6,2.9-5.1c0.3-0.4,1.5-1.5,1.7-2.2C15.8,11.1,17.9,11.1,20,11.1z"/>
			<path class="st24" d="M71.8,71.8c-1.7,0-3.4,0-5.2,0c0.1-0.6,2.9-1.3,3.8-1.6c0.2-0.1,0.6-0.4,0.7-0.5c0.1-0.1,0.5,0,1.3-0.6
				c0,0,0-0.4,0.3-0.5c0.2-0.1,0.5-0.1,0.5-0.1c2.6-1.8,3.9-3.4,5.5-6.2c0.7-1.3,1.4-3.5,2.9-5.2c-0.2-0.6-3.7,0.3-4.4,0.4
				c-2.4,0.2-4.9,0.2-7.3,0.3c-0.3,0-2.2,0.4-3.5,0.5c-0.7,0-1.5-0.3-2.5,0.2c-3.6-0.1-7.1,0.3-10.7,0.3c-4.2,0-8.3-0.3-12.4-0.5
				c-1.2-0.1-1.6,0.2-1.9,0.2c-1.4-0.1-4.3-0.6-6.1-0.7c-1.2-0.1-8.1-0.4-8.6-0.2c-0.5,0.4,1,1.8,1.4,2.7c0.2,0.4,0.1,0.9,0.3,1.3
				c0.4,0.8,1.3,1.8,1.8,2.6c0.1,0.2,0.3,0.7,0.4,0.9c0.9,1.2,3.3,3.3,4.5,4.1c1.6,1,4.3,1.7,4.7,2.5c-1.6,0-3.2,0-4.7,0
				c-0.5-0.7-2.6-1.4-3.5-2c-1.3-0.9-4.3-4.5-5.2-5.9c-0.2-0.3-0.7-1.5-1-1.9c0,0-0.2-0.1-0.3-0.2c-0.5-0.8-0.7-1.7-1.1-2.5
				c-0.9-1.8-2.2-2.6-0.7-3.1c6.1,0.3,12.1,1.2,18.2,1.5c7.1,0.4,18.4,0.4,25.4,0c2.5-0.1,15.3-1.3,16.9-1.7
				c0.9-0.2,3.2-2.1,3.2-0.3c0,1.4-0.6,2-0.7,2.9c-1.7,2.8-4.3,8.9-7,10.7c-1.5,1-1.7,0.7-1.8,0.7c-0.2,0.1-0.3,0.4-0.4,0.5
				C73.8,70.9,72.4,71.3,71.8,71.8z"/>
			<path class="st24" d="M71.7,11.1c0,0.7,0.8,0.4,1.2,0.6c0.1,0.1,0.1,0.4,0.2,0.5c0.2,0.1,0.7,0.1,0.9,0.2
				c1.5,0.8,3.2,2.1,4.4,3.2c0.1,0.1,0.3,0.5,0.3,0.6c0.2,0.2,0.6,0.3,1.5,1.5c0.7,0.9,1.1,2,1.9,2.7c2,2.6,3.4,5.5,4.7,8.5
				c1.3,2,2,5.6,2.2,8c0.1,1.3,0.2,6.4,0.1,7.7c-0.1,1-0.8,6.3-1.1,6.9c-0.4,0.7-3.5,1.3-4.4,1.3c-1,0.1-2.1-0.1-3.1-0.1
				c0-0.1,0-0.1,0-0.2c1.1,0.2,5.6,0,6-0.9c0.2-0.4,0-1.3,0.1-1.7c0.2-0.7,0.7-2,0.8-2.8c0.4-2.7,0.1-6.7,0.2-9.6
				c-0.7-4.1-2.4-7.9-4.2-11.6c-1.3-1.7-3.9-5.8-5-7.1c-0.3-0.4-3.9-3.6-4.3-3.9c-0.6-0.4-2.1-1.1-2.9-1.6c-0.9-0.6-2-1.5-2.1-1.6
				c-0.2-0.1-0.9,0.1-0.9-0.6C69.3,11.1,70.5,11.1,71.7,11.1z"/>
			<path class="st24" d="M37.8,11.1c-0.4,0.6-2.2,0.3-1.4,1c-0.6,0.5-0.7-0.1-1.1,0c-0.1,0-1.3,0.8-1.5,0.9
				c-1.3,0.8-2.9,2.2-4.1,3.2c-0.2,0.2-1,0.4-2.2,1.6c-1.4,1.5-1.3,2.2-1.4,2.3c-0.1,0.3-0.6,0.3-1,0.7c-0.3,0.4-0.6,1.2-0.9,1.6
				c-0.9,1.3-1.9,2.4-2.8,3.7c-0.6,1.9-4,6.5-4.2,7.7c0,0.2,0.2,0.1,0.2,0.2c-0.4,1.5-0.9,3.1-1.1,4.8c-0.1,1.6,0.2,2.5,0.2,2.7
				c0,0.1-0.2,0.8-0.2,1.3c0,3.2,0.1,4.6,0.6,7.8c0,0.2-0.1,0.5-0.1,0.7c0.4,1.5,4.5,1.2,5.7,1.2c0.6,0.2-0.4,0.3-0.6,0.3
				c-1.3,0.1-5.4,0-6-1.4c-0.1-0.2-0.5-3.1-0.6-3.5c-0.1-1.5-0.3-9-0.2-10.5c0.1-2,0.5-2.1,0.5-2.2c0.1-0.3-0.1-0.7-0.1-1
				c0.1-0.3,0.4-0.8,0.5-1.1c0-0.2,0.1-0.9,0.5-2c1.5-4.1,6.3-11.8,9.5-14.9c1.9-1.9,4.5-3.7,7-4.6c0.1-0.2,0.1-0.2,0.3-0.4
				C34.8,11.1,36.3,11.1,37.8,11.1z"/>
			<path class="st26" d="M25.5,11.1c-0.7,0.9-2.3,1.2-3.2,1.9c-1.9,1.3-4.7,6.2-5.6,8.4c-0.2,0.4-0.3,1.4-0.4,1.6
				c-0.1,0.3-0.4,0.5-0.5,0.7c-0.1,0.2-0.5,1.6-0.8,2.6c-0.1,0.2-0.4,0.5-0.5,0.6c-0.4,1-0.5,2.4-0.8,3.4c0,0.1-0.4,0.3-0.4,0.5
				c-0.5,1.6-1,3.4-0.9,5.1c-0.4,2.1-0.4,6.6-0.2,8.7c0.1,0.8,0.9,5.9,1.1,6.3c0.4,1,1.5,1.5,1.6,1.8c0.2,0.4,0.2,4.1,1.1,6.8
				c0.4,1.2,3.5,7.2,4.2,8.3c1.5,2.3,2.5,2.6,4.7,4c-0.8,0-1.6,0-2.4,0c-1.3-1-2.5-1.6-3.5-3c-0.6-0.9-3.1-5.8-3.5-6.9
				c0-0.1,0.2-0.5-0.5-1.1c-0.4-1.6-0.9-6.9-1.1-7.7c-0.2-0.6-0.8-1.1-1.1-1.5c-0.5-1-1.2-4.7-1.3-6c-0.4-4-0.1-8,0.1-12
				c0.6-1.6,0.9-3.4,1.5-5.1c0.7-2.1,1.6-4.1,2.4-6.2c0.1-0.3,0.1-0.8,0.2-0.8c0.5-1.2,1.5-2.8,1.4-3.5c0.8-1.2,1.5-2.6,2.5-3.8
				c1.7-2,2.5-1.8,3.7-3.1C23.8,11.1,24.7,11.1,25.5,11.1z"/>
			<path class="st26" d="M23,11.1c-1.2,1.4-2,1.1-3.7,3.1c-1,1.1-1.6,2.5-2.5,3.8c0.2,0.7-0.9,2.3-1.4,3.5c0,0,0,0.5-0.2,0.8
				c-0.8,2.1-1.7,4.1-2.4,6.2c-0.5,1.7-0.9,3.4-1.5,5.1c-0.2,4-0.5,8-0.1,12c0.1,1.3,0.8,4.9,1.3,6c0.2,0.5,0.9,0.9,1.1,1.5
				c0.2,0.8,0.7,6.1,1.1,7.7c0.7,0.7,0.4,1,0.5,1.1c0.4,1.1,2.9,6.1,3.5,6.9c1,1.4,2.2,1.9,3.5,3c-0.7,0-1.4,0-2.1,0
				c-0.6-0.9-1.6-1.1-2.8-2.8c-0.8-1.1-1.1-2.4-1.1-2.5c0-0.1-0.6-0.7-1.1-1.8c-0.5-1.1-0.9-2.2-1.4-3.3c-0.4-2-0.9-6.9-1.2-8.2
				c-0.3-1-0.9-1.7-1.1-2c-0.6-1.5-0.5-2.5-0.6-2.7C9,38.4,10.3,32,13.9,22.6c0.5-1.2,1-2.5,1.6-3.7c0.1-0.2,0.1-0.8,0.2-1.1
				c0.1-0.2,0.5-0.6,0.6-0.9c0.6-1.1,0.9-2.1,2.1-3.6c0.9-1,2-1.6,2.3-2.3C21.5,11.1,22.2,11.1,23,11.1z"/>
			<path class="st26" d="M85.2,11.1c1,1.3,2.2,2.4,3.1,3.7c1,1.5,2,3.8,2.5,5.6c0.3,1.1,0.5,2.7,1,3.2c0,4.2,0,8.5,0,12.7
				c-0.4-0.7-0.3-2.4-0.5-3.8c-0.5-3.7-1.5-7.4-2.9-10.9c-1.2-1.9-2-4-3.3-5.8c-1-1.4-2.4-2.4-3.5-3.8c-0.4-0.4-1.3-0.3-1.4-1
				C81.9,11.1,83.6,11.1,85.2,11.1z"/>
			<path class="st26" d="M91.8,60.5c-0.4,0.5-0.4,1.5-0.7,2.2c-1.1,3.5-3,6.6-5.6,9.2c-1.6,0-3.2,0-4.7,0c4-2.6,4-3.1,6-6.6
				c0-0.1,0.6-0.6,0.8-1.1c0.4-0.7,1.5-3.6,1.7-4.3c0.2-0.8,0.7-3.1,0.8-4c0-0.2-0.2-0.6-0.2-1c0-0.1,0.2-0.6,0.2-0.7
				c0-0.3,0-1.5,0-1.6c0-0.2,0.7-1,0.8-1.7c0.3-1.4,0.1-3.7,0.7-5C91.8,50.7,91.8,55.6,91.8,60.5z"/>
			<path class="st25" d="M85.2,11.1c2.2,0,4.4,0,6.6,0c0,4.2,0,8.3,0,12.5c-0.4-0.5-0.6-2.1-1-3.2c-0.6-1.7-1.5-4.1-2.5-5.6
				C87.4,13.5,86.2,12.4,85.2,11.1z"/>
			<path class="st27" d="M20.8,11.1c-0.2,0.8-1.4,1.4-2.3,2.3c-1.3,1.4-1.6,2.5-2.1,3.6c-0.1,0.3-0.6,0.7-0.6,0.9
				c-0.1,0.2-0.1,0.8-0.2,1.1c-0.5,1.2-1.1,2.5-1.6,3.7C10.3,32,9.1,38.4,11,48.5c0.1,0.2-0.1,1.2,0.6,2.7c0.1,0.3,0.8,1,1.1,2
				c0.3,1.2,0.8,6.2,1.2,8.2c0.5,1.1,0.9,2.2,1.4,3.3c0.5,1.1,1,1.7,1.1,1.8c0.1,0.1,0.4,1.4,1.1,2.5c1.1,1.7,2.2,1.9,2.8,2.8
				c-0.2,0-0.4,0-0.6,0c-1.2-1.2-1.9-1.6-2.9-3.2c-0.3-0.4-2.2-4.3-2.4-4.8c-0.2-0.4-0.2-1.1-0.3-1.3s-0.4-0.6-0.5-0.8
				c-0.7-2.3-1-7.6-1.6-9.3c-0.2-0.5-0.7-1-0.8-1.3c-0.1-0.1-0.6-2.6-0.6-2.9c-0.5-2.5-0.8-6.8-0.7-9.3c0.1-2,0.7-7.2,1.1-9.1
				c0.2-0.8,1.8-5,2.2-6.1c0.8-2.2,3-7.6,4.2-9.4c0.3-0.5,0.8-0.7,0.8-0.7c0.2-0.2,0.3-0.6,0.5-0.8c0.3-0.3,1.3-0.9,1.5-1.6
				C20.3,11.1,20.5,11.1,20.8,11.1z"/>
			<path class="st25" d="M91.8,60.5c0,3.8,0,7.6,0,11.4c-2.1,0-4.1,0-6.2,0c2.6-2.6,4.5-5.7,5.6-9.2C91.4,62,91.4,61,91.8,60.5z"/>
			<path class="st28" d="M14.4,71.8c-2.1,0-4.1,0-6.2,0c0-3.6,0-7.2,0-10.9C8.8,61.8,8.9,63,9.2,64c0.4,1.2,1,2,1.1,2.4
				c0.2,0.6,0.4,2.1,1.6,3.4C12.7,70.6,13.7,71.1,14.4,71.8z"/>
			<path class="st28" d="M13.7,11.1c-0.2,0.8-1.4,1.8-1.7,2.2c-0.4,0.6-2.7,4.6-2.9,5.1c-0.2,0.5-0.3,1.8-0.8,1.9c0-3.1,0-6.2,0-9.3
				C10,11.1,11.8,11.1,13.7,11.1z"/>
			<path class="st26" d="M24.5,52.8c-1.4,1,0.6,1.1,1.5,1.4c8.5,0.6,8.5,0.6,17.1,1.1c1.4-0.3,3,0.6,3.3-1.3
				c-0.4-0.3-0.4-0.3-0.7-0.6c1.8,0.2,3.4-0.2,3,0.2c-2.4-0.3,1.3,0.5,2,0.6c3.1,0.2,5.7-1,8.1-0.7c-0.5,0.2-1.8,1.2-1,1.6
				c1.4,0.3,2.9,0.1,4.3,0.2c7.7-0.6,7.7-0.6,15.4-1.2c0.7-0.3,1.9-0.1,1.1-1.1c0.4,0.1,0.6,0.1,1.1,0c0.3,0.3,1.9,0.7,0.9,1.3
				c-1.4,0.8-8.4,1.2-10.4,1.3C67.8,56,56.4,56.7,55,56.2c-1-0.3-0.1-0.8-0.2-1.1c-0.2-0.4-5.6-0.5-6,0c-0.3,0.3,0.3,1-0.8,1.2
				c-1.6,0.3-9.1-0.2-11.3-0.3c-1.9-0.1-3.8-0.4-5.6-0.6c-0.6,0-1.2,0.1-1.8,0c-0.9-0.1-8-0.8-7.9-1.6
				C21.4,53.6,24.1,52.4,24.5,52.8z"/>
			<path class="st24" d="M26.5,50.5c0.7,0.6,1.6,1.2,2.5,1.5c0,0.1,0,0.1,0,0.2c-1.7,0.5-3.5,0.1-5.2,0.2c-0.5-0.3-2.2-0.2-3-0.3
				c-1-0.2-0.5-0.2-0.7-2.2c0,0,0.2-0.1,0.2-0.2c-0.1-0.3-0.5-0.4-0.6-0.8c0-0.1,0.1-1.8,0.1-2.2c0,0-0.2-0.2-0.2-0.2
				c-0.1-1.9-0.2-3.5,0-5.4c0.8-0.7-0.3-0.4-0.3-1c0.3,0.1,0.9,0.3,0.9,0.3C22.3,41.3,23.1,47.6,26.5,50.5z"/>
			<path class="st25" d="M26.1,52.5c0.5,1,0.9,0.2,1.1,1c0.3-0.4,0.4-0.1,0.5-0.1c0.4,0,1.2-0.2,1.5-0.2c0.1,0,1.2,0.2,2.5,0.2
				c0.1,0.1,0.2,0.2,0.2,0.2c0.2,0,3.4,0.1,4,0.1c1.3,0,3.1-0.2,4.2-0.2c1,0.1,2.5,1.2,3.5,0c0-0.3-0.3-0.4-0.6-0.5
				c0.9-0.1,1.7,0.3,2.5,0.3c0.4,0.3,0.4,0.3,0.7,0.6c-0.3,1.9-1.9,1-3.3,1.3c-8.5-0.6-8.5-0.6-17.1-1.1c-0.9-0.3-2.9-0.4-1.5-1.4
				C24.9,52.6,25.6,52.5,26.1,52.5z"/>
			<path class="st29" d="M38.9,52.7c0.7,0,3.3,0.3,3.8,0.4c0.3,0.5-1.2,0.5-1.6,0.5c-0.4,0-0.5-0.2-0.5-0.2
				c-4.1-0.1-8.2-0.2-12.2-0.3c-0.3-0.5-1.6-0.1-1.7-0.5c1.1-0.1,2.2-0.2,3.3-0.2c0.2,0,0.1-0.2,0.6-0.2c0.2,0,2.3,0.2,3.8,0.3
				c0.1,0,0,0.2,0.1,0.2c1.2,0.1,3.4-0.1,4.2-0.1C38.7,52.5,38.4,52.6,38.9,52.7z"/>
			<path class="st30" d="M26.6,52.5c0.1,0.4,1.4,0,1.7,0.5c4.1,0.1,8.2,0.2,12.2,0.3c0,0,0.1,0.2,0.5,0.2c0.4,0,1.9,0,1.6-0.5
				c0.2,0,0.5,0.1,0.5,0.1c0.2,0.1,0.6,0.2,0.6,0.5c-1,1.2-2.6,0.1-3.5,0c-1.1-0.1-3,0.2-4.2,0.2c0-0.1,0-0.1,0-0.2
				c-1.4,0-2.8-0.1-4.2-0.2c-1.3-0.1-2.4-0.2-2.5-0.2c-0.4,0-1.1,0.2-1.5,0.2c-0.1,0-0.1-0.3-0.5,0.1c-0.2-0.8-0.6,0-1.1-1
				C26.3,52.5,26.5,52.5,26.6,52.5z"/>
			<path class="st24" d="M77.5,31.7c-1.4-0.3-2.9-0.5-4.3-0.7c-1.2-0.2-3.6-0.2-4.2-0.3c0,0-0.1-0.2-0.2-0.2c-0.2,0-0.8,0-1-0.1
				c-0.3-0.1-1.1-1.7-2.6-2.6c0,0,0,0.1-0.8-0.2c-0.2-0.1-0.2-0.4-0.3-0.4c-0.2-0.1-0.5,0.1-0.7,0.1c-0.1,0-1-0.9-1.1-0.9
				c-0.3-0.2-1.7-0.2-2.5-1.1c-1.3-0.5-2.7-0.8-3.8-1.4c-1.9,0.2-2.2-0.5-2.3-0.5c-0.3,0-0.4,0.4-0.6,0.4c-0.3,0-0.8-0.4-0.9-0.4
				c-0.5-0.1-0.6,0.2-0.7,0.2c-0.5,0-0.4-0.2-0.7-0.2c-0.2,0-0.2,0.4-0.2,0.4c-0.2,0.1-1.4-0.1-1.8,0c-0.2,0-0.7,0.3-0.9,0.3
				c-0.5,0.1-1.9,0.1-3.3,0.6c-0.2,0.1-1.5,0.9-1.5,0.9c-0.1,0-0.7,0-1.1,0.1c-0.2,0-2.4,1.8-2.5,2.2c-1.4,0.3-1.8,1.8-2.9,2.5
				c-3.1,0.5-6.5,0.5-9.8,1c-0.7-0.4,0.5-0.4,0.2-1c1.8-3.1,2.9-5.6,6.2-7.5c0.2-0.8,0.8-0.6,0.8-0.6c0.6-0.5,2.1-2.1,3.5-2.7
				c0,0,0.1,0.1,0.2,0.1c0.3-0.1,0.5-0.3,0.5-0.3c0.1,0,0.5,0,0.7,0c1.7-0.7,2.2-1.2,2.3-1.2c0.2-0.1,0.8,0.1,1,0c0.1,0,1-0.7,1.9-1
				c0.2,0,0.5,0,0.7,0c0.5-0.1,1.8-0.5,1.9-0.6c0.3-0.1,0.5,0.1,0.8,0.1c0.1,0,0.5-0.3,0.5-0.3c0.3,0,2.1-0.3,2.2-0.3
				c0.1,0,0.9,0.3,1.1,0.3c0.2,0,0.3-0.2,0.9-0.2c1.5,0,2.9,0.1,4.3,0.5c1.5-0.2,3,0.8,4.5,1c0.4,0.6,0.9,0.5,1.1,0.6
				c0.6,0.3,0.1,0.7,1.7,0.9c0.1,0,0.1-0.6,1.8,0.6c0.9-0.1,5.8,4,6,4.3c0,0.1-0.2,0.2,0,0.4c0.1,0.1,1.2,0.4,1.5,0.7
				c0.1,0.1,0.2,0.5,0.2,0.6c0.8,0.9,1.1,1.3,1.6,2c0.3,0.4,2.7,2.8,2.6,2.9c0,0-0.3,0-0.2,0.4c0,0.1,0.3,0,0.1,0.5
				c0.3,0.2,0.9-0.5,0.1,0.4C77.9,31.3,77.7,31.6,77.5,31.7z"/>
			<path class="st31" d="M77.5,31.7c1.1,0.2,2.7,0.6,3.8,0.9c0.5,0.1,3,1,3.2,1.3c-10.2-4-21.3-3-32.1-3.6
				c-11.4,0.7-23.5-0.8-34.2,3.7c0,0.9,0,1.9,0,2.8c0,0.4,0.1,0.3,0.1,0.3c0,0.8,0,1.5,0,2.3c0,0-0.1,0.1-0.2,0
				c-0.1-0.3-0.2-5.2-0.1-5.5c0.1-0.5,4.4-1.8,5.1-1.9c1-0.3,3-0.6,4-0.8c3.2-0.5,6.7-0.5,9.8-1c1.1-0.8,1.5-2.2,2.9-2.5
				c0-0.4,2.3-2.2,2.5-2.2c0.4-0.1,1,0,1.1-0.1s1.3-0.8,1.5-0.9c1.4-0.5,2.7-0.5,3.3-0.6c0.2,0,0.7-0.3,0.9-0.3
				c0.4-0.1,1.6,0.1,1.8,0c0,0,0.1-0.4,0.2-0.4c0.3-0.1,0.2,0.2,0.7,0.2c0,0,0.1-0.3,0.7-0.2c0.1,0,0.6,0.5,0.9,0.4
				c0.2,0,0.3-0.4,0.6-0.4c0.1,0,0.4,0.7,2.3,0.5c1.1,0.6,2.5,0.9,3.8,1.4c0.8,0.8,2.1,0.9,2.5,1.1c0.1,0,0.9,0.9,1.1,0.9
				c0.2,0.1,0.4-0.1,0.7-0.1c0.1,0,0.2,0.3,0.3,0.4c0.8,0.4,0.8,0.2,0.8,0.2c1.5,0.9,2.3,2.5,2.6,2.6c0.2,0.1,0.8,0,1,0.1
				c0.1,0,0.1,0.2,0.2,0.2c0.6,0.1,3,0.1,4.2,0.3C74.7,31.2,76.1,31.5,77.5,31.7z"/>
			<path class="st24" d="M82.1,40.3c0.7,0.2,0.3,0.3,0.4,0.5c0,0,0.3,0,0.4,0c0,0-0.3,0-0.1,0.4c0.1,0.1,0.4,0.1,0.6,0.6
				c0.2,0.5,0,7.5,1.1,9.9c-0.2,0.6-5.6,0.4-6.4,0.5c-1.2,0-1.1,0.2-1.1,0.2c-0.1,0-0.5-0.2-1.5,0c-0.8-0.5,0.8-0.2,1.9-0.9
				c-0.1-0.3-0.3,0-0.3-0.4c-0.1-0.4,0.2-1.8,0.7-2.1c-0.1,0-0.1,0-0.2,0C79.2,46.8,80.9,41.2,82.1,40.3z"/>
			<path class="st25" d="M78.6,53c0.8,1-0.4,0.8-1.1,1.1c-7.7,0.6-7.7,0.6-15.4,1.2c-1.4,0-2.9,0.1-4.3-0.2c-0.8-0.5,0.6-1.5,1-1.6
				c0.7-0.3,1.6-0.3,2.4-0.3c-2.1,0.6-0.7,1.2,0.6,1c1.5-0.2-0.2-0.6,0.8-0.5c0.8,0,2.8-0.2,1.6,0c0.1,0.3,0.5,0.3-0.1,0.4
				c1.3,0.2,0.9-0.2,0.9-0.2c0.1,0,0.9,0.1,2.2,0.1c0.1,0,0-0.2,1.2-0.2c0,0,0.1,0.5,0.6-0.1c1.3-0.1,2.7,0,4,0c0,0,0.5-0.2,0.6-0.2
				c0.9,0,1.7,0.2,2.6-0.1c-0.4,0-0.6-0.2-0.7-0.2c0.3-0.1,0.5,0,0.9-0.1c0.3-0.1,0.8-0.2,1-0.6C78.3,52.8,78.3,52.9,78.6,53z"/>
			<path class="st30" d="M77.3,52.7c-0.2,0.3-0.6,0.5-1,0.6c0.1-0.1,0.1-0.1,0.2-0.3c-0.6,0.3-0.2-0.1-0.4-0.2
				c-0.3-0.1-2.3,0.7-2.9,0.4c0.1,0.5,1.3,0,2.1,0.2c0,0,0.2,0.2,0.7,0.2c-0.8,0.3-1.7,0.1-2.6,0.1c0,0-0.5,0.2-0.6,0.2
				c-1.3,0-2.7-0.1-4,0c-0.5,0.6-0.5,0.1-0.6,0.1c-1.2-0.1-1.2,0.2-1.2,0.2c-1.3,0-2.1-0.1-2.2-0.1c-0.1,0,0.3,0.4-0.9,0.2
				c0.5-0.1,0.2-0.1,0.1-0.4c1.3-0.3-0.8-0.1-1.5,0c0-0.3,0.3-0.1,0.5-0.1c0.6-0.1,0.5-0.2,0.6-0.2c0.3,0,0.7,0,1,0
				c2.1-0.2,4.3-0.2,6.4-0.3c0.1,0,0-0.2,0.1-0.2c0.9-0.1,1.8,0.1,2.5,0.1c0.1,0,0-0.2,0.1-0.2c0.6,0,2,0.1,2.1-0.3
				C76.2,52.5,76.8,52.6,77.3,52.7z"/>
			<path class="st23" d="M61.9,53.2c-0.7,0-0.8,0.1-0.8,0.1c-0.7,0-1.7,0-2.4,0.3c-2.4-0.4-5,0.9-8.1,0.7c-0.7,0-4.4-0.9-2-0.6
				c0.4-0.3-1.2,0-3-0.2c-0.8-0.1-1.7-0.5-2.5-0.3c0,0-0.3,0-0.5-0.1c-0.4-0.1-3.1-0.4-3.8-0.4c0,0,0-0.1,0-0.2c0.1,0,0.6,0,1.9-0.5
				c-1,0.7,0.5,0.3,0.6,0.3c1.7,0,3.5,0.1,5.2,0.2c0.1,0,0,0.2,0.1,0.2s0.4-0.1,1.1-0.1c0.1,0,0,0.2,0.1,0.2
				c1.1,0.1,4.3-0.2,1.1,0.2c0,0.1,0,0.1,0.1,0.2c1.4-0.1,2.9,0.1,4.3-0.1c0.6-0.5-1-0.1-1.3-0.1c-0.6,0-2.5-0.4-0.7-0.2
				c0.4-0.4,2.2,0,3.1-0.1c0.1,0,0-0.2,0.1-0.2c0.6,0,1.2,0.1,1.7,0.1c0.1,0,0-0.2,0.1-0.2c2.1-0.1,4.5-0.3,6.5,0.1
				c0-0.1,0-0.1,0.1-0.2c-1.2-0.2-2.2-0.7-3.2-1.5c1.5,0.9,3.1,1.6,4.8,1.6C63.3,52.8,63.3,52.8,61.9,53.2z"/>
			<path class="st28" d="M36,53.8c-0.6,0-3.8,0-4-0.1c0,0-0.1-0.2-0.2-0.2c1.4,0.1,2.8,0.2,4.2,0.2C35.9,53.7,35.9,53.7,36,53.8z"/>
			<path class="st31" d="M59.7,50.9C59.8,50.9,59.8,50.9,59.7,50.9c1,0.8,2,1.4,3.2,1.6c0,0.1,0,0.1-0.1,0.2c-2-0.4-4.4-0.2-6.5-0.1
				c-0.1,0,0,0.2-0.1,0.2c-0.5,0-1.2-0.1-1.7-0.1c-0.1,0,0,0.2-0.1,0.2c-0.9,0-2.7-0.3-3.1,0.1c-1.7-0.2,0.1,0.2,0.7,0.2
				c0.3,0,1.9-0.4,1.3,0.1c-1.4,0.2-2.9,0-4.3,0.1c0-0.1,0-0.1-0.1-0.2c3.3-0.3,0.1-0.1-1.1-0.2c-0.1,0,0-0.2-0.1-0.2
				c-0.8,0-1.1,0.1-1.1,0.1c-0.1,0,0-0.2-0.1-0.2c-1.7-0.1-3.5-0.2-5.2-0.2c-0.1,0-1.6,0.4-0.6-0.3c0.3-0.1,0.5-0.2,0.7-0.3
				c0.5-0.2,1.2-0.6,1.7-1c5.2-0.3,10.5,0,15.8-0.2C59.4,50.7,59.7,51.1,59.7,50.9z"/>
			<path class="st32" d="M53.4,39.6c-0.2,0.5,0.2,1.5,0.4,2.1c0.2,2.3,2.3,5.6,3.9,7.2c0.6,0.8,1.2,1.3,2,2c0,0.2-0.4-0.2-0.6-0.3
				c-5.3,0.2-10.5-0.1-15.8,0.2c0.5-0.3,1.5-1.5,1.9-2c1.6-1.9,3.8-5.4,3.8-7.9c0.3-1.3,0.2-1.2,0.2-1.2c0.2-1.1,0.8-2,2.2-2
				C52.4,37.7,53,38.7,53.4,39.6z"/>
			<path class="st30" d="M61.9,53.2c0.4,0,0.6,0.2,0.6,0.2c0.1,0,0-0.2,0.1-0.2c0.6,0,1.3,0.1,1.9,0.2c-0.3,0-0.7,0-1,0
				c0,0,0,0.1-0.6,0.2c-0.1,0-0.5-0.2-0.5,0.1c-0.9-0.1,0.7,0.3-0.8,0.5c-1.3,0.2-2.7-0.4-0.6-1C61.2,53.2,61.2,53.2,61.9,53.2z"/>
			<path class="st28" d="M76.3,53.2c-0.4,0.1-0.6,0-0.9,0.1c-0.8-0.1-2,0.3-2.1-0.2c0.6,0.2,2.6-0.5,2.9-0.4
				c0.2,0.1-0.3,0.5,0.4,0.2C76.4,53.1,76.4,53.1,76.3,53.2z"/>
		</g>
		<g>
			<g>
				<path class="st33" d="M57.8,48.9c-1.7-1.6-3.7-4.9-3.9-7.2C54.6,44.2,56.1,46.9,57.8,48.9z"/>
				<path class="st33" d="M45.2,48.7c1.6-2.7,3-4.8,3.8-7.9C49,43.3,46.8,46.8,45.2,48.7z"/>
			</g>
			<g>
				<g>
					<path class="st34" d="M80.6,36.6c0,0.3,0,0.3,0,0.7c1.5-0.1,2.8,0.4,2.5-0.6c0.5,0,1-0.2,1.5,0c-0.1,0.7-0.3,0.1-0.4,0.3
						c-0.1,0.1,0.3,0.2,0.3,0.4c-1-0.2-1,0.3-1.5,0.4c-0.5,0.1-2.1-0.1-2.9,0C80,36.3,80,36.6,80.6,36.6z"/>
					<path class="st35" d="M83.1,36.7c0.3,1-1,0.5-2.5,0.6c0-0.3,0-0.3,0-0.7C81.4,36.5,82.3,36.6,83.1,36.7z"/>
				</g>
				<g>
					<path class="st36" d="M19.6,36.7c0,0.2,0,0.2,0,0.4c1.4-0.2,2.9,0.5,2.7-0.4c0.1,0,0.5-0.5,0.4,1.1c-1.4-0.2-3.9,0.4-4.4-0.5
						c0,0-0.1,0.1-0.1-0.3C18.8,36.4,19.1,36.7,19.6,36.7z"/>
					<path class="st37" d="M22.3,36.7c0.3,0.9-1.2,0.3-2.7,0.4c0-0.2,0-0.2,0-0.4C20.5,36.6,21.4,36.5,22.3,36.7z"/>
				</g>
				<g>
					<path class="st34" d="M34.3,51.8c0.7,0,3.4,0,3.9,0c0.1,0,0-0.2,0.1-0.2c0.3,0,0.2,0.1,1.3-0.2c1.2,0.7,0.8,0.5,2,0.2
						c-0.2,0.1-0.5,0.2-0.7,0.3c-1.3,0.5-1.8,0.5-1.9,0.5c-0.1,0,0,0.1,0,0.2c-0.5,0-0.2-0.2-0.3-0.2c-0.8,0-3,0.1-4.2,0.1
						c-0.1,0,0-0.2-0.1-0.2c-1.6-0.1-3.6-0.3-3.8-0.3c-0.5,0-0.4,0.2-0.6,0.2c0.1-0.2-0.6-0.2-0.9-0.3c-0.9-0.3-1.8-0.9-2.5-1.5
						c-0.3-0.4,0.3-0.5,0.1-1.3C28.6,51.2,31.5,51.6,34.3,51.8z"/>
					<path class="st38" d="M49.1,39.6c0,0.1,0.2-0.1-0.2,1.2c-0.8,3.1-2.1,5.3-3.8,7.9c-0.4,0.5-1.4,1.6-1.9,2
						c-0.5,0.4-1.2,0.7-1.7,1c-1.1,0.3-0.7,0.4-2-0.2c1.9-0.5,4.2-2.6,4.9-4.4c0.5-1.4,0.4-3.2,0.7-3.8c0.2-0.4,1.8-2.8,2.7-2.4
						c-0.2-5-5.2-7.1-9.6-7.4c-3.1-0.2-9.6-0.1-12.2,1.5c-4.8,3-0.9,12.1,0.9,13.6c-0.4,0.5,1.5,1.7,1.7,1.7c0.1,0-0.1-0.3,1.1-0.7
						c0.6-0.2,4.3-1.4,4.9-1.5c1.3-0.2,3-0.2,4.4-0.3c0.3,0.6-2.2,0.5-3.3,0.7c-3.5,0.7-4.1,3-6.6,1.8c0,0.7,3.7,1.3,4.3,1.2
						c0.1,0.4,0.8-0.2,0.9,0.2c-2.8-0.1-5.7-0.6-7.8-2.6c-0.1-0.2-1.3-1.6-2.1-3.6c-1.1-2.8-2.4-8.4,0.4-10.6
						c2.5-2,9.1-2.3,12.2-2.1c5.2,0.3,11.7,2.6,11.1,8.9C48.4,41.8,48.8,39.8,49.1,39.6z"/>
					
						<linearGradient id="SVGID_1_" gradientUnits="userSpaceOnUse" x1="31.4149" y1="66.9067" x2="39.6487" y2="51.5776" gradientTransform="matrix(1 0 0 -1 0 100)">
						<stop  offset="0" style="stop-color:#313A4C"/>
						<stop  offset="1" style="stop-color:#356B4D"/>
					</linearGradient>
					<path class="st39" d="M44.5,47c-1.8,0.6-3.6,0.6-5.5,0.8c-1.4,0.1-3,0.1-4.4,0.3c-0.5,0.1-4.2,1.2-4.9,1.5
						c-0.9-0.1-2-0.4-2.8-1C25.2,47.2,21.3,38,26.1,35c2.6-1.6,9.1-1.7,12.2-1.5c4.3,0.3,9.4,2.4,9.6,7.4c-0.8-0.4-2.5,1.9-2.7,2.4
						C44.9,43.9,45,45.6,44.5,47z"/>
					<g>
						<path class="st40" d="M44.5,47c-0.7,1.9-3,3.9-4.9,4.4c-1.1,0.3-1,0.1-1.3,0.2c-0.1,0,0,0.2-0.1,0.2c-0.5,0-3.2,0-3.9,0
							c0-0.5-0.8,0.2-0.9-0.2c-0.7,0.1-4.3-0.5-4.3-1.2c2.5,1.2,3.1-1.1,6.6-1.8c1.1-0.2,3.6,0,3.3-0.7C40.9,47.7,42.8,47.6,44.5,47
							z"/>
						<path class="st40" d="M29.8,49.6c-1.2,0.5-1,0.7-1.1,0.7c-0.2,0-2-1.2-1.7-1.7C27.8,49.2,28.9,49.6,29.8,49.6z"/>
					</g>
				</g>
				<g>
					<path class="st41" d="M84.5,34c0.1,0.3,0.1,2.3,0.1,2.7c-0.5-0.2-1,0-1.5,0c-0.8,0-1.7-0.2-2.5-0.1c-0.5,0.1-0.6-0.2-0.4,1.1
						c0.8-0.1,2.4,0.1,2.9,0c0.5-0.1,0.5-0.6,1.5-0.4c0,0.1,0,2.1,0,2.2c-0.1,0.2-1.7,0.4-2.4,0.9c-1.2,0.9-2.9,6.4-4.6,8.7
						c-0.3,0.4-1.1,1.2-1.5,1.5c0.4-0.6,0-0.3,0-0.6c0-0.2,0.9-1.5,1.1-1.9c0,0-0.1-0.1-0.1-0.1c1.3-2.9,2.5-5.5,2.4-8.8
						c-0.2-4-2.9-5.3-6.5-5.9c-6.2-1.1-19.7-1.1-18.5,8.4c-0.3-0.1-0.4-1-1-2c-0.5-0.9-1-1.9-2.2-2c-1.3-0.1-2,0.9-2.2,2
						c-0.3,0.2-0.7,2.2-0.9,2.1c0.6-6.3-5.9-8.6-11.1-8.9c-3.2-0.2-9.7,0.1-12.2,2.1c-2.8,2.2-1.5,7.7-0.4,10.6
						c0.8,2.1,2.1,3.4,2.1,3.6c0.2,0.8-0.4,0.9-0.1,1.3c-3.4-2.9-4.2-9.1-6.2-10.3c0,0-0.6-0.2-0.9-0.3c-0.3-0.1-0.7-0.1-1-0.3
						c0-0.8,0-1.5,0-2.3c0.5,0.9,2.9,0.3,4.4,0.5c0.2-1.5-0.3-1-0.4-1.1c-0.9-0.2-1.8,0-2.7,0c-0.5,0-0.8-0.3-1.4,0.2
						c0-0.9,0-1.9,0-2.8c10.7-4.5,22.8-3,34.2-3.7C63.1,30.9,74.3,29.9,84.5,34z"/>
					<path class="st34" d="M50.5,30.7c0,0.1,0,0.1,0,0.2c-0.3,0.4,1.7,0.3,1.8,0.2c0.1,0,0.2,0.1,0.2-0.4c0.3,0,1-0.5,0.8,0.6
						c-1.9,0-1.9,0-3.8,0C49.4,30.5,49.9,30.7,50.5,30.7z"/>
					<path class="st35" d="M52.5,30.8c0,0.5,0,0.4-0.2,0.4c0.3-0.4-0.8,0-1.8-0.2c0-0.1,0-0.1,0-0.2C51.2,30.6,51.8,30.7,52.5,30.8z
						"/>
					<path class="st42" d="M52.3,31.2c-0.1,0-2.1,0.1-1.8-0.2C51.4,31.1,52.6,30.8,52.3,31.2z"/>
				</g>
				<g>
					<path class="st38" d="M77.1,47.9c-1.8,3.3-5.8,3.8-9.2,3.8c0-0.4,0.6,0,1.1-0.1c0.1,0,0-0.2,0.1-0.2c0.6,0,1.4,0,1.8-0.2
						c1.8-0.1,3.8-1,5-2.6c0-0.1,0-0.1-0.1-0.1c1.9-1.6,5.7-11.1,0-13.9c-2.8-1.4-11.7-1.6-14.7-0.9c-3.3,0.8-6.7,3.4-6.2,7.2
						c0.8-0.5,2.4,1.6,2.7,2.2c0.5,1.1,0.2,3.5,1.2,4c-0.5,0.4,1.6,2.6,2.3,3.1c0.9,0.6,2.7,1.3,3.7,1.5c-0.3,0.4-1.6-0.2-1.2,0.6
						c3.1,0.5,6.3-0.2,9.3-0.1c0.7,0,2.1,0.2,2.9,0.2c-0.1,0.5-1.5,0.3-2.1,0.3c-0.1,0,0,0.2-0.1,0.2c-0.7,0-1.6-0.1-2.5-0.1
						c-0.1,0,0,0.2-0.1,0.2c-2.1,0.1-4.3,0.2-6.4,0.3c-0.6-0.1-1.3-0.1-1.9-0.2c-0.1,0,0,0.2-0.1,0.2c0,0-0.2-0.2-0.6-0.2
						c1.3-0.3,1.3-0.3,2.7-0.6c-1.8,0-3.3-0.7-4.8-1.6c0,0,0,0-0.1-0.1c-0.8-0.6-1.3-1.2-2-2c-1.7-2-3.2-4.7-3.9-7.2
						c-0.2-0.6-0.6-1.6-0.4-2.1c0.6,1.1,0.7,2,1,2c-1.3-9.5,12.2-9.5,18.5-8.4c3.6,0.6,6.3,1.9,6.5,5.9C79.6,42.5,78.3,45,77.1,47.9
						z"/>
					<path class="st34" d="M76.1,50.5c-1,0.8-2.1,1.3-3.3,1.7c-2.9-0.1-6.2,0.6-9.3,0.1c-0.4-0.7,0.9-0.2,1.2-0.6
						c0.5,0.1,2.3,0,3.1,0c3.4-0.1,7.4-0.5,9.2-3.8c0,0,0.1,0.1,0.1,0.1c-0.2,0.4-1,1.7-1.1,1.9C76,50.2,76.5,49.9,76.1,50.5z"/>
					
						<linearGradient id="SVGID_00000023265534029862709290000014605670106464294547_" gradientUnits="userSpaceOnUse" x1="69.4638" y1="66.6172" x2="64.0617" y2="51.8919" gradientTransform="matrix(1 0 0 -1 0 100)">
						<stop  offset="0" style="stop-color:#30374D"/>
						<stop  offset="1" style="stop-color:#356A4D"/>
					</linearGradient>
					<path style="fill:url(#SVGID_00000023265534029862709290000014605670106464294547_);" d="M75.7,48.6c-0.7,0.6-1.7,1-2.6,1.2
						c-2.7-1.1-5.1-1.6-7.9-1.9c-1.6-0.2-5.2-0.1-6.5-0.7c-1.1-0.5-0.7-2.9-1.2-4c-0.3-0.6-1.9-2.7-2.7-2.2
						c-0.5-3.8,2.9-6.4,6.2-7.2c3.1-0.7,11.9-0.5,14.7,0.9C81.5,37.5,77.6,47,75.7,48.6z"/>
					<g>
						<path class="st40" d="M65.2,47.9c-0.1,0.4,1.9,0.5,3.2,1c2.4,0.9,3,2.6,5.3,1.2c-0.2-0.2-0.4-0.2-0.6-0.3
							c0.9-0.2,1.9-0.6,2.6-1.2c0,0.1,0,0.1,0.1,0.1c-1.3,1.6-3.2,2.5-5,2.6c-0.4,0.3-1.2,0.2-1.8,0.2c-0.1,0,0,0.2-0.1,0.2
							c-0.5,0-1.1-0.3-1.1,0.1c-0.8,0-2.6,0.1-3.1,0c-1-0.1-2.8-0.9-3.7-1.5c-0.7-0.5-2.8-2.7-2.3-3.1C60,47.8,63.6,47.8,65.2,47.9z
							"/>
						<path class="st38" d="M73.1,49.8c0.2,0.1,0.4,0.1,0.6,0.3c-2.3,1.5-2.9-0.3-5.3-1.2c-1.3-0.5-3.4-0.5-3.2-1
							C68,48.2,70.5,48.7,73.1,49.8z"/>
					</g>
				</g>
			</g>
		</g>
	</g>
</g>
</svg>
