<?xml version="1.0" encoding="utf-8"?>
<!-- Generator: Adobe Illustrator 28.3.0, SVG Export Plug-In . SVG Version: 6.00 Build 0)  -->
<svg version="1.1" id="Calque_1" xmlns="http://www.w3.org/2000/svg" xmlns:xlink="http://www.w3.org/1999/xlink" x="0px" y="0px"
	 viewBox="0 0 500 500" style="enable-background:new 0 0 500 500;" xml:space="preserve">
<style type="text/css">
	.st0{display:none;}
	.st1{display:inline;fill:#C6C4C0;}
	.st2{display:inline;fill:#736E6B;}
	.st3{display:inline;fill:#EBE8E3;}
	.st4{fill:#E62746;}
	.st5{fill:#BB163A;}
	.st6{fill:#F9BA12;}
	.st7{fill:#E8A615;}
	.st8{fill:#08151D;}
	.st9{fill:#EBE8E3;}
	.st10{fill:#E2B580;}
	.st11{fill:#311D10;}
	.st12{fill:#322B29;}
	.st13{fill:#E9CEAD;}
	.st14{fill:#C89860;}
	.st15{fill:#F1E9D8;}
	.st16{fill:#F6EBC4;}
	.st17{fill:#632C18;}
	.st18{fill:#C9BFAE;}
	.st19{fill:#CFCED3;}
	.st20{fill:#858786;}
	.st21{fill:#AF7C45;}
	.st22{fill:#774A26;}
	.st23{fill:#8C5D33;}
	.st24{fill:#080909;}
	.st25{fill:#9C6D3D;}
	.st26{fill:#563319;}
	.st27{fill:#502A1E;}
	.st28{fill:#833547;}
	.st29{fill:#FEFFFF;}
	.st30{opacity:0.68;fill:#FDC846;enable-background:new    ;}
</style>
<g id="Background_00000081616523121970102420000004186530603010970809_" class="st0">
	<path class="st1" d="M-944.8,7.8c-14.2,8-29.8,14.8-45.5,20.6c-10.5-0.2-11.7,3-14.8,4.5c-0.5,0.2-1.3-1.4-3.9,0
		c-1.9,1-3,5-3.2,5.2c-1.9,1.4-3.5-0.2-3.9,0c-1.7,1.1-12.7,14.9-17.7,18.4c6.4,2.5-0.5,7.5-2.6,11.6c-8.1,16.5-15.9,33.1-23.8,49.6
		c-1,2.2-4.1,3.2-5.2,5.8c-0.6,1.4-1.1,7.6-2.6,11.6c-0.2,0.5-2.3,2.1-3.2,4.5c-1.8,5-1.1,9.2-1.3,9.7c-0.1,0.3-2.7,0.4-3.2,1.9
		c-0.4,1,0.4,4,0,5.2c-0.9,2.8-3.8,6.1-3.9,6.4c-2.9,10.8-5.8,46.5-3.9,59.3c-4.9,6.8,0.6,13.8,1.3,20.6c1.2,12.4,2.9,42.2,5.2,52.2
		c0.2,0.8,2.9,3.9,3.2,5.2c1.8,7.4,3.4,12.7,5.8,20c0.6,1.8,0.6,8.5,1.3,9.7c0.2,0.4,2.1,0,3.2,1.9c3.1,5.4,0.3,5.2,1.3,8.4
		c0.8,2.6,5,4.9,5.2,5.2c9.3,14.4,4.9,13.1,5.2,14.2c1.4,5.9,3.2,9.3,4.8,4.2c17.6,22.2,35.8,43.4,57.4,61.9
		c10,6.1,27.6,21.8,34.8,26.4c24,15.4,76.2,26.7,105.1,32.9c9.2-0.9,8.5,1.8,9,1.9c3.2,0.9,3.2-1.8,3.9-1.9c1.4-0.2,1.8,0.8,3.2,0.6
		c13.4-2,27-4.5,40.6-5.8c13.7-6,29-7,41.9-14.2c57.5-14.4,84.5-46.9,119.6-91.9c29.7-47,41-102.9,41.9-157.9
		c3.5-6.7-1.2-13.4-1.3-14.2c-0.9-6.4,1.3-7.9,1.3-8.4c-0.1-2.4-3.7-3.4-4.5-5.8c-1.5-4.2-0.7-23.5-6.5-27.1
		c-0.7-5.5-5.1-24.5-6.5-28.4c-0.5-1.6-7-13.5-9-18.1c-0.3-0.8,0.3-3.8,0-4.5c-0.5-1-4.4-4.7-11-19.3c-0.3-0.7-2.6-2.1-3.2-3.9
		c-0.2-0.7,1.3-2.4,1.3-2.6c-1.6-6.4-4.5-4.1-7.1-5.8c-0.7-0.5-1.9-5.4-2.6-6.4c-1.6-2.4-8.2-12-8.4-14.2c0-0.6,4.5-8.6-4.2-6.8
		c-8.5-16.3-21.5-15.4-27.1-18c-8.7-4.1-35.8-17.8-39.7-24.5c71.1,0.1,142.3,0,213.4,0c0,239.8,0,239.8,0,479.6
		c-330.1,0-330.1,0-660.1,0c0-239.8,0-239.8,0-479.6C-1091.3,7.8-1018.1,7.8-944.8,7.8z"/>
	<path class="st1" d="M-737.8,7.8c0.5,5.8,15.9,4.3,19.7,11c9.9,4.1,39.9,19.4,44.8,27.4c1.1,1.8,0.3,2.7,3.9,7.7
		c0,0.1-1.1,0.7-0.6,1.3c0.5,0.8,2.7,0.1,2.9,0.3c0.7,0.9-1.2,0.7-1,1c9.1,10.3,9.8,6.5,13.2,8.1c4,1.8,37.1,48.6,35.8,57.7
		c7.3,13.6,10.6,28.9,14.2,43.8c0.2,0.7,2.4,3.9,2.6,4.5c0.7,3.1-0.7,4.3-0.6,4.5c2.4,12.3,6,23.5,4.5,36.1
		c5.8,6.6,0.9,21.2,0.6,27.7c-0.3,6.7,1.3,13.8,0.6,20.6c-0.5,4.8-3.5,13.4-4.5,18.7c0,0.2,1.2,1,0.6,3.9c-0.1,0.4-1.8,1.5-1.9,1.9
		c-0.7,3-0.6,7.5-1.3,10.3c-0.7,2.8-8.5,30-9,31.6c-5.5,15.3-19.5,36.5-25.8,52.2c-14.6,16.4-27.8,34.8-45.5,48.7
		c-7.9,6.2-34.4,22.8-43.2,26.4c-20.9,8.7-89.3,27.1-113.5,26.4c-40.7-5.1-91-13.9-122.5-41.9c-7.5-1.8-16.1-10-22.6-14.8
		c-1-0.7-8-4.2-8.4-4.5c-7.8-6.4-44.1-47.5-50-56.4c-8.8-13.4-21.6-41.3-25.8-56.7c-6.1-22.2-10.5-77.4-7.7-99.9
		c1.3-10.3,7.4-23.1,10.3-33.5c2-7.2,3.5-21.5,5.8-27.7c0.8-2.2,4.1-5.1,5.2-7.7c5.1-12.7,10.6-25.2,15.5-38c8.3-6.3,5.3-8.1,5.8-9
		c1.4-2.4,12.1-19.9,13.2-20.3c2.3-0.8,4.3,0.7,4.5,0.6c0.7-0.3,5.6-5.2,7.1-5.8c0.3-0.1,6,1.2,6.1-1.6c-5.8-5.9,1.8,0.6,4.5-3.9
		c-16.7-9.2,28.4-28.8,36.4-33.2c5.3-2.9,14.1-9.3,17.4-11c6.1-3.1,11.7-3.4,14.5-6.4C-867.2,7.7-802.5,7.7-737.8,7.8z"/>
	<path class="st1" d="M-931.9,7.8c-2.8,3.1-8.4,3.3-14.5,6.4c-3.3,1.7-12.1,8.1-17.4,11c-8,4.4-53.2,24-36.4,33.2
		c-2.7,4.5-10.3-2-4.5,3.9c-0.1,2.8-5.8,1.5-6.1,1.6c-1.5,0.6-6.4,5.5-7.1,5.8c-0.2,0.1-2.2-1.4-4.5-0.6
		c-1.1,0.4-11.8,17.9-13.2,20.3c-0.5,0.9,2.6,2.7-5.8,9c-4.8,12.8-10.3,25.3-15.5,38c-1.1,2.7-4.3,5.6-5.2,7.7
		c-2.3,6.2-3.8,20.5-5.8,27.7c-2.9,10.5-9,23.2-10.3,33.5c-2.8,22.5,1.6,77.7,7.7,99.9c4.2,15.4,16.9,43.3,25.8,56.7
		c5.9,8.9,42.1,50,50,56.4c0.4,0.3,7.4,3.8,8.4,4.5c6.5,4.8,15.1,13,22.6,14.8c31.4,28,81.8,36.9,122.5,41.9
		c24.1,0.7,92.6-17.7,113.5-26.4c8.8-3.6,35.3-20.2,43.2-26.4c17.7-13.9,30.9-32.3,45.5-48.7c6.2-15.8,20.3-36.9,25.8-52.2
		c0.5-1.5,8.3-28.8,9-31.6c0.7-2.9,0.6-7.3,1.3-10.3c0.1-0.4,1.8-1.5,1.9-1.9c0.6-2.8-0.7-3.7-0.6-3.9c1.1-5.3,4-13.9,4.5-18.7
		c0.7-6.8-0.9-14-0.6-20.6c0.3-6.5,5.1-21.1-0.6-27.7c1.5-12.6-2.1-23.8-4.5-36.1c0-0.2,1.3-1.4,0.6-4.5c-0.1-0.7-2.4-3.8-2.6-4.5
		c-3.6-15-6.9-30.2-14.2-43.8c1.3-9.1-31.8-55.9-35.8-57.7c-3.5-1.6-4.1,2.2-13.2-8.1c-0.3-0.3,1.7-0.1,1-1
		c-0.2-0.3-2.4,0.4-2.9-0.3c-0.4-0.6,0.7-1.2,0.6-1.3c-3.5-5-2.8-6-3.9-7.7c-4.9-8-34.9-23.4-44.8-27.4c-3.8-6.7-19.2-5.1-19.7-11
		c6.7,0,13.3,0,20,0c3.8,6.7,31,20.4,39.7,24.5c5.6,2.7,18.6,1.7,27.1,18c8.7-1.8,4.1,6.2,4.2,6.8c0.2,2.2,6.8,11.8,8.4,14.2
		c0.7,1,1.8,5.9,2.6,6.4c2.5,1.8,5.5-0.6,7.1,5.8c0,0.1-1.5,1.9-1.3,2.6c0.6,1.8,2.9,3.2,3.2,3.9c6.6,14.7,10.5,18.3,11,19.3
		c0.3,0.8-0.3,3.7,0,4.5c2,4.5,8.5,16.5,9,18c1.3,3.8,5.7,22.8,6.5,28.4c5.8,3.6,5,22.9,6.5,27.1c0.8,2.4,4.4,3.4,4.5,5.8
		c0,0.4-2.2,1.9-1.3,8.4c0.1,0.8,4.8,7.5,1.3,14.2c-0.8,55.1-12.2,110.9-41.9,157.9c-35.1,44.9-62.1,77.4-119.6,91.9
		c-12.9,7.2-28.2,8.2-41.9,14.2c-13.6,1.3-27.2,3.9-40.6,5.8c-1.4,0.2-1.8-0.8-3.2-0.6c-0.7,0.1-0.7,2.8-3.9,1.9
		c-0.5-0.1,0.1-2.9-9-1.9c-28.9-6.1-81.1-17.5-105.1-32.9c-7.2-4.6-24.8-20.4-34.8-26.4c-21.6-18.5-39.8-39.7-57.4-61.9
		c-1.6,5.1-3.4,1.7-4.8-4.2c-0.3-1,4.1,0.2-5.2-14.2c-0.2-0.3-4.3-2.6-5.2-5.2c-1-3.1,1.8-2.9-1.3-8.4c-1.1-1.9-3-1.5-3.2-1.9
		c-0.7-1.2-0.7-7.9-1.3-9.7c-2.4-7.3-4-12.6-5.8-20c-0.3-1.3-3-4.3-3.2-5.2c-2.2-10-3.9-39.8-5.2-52.2c-0.7-6.9-6.2-13.8-1.3-20.6
		c-2-12.8,0.9-48.5,3.9-59.3c0.1-0.4,3-3.7,3.9-6.4c0.4-1.1-0.4-4.1,0-5.2c0.6-1.5,3.1-1.7,3.2-1.9c0.2-0.5-0.6-4.7,1.3-9.7
		c0.9-2.4,3.1-4,3.2-4.5c1.5-4,2-10.2,2.6-11.6c1.1-2.6,4.1-3.7,5.2-5.8c8-16.5,15.8-33.2,23.8-49.6c2-4.2,8.9-9.1,2.6-11.6
		c5-3.5,16-17.3,17.7-18.4c0.3-0.2,2,1.4,3.9,0c0.2-0.2,1.3-4.2,3.2-5.2c2.5-1.4,3.3,0.2,3.9,0c3.2-1.5,4.4-4.7,14.8-4.5
		c15.7-5.9,31.2-12.6,45.5-20.6C-940.5,7.8-936.2,7.8-931.9,7.8z"/>
	<path class="st2" d="M-658.9,26.5c0.7,0.6,1.5,1.2,0.6,1.9C-659.4,28.8-659.6,26.8-658.9,26.5z"/>
	<path class="st3" d="M-726.9,60c-9.3,7.7-15.2,21.4-16.4,21.9c-7.3,3.1-29-3.5-38-1.3c-0.1-7.5-1.1-5-9.7-4.5
		c-23.8,6.8-32.1,8.2-7.4-1.6c-17.4-2.1-22.3,5.7-12.9-4.5c-0.8-0.8-0.8-0.8-1.6-1.6c-12,1.9-21.3,11.6-22.6,11.6
		c-1.4,0-14.8-12.7-24.8-10c6.3,6.7,2.2,3.1-9,4.5c7.9,3.4,7.9,3.4,15.8,6.8c-14.4-0.2-36.6-11.9-32.2-0.6c-10.2-1.9-31,4-38,1.3
		c-1.6-0.6-9.6-17.4-19-23.8c10.3-1.6,17-8.3,18.4-9c1.7-0.9,4-1,5.8-1.9c0.2-0.1,1.2-2.6,2.6-3.2c9.1-4.3,42.8-9.7,57.4-16.8
		c29.5-5.8,58.4,4.2,87,10.3c9,5.6,19.1,9,28.4,14.2C-736.5,55.4-735.7,59.4-726.9,60z"/>
	<path class="st3" d="M-642.4,256.6c-0.2-1.5-0.5-3-0.6-4.5c0-0.3,1.7-3.8,1.3-6.1c-1.4-8.6-23.2-24.8-5.2-18.7
		c2.3-3.9-41.4-63.1-56.7-69c18.6-7,32.8-22.6,40-40.9c4.2,4.7,4.2,4.7,8.4,9.3c15.2,37.8,22.4,66.7,25.1,107.7
		c-5.2,8-3.7,10.4-3.9,11c-0.8,1.9-5.6,3.3-5.8,3.9C-640,249.6-635.9,251.3-642.4,256.6z"/>
	<path class="st3" d="M-1021.5,223.1c-0.3-1.1-1.9-3.1-1.9-4.2c-1.3-20.8,10.7-70.1,25.1-87.4c7.2,11.8,20.2,22.9,33.5,26.8
		C-988.9,173.3-1005.5,200.1-1021.5,223.1z"/>
</g>
<g id="Background_00000013902825640855333600000007852814482380937913_" class="st0">
	<path class="st1" d="M786.8,8.4c-14.2,8-29.8,14.8-45.5,20.6c-10.5-0.2-11.7,3-14.8,4.5c-0.5,0.2-1.3-1.4-3.9,0c-1.9,1-3,5-3.2,5.2
		c-1.9,1.4-3.5-0.2-3.9,0c-1.7,1.1-12.7,14.9-17.7,18.4c6.4,2.5-0.5,7.5-2.6,11.6c-8.1,16.5-15.9,33.1-23.8,49.6
		c-1,2.2-4.1,3.2-5.2,5.8c-0.6,1.4-1.1,7.6-2.6,11.6c-0.2,0.5-2.3,2.1-3.2,4.5c-1.8,5-1.1,9.2-1.3,9.7c-0.1,0.3-2.7,0.4-3.2,1.9
		c-0.4,1,0.4,4,0,5.2c-0.9,2.8-3.8,6.1-3.9,6.4c-2.9,10.8-5.8,46.5-3.9,59.3c-4.9,6.8,0.6,13.8,1.3,20.6c1.2,12.4,2.9,42.2,5.2,52.2
		c0.2,0.8,2.9,3.9,3.2,5.2c1.8,7.4,3.4,12.7,5.8,20c0.6,1.8,0.6,8.5,1.3,9.7c0.2,0.4,2.1,0,3.2,1.9c3.1,5.4,0.3,5.2,1.3,8.4
		c0.8,2.6,5,4.9,5.2,5.2c9.3,14.4,4.9,13.1,5.2,14.2c1.5,5.9,3.2,9.3,4.8,4.2c17.6,22.2,35.8,43.4,57.4,61.9
		c10,6.1,27.6,21.8,34.8,26.4c24,15.4,76.2,26.7,105.1,32.9c9.2-0.9,8.5,1.8,9,1.9c3.2,0.9,3.2-1.8,3.9-1.9c1.4-0.2,1.8,0.8,3.2,0.6
		c13.4-2,27-4.5,40.6-5.8c13.7-6,29-7,41.9-14.2c57.5-14.4,84.5-46.9,119.6-91.9c29.7-47,41.1-102.9,41.9-157.9
		c3.5-6.7-1.2-13.4-1.3-14.2c-0.9-6.4,1.3-7.9,1.3-8.4c-0.1-2.4-3.7-3.4-4.5-5.8c-1.5-4.2-0.7-23.5-6.4-27.1
		c-0.7-5.5-5.1-24.5-6.4-28.4c-0.6-1.6-7-13.5-9-18.1c-0.3-0.8,0.3-3.8,0-4.5c-0.5-1-4.4-4.7-11-19.3c-0.3-0.7-2.6-2.1-3.2-3.9
		c-0.2-0.7,1.3-2.4,1.3-2.6c-1.6-6.4-4.6-4.1-7.1-5.8c-0.7-0.5-1.9-5.4-2.6-6.4c-1.6-2.4-8.2-12-8.4-14.2c-0.1-0.6,4.5-8.6-4.2-6.8
		c-8.5-16.3-21.5-15.4-27.1-18c-8.7-4.1-35.8-17.8-39.7-24.5c71.1,0.1,142.3,0,213.4,0c0,239.8,0,239.8,0,479.6
		c-330.1,0-330.1,0-660.1,0c0-239.8,0-239.8,0-479.6C640.2,8.4,713.5,8.5,786.8,8.4z"/>
	<path class="st1" d="M993.7,8.4c0.5,5.9,15.9,4.3,19.7,11c9.9,4,39.9,19.4,44.8,27.4c1.1,1.8,0.3,2.7,3.9,7.7
		c0,0.1-1.1,0.7-0.6,1.3c0.5,0.8,2.7,0.1,2.9,0.3c0.7,0.9-1.2,0.7-1,1c9.1,10.3,9.8,6.5,13.2,8.1c4,1.8,37.1,48.6,35.8,57.7
		c7.3,13.6,10.6,28.9,14.2,43.8c0.2,0.7,2.4,3.9,2.6,4.5c0.7,3.1-0.7,4.3-0.6,4.5c2.4,12.3,6,23.5,4.5,36.1
		c5.8,6.6,0.9,21.2,0.6,27.7c-0.3,6.7,1.3,13.8,0.6,20.6c-0.5,4.8-3.4,13.4-4.5,18.7c0,0.2,1.2,1,0.6,3.9c-0.1,0.4-1.8,1.5-1.9,1.9
		c-0.7,3-0.6,7.5-1.3,10.3c-0.7,2.8-8.5,30-9,31.6c-5.5,15.3-19.5,36.5-25.8,52.2c-14.6,16.4-27.8,34.8-45.4,48.7
		c-7.9,6.2-34.4,22.8-43.2,26.4c-20.9,8.7-89.3,27.1-113.5,26.4c-40.7-5.1-91-13.9-122.5-41.9c-7.5-1.8-16.1-10-22.6-14.8
		c-1-0.7-8-4.2-8.4-4.5c-7.8-6.4-44.1-47.5-50-56.4c-8.8-13.4-21.6-41.3-25.8-56.7c-6.1-22.2-10.5-77.4-7.7-99.9
		c1.3-10.3,7.4-23.1,10.3-33.5c2-7.2,3.5-21.5,5.8-27.7c0.8-2.2,4.1-5.1,5.2-7.7c5.1-12.7,10.6-25.2,15.5-38c8.3-6.3,5.3-8.1,5.8-9
		c1.4-2.4,12.1-19.9,13.2-20.3c2.3-0.8,4.3,0.7,4.5,0.6c0.7-0.3,5.6-5.2,7.1-5.8c0.3-0.1,6,1.2,6.1-1.6c-5.8-5.9,1.8,0.6,4.5-3.9
		c-16.7-9.2,28.4-28.8,36.4-33.2c5.3-2.9,14.1-9.3,17.4-11c6.1-3.1,11.7-3.4,14.5-6.4C864.4,8.4,929,8.4,993.7,8.4z"/>
	<path class="st1" d="M799.7,8.4c-2.8,3.1-8.4,3.3-14.5,6.4c-3.3,1.7-12.1,8.1-17.4,11c-8,4.4-53.2,24-36.4,33.2
		c-2.7,4.5-10.3-2-4.5,3.9c-0.1,2.8-5.8,1.5-6.1,1.6c-1.5,0.6-6.4,5.5-7.1,5.8c-0.2,0.1-2.2-1.4-4.5-0.6
		c-1.1,0.4-11.8,17.9-13.2,20.3c-0.5,0.9,2.5,2.7-5.8,9c-4.8,12.8-10.3,25.3-15.5,38c-1.1,2.7-4.3,5.6-5.2,7.7
		c-2.3,6.2-3.8,20.5-5.8,27.7c-2.9,10.5-9,23.2-10.3,33.5c-2.8,22.5,1.6,77.7,7.7,99.9c4.2,15.4,17,43.3,25.8,56.7
		c5.9,8.9,42.1,50,50,56.4c0.4,0.3,7.4,3.8,8.4,4.5c6.5,4.8,15.1,13,22.6,14.8c31.4,28,81.8,36.9,122.5,41.9
		c24.1,0.7,92.6-17.7,113.5-26.4c8.8-3.6,35.3-20.2,43.2-26.4c17.7-13.9,30.9-32.3,45.4-48.7c6.2-15.8,20.3-36.9,25.8-52.2
		c0.6-1.5,8.3-28.8,9-31.6c0.7-2.9,0.6-7.3,1.3-10.3c0.1-0.4,1.8-1.5,1.9-1.9c0.6-2.8-0.7-3.7-0.6-3.9c1.1-5.3,4-13.9,4.5-18.7
		c0.7-6.8-0.9-14-0.6-20.6c0.3-6.5,5.1-21.1-0.6-27.7c1.5-12.6-2.1-23.8-4.5-36.1c0-0.2,1.3-1.4,0.6-4.5c-0.1-0.7-2.4-3.8-2.6-4.5
		c-3.6-15-6.9-30.2-14.2-43.8c1.3-9.1-31.8-55.9-35.8-57.7c-3.5-1.6-4.1,2.2-13.2-8.1c-0.3-0.3,1.7-0.1,1-1
		c-0.2-0.3-2.4,0.4-2.9-0.3c-0.4-0.6,0.7-1.2,0.6-1.3c-3.5-5-2.8-6-3.9-7.7c-4.9-8-34.9-23.4-44.8-27.4c-3.8-6.7-19.2-5.1-19.7-11
		c6.7,0,13.3,0,20,0c3.8,6.7,31,20.4,39.7,24.5c5.6,2.7,18.6,1.7,27.1,18c8.7-1.8,4.1,6.2,4.2,6.8c0.2,2.2,6.8,11.8,8.4,14.2
		c0.7,1,1.8,5.9,2.6,6.4c2.5,1.8,5.5-0.6,7.1,5.8c0,0.1-1.5,1.9-1.3,2.6c0.6,1.8,2.9,3.2,3.2,3.9c6.6,14.7,10.5,18.3,11,19.3
		c0.3,0.8-0.3,3.7,0,4.5c2.1,4.5,8.5,16.5,9,18c1.3,3.8,5.7,22.8,6.4,28.4c5.8,3.6,5,22.9,6.4,27.1c0.8,2.4,4.4,3.4,4.5,5.8
		c0,0.4-2.2,1.9-1.3,8.4c0.1,0.8,4.8,7.5,1.3,14.2c-0.8,55.1-12.2,110.9-41.9,157.9c-35.1,44.9-62.1,77.4-119.6,91.9
		c-12.9,7.2-28.2,8.2-41.9,14.2c-13.6,1.3-27.2,3.9-40.6,5.8c-1.4,0.2-1.8-0.8-3.2-0.6c-0.7,0.1-0.7,2.8-3.9,1.9
		c-0.5-0.1,0.1-2.9-9-1.9c-28.9-6.1-81.1-17.5-105.1-32.9c-7.2-4.6-24.8-20.4-34.8-26.4c-21.6-18.5-39.8-39.7-57.4-61.9
		c-1.6,5.1-3.4,1.7-4.8-4.2c-0.3-1,4.1,0.2-5.2-14.2c-0.2-0.3-4.3-2.6-5.2-5.2c-1-3.1,1.8-2.9-1.3-8.4c-1.1-1.9-3-1.5-3.2-1.9
		c-0.7-1.2-0.7-7.9-1.3-9.7c-2.4-7.3-4-12.6-5.8-20c-0.3-1.3-3-4.3-3.2-5.2c-2.2-10-3.9-39.8-5.2-52.2c-0.7-6.9-6.2-13.8-1.3-20.6
		c-2-12.8,0.9-48.5,3.9-59.3c0.1-0.4,3-3.7,3.9-6.4c0.4-1.1-0.4-4.1,0-5.2c0.5-1.5,3.1-1.7,3.2-1.9c0.2-0.5-0.6-4.7,1.3-9.7
		c0.9-2.4,3-4,3.2-4.5c1.5-4,2-10.2,2.6-11.6c1.1-2.6,4.1-3.7,5.2-5.8c8-16.5,15.8-33.2,23.8-49.6c2-4.2,8.9-9.1,2.6-11.6
		c5-3.5,16-17.3,17.7-18.4c0.3-0.2,2,1.4,3.9,0c0.2-0.2,1.3-4.2,3.2-5.2c2.5-1.4,3.3,0.2,3.9,0c3.2-1.5,4.4-4.7,14.8-4.5
		c15.7-5.9,31.2-12.6,45.5-20.6C791.1,8.4,795.4,8.4,799.7,8.4z"/>
	<path class="st2" d="M1072.7,27.1c0.7,0.6,1.5,1.2,0.6,1.9C1072.2,29.5,1072,27.4,1072.7,27.1z"/>
	<path class="st3" d="M1004.7,60.6c-9.3,7.7-15.2,21.4-16.4,21.9c-7.3,3.1-29-3.5-38-1.3c-0.1-7.5-1.1-5-9.7-4.5
		c-23.8,6.8-32.1,8.2-7.4-1.6c-17.4-2.1-22.3,5.7-12.9-4.5c-0.8-0.8-0.8-0.8-1.6-1.6c-12,1.9-21.3,11.6-22.6,11.6
		c-1.4,0-14.8-12.7-24.8-10c6.3,6.7,2.2,3.1-9,4.5c7.9,3.4,7.9,3.4,15.8,6.8c-14.4-0.2-36.6-11.9-32.2-0.6c-10.2-1.9-31,4-38,1.3
		c-1.6-0.6-9.6-17.4-19-23.8c10.3-1.6,17-8.3,18.4-9c1.7-0.9,4-1,5.8-1.9c0.2-0.1,1.2-2.6,2.6-3.2c9.1-4.3,42.8-9.7,57.4-16.8
		c29.5-5.8,58.4,4.2,87,10.3c9,5.6,19.1,9,28.4,14.2C995,56,995.8,60,1004.7,60.6z"/>
	<path class="st3" d="M1089.1,257.3c-0.2-1.5-0.5-3-0.6-4.5c0-0.3,1.7-3.8,1.3-6.1c-1.4-8.6-23.2-24.8-5.2-18.7
		c2.3-3.9-41.4-63.1-56.7-69c18.6-7,32.8-22.6,40-40.9c4.2,4.7,4.2,4.7,8.4,9.3c15.2,37.8,22.4,66.7,25.1,107.7
		c-5.2,8-3.7,10.4-3.9,11c-0.8,1.9-5.6,3.3-5.8,3.9C1091.6,250.3,1095.6,251.9,1089.1,257.3z"/>
	<path class="st3" d="M710.1,223.7c-0.3-1.1-1.9-3.1-1.9-4.2c-1.3-20.8,10.7-70.1,25.1-87.3c7.2,11.8,20.2,22.9,33.5,26.8
		C742.6,174,726.1,200.8,710.1,223.7z"/>
</g>
<g>
	<g>
		<path class="st4" d="M274.8,452.6l38-60.2c1.1-1.7,3.1-2.5,5.1-2.1l69.3,16.4c3.7,0.9,6.9-2.8,5.4-6.4l-58.9-144.2l-126.2,51.5
			l58.9,144.2C267.9,455.4,272.8,455.8,274.8,452.6z"/>
		<polygon class="st5" points="295.9,324.4 254.7,423 214.5,324.4 		"/>
		<path class="st4" d="M292.4,307.6l-6.9,16.8l-25.3,62.1l-1,2.6l-9.1,22.3l-16.5,40.4c-1.4,3.5-6.3,4-8.3,0.7l-38-60.2
			c-1.1-1.7-3.1-2.5-5.1-2.1l-69.3,16.4c-3.7,0.9-6.9-2.8-5.4-6.4l58.8-144.2L292.4,307.6z"/>
		<path class="st5" d="M351.1,298.4c-5.5,4.9-44.4,38.5-101.1,38.5c-10.7,0-21.3-1.1-31.8-3.3c-25.6-5.5-49.8-17.7-69.3-35.1
			l17.2-42.3l19.8,8.1l1.8,0.7l62.3,25.4l62.3-25.4l1.8-0.7l19.8-8.1L351.1,298.4z"/>
	</g>
	<g>
		<circle class="st6" cx="250" cy="184.8" r="139.6"/>
		<path class="st7" d="M250,312c-70.1,0-127.2-57.1-127.2-127.2S179.9,57.7,250,57.7s127.2,57,127.2,127.2S320.1,312,250,312z"/>
		<circle class="st6" cx="250" cy="184.8" r="119.4"/>
		<g>
			<path class="st8" d="M222.9,273.7c3.9,2.4,8.1,4.5,11.8,7.3c2.6,2,5.2,4.3,6.9,7c-11.1-7.2-26.6-14.2-39.9-14.7
				C208.4,270.4,216,272.1,222.9,273.7z"/>
			<path class="st8" d="M290.9,272.1c1.1,0.1,2.5,0.1,3.5,0.3c7.4,1.7-0.7,1.3-5.5,2.1c-10.3,1.8-22.2,8.1-31.1,13.8
				C265.7,278.2,277.7,271,290.9,272.1z"/>
			<path class="st9" d="M340.7,195.3c0,0.7,0.2,1.4,0.3,2.1c0.6,4.8,3.2,13.9,0.9,14.4c-1.3-12.9-4.9-17.3-4.1-17.8
				C339.3,194.7,339.3,194.7,340.7,195.3z"/>
			<g>
				<path class="st8" d="M198.4,103.2c4.5,3.1,8.2,11,9,11.3c3.4,1.3,13.2-1.5,18.1-0.6c-2.1-5.3,8.4,0.2,15.3,0.3
					c-3.8-1.6-3.8-1.6-7.5-3.2c5.3-0.7,7.3,1,4.3-2.1c4.8-1.3,11.1,4.7,11.8,4.7c0.6,0,5-4.6,10.7-5.5c0.4,0.4,0.4,0.4,0.8,0.8
					c-4.5,4.9-2.1,1.2,6.1,2.1c-11.7,4.7-7.8,4,3.5,0.8c4.1-0.2,4.6-1.4,4.6,2.1c4.3-1.1,14.6,2.1,18.1,0.6
					c0.6-0.3,3.4-6.8,7.8-10.4c10.5-8.7,32.2-5.3,33.4,10.6c0.3,4.5-1.7,12.4-3.4,16.7c-3.4,8.7-10.1,16.1-19,19.4
					c7.3,2.8,28,30.9,26.9,32.8c-8.6-2.9,1.8,4.8,2.5,8.9c0.2,1.1-0.6,2.8-0.6,2.9c-1.5-0.6-1.5-0.6-2.9-1.2
					c-0.8,0.5,2.8,4.9,4.1,17.8c4,38.4-21.9,51.3-55.1,57.5c-13.8,2.6-7.7,1.1,0.1-2.5c-9.5,1.8-21.7,5-29.1,11.6
					c-7.1,6.4,3.7-1.7,9.2-4c4.7-2,14.9-4.8,4.3,0c-8,5.4-15.8,11.3-21.7,19c-7.1-8.7-16-15.5-25.6-21.3c0.2-0.5,7.1,1.7,7.8,2
					c5.4,2.2,19.1,12.5,6.7,2.1c-3.4-2-3.4-2-6.7-4c-7.4-3.2-38.6-11.1-10.7-1.8c1.9,1.2-3.4-0.4-6-0.9
					c-21.4-4.4-49.7-11.3-56.3-35.6c-3.3-12.1-2.2-28.2,3.4-39.5c-0.2-0.2-0.2-0.2-0.5-0.5c-7.9,4.3-1.4-6.4,3.8-11.5
					c-6.9,1.3-4.2,0.2-4.6-1.1c7.6-10.9,15.5-23.6,26.9-30.8c-6.3-1.8-12.5-7.1-15.9-12.7c-4.8-7.9-8.6-23.6-3.1-31.7
					C175,97.8,190.4,97.7,198.4,103.2z"/>
				<g>
					<path class="st9" d="M286.9,269.4c-1.3,4.1,2.9,0.9,4,2.8c-13.2-1.1-25.1,6.1-33,16.2c-6,3.8-7.6,7-8.1,7
						c-0.4,0-4.7-5.5-6.1-6.4c-0.1-0.1-0.4,0.1-2-0.9c-1.7-2.7-4.3-5.1-6.9-7c-3.7-2.9-7.8-4.9-11.8-7.3c-4.3-2.4-8.2-0.7-7.6-4
						c2.6,0.5,7.9,2.1,6,0.9c-27.9-9.3,3.3-1.3,10.7,1.8c3.4,2,3.4,2,6.7,4c12.4,10.4-1.3,0-6.7-2.1c-0.8-0.3-7.6-2.5-7.8-2
						c9.6,5.8,18.5,12.6,25.6,21.3c6-7.7,13.8-13.5,21.7-19c10.6-4.8,0.4-2-4.3,0c-5.5,2.3-16.3,10.3-9.2,4
						c7.4-6.6,19.5-9.9,29.1-11.6C279.2,270.5,273.1,272,286.9,269.4z"/>
					<path class="st10" d="M313.5,169.9c-2.2,4.4-2.3,9.8-5.5,13.8c-1.6-2.6-0.6,0.4-0.3,1.5c-3.3,8.6-6.8,16.6-16.8,17.8
						c-4.1-1.6,1.6-4,2-4c1.3,0,6.3,5.5,1.1-0.8c1.3-1.1,1.3-1.1,2.6-2.3c2.6,1.3,0.4-0.1,0.5-0.8c0-0.6,3.6-2.9,2.5-10.6
						c-0.8-5.7-6-11.8-6.1-12.7c-0.3-1.9,1.8-2.6-2.1-6.3c5.1-5.9-4.4,2.3-1.7-3.7c-2.5,2.6-3.2,0.8-4.1,0.9
						c-10.6,1.2-17.2,12.7-15.3,21.4c-3.1-0.6-6.8-6.8-7.8-7c-3.5-1-2.3,3.5-8.3-4.3c-1.7,3.1-1.7,3.1-3.4,6.1
						c-0.9-8.7-0.6-11.4-2.8-1.5c-1.7-2.6-1.7-2.6-3.4-5.2c-6.1,10.8-5.9,5.1-8.6,5.5c-0.5,0.1-5.6,6.1-6.3,7
						c1.1-6.8-1.2-14.4-6.9-18.7c-1.2-0.9-7.8-4-8.3-4c-1.4,0-0.6,3.2-3.7-0.3c0.4,1,0.4,1,0.8,2c-1,3.4-9.4-6.7-2.8,1.8
						c-5.1,3.4-2.4,5.5-2.4,6.1c-0.1,1.1-8.8,9.3-5.8,19.4c0.9,2.9,3.7,4.3,1.2,5.1c5.1,0.9,4,2.4,0.9,5.4
						c-6.1-2.6-10.7-10.7-10.7-17.1c0-2,1.3-5.3-1.5,0.6c-2.8-4.7-3.1-10.1-4.3-15.3c0-0.1,0-0.1,0-0.3c1.9-3.9,3.7-8,5.8-11.8
						c-0.9-0.3-0.9-0.3-1.8-0.6c5.5-8.8,15-23,23.4-28.9c18.7-13.1,56.8-12.7,74.7,1.8c6.7,5.4,16.7,19.4,21.6,27.1
						c-0.9,0.1-0.9,0.1-1.8,0.3C310.2,161.5,311.8,165.7,313.5,169.9z"/>
					<path class="st10" d="M176.7,186.1c-1.9,7.6-2.9,10.6-1.2,18.8c2.7,13.4,13.9,25.6,25.2,32.6c8.7,5.4,18.9,8.4,28,13.2
						c6.5,3.4,12.1,6.7,16.8,12.5c3,3.7,4.4,7.9,4.7,7.6c0.6-2.9,2.6-6.9,4.4-9.2c3.8-4.8,11.4-8.6,16.8-11.3c5.9-2.9,14-5.7,20-8.9
						c23.8-12.3,40.3-30.7,30.8-59.1c4,7.9,5.4,13,4.9,22.2c-0.9,17.7-11,30.7-26.2,39c-16.9,9.3-40.9,9.4-50.8,28.5
						c-15.1-22.8-40.7-18.4-61.2-35.5c-12.8-10.7-18.2-25.5-16.1-42.1C173.9,188.2,178.6,178.6,176.7,186.1z"/>
					<path class="st11" d="M322.4,182.5c9.5,28.3-7,46.8-30.8,59.1c-6.1,3.1-14.2,6-20,8.9c4.3-2.6,6.3-5.5,9.5-8.9
						c1-1.1,2.6-1.8,4-4c0,0.4-0.1,1.6,0.1,1.8c26.7-14.1,42-30.6,31.4-62.1c-0.3-1-0.5-2.1-0.9-3.1c0.9-2-1.8-7-0.6-7.5
						c2,4.1,3.6,9.9,5.5,13.8C321.6,182.6,322.2,182,322.4,182.5z"/>
					<path class="st11" d="M186.2,169.9c-12.3,29.7-6.9,46.7,19.3,64c3.1,2.1,6.3,3.8,9.5,5.8c1.4,0.9,3.4,1.6,4.1,2.1
						c3.5,2.4,6.1,6.4,9.6,8.9c-9.1-4.7-19.3-7.8-28-13.2c-11.3-6.9-22.6-19.2-25.2-32.6c-1.6-8.3-0.7-11.2,1.2-18.8
						c1.9,1.6,6.4-11.7,8.6-16.1c0.1-0.1,0.9-0.4,0.9-0.5C186.2,169.8,186.2,169.8,186.2,169.9z"/>
					<g>
						<path class="st12" d="M301.9,139.9c0-2.1,0-2.1,0-4.3c2.8-8.9,7.2-26.7,19.1-27.5c17.7-1.2,8.5,28.3-3.4,36.1
							c-2.3,1.5-10.3,4.6-10.6,3.2c6.2-6.5,13.4-10.5,0.3-4.9c0.5-1.2,5.9-11.8,4.4-11.8C308,133.6,301.6,143.2,301.9,139.9z"/>
						<path class="st13" d="M301.9,135.6c0,2.1,0,2.1,0,4.3c-0.9-0.6-2.4-5-2.5-5.7c-0.4-3.8,2.1-9.6-1.7-1.4
							c-1.5-3.8-0.6-8.3,1.4-11.8c-0.5,0.2-0.5,0.2-0.9,0.3c-5.3,8-4.5,4.1-0.3-3.7c-5.1,4.1-7.3,7.2-2.1-1.5
							c3.5-5.9,9.3-11.7,16.2-12.8c-1.8,1.1-3.8,2.3-5.4,3.8c-5.9,5.7,0.9-0.1,6.4-1.2c5-1,14.8-0.6,4.6,0.3
							C304.6,110.5,301.3,123.1,301.9,135.6z"/>
					</g>
					<path class="st13" d="M213.9,257.5c14.9,4.8,27.2,9.9,36.1,23.6c7.3-13,22.2-19.2,36-23.1c-12.2,5.9-28.5,12.7-36,24.3
						C241,270,226.8,264.4,213.9,257.5z"/>
					<path class="st13" d="M190.9,151.3c0.1,0.4,0.1,0.4,0.1,0.8c-5.4,6.3-15.6,15-5.7,9.9c0.2,0.2,0.2,0.2,0.5,0.5
						c-10,8.3-10,8.3-20,16.7C173.6,169.4,180.2,158,190.9,151.3z"/>
					<path class="st13" d="M308.8,151.6c10.2,5.8,16.2,16.6,23.3,25.7c-9.1-7.4-9.1-7.4-18.2-14.8c-0.1-1.2,4.7,1.5,4.9,0.9
						C313.7,157.5,313.7,157.5,308.8,151.6z"/>
					<path class="st13" d="M330.5,187.7c9.9,12.6,8.9,28.5-0.6,41C336.5,215.9,335.4,200.9,330.5,187.7z"/>
					<path class="st9" d="M333.4,241.8c-7.2,11.6-25.1,21.4-38.7,22c11.4-4.5,31.2-11.4,37.2-22.9
						C332.3,241.5,332.4,242.4,333.4,241.8z"/>
					<path class="st13" d="M169.2,188.3c-5.5,12.7-4.7,27.2,0.6,39.8C161.1,216.9,159.3,199.3,169.2,188.3z"/>
					<path class="st9" d="M192,258.7c-0.9,0.2-0.6,1-0.9,1.8c-10.3-4.1-22.2-11.3-26.9-21.7c0.4-0.1,1-0.6,1.1-0.6
						c0.6-0.1,0.8,1.6,0.8-0.6C168.7,247.2,183.5,254.9,192,258.7z"/>
					<path class="st14" d="M315.6,174.2c0.4,1,0.6,2.1,0.9,3.1c-1.7,3.8-2.8,7.8-7.3,8.9c-0.1-0.1-1.1-2.3-1.2-2.4
						c3.2-4,3.3-9.3,5.5-13.8C314,171.1,315.2,172.9,315.6,174.2z"/>
					<path class="st13" d="M333.4,241.8c-1,0.6-1.1-0.4-1.5-0.9c4.4-8.5,1.2-4-2.3-0.9c-7.1,6.2,2.1-2.8,5-8.1
						c0.7-1.3,2.2-4.5,2.8-5.8c1.8-4.6,2.7-10.7,1.5,0.3C338.3,232.3,336.5,236.9,333.4,241.8z"/>
					<path class="st13" d="M166,237.6c0,2.2-0.2,0.5-0.8,0.6c-0.1,0-0.7,0.5-1.1,0.6c-2.5-5.5-3.7-12.4-3.2-18.4
						c0.9,3.5,1.9,7,3.5,10.2c2.9,5.9,12.8,16.4,1.4,5.4C165.7,236.1,165.9,237.2,166,237.6z"/>
					<path class="st13" d="M192,258.7c4.1,1.8,8.3,3.3,12.6,4.7c-5,0.9-9.1-1.1-13.5-2.9C191.4,259.6,191.1,258.9,192,258.7z"/>
					<path class="st15" d="M322.5,177c5.7,2.6,11,6.2,13.6,12.1C329.3,183,329.3,183,322.5,177z"/>
					<path class="st16" d="M175.6,177.3c0.2,0.2,0.2,0.2,0.5,0.5c-4.5,3.3-8.7,7.3-12.1,11.8C165.7,183.7,170.7,180.4,175.6,177.3z"
						/>
					<path class="st9" d="M291,118.2c1.7-0.4-0.6,1.8-2.1,4.6c-0.3-3.7-3.6-1.4-9-2.9C283.6,119.5,287.4,119.6,291,118.2z"/>
					<path class="st13" d="M278.5,116.1c1.5,0.1,5.9,0.6,2.1,1.5C275.2,119,264.7,118.4,278.5,116.1z"/>
					<path class="st15" d="M216.9,116.4c14.1,0.6,12.5,2.1-1.2,0.9C214.7,116.3,216,117.1,216.9,116.4z"/>
					<path class="st9" d="M209.6,118.5c4.7,0.8,4.7,0.8,9.3,1.7C213.2,119.5,210.5,122.6,209.6,118.5z"/>
					<path class="st16" d="M229.2,115.4c3.4,0.4,3.4,0.4,6.9,0.8C234.1,117.3,230.7,117.3,229.2,115.4z"/>
					<path class="st17" d="M211.1,122.8c0.2,0.1,0.2,0.1,0.5,0.2C208.6,128.1,206.2,124.1,211.1,122.8z"/>
					<path class="st18" d="M268.7,115.4c7.7-1-3.7,1.9-3.8,1.4C264.8,116.6,268.4,115.5,268.7,115.4z"/>
					<path class="st19" d="M211.4,121.3c0.4,0.2,0.4,0.2,0.8,0.5C212.5,123,211.1,122.2,211.4,121.3z"/>
					<g>
						<path class="st12" d="M175.6,108.1c15.8-2.7,21.9,23.2,20.7,34.7c-8.9-11.7-13.7-17.5-4.9-0.9c-3.7-1.1-3.7-1.1-7.3-2.1
							c3.6,3,15.8,11.9,2.6,7.2C171,141.4,162.6,110.3,175.6,108.1z"/>
						<path class="st13" d="M198.7,138.7c-0.3-0.1-0.3-0.1-0.6-0.3c0.6-14.2-0.6-25.8-15.4-31.8c-12.5-1.4,4.6-3.2,12.9,3.7
							c-0.8-2.8-11.9-9.9-2.4-5.2c4.9,2.5,12.5,11,13.2,16.5c-9-8.9-1.7-1.6-0.1,3.8c-9.4-10.2-0.8,0.2-2.8,5.8
							c-0.2,0.2-0.2,0.2-0.5,0.5C197.8,125.4,203.2,128.8,198.7,138.7z"/>
						<path class="st20" d="M198.7,138.7c-0.6,1.4-0.7,1.9-0.6-0.3C198.4,138.6,198.4,138.6,198.7,138.7z"/>
					</g>
					<path class="st21" d="M190.5,185.2c-9.2,19.2,6.6,29.3,16.2,37.6c-1.2,2.4-2.8-1.2-2.8,0.8c6.2,5.3,6.2,5.3,12.4,10.6
						c1.8-1.3-1.7-4.3-4.4-7c2,1,3.6,3.4,5.2,4.9c0.3,2.2-0.1,3.4-0.6,5.2c-4.4-1.8-8.3-4.6-12.1-7.3c-1.9,0,0.6,0.9,1.1,4
						c-26.2-17.3-31.6-34.2-19.3-64C187.4,175.1,187.7,180.6,190.5,185.2z"/>
					<path class="st21" d="M287.5,221c-2.9-0.5-2.9-0.5-5.8-0.9c0.6-2.5,0.7-3.6,0.9-6.1c0.6-8.8-0.8-10.5-0.6-11
						c2.6-0.1,5.3,0.1,8,0c0.3,0,0.6,0.6,0.8,0.6c0.2,0,0.1-0.6,0.1-0.6c10.1-1.2,13.5-9.1,16.8-17.8c0.4,1.2,1.4,2.9,1.5,4.1
						C311.5,205.8,298.4,212.4,287.5,221z"/>
					<path class="st21" d="M202.7,201.8c0.1,0.1,0.5-0.1,0.6,0c1.5,0.6,3.9,1.5,5.5,1.5c0.9,0,0.4,0.1,1.2-0.3
						c1.1,0.1,5.1-0.5,4.9-0.9c1,0.2,2.6,0.3,2.8,0.8c0.1,0.2-0.6,1.9-0.6,3.8c-0.1,6.3,0.1,10.9,2.4,16.8c-1,0.2-1.1-2.1-1.2-2.3
						c-0.3-0.4-7.9-3.9-8.6-2.3c-11.3-9.7-24.7-16-17.8-34.3C192,191.1,196.6,199.1,202.7,201.8z"/>
					<path class="st11" d="M192,184.6c-7,18.2,6.4,24.6,17.8,34.3c3.1,2.7,8.9,7.1,11,9.2c1,1.1,0.9,1.5,0.9,1.5
						c-0.5,3.4-8.7-4.8-11.9-4.6c-0.8-0.7-2.2-1.4-3.1-2.1c-9.6-8.4-25.4-18.4-16.2-37.6C193.3,179.3,192,182.6,192,184.6z"/>
					<path class="st11" d="M308,183.7c0.1,0.1,1.2,2.3,1.2,2.4c5,12.1,1.4,21.5-7.6,30c-4.8,4.5-10.7,7.8-15.6,12.2
						c-2.2-1.3-5.4,1.9-7,0c0.3-0.4,0.7-1.1,0.9-1.5c1.6,0.1,5.6-4.2,7.6-5.8c10.9-8.6,24-15.2,21.7-31.7c-0.2-1.3-1.2-2.9-1.5-4.1
						C307.4,184.1,306.4,181.1,308,183.7z"/>
					<path class="st22" d="M239.8,253.5c5.2,3.7,3.3,1.5,2.8-1.2c-0.2-1.2-0.6-2.3-0.6-3.5c0.6-0.5,1,0.1,1.2,0.1
						c0.8,1.5,1.5,3,2.1,4.6c-2.3,3,1.3,6.6,0.3,9.8c-4.7-5.8-10.4-9.2-16.8-12.6c-3.5-2.5-6.1-6.4-9.6-8.9
						c-0.8-0.5-2.7-1.3-4.1-2.1c1.2,0,1.3-1.6,1.5-2.4c0.5-1.8,0.9-3,0.6-5.2C221,235.9,236.9,251.5,239.8,253.5z"/>
					<path class="st22" d="M281.1,241.5c-3.2,3.4-5.2,6.2-9.5,8.9c-5.4,2.7-13,6.5-16.8,11.3c0.7-2.9,2.5-5.2,4-7.6
						c0,0.3,0.2,0.4,0.5,0.3c0.6-0.4,7.1-6.1,8.4-7.3c1.7,1.8,9.9-7.9,11.3-11c0.2-0.2,0.4-0.4,0.6-0.6
						C280.3,238.5,280.3,238.5,281.1,241.5z"/>
					<path class="st22" d="M261.2,249.5c-0.8,1.2-1.7,3.3-2.5,4.6c-1.5,2.4-3.3,4.8-4,7.7c-1.8,2.3-3.8,6.3-4.4,9.2
						c-0.4,0.2-1.8-4-4.7-7.6c1-3.2-2.6-6.8-0.3-9.8c1.6,3.7,2.7,7.7,4.3,11.3c0.2,0.5,0.5,1.5,0.8,1.5c0.6,0,3.8-9.1,4.1-10.2
						c0.6-1.6,0.2-5.8,2-2.3C258.2,252.1,260.2,248.3,261.2,249.5z"/>
					<path class="st21" d="M285,237.6c0-0.1,0.6-0.4,0.3-1.7c0-0.1-1.7-1.7-1.5-2.8c0.3-1.6,18.3-12.8,17.8-17
						c9.1-8.5,12.7-17.9,7.6-30c4.6-1,5.6-5.1,7.3-8.9c10.7,31.6-4.7,48.1-31.4,62.1C284.9,239.2,285.1,238,285,237.6z"/>
					<path class="st23" d="M285,237.6c-1.4,2.2-3,2.9-4,4c-0.8-3.1-0.8-3.1-1.5-6.1c1.3-1.2,4.2-5,6.4-7c4.9-4.4,10.8-7.8,15.6-12.2
						c0.6,4.2-17.5,15.4-17.8,17c-0.2,1,1.5,2.6,1.5,2.8C285.6,237.2,285,237.5,285,237.6z"/>
					<path class="st23" d="M216.5,237.2c-0.2,0.9-0.3,2.4-1.5,2.4c-3.1-2-6.3-3.7-9.5-5.8c-0.4-3.1-3-4-1.1-4
						C208.2,232.6,212.1,235.4,216.5,237.2z"/>
					<path class="st24" d="M221.7,229.6c4.9,4.9,11.6,13.8,21.9,16.5c13.7,3.6,27.9-6.8,35.3-17.8c1.7,1.9,4.9-1.3,7,0
						c-2.3,2-5.1,5.8-6.4,7c-0.2,0.2-0.4,0.4-0.6,0.6c-3.8,3.6-7.5,7.4-11.3,11c-1.4,1.2-7.8,7-8.4,7.3c-0.2,0.1-0.5,0-0.5-0.3
						c0.8-1.3,1.6-3.4,2.5-4.6c1-1.4,6-5.7,4.1-5.2c-4.1,5.6-12.8,5.6-19.1,5.2c-0.2,0-0.4-0.6-3.1-0.6c-0.3,0-0.6-0.6-1.2-0.1
						c0,1.2,0.4,2.4,0.6,3.5c-1.1,0.9-2.6-4.1-4.4-5.5c-6.1-3.1-1.1,1,1.7,6.7c-2.8-2-18.7-17.5-22.6-21.4c-1.6-1.6-3.2-3.9-5.2-4.9
						c-0.7-0.7-1.4-1.5-2.1-2.1C213,224.8,221.1,233,221.7,229.6z"/>
					<path class="st21" d="M206.7,222.9c0.8,0.7,2.2,1.4,3.1,2.1c0.8,0.7,1.4,1.4,2.1,2.1c2.8,2.8,6.2,5.8,4.4,7
						c-6.2-5.3-6.2-5.3-12.4-10.6C203.9,221.7,205.5,225.2,206.7,222.9z"/>
					<path class="st23" d="M287.5,221c-2.1,1.6-6,5.9-7.6,5.8c0.4-0.7,1-1.7,0.3-1.8c0.8-1.6,1.1-3.2,1.5-4.9
						C284.6,220.6,284.6,220.6,287.5,221z"/>
					<path class="st13" d="M289.9,203c-2.6,0.1-5.3-0.1-8,0C282.1,202.6,288.8,200.5,289.9,203z"/>
					<path class="st25" d="M219.6,223.5c0.4,1.1,0.9,2.3,1.5,3.4c-0.1,0.6-0.1,0.6-0.3,1.2c-2.1-2.1-7.9-6.5-11-9.2
						c0.7-1.6,8.3,1.9,8.6,2.3C218.5,221.4,218.5,223.6,219.6,223.5z"/>
					<path class="st10" d="M208.8,203.3c-1.6-0.1-4-0.9-5.5-1.5c3.7-3.7,3-2.2,7.3-0.5C209.8,202.3,209.8,202.3,208.8,203.3z"/>
					<path class="st13" d="M215,202.1c0.2,0.4-3.8,1.1-4.9,0.9C211.9,202.1,210.5,201.1,215,202.1z"/>
					<path class="st11" d="M246.2,249.5c1.5,5,2.9,10.1,3.4,15.3c-1.6-3.7-2.7-7.6-4.3-11.3c-0.7-1.6-1.3-3.1-2.1-4.6
						C245.7,248.9,246,249.5,246.2,249.5z"/>
					<path class="st26" d="M242.5,252.2c0.6,2.7,2.5,4.9-2.8,1.2c-2.8-5.8-7.8-9.9-1.7-6.7C239.9,248.1,241.4,253.2,242.5,252.2z"/>
					<path class="st26" d="M267.6,247.1c3.8-3.6,7.5-7.4,11.3-11C277.5,239.1,269.3,248.8,267.6,247.1z"/>
					<path class="st26" d="M261.2,249.5c-1-1.2-2.9,2.6-4.7,4.3c-1.8-3.5-1.4,0.7-2,2.3c-0.4,1.1-3.6,10.3-4.1,10.2
						c-0.3,0-0.5-1-0.8-1.5c-0.5-5.2-1.8-10.3-3.4-15.3c6.4,0.4,15,0.4,19.1-5.2C267.2,243.8,262.2,248.1,261.2,249.5z"/>
					<g>
						<path class="st13" d="M270,184.3c0.1,0.6,4.8,5.3,6.7,10.7c1.4,3.8,2.3,8.3,2.5,12.2c0.8,17.1-7.9,27.8-25.7,25.6
							c0.1-0.7,0.1-0.7,0.1-1.4c10.3,4.6,14-6.1,13.6-14.4c-1.3-26-33.9-26-34.6,0c-0.2,8.4,3.2,19.1,13.3,14.1
							c0.1,0.8,0.1,0.8,0.1,1.7c-1.1,1.9-27.3,2.6-25.7-26.2c0.2-3,1.6-9.1,2.8-11.9c1.5-3.7,3.9-6.7,6.4-9.8c0.7-0.9,5.8-7,6.3-7
							c2.7-0.4,2.4,5.3,8.6-5.5c1.7,2.6,1.7,2.6,3.4,5.2c2.1-9.8,1.9-7.2,2.8,1.5c1.7-3.1,1.7-3.1,3.4-6.1c6,7.8,4.8,3.3,8.3,4.3
							C263.2,177.6,267,183.7,270,184.3z"/>
						<path class="st27" d="M299.4,184.6c1.1,7.7-2.4,10-2.5,10.6c0,0.7,2.1,2.1-0.5,0.8c-1.3,1.1-1.3,1.1-2.6,2.3
							c5.2,6.2,0.3,0.8-1.1,0.8c-0.4,0-6.1,2.4-2,4c0,0,0.1,0.6-0.1,0.6c-0.1,0-0.4-0.6-0.8-0.6c-1.2-2.5-7.8-0.4-8,0
							c-0.2,0.5,1.3,2.2,0.6,11c-1.5-1.7-1.7-5.6-3.4-6.7c-0.2-4-1.1-8.5-2.5-12.2c0.9,0.1,1-0.9,1.5-1.2
							c2.2-1.2,14.4-4.4,15.6-12.9C297.2,181.8,297.3,186.1,299.4,184.6z"/>
						<path class="st27" d="M285.4,162.9c1,0.9,5.6,3.9,5.8,2.8c3.9,3.7,1.8,4.3,2.1,6.3c0.2,0.9,5.3,7,6.1,12.7
							c-2.1,1.5-2.2-2.8-5.5-3.7c1.3-8.9-10.8-17.7-16.8-8.7c-4.4,6.6,1.6,14.3,1.2,21.6c-0.5,0.3-0.6,1.4-1.5,1.2
							c-2-5.4-6.6-10.1-6.7-10.7C268.1,175.6,274.7,164.1,285.4,162.9z"/>
						<path class="st11" d="M291.2,165.6c-0.2,1.1-4.8-1.9-5.8-2.8c0.9-0.1,1.6,1.6,4.1-0.9C286.8,167.9,296.3,159.8,291.2,165.6z"
							/>
						<path class="st17" d="M267.3,217.1c-12.4,0.7-16.4,6.6-17.3,6.7c-0.9,0.1-4.3-5.7-17.3-6.7C233.4,191.1,266,191.1,267.3,217.1
							z"/>
						<path class="st15" d="M279.8,226.9c-0.2,0.4-0.6,1.1-0.9,1.5c-7.4,10.9-21.7,21.3-35.4,17.8c-10.3-2.7-17-11.6-21.9-16.5
							c-0.1-0.1,0.1-0.5-0.9-1.5c0.1-0.6,0.1-0.6,0.3-1.2c4.4,6.9,12.1,8.7,12.7,9.2c0.6,0.5,2.9,6.6,11.6,8.3
							c14.5,2.7,19.3-7.6,20.2-8.3c0.8-0.6,10.4-2.5,14.5-11C280.9,225.2,280.2,226.2,279.8,226.9z"/>
						<g>
							<path class="st24" d="M220.5,206.6c-1.6,28.8,24.6,28,25.7,26.2c-0.1-0.8-0.1-0.8-0.1-1.7c-10.1,5.1-13.6-5.7-13.3-14.1
								c12.9,1,16.4,6.8,17.3,6.7s4.9-6.1,17.3-6.7c0.4,8.3-3.3,18.9-13.6,14.4c-0.1,0.7-0.1,0.7-0.1,1.4
								c17.9,2.3,26.5-8.5,25.7-25.6c1.7,1.1,1.8,5.1,3.4,6.7c-0.2,2.5-0.3,3.7-0.9,6.1c-0.4,1.7-0.8,3.3-1.5,4.9
								c-4.1,8.5-13.8,10.4-14.5,11c-0.9,0.7-5.7,11-20.2,8.3c-8.7-1.6-11.1-7.8-11.6-8.3c-0.6-0.5-8.3-2.2-12.7-9.2
								c-0.6-1-1.1-2.2-1.5-3.4c-2.3-6-2.5-10.5-2.4-16.8C218.8,206.6,218.8,206.6,220.5,206.6z"/>
							<path class="st28" d="M249.7,236.6c1.3,0,6.5,1,10.9,0.8c-4.3,4-10.2,4.8-15.8,3.5c-10.4-5-6.1-3,0.9-3.4
								C246.6,237.5,249.3,236.6,249.7,236.6z"/>
						</g>
						<g>
							<path class="st27" d="M229.6,184.9c-2.5,3.1-4.9,6.1-6.4,9.8c-1.4,1.1-1.4-0.4-1.8-0.6c0.2-9.6,6.1-14.4,2.1-21.3
								c-6.1-10.6-21,0.5-16.2,11.2c-3.5,1.5-5,7.1-6.7,7.3c-3-10.2,5.7-18.4,5.8-19.4c0.1-0.6-2.7-2.7,2.4-6.1
								c-6.7-8.5,1.8,1.6,2.8-1.8c-0.4-1-0.4-1-0.8-2c3,3.5,2.3,0.3,3.7,0.3c0.5,0,7,3.1,8.3,4C228.4,170.5,230.8,178.1,229.6,184.9
								z"/>
							<path class="st27" d="M207.3,184c2.6,5.8,9,7.2,14.1,10.1c0.5,0.3,0.4,1.7,1.8,0.6c-1.1,2.9-2.6,8.9-2.8,11.9
								c-1.7,0-1.7,0-3.4,0c0-2,0.7-3.6,0.6-3.8c-0.2-0.5-1.8-0.5-2.8-0.8c-4.4-1-3.1,0.1-4.9,0.9c-0.8,0.4-0.3,0.3-1.2,0.3
								c0.9-1,0.9-1,1.8-2c-4.3-1.8-3.7-3.3-7.3,0.5c-0.1-0.1-0.5,0.1-0.6,0c3.1-3,4.2-4.5-0.9-5.4c2.5-0.8-0.4-2.1-1.2-5.1
								C202.3,191.1,203.8,185.5,207.3,184z"/>
							<g>
								<path class="st24" d="M221.4,194.1c-5.1-2.9-11.5-4.3-14.1-10.1c-4.8-10.7,10.1-21.8,16.2-11.2
									C227.5,179.7,221.6,184.5,221.4,194.1z"/>
								<path class="st9" d="M214.8,170.8c5.7-1.1,9.3,4.9,8.4,9.9c-1.1,1.9-0.3-0.9-0.9-2.8c-3.3-10.2-13.4-5.7-10.2,6
									C207.2,180.9,210.6,171.7,214.8,170.8z"/>
								<path class="st29" d="M216.9,173.6c1,0.5,1,0.5,2,1.1C219.3,180.6,211.6,175.9,216.9,173.6z"/>
							</g>
						</g>
						<g>
							<path class="st24" d="M293.9,180.9c-1.3,8.4-13.4,11.6-15.6,12.9c0.4-7.2-5.7-15-1.2-21.6
								C283.1,163.2,295.2,172.1,293.9,180.9z"/>
							<path class="st9" d="M282.4,170.8c6.8-1.2,10.8,8.1,5.5,12.2c2.9-12.4-8-14.1-10.2-4.1c-0.4,1.5,0.6,4.4-0.6,2.4
								C275.9,177.8,278.6,171.6,282.4,170.8z"/>
							<path class="st29" d="M283.1,173.9c6.4,0.5-0.5,7.4-1.1,0.8C282.5,174.3,282.5,174.3,283.1,173.9z"/>
						</g>
					</g>
				</g>
			</g>
		</g>
		<path class="st30" d="M309,81.8L141.4,237.3c-7.8-15.8-12.1-33.6-12.1-52.4c0-13.9,2.4-27.3,6.8-39.8L220,68.9
			c9.2-2.3,18.8-3.5,28.7-3.5C270.7,65.4,291.3,71.4,309,81.8z"/>
		<path class="st30" d="M359.7,141L196.6,292.2c-16.4-8-30.8-19.7-41.9-33.9l176.3-160C343.4,110.2,353.3,124.7,359.7,141z"/>
	</g>
</g>
</svg>
