<?xml version="1.0" encoding="utf-8"?>
<!-- Generator: Adobe Illustrator 28.3.0, SVG Export Plug-In . SVG Version: 6.00 Build 0)  -->
<svg version="1.1" id="Calque_1" xmlns="http://www.w3.org/2000/svg" xmlns:xlink="http://www.w3.org/1999/xlink" x="0px" y="0px"
	 viewBox="0 0 200 200" style="enable-background:new 0 0 200 200;" xml:space="preserve">
<style type="text/css">
	.st0{display:none;}
	.st1{display:inline;fill:#C6BFB3;}
	.st2{display:inline;fill:#746A64;}
	.st3{display:inline;fill:#EAE2D4;}
	.st4{fill:#07161D;}
	.st5{fill:#EAE2D4;}
	.st6{fill:#E2AC71;}
	.st7{fill:#2F1B11;}
	.st8{fill:#322826;}
	.st9{fill:#E9C69E;}
	.st10{fill:#C99053;}
	.st11{fill:#F1E3C8;}
	.st12{fill:#F7E7B4;}
	.st13{fill:#622613;}
	.st14{fill:#C9BAA2;}
	.st15{fill:#C4C1D4;}
	.st16{fill:#7C8781;}
	.st17{fill:#AF7439;}
	.st18{fill:#77451E;}
	.st19{fill:#8C572A;}
	.st20{fill:#080909;}
	.st21{fill:#9C6633;}
	.st22{fill:#552E14;}
	.st23{fill:#502519;}
	.st24{fill:#842D45;}
	.st25{fill:#FEFFFF;}
	.st26{fill:#EC6445;}
	.st27{fill:#F3A410;}
	.st28{fill:#FFFFFF;}
	.st29{fill:#05A67A;}
	.st30{fill:#FFFEFE;}
	.st31{font-family:'BerlinSansFBDemi-Bold';}
	.st32{font-size:20.5677px;}
</style>
<g>
	<g id="Background_00000065069871885275574710000005032585164776586127_" class="st0">
		<path class="st1" d="M66.55,3.44c-4.34,2.45-9.08,4.5-13.86,6.29c-3.19-0.05-3.56,0.91-4.52,1.38c-0.16,0.08-0.4-0.41-1.18,0
			c-0.58,0.31-0.91,1.52-0.98,1.57c-0.57,0.44-1.08-0.06-1.18,0c-0.52,0.33-3.88,4.53-5.41,5.6c1.94,0.76-0.16,2.28-0.79,3.54
			c-2.47,5.02-4.85,10.1-7.28,15.14c-0.32,0.66-1.24,0.99-1.57,1.77c-0.18,0.42-0.32,2.31-0.79,3.54c-0.05,0.14-0.71,0.64-0.98,1.38
			c-0.56,1.52-0.34,2.81-0.39,2.95c-0.03,0.08-0.82,0.12-0.98,0.59c-0.11,0.32,0.11,1.23,0,1.57c-0.27,0.85-1.15,1.86-1.18,1.97
			c-0.9,3.3-1.78,14.18-1.18,18.09c-1.48,2.08,0.18,4.2,0.39,6.29c0.38,3.79,0.89,12.87,1.57,15.93c0.06,0.25,0.89,1.18,0.98,1.57
			c0.55,2.25,1.03,3.88,1.77,6.1c0.18,0.56,0.19,2.58,0.39,2.95c0.07,0.13,0.65,0.01,0.98,0.59c0.95,1.66,0.1,1.6,0.39,2.56
			c0.25,0.79,1.51,1.48,1.57,1.57c2.82,4.39,1.49,4.01,1.57,4.33c0.44,1.79,0.98,2.85,1.47,1.28c5.36,6.76,10.92,13.22,17.5,18.88
			c3.05,1.85,8.41,6.64,10.62,8.06c7.31,4.68,23.23,8.16,32.05,10.03c2.79-0.28,2.6,0.55,2.75,0.59c0.98,0.27,0.97-0.56,1.18-0.59
			c0.42-0.06,0.56,0.26,0.98,0.2c4.09-0.6,8.23-1.36,12.39-1.77c4.19-1.83,8.84-2.12,12.78-4.33c17.53-4.4,25.76-14.32,36.47-28.02
			c9.07-14.34,12.52-31.37,12.78-48.17c1.08-2.04-0.36-4.1-0.39-4.33c-0.27-1.96,0.4-2.42,0.39-2.56c-0.03-0.75-1.12-1.05-1.38-1.77
			c-0.45-1.27-0.21-7.16-1.97-8.26c-0.22-1.69-1.57-7.48-1.97-8.65c-0.17-0.49-2.13-4.12-2.75-5.51c-0.11-0.24,0.11-1.15,0-1.38
			c-0.14-0.31-1.34-1.43-3.34-5.9c-0.09-0.2-0.79-0.64-0.98-1.18c-0.08-0.21,0.4-0.74,0.39-0.79c-0.48-1.95-1.39-1.24-2.16-1.77
			c-0.23-0.16-0.59-1.66-0.79-1.97c-0.48-0.74-2.5-3.67-2.56-4.33c-0.01-0.19,1.38-2.62-1.28-2.06c-2.58-4.97-6.55-4.69-8.26-5.51
			c-2.64-1.25-10.93-5.42-12.09-7.47c21.69,0.01,43.39-0.01,65.08,0c0,73.15,0,73.15,0,146.29c-100.67,0-100.67,0-201.35,0
			c0-73.15,0-73.15,0-146.29C21.85,3.43,44.2,3.45,66.55,3.44z"/>
		<path class="st1" d="M129.67,3.44c0.14,1.78,4.84,1.3,6,3.34c3.02,1.23,12.16,5.92,13.67,8.36c0.34,0.55,0.1,0.83,1.18,2.36
			c0.01,0.02-0.32,0.22-0.2,0.39c0.17,0.23,0.82,0.02,0.88,0.1c0.22,0.27-0.38,0.2-0.29,0.29c2.77,3.13,2.97,1.97,4.03,2.46
			c1.22,0.56,11.3,14.82,10.91,17.6c2.22,4.15,3.24,8.81,4.33,13.37c0.05,0.22,0.74,1.17,0.79,1.38c0.2,0.94-0.21,1.31-0.2,1.38
			c0.74,3.74,1.84,7.16,1.38,11.01c1.75,2,0.28,6.46,0.2,8.46c-0.08,2.04,0.4,4.21,0.2,6.29c-0.14,1.47-1.05,4.08-1.38,5.7
			c-0.01,0.06,0.38,0.31,0.2,1.18c-0.03,0.12-0.56,0.47-0.59,0.59c-0.2,0.91-0.18,2.27-0.39,3.15c-0.21,0.84-2.58,9.16-2.75,9.63
			c-1.66,4.67-5.96,11.12-7.87,15.93c-4.45,5-8.48,10.61-13.86,14.85c-2.41,1.9-10.5,6.95-13.17,8.06
			c-6.36,2.65-27.25,8.26-34.61,8.06c-12.41-1.54-27.77-4.24-37.36-12.78c-2.29-0.54-4.9-3.05-6.88-4.52
			c-0.29-0.22-2.44-1.28-2.56-1.38c-2.39-1.97-13.44-14.48-15.24-17.2c-2.7-4.08-6.58-12.61-7.87-17.3
			c-1.86-6.78-3.21-23.62-2.36-30.48c0.39-3.15,2.25-7.03,3.15-10.22c0.62-2.21,1.06-6.56,1.77-8.46c0.25-0.66,1.24-1.54,1.57-2.36
			c1.57-3.87,3.24-7.69,4.72-11.6c2.55-1.94,1.61-2.47,1.77-2.75c0.43-0.74,3.68-6.07,4.03-6.19c0.7-0.24,1.31,0.23,1.38,0.2
			c0.2-0.09,1.71-1.58,2.16-1.77c0.1-0.04,1.84,0.35,1.87-0.49c-1.77-1.8,0.54,0.19,1.38-1.18c-5.1-2.8,8.67-8.79,11.11-10.13
			c1.61-0.88,4.31-2.83,5.31-3.34c1.87-0.96,3.56-1.03,4.42-1.97C90.21,3.43,109.94,3.43,129.67,3.44z"/>
		<path class="st1" d="M70.48,3.44c-0.86,0.93-2.56,1.01-4.42,1.97c-1,0.51-3.7,2.46-5.31,3.34c-2.44,1.34-16.21,7.33-11.11,10.13
			c-0.84,1.37-3.15-0.62-1.38,1.18c-0.03,0.84-1.77,0.45-1.87,0.49c-0.45,0.19-1.96,1.68-2.16,1.77c-0.06,0.03-0.68-0.44-1.38-0.2
			c-0.35,0.12-3.6,5.45-4.03,6.19c-0.16,0.28,0.78,0.82-1.77,2.75c-1.48,3.91-3.15,7.73-4.72,11.6c-0.33,0.82-1.33,1.7-1.57,2.36
			c-0.71,1.9-1.15,6.25-1.77,8.46c-0.9,3.19-2.75,7.07-3.15,10.22c-0.85,6.86,0.5,23.7,2.36,30.48c1.29,4.69,5.17,13.22,7.87,17.3
			c1.8,2.73,12.85,15.24,15.24,17.2c0.11,0.09,2.26,1.16,2.56,1.38c1.98,1.47,4.59,3.98,6.88,4.52
			c9.59,8.54,24.95,11.24,37.36,12.78c7.35,0.2,28.24-5.41,34.61-8.06c2.67-1.11,10.76-6.16,13.17-8.06
			c5.38-4.23,9.41-9.85,13.86-14.85c1.9-4.81,6.2-11.26,7.87-15.93c0.17-0.47,2.55-8.79,2.75-9.63c0.21-0.87,0.19-2.23,0.39-3.15
			c0.03-0.12,0.56-0.47,0.59-0.59c0.18-0.87-0.21-1.12-0.2-1.18c0.32-1.62,1.23-4.23,1.38-5.7c0.2-2.08-0.28-4.26-0.2-6.29
			c0.08-1.99,1.56-6.45-0.2-8.46c0.46-3.85-0.64-7.27-1.38-11.01c-0.01-0.07,0.4-0.44,0.2-1.38c-0.04-0.2-0.73-1.16-0.79-1.38
			c-1.09-4.57-2.1-9.22-4.33-13.37c0.39-2.78-9.69-17.04-10.91-17.6c-1.06-0.49-1.26,0.68-4.03-2.46c-0.08-0.09,0.51-0.03,0.29-0.29
			c-0.07-0.08-0.72,0.13-0.88-0.1c-0.13-0.17,0.21-0.38,0.2-0.39c-1.08-1.53-0.84-1.81-1.18-2.36c-1.5-2.43-10.65-7.12-13.67-8.36
			c-1.16-2.04-5.85-1.56-6-3.34c2.03,0,4.06,0,6.1,0c1.16,2.05,9.46,6.22,12.09,7.47c1.71,0.81,5.67,0.53,8.26,5.51
			c2.66-0.55,1.26,1.88,1.28,2.06c0.05,0.66,2.08,3.58,2.56,4.33c0.2,0.31,0.56,1.81,0.79,1.97c0.77,0.53,1.68-0.18,2.16,1.77
			c0.01,0.04-0.47,0.57-0.39,0.79c0.19,0.54,0.89,0.98,0.98,1.18c2,4.47,3.2,5.59,3.34,5.9c0.11,0.23-0.11,1.14,0,1.38
			c0.63,1.39,2.59,5.02,2.75,5.51c0.4,1.17,1.74,6.96,1.97,8.65c1.76,1.1,1.51,6.98,1.97,8.26c0.26,0.72,1.35,1.02,1.38,1.77
			c0.01,0.13-0.66,0.59-0.39,2.56c0.03,0.23,1.47,2.29,0.39,4.33c-0.26,16.8-3.71,33.83-12.78,48.17
			c-10.71,13.7-18.94,23.62-36.47,28.02c-3.94,2.2-8.59,2.5-12.78,4.33c-4.16,0.41-8.3,1.17-12.39,1.77
			c-0.42,0.06-0.56-0.26-0.98-0.2c-0.21,0.03-0.2,0.86-1.18,0.59c-0.15-0.04,0.04-0.87-2.75-0.59c-8.82-1.87-24.74-5.35-32.05-10.03
			c-2.21-1.42-7.57-6.21-10.62-8.06c-6.58-5.65-12.14-12.12-17.5-18.88c-0.5,1.57-1.03,0.51-1.47-1.28
			c-0.08-0.32,1.25,0.07-1.57-4.33c-0.06-0.09-1.33-0.79-1.57-1.57c-0.3-0.95,0.55-0.9-0.39-2.56c-0.33-0.58-0.91-0.46-0.98-0.59
			c-0.2-0.37-0.21-2.39-0.39-2.95c-0.74-2.22-1.22-3.85-1.77-6.1c-0.1-0.39-0.93-1.32-0.98-1.57c-0.69-3.05-1.19-12.13-1.57-15.93
			c-0.21-2.1-1.87-4.21-0.39-6.29c-0.6-3.91,0.28-14.79,1.18-18.09c0.03-0.11,0.91-1.12,1.18-1.97c0.11-0.35-0.11-1.26,0-1.57
			c0.17-0.47,0.96-0.51,0.98-0.59c0.05-0.14-0.17-1.43,0.39-2.95c0.27-0.73,0.93-1.23,0.98-1.38c0.46-1.22,0.61-3.12,0.79-3.54
			c0.33-0.78,1.26-1.11,1.57-1.77c2.43-5.04,4.8-10.12,7.28-15.14c0.62-1.26,2.73-2.78,0.79-3.54c1.53-1.07,4.89-5.27,5.41-5.6
			c0.1-0.06,0.61,0.44,1.18,0c0.07-0.06,0.41-1.27,0.98-1.57c0.78-0.41,1.02,0.08,1.18,0c0.96-0.46,1.33-1.43,4.52-1.38
			c4.78-1.79,9.53-3.84,13.86-6.29C67.86,3.44,69.17,3.44,70.48,3.44z"/>
		<path class="st2" d="M153.75,9.14c0.22,0.2,0.45,0.37,0.2,0.59C153.6,9.87,153.54,9.24,153.75,9.14z"/>
		<path class="st3" d="M133.01,19.37c-2.85,2.34-4.63,6.52-5.01,6.69c-2.23,0.95-8.86-1.07-11.6-0.39c-0.02-2.3-0.34-1.52-2.95-1.38
			c-7.27,2.06-9.8,2.5-2.26-0.49c-5.3-0.64-6.8,1.75-3.93-1.38c-0.25-0.25-0.25-0.25-0.49-0.49c-3.65,0.58-6.49,3.54-6.88,3.54
			c-0.43,0-4.52-3.89-7.57-3.05c1.93,2.03,0.68,0.96-2.75,1.38c2.41,1.03,2.41,1.03,4.82,2.06c-4.4-0.07-11.16-3.62-9.83-0.2
			c-3.1-0.58-9.45,1.21-11.6,0.39c-0.5-0.19-2.93-5.31-5.8-7.28c3.14-0.5,5.18-2.53,5.6-2.75c0.53-0.28,1.24-0.31,1.77-0.59
			c0.06-0.03,0.37-0.79,0.79-0.98c2.78-1.33,13.04-2.95,17.5-5.11c9.01-1.76,17.8,1.29,26.54,3.15c2.75,1.72,5.82,2.76,8.65,4.33
			C130.07,17.96,130.31,19.18,133.01,19.37z"/>
		<path class="st3" d="M158.77,79.34c-0.06-0.44-0.16-0.92-0.2-1.38c-0.01-0.1,0.51-1.15,0.39-1.87c-0.44-2.63-7.07-7.58-1.57-5.7
			c0.7-1.18-12.61-19.23-17.3-21.04c5.67-2.15,9.99-6.9,12.19-12.49c1.28,1.43,1.28,1.43,2.56,2.85
			c4.63,11.52,6.83,20.35,7.67,32.84c-1.57,2.43-1.11,3.17-1.18,3.34c-0.23,0.58-1.71,1.02-1.77,1.18
			C159.5,77.21,160.75,77.72,158.77,79.34z"/>
		<path class="st3" d="M43.15,69.12c-0.1-0.34-0.57-0.96-0.59-1.28c-0.4-6.35,3.26-21.38,7.67-26.64c2.18,3.61,6.17,6.99,10.22,8.16
			C53.08,53.94,48.03,62.11,43.15,69.12z"/>
	</g>
	<g>
		<path class="st4" d="M82.87,128.3c2.53,1.56,5.2,2.89,7.57,4.72c1.64,1.27,3.34,2.76,4.42,4.52c-7.14-4.64-17.1-9.12-25.66-9.44
			C73.57,126.17,78.42,127.3,82.87,128.3z"/>
		<path class="st4" d="M126.52,127.32c0.69,0.06,1.58,0.04,2.26,0.2c4.77,1.11-0.48,0.83-3.54,1.38c-6.61,1.18-14.3,5.2-19.96,8.85
			C110.38,131.23,118.05,126.59,126.52,127.32z"/>
		<path class="st5" d="M158.57,77.96c0.04,0.46,0.14,0.93,0.2,1.38c0.4,3.07,2.04,8.96,0.59,9.24c-0.85-8.29-3.17-11.11-2.65-11.4
			C157.64,77.57,157.64,77.57,158.57,77.96z"/>
		<g>
			<path class="st4" d="M67.14,18.78c2.87,1.97,5.3,7.09,5.8,7.28c2.15,0.82,8.5-0.98,11.6-0.39c-1.33-3.42,5.43,0.13,9.83,0.2
				c-2.41-1.03-2.41-1.03-4.82-2.06c3.43-0.42,4.68,0.65,2.75-1.38c3.05-0.84,7.14,3.05,7.57,3.05c0.39,0,3.23-2.95,6.88-3.54
				c0.25,0.25,0.25,0.25,0.49,0.49c-2.87,3.13-1.36,0.74,3.93,1.38c-7.54,2.99-5.01,2.55,2.26,0.49c2.61-0.15,2.93-0.92,2.95,1.38
				c2.74-0.67,9.37,1.34,11.6,0.39c0.39-0.16,2.17-4.35,5.01-6.69c6.77-5.56,20.71-3.41,21.43,6.78c0.21,2.9-1.07,7.94-2.16,10.72
				c-2.2,5.59-6.52,10.34-12.19,12.49c4.69,1.81,18.01,19.86,17.3,21.04c-5.5-1.87,1.13,3.07,1.57,5.7c0.12,0.72-0.4,1.77-0.39,1.87
				c-0.93-0.39-0.93-0.39-1.87-0.79c-0.51,0.29,1.8,3.11,2.65,11.4c2.54,24.7-14.07,32.99-35.39,36.97
				c-8.87,1.66-4.93,0.74,0.1-1.57c-6.13,1.14-13.93,3.21-18.68,7.47c-4.55,4.08,2.38-1.09,5.9-2.56c3.01-1.26,9.58-3.08,2.75,0
				c-5.11,3.48-10.12,7.27-13.96,12.19c-4.55-5.59-10.26-9.97-16.42-13.67c0.11-0.31,4.53,1.09,5.01,1.28
				c3.5,1.4,12.28,8.05,4.33,1.38c-2.16-1.28-2.16-1.28-4.33-2.56c-4.78-2.04-24.77-7.13-6.88-1.18c1.21,0.74-2.17-0.25-3.83-0.59
				c-13.78-2.82-31.96-7.27-36.18-22.91c-2.09-7.76-1.43-18.13,2.16-25.37c-0.15-0.15-0.15-0.15-0.29-0.29
				c-5.05,2.76-0.91-4.11,2.46-7.37c-4.42,0.85-2.71,0.12-2.95-0.69c4.89-7.01,9.93-15.18,17.3-19.76
				c-4.06-1.17-8.04-4.55-10.22-8.16c-3.06-5.05-5.54-15.17-1.97-20.35C52.07,15.31,62,15.25,67.14,18.78z"/>
			<g>
				<path class="st5" d="M123.96,125.55c-0.85,2.62,1.84,0.55,2.56,1.77c-8.47-0.73-16.14,3.91-21.24,10.42
					c-3.84,2.47-4.86,4.52-5.21,4.52c-0.29,0-3.05-3.5-3.93-4.13c-0.07-0.05-0.29,0.05-1.28-0.59c-1.09-1.76-2.79-3.26-4.42-4.52
					c-2.37-1.83-5.04-3.16-7.57-4.72c-2.79-1.55-5.26-0.45-4.92-2.56c1.67,0.34,5.05,1.33,3.83,0.59c-17.89-5.95,2.1-0.86,6.88,1.18
					c2.16,1.28,2.16,1.28,4.33,2.56c7.96,6.67-0.82,0.02-4.33-1.38c-0.48-0.19-4.9-1.59-5.01-1.28c6.15,3.7,11.86,8.08,16.42,13.67
					c3.84-4.93,8.85-8.71,13.96-12.19c6.83-3.08,0.26-1.26-2.75,0c-3.52,1.47-10.45,6.64-5.9,2.56c4.75-4.26,12.55-6.33,18.68-7.47
					C119.03,126.29,115.09,127.2,123.96,125.55z"/>
				<path class="st6" d="M141.07,61.64c-1.42,2.86-1.45,6.3-3.54,8.85c-1.01-1.7-0.42,0.25-0.2,0.98
					c-2.11,5.54-4.35,10.65-10.81,11.4c-2.62-1.04,1.05-2.55,1.28-2.56c0.86-0.01,4.03,3.52,0.69-0.49
					c0.84-0.74,0.84-0.74,1.67-1.47c1.67,0.86,0.27-0.06,0.29-0.49c0.02-0.36,2.29-1.86,1.57-6.78c-0.53-3.65-3.83-7.57-3.93-8.16
					c-0.22-1.25,1.13-1.65-1.38-4.03c3.27-3.76-2.83,1.48-1.08-2.36c-1.63,1.64-2.09,0.53-2.65,0.59
					c-6.84,0.76-11.08,8.13-9.83,13.76c-1.99-0.38-4.38-4.34-5.01-4.52c-2.26-0.64-1.45,2.24-5.31-2.75
					c-1.08,1.97-1.08,1.97-2.16,3.93c-0.58-5.61-0.4-7.3-1.77-0.98c-1.08-1.67-1.08-1.67-2.16-3.34c-3.94,6.95-3.78,3.29-5.51,3.54
					c-0.3,0.04-3.57,3.95-4.03,4.52c0.71-4.36-0.78-9.28-4.42-11.99c-0.8-0.59-5.01-2.56-5.31-2.56c-0.89,0.02-0.41,2.06-2.36-0.2
					c0.25,0.64,0.25,0.64,0.49,1.28c-0.63,2.19-6.05-4.29-1.77,1.18c-3.31,2.2-1.52,3.54-1.57,3.93c-0.09,0.67-5.67,5.95-3.74,12.49
					c0.56,1.88,2.39,2.74,0.79,3.24c3.3,0.56,2.57,1.52,0.59,3.44c-3.92-1.68-6.88-6.85-6.88-11.01c0-1.28,0.84-3.42-0.98,0.39
					c-1.79-3-2-6.51-2.75-9.83c0-0.1,0-0.1,0-0.2c1.25-2.52,2.36-5.11,3.74-7.57c-0.59-0.2-0.59-0.2-1.18-0.39
					c3.53-5.67,9.64-14.78,15.04-18.58c12.01-8.44,36.49-8.18,47.98,1.18c4.29,3.5,10.73,12.49,13.86,17.4
					c-0.59,0.1-0.59,0.1-1.18,0.2C138.95,56.23,139.97,58.95,141.07,61.64z"/>
				<path class="st6" d="M53.18,72.06c-1.21,4.92-1.84,6.78-0.79,12.09c1.71,8.58,8.94,16.48,16.22,20.94
					c5.61,3.44,12.15,5.41,17.99,8.46c4.15,2.16,7.77,4.33,10.81,8.06c1.92,2.35,2.8,5.06,3.05,4.92c0.4-1.84,1.68-4.43,2.85-5.9
					c2.46-3.07,7.32-5.55,10.81-7.28c3.77-1.87,8.98-3.68,12.88-5.7c15.27-7.9,25.9-19.75,19.76-37.95
					c2.59,5.05,3.45,8.38,3.15,14.26c-0.58,11.35-7.07,19.73-16.81,25.07c-10.87,5.95-26.27,6.03-32.64,18.29
					c-9.69-14.65-26.16-11.86-39.33-22.81c-8.24-6.86-11.72-16.39-10.32-27.04C51.36,73.36,54.37,67.21,53.18,72.06z"/>
				<path class="st7" d="M146.77,69.71c6.14,18.2-4.5,30.05-19.76,37.95c-3.9,2.02-9.11,3.83-12.88,5.7c2.77-1.7,4.05-3.55,6.1-5.7
					c0.65-0.68,1.67-1.14,2.56-2.56c0.01,0.27-0.09,1.03,0.1,1.18c17.16-9.04,27-19.63,20.15-39.92c-0.21-0.64-0.35-1.32-0.59-1.97
					c0.6-1.3-1.14-4.48-0.39-4.82c1.29,2.66,2.31,6.33,3.54,8.85C146.27,69.8,146.63,69.43,146.77,69.71z"/>
				<path class="st7" d="M59.27,61.64c-7.91,19.1-4.43,29.98,12.39,41.1c2.02,1.34,4.07,2.45,6.1,3.74c0.9,0.57,2.16,1.04,2.65,1.38
					c2.27,1.57,3.92,4.1,6.19,5.7c-5.84-3.05-12.38-5.01-17.99-8.46c-7.28-4.46-14.52-12.36-16.22-20.94
					c-1.06-5.31-0.42-7.18,0.79-12.09c1.22,1.03,4.14-7.54,5.51-10.32c0.04-0.09,0.56-0.23,0.59-0.29
					C59.27,61.54,59.27,61.54,59.27,61.64z"/>
				<g>
					<path class="st8" d="M133.6,42.37c0-1.38,0-1.38,0-2.75c1.79-5.72,4.6-17.17,12.29-17.7c11.39-0.78,5.44,18.16-2.16,23.2
						c-1.49,0.99-6.6,2.97-6.78,2.06c3.98-4.16,8.61-6.73,0.2-3.15c0.35-0.78,3.82-7.57,2.85-7.57
						C137.54,38.33,133.45,44.47,133.6,42.37z"/>
					<path class="st9" d="M133.6,39.62c0,1.38,0,1.38,0,2.75c-0.56-0.4-1.53-3.19-1.57-3.64c-0.24-2.41,1.33-6.17-1.08-0.88
						c-0.94-2.46-0.39-5.31,0.88-7.57c-0.29,0.1-0.29,0.1-0.59,0.2c-3.43,5.17-2.9,2.63-0.2-2.36c-3.26,2.62-4.69,4.64-1.38-0.98
						c2.23-3.78,5.96-7.53,10.42-8.26c-1.17,0.71-2.46,1.51-3.44,2.46c-3.78,3.65,0.56-0.04,4.13-0.79c3.19-0.66,9.53-0.41,2.95,0.2
						C135.37,23.49,133.25,31.53,133.6,39.62z"/>
				</g>
				<path class="st9" d="M77.07,117.88c9.59,3.07,17.48,6.36,23.2,15.14c4.72-8.39,14.27-12.34,23.1-14.85
					c-7.84,3.78-18.32,8.15-23.1,15.63C94.51,125.95,85.35,122.34,77.07,117.88z"/>
				<path class="st9" d="M62.32,49.65c0.05,0.25,0.05,0.25,0.1,0.49c-3.48,4.05-9.99,9.65-3.64,6.39c0.15,0.15,0.15,0.15,0.29,0.29
					c-6.44,5.36-6.44,5.36-12.88,10.72C51.21,61.29,55.4,54,62.32,49.65z"/>
				<path class="st9" d="M138.02,49.85c6.54,3.74,10.44,10.69,14.94,16.52c-5.85-4.77-5.85-4.77-11.7-9.54
					c-0.06-0.75,3.02,0.97,3.15,0.59C141.22,53.63,141.22,53.63,138.02,49.85z"/>
				<path class="st9" d="M151.98,73.05c6.36,8.11,5.74,18.28-0.39,26.35C155.85,91.18,155.13,81.51,151.98,73.05z"/>
				<path class="st5" d="M153.85,107.85c-4.65,7.47-16.1,13.77-24.87,14.16c7.35-2.87,20.07-7.34,23.89-14.75
					C153.15,107.63,153.22,108.23,153.85,107.85z"/>
				<path class="st9" d="M48.36,73.44c-3.51,8.18-3.02,17.45,0.39,25.56C43.17,91.8,42.01,80.54,48.36,73.44z"/>
				<path class="st5" d="M63.01,118.67c-0.56,0.11-0.38,0.63-0.59,1.18c-6.6-2.63-14.3-7.24-17.3-13.96
					c0.23-0.05,0.65-0.39,0.69-0.39c0.38-0.06,0.49,1.03,0.49-0.39C48.01,111.31,57.52,116.22,63.01,118.67z"/>
				<path class="st10" d="M142.45,64.4c0.24,0.64,0.37,1.33,0.59,1.97c-1.09,2.44-1.78,5.04-4.72,5.7c-0.04-0.09-0.74-1.5-0.79-1.57
					c2.09-2.55,2.12-5.99,3.54-8.85C141.38,62.4,142.13,63.55,142.45,64.4z"/>
				<path class="st9" d="M153.85,107.85c-0.63,0.38-0.7-0.22-0.98-0.59c2.82-5.48,0.76-2.54-1.47-0.59
					c-4.54,3.98,1.36-1.82,3.24-5.21c0.46-0.84,1.44-2.87,1.77-3.74c1.13-2.96,1.74-6.85,0.98,0.2
					C156.99,101.71,155.83,104.68,153.85,107.85z"/>
				<path class="st9" d="M46.3,105.1c0,1.42-0.11,0.33-0.49,0.39c-0.04,0.01-0.46,0.35-0.69,0.39c-1.59-3.55-2.38-7.94-2.06-11.8
					c0.55,2.25,1.23,4.51,2.26,6.59c1.89,3.83,8.19,10.56,0.88,3.44C46.09,104.15,46.23,104.87,46.3,105.1z"/>
				<path class="st9" d="M63.01,118.67c2.62,1.17,5.35,2.13,8.06,3.05c-3.2,0.54-5.82-0.74-8.65-1.87
					C62.62,119.29,62.45,118.78,63.01,118.67z"/>
				<path class="st11" d="M146.87,66.17c3.64,1.69,7.07,3.98,8.75,7.77C151.25,70.05,151.25,70.05,146.87,66.17z"/>
				<path class="st12" d="M52.49,66.36c0.15,0.15,0.15,0.15,0.29,0.29c-2.9,2.13-5.57,4.69-7.77,7.57
					C46.08,70.47,49.3,68.37,52.49,66.36z"/>
				<path class="st5" d="M126.62,28.41c1.07-0.24-0.36,1.19-1.38,2.95c-0.21-2.37-2.34-0.88-5.8-1.87
					C121.85,29.24,124.32,29.3,126.62,28.41z"/>
				<path class="st9" d="M118.56,27.04c0.93,0.05,3.81,0.35,1.38,0.98C116.44,28.93,109.74,28.54,118.56,27.04z"/>
				<path class="st11" d="M79.03,27.23c9.04,0.4,8.05,1.33-0.79,0.59C77.56,27.18,78.4,27.68,79.03,27.23z"/>
				<path class="st5" d="M74.32,28.61c3,0.54,3,0.54,6,1.08C76.61,29.25,74.88,31.25,74.32,28.61z"/>
				<path class="st12" d="M86.9,26.64c2.21,0.25,2.21,0.25,4.42,0.49C90.04,27.85,87.88,27.83,86.9,26.64z"/>
				<path class="st13" d="M75.3,31.36c0.15,0.05,0.15,0.05,0.29,0.1C73.65,34.76,72.1,32.23,75.3,31.36z"/>
				<path class="st14" d="M112.26,26.64c4.94-0.62-2.37,1.23-2.46,0.88C109.76,27.35,112.06,26.67,112.26,26.64z"/>
				<path class="st15" d="M75.49,30.38c0.25,0.15,0.25,0.15,0.49,0.29C76.17,31.52,75.29,30.95,75.49,30.38z"/>
				<g>
					<path class="st8" d="M52.49,21.92c10.12-1.71,14.05,14.9,13.27,22.32c-5.74-7.49-8.83-11.26-3.15-0.59
						c-2.36-0.69-2.36-0.69-4.72-1.38c2.32,1.93,10.15,7.64,1.67,4.62C49.52,43.32,44.14,23.33,52.49,21.92z"/>
					<path class="st9" d="M67.33,41.59c-0.2-0.1-0.2-0.1-0.39-0.2c0.35-9.14-0.4-16.56-9.93-20.45c-8.02-0.88,2.96-2.06,8.26,2.36
						c-0.52-1.83-7.67-6.39-1.57-3.34c3.16,1.58,8.05,7.05,8.46,10.62c-5.8-5.7-1.06-1.01-0.1,2.46c-6.01-6.55-0.49,0.13-1.77,3.74
						c-0.15,0.15-0.15,0.15-0.29,0.29C66.72,33.03,70.19,35.2,67.33,41.59z"/>
					<path class="st16" d="M67.33,41.59c-0.42,0.93-0.45,1.2-0.39-0.2C67.14,41.49,67.14,41.49,67.33,41.59z"/>
				</g>
				<path class="st17" d="M62.03,71.47c-5.91,12.33,4.27,18.82,10.42,24.19c-0.75,1.52-1.8-0.75-1.77,0.49
					c3.98,3.39,3.98,3.39,7.96,6.78c1.16-0.82-1.07-2.75-2.85-4.52c1.28,0.63,2.34,2.15,3.34,3.15c0.17,1.43-0.06,2.17-0.39,3.34
					c-2.82-1.16-5.31-2.96-7.77-4.72c-1.25,0,0.41,0.59,0.69,2.56c-16.81-11.12-20.3-22-12.39-41.1
					C60.03,64.97,60.24,68.48,62.03,71.47z"/>
				<path class="st17" d="M124.36,94.48c-1.87-0.29-1.87-0.29-3.74-0.59c0.38-1.58,0.47-2.32,0.59-3.93
					c0.42-5.65-0.5-6.74-0.39-7.08c1.7-0.07,3.42,0.09,5.11,0c0.22-0.01,0.42,0.4,0.49,0.39c0.16-0.01,0.08-0.39,0.1-0.39
					c6.47-0.75,8.7-5.87,10.81-11.4c0.24,0.78,0.87,1.83,0.98,2.65C139.81,84.68,131.37,88.92,124.36,94.48z"/>
				<path class="st17" d="M69.89,82.09c0.09,0.04,0.3-0.04,0.39,0c0.99,0.4,2.48,0.94,3.54,0.98c0.61,0.02,0.26,0.05,0.79-0.2
					c0.7,0.09,3.27-0.32,3.15-0.59c0.63,0.14,1.66,0.19,1.77,0.49c0.04,0.12-0.38,1.2-0.39,2.46c-0.05,4.05,0.07,6.98,1.57,10.81
					c-0.65,0.11-0.69-1.36-0.79-1.47c-0.2-0.23-5.05-2.54-5.51-1.47c-7.27-6.25-15.89-10.3-11.4-22.02
					C63.01,75.25,65.98,80.41,69.89,82.09z"/>
				<path class="st7" d="M63.01,71.08c-4.48,11.72,4.13,15.78,11.4,22.02c2.02,1.73,5.74,4.54,7.08,5.9
					c0.67,0.68,0.55,0.94,0.59,0.98c-0.35,2.21-5.57-3.09-7.67-2.95c-0.52-0.47-1.43-0.91-1.97-1.38
					c-6.15-5.36-16.33-11.85-10.42-24.19C63.85,67.66,63.01,69.8,63.01,71.08z"/>
				<path class="st7" d="M137.53,70.49c0.04,0.08,0.75,1.48,0.79,1.57c3.24,7.77,0.91,13.82-4.92,19.27
					c-3.09,2.89-6.89,5.03-10.03,7.87c-1.4-0.84-3.44,1.23-4.52,0c0.18-0.27,0.43-0.69,0.59-0.98c1.04,0.08,3.59-2.69,4.92-3.74
					c7.01-5.56,15.45-9.8,13.96-20.35c-0.12-0.82-0.75-1.87-0.98-2.65C137.11,70.74,136.52,68.8,137.53,70.49z"/>
				<path class="st18" d="M93.68,115.32c3.38,2.38,2.12,0.97,1.77-0.79c-0.15-0.75-0.41-1.49-0.39-2.26c0.37-0.31,0.62,0.1,0.79,0.1
					c0.53,0.96,0.95,1.95,1.38,2.95c-1.46,1.92,0.83,4.26,0.2,6.29c-3.04-3.73-6.66-5.9-10.81-8.06c-2.27-1.6-3.93-4.13-6.19-5.7
					c-0.49-0.34-1.76-0.81-2.65-1.38c0.77-0.01,0.83-1.03,0.98-1.57c0.33-1.17,0.56-1.92,0.39-3.34
					C81.66,104.06,91.88,114.05,93.68,115.32z"/>
				<path class="st18" d="M120.23,107.65c-2.05,2.15-3.33,4-6.1,5.7c-3.49,1.73-8.36,4.2-10.81,7.28c0.43-1.84,1.61-3.34,2.56-4.92
					c-0.02,0.19,0.16,0.27,0.29,0.2c0.42-0.22,4.54-3.91,5.41-4.72c1.1,1.15,6.35-5.08,7.28-7.08c0.13-0.12,0.25-0.26,0.39-0.39
					C119.74,105.69,119.74,105.69,120.23,107.65z"/>
				<path class="st18" d="M107.45,112.77c-0.54,0.75-1.07,2.11-1.57,2.95c-0.94,1.57-2.13,3.08-2.56,4.92
					c-1.17,1.47-2.45,4.06-2.85,5.9c-0.25,0.15-1.13-2.57-3.05-4.92c0.63-2.04-1.65-4.37-0.2-6.29c1.02,2.38,1.72,4.92,2.75,7.28
					c0.15,0.34,0.3,0.98,0.49,0.98c0.36,0.01,2.41-5.85,2.65-6.59c0.35-1.04,0.14-3.75,1.28-1.47
					C105.57,114.45,106.79,111.98,107.45,112.77z"/>
				<path class="st17" d="M122.78,105.1c0-0.05,0.38-0.23,0.2-1.08c-0.02-0.1-1.1-1.1-0.98-1.77c0.18-1.02,11.76-8.22,11.4-10.91
					c5.82-5.45,8.16-11.5,4.92-19.27c2.94-0.66,3.62-3.26,4.72-5.7c6.85,20.29-3,30.88-20.15,39.92
					C122.69,106.13,122.8,105.37,122.78,105.1z"/>
				<path class="st19" d="M122.78,105.1c-0.89,1.41-1.91,1.87-2.56,2.56c-0.49-1.97-0.49-1.97-0.98-3.93
					c0.82-0.78,2.68-3.21,4.13-4.52c3.13-2.84,6.94-4.98,10.03-7.87c0.36,2.7-11.22,9.89-11.4,10.91c-0.12,0.67,0.96,1.67,0.98,1.77
					C123.16,104.87,122.78,105.04,122.78,105.1z"/>
				<path class="st19" d="M78.74,104.9c-0.16,0.55-0.21,1.56-0.98,1.57c-2.02-1.28-4.07-2.4-6.1-3.74
					c-0.27-1.97-1.94-2.55-0.69-2.56C73.42,101.94,75.92,103.74,78.74,104.9z"/>
				<path class="st20" d="M82.08,99.99c3.13,3.13,7.44,8.89,14.06,10.62c8.79,2.29,17.96-4.39,22.71-11.4
					c1.08,1.23,3.12-0.84,4.52,0c-1.45,1.31-3.31,3.75-4.13,4.52c-0.14,0.13-0.26,0.27-0.39,0.39c-2.45,2.32-4.81,4.78-7.28,7.08
					c-0.87,0.81-4.99,4.5-5.41,4.72c-0.13,0.07-0.32-0.01-0.29-0.2c0.5-0.83,1.03-2.2,1.57-2.95c0.65-0.9,3.89-3.67,2.65-3.34
					c-2.64,3.59-8.21,3.61-12.29,3.34c-0.1-0.01-0.28-0.36-1.97-0.39c-0.17,0-0.42-0.41-0.79-0.1c-0.02,0.78,0.24,1.51,0.39,2.26
					c-0.72,0.6-1.65-2.64-2.85-3.54c-3.94-2.01-0.69,0.63,1.08,4.33c-1.81-1.27-12.03-11.26-14.55-13.76
					c-1-0.99-2.07-2.51-3.34-3.15c-0.46-0.46-0.89-0.94-1.38-1.38C76.51,96.9,81.73,102.19,82.08,99.99z"/>
				<path class="st17" d="M72.45,95.66c0.54,0.47,1.44,0.91,1.97,1.38c0.49,0.44,0.91,0.92,1.38,1.38c1.78,1.77,4.01,3.71,2.85,4.52
					c-3.98-3.39-3.98-3.39-7.96-6.78C70.64,94.91,71.7,97.18,72.45,95.66z"/>
				<path class="st19" d="M124.36,94.48c-1.32,1.05-3.87,3.81-4.92,3.74c0.23-0.42,0.65-1.07,0.2-1.18c0.5-1.03,0.72-2.04,0.98-3.15
					C122.49,94.19,122.49,94.19,124.36,94.48z"/>
				<path class="st9" d="M125.93,82.88c-1.7,0.09-3.41-0.07-5.11,0C120.9,82.61,125.18,81.26,125.93,82.88z"/>
				<path class="st21" d="M80.71,96.05c0.29,0.73,0.57,1.5,0.98,2.16c-0.1,0.39-0.1,0.39-0.2,0.79c-1.34-1.36-5.06-4.16-7.08-5.9
					c0.46-1.06,5.31,1.25,5.51,1.47C80.02,94.7,80.05,96.16,80.71,96.05z"/>
				<path class="st6" d="M73.82,83.08c-1.06-0.04-2.55-0.58-3.54-0.98c2.36-2.4,1.95-1.44,4.72-0.29
					C74.41,82.44,74.41,82.44,73.82,83.08z"/>
				<path class="st9" d="M77.76,82.29c0.12,0.27-2.44,0.68-3.15,0.59C75.77,82.33,74.91,81.64,77.76,82.29z"/>
				<path class="st7" d="M97.81,112.77c0.99,3.2,1.85,6.49,2.16,9.83c-1.03-2.35-1.73-4.89-2.75-7.28c-0.43-1-0.85-1.99-1.38-2.95
					C97.53,112.41,97.71,112.76,97.81,112.77z"/>
				<path class="st22" d="M95.45,114.54c0.35,1.76,1.61,3.16-1.77,0.79c-1.77-3.7-5.02-6.33-1.08-4.33
					C93.8,111.9,94.74,115.14,95.45,114.54z"/>
				<path class="st22" d="M111.58,111.19c2.46-2.3,4.82-4.76,7.28-7.08C117.92,106.11,112.68,112.35,111.58,111.19z"/>
				<path class="st22" d="M107.45,112.77c-0.65-0.78-1.88,1.69-3.05,2.75c-1.14-2.27-0.93,0.43-1.28,1.47
					c-0.25,0.74-2.3,6.6-2.65,6.59c-0.2-0.01-0.34-0.64-0.49-0.98c-0.32-3.34-1.18-6.63-2.16-9.83c4.08,0.27,9.65,0.25,12.29-3.34
					C111.33,109.1,108.1,111.87,107.45,112.77z"/>
				<g>
					<path class="st9" d="M113.15,70.88c0.09,0.4,3.06,3.43,4.33,6.88c0.88,2.41,1.46,5.3,1.57,7.87
						c0.48,10.98-5.05,17.88-16.52,16.42c0.05-0.44,0.05-0.44,0.1-0.88c6.64,2.92,9.02-3.89,8.75-9.24
						c-0.83-16.7-21.75-16.71-22.22,0c-0.15,5.4,2.05,12.31,8.55,9.04c0.05,0.54,0.05,0.54,0.1,1.08
						c-0.71,1.2-17.53,1.68-16.52-16.81c0.11-1.96,1.03-5.82,1.77-7.67c0.95-2.39,2.52-4.32,4.13-6.29
						c0.46-0.57,3.73-4.48,4.03-4.52c1.73-0.25,1.57,3.41,5.51-3.54c1.08,1.67,1.08,1.67,2.16,3.34c1.37-6.32,1.19-4.63,1.77,0.98
						c1.08-1.97,1.08-1.97,2.16-3.93c3.86,4.99,3.05,2.12,5.31,2.75C108.77,66.54,111.15,70.51,113.15,70.88z"/>
					<path class="st23" d="M132.03,71.08c0.72,4.92-1.55,6.43-1.57,6.78c-0.02,0.43,1.38,1.35-0.29,0.49
						c-0.84,0.74-0.84,0.74-1.67,1.47c3.34,4.01,0.17,0.48-0.69,0.49c-0.22,0-3.89,1.52-1.28,2.56c-0.02,0,0.06,0.38-0.1,0.39
						c-0.07,0.01-0.28-0.4-0.49-0.39c-0.75-1.62-5.03-0.27-5.11,0c-0.11,0.34,0.81,1.43,0.39,7.08c-0.99-1.08-1.09-3.61-2.16-4.33
						c-0.11-2.56-0.69-5.45-1.57-7.87c0.57,0.08,0.68-0.61,0.98-0.79c1.39-0.8,9.22-2.84,10.03-8.26
						C130.6,69.26,130.67,72.06,132.03,71.08z"/>
					<path class="st23" d="M122.98,57.12c0.64,0.56,3.61,2.49,3.74,1.77c2.51,2.38,1.16,2.79,1.38,4.03c0.1,0.59,3.4,4.51,3.93,8.16
						c-1.36,0.98-1.42-1.83-3.54-2.36c0.85-5.72-6.93-11.37-10.81-5.6c-2.85,4.23,1.04,9.21,0.79,13.86
						c-0.31,0.18-0.41,0.87-0.98,0.79c-1.26-3.46-4.24-6.48-4.33-6.88C111.9,65.25,116.14,57.88,122.98,57.12z"/>
					<path class="st7" d="M126.72,58.89c-0.13,0.72-3.1-1.21-3.74-1.77c0.57-0.06,1.03,1.05,2.65-0.59
						C123.89,60.37,129.99,55.13,126.72,58.89z"/>
					<path class="st13" d="M111.38,91.92c-7.99,0.43-10.5,4.26-11.11,4.33c-0.6,0.06-2.79-3.66-11.11-4.33
						C89.62,75.22,110.55,75.22,111.38,91.92z"/>
					<path class="st11" d="M119.44,98.22c-0.16,0.29-0.41,0.71-0.59,0.98c-4.75,7.01-13.92,13.7-22.71,11.4
						c-6.61-1.72-10.93-7.49-14.06-10.62c-0.04-0.04,0.08-0.3-0.59-0.98c0.1-0.39,0.1-0.39,0.2-0.79c2.81,4.46,7.78,5.56,8.16,5.9
						c0.36,0.31,1.88,4.25,7.47,5.31c9.3,1.76,12.38-4.86,12.98-5.31c0.48-0.36,6.7-1.61,9.34-7.08
						C120.09,97.15,119.67,97.79,119.44,98.22z"/>
					<g>
						<path class="st20" d="M81.3,85.24c-1.02,18.49,15.81,18.01,16.52,16.81c-0.05-0.54-0.05-0.54-0.1-1.08
							c-6.51,3.26-8.7-3.65-8.55-9.04c8.32,0.66,10.51,4.39,11.11,4.33c0.61-0.06,3.12-3.9,11.11-4.33
							c0.27,5.35-2.11,12.16-8.75,9.24c-0.05,0.44-0.05,0.44-0.1,0.88c11.47,1.46,17-5.44,16.52-16.42
							c1.07,0.71,1.17,3.25,2.16,4.33c-0.12,1.61-0.21,2.35-0.59,3.93c-0.26,1.11-0.48,2.11-0.98,3.15
							c-2.64,5.47-8.86,6.71-9.34,7.08c-0.6,0.45-3.67,7.07-12.98,5.31c-5.59-1.06-7.11-4.99-7.47-5.31
							c-0.38-0.34-5.35-1.44-8.16-5.9c-0.42-0.66-0.7-1.43-0.98-2.16c-1.5-3.84-1.62-6.76-1.57-10.81
							C80.21,85.24,80.21,85.24,81.3,85.24z"/>
						<path class="st24" d="M100.07,104.51c0.85-0.01,4.16,0.63,6.98,0.49c-2.75,2.57-6.56,3.09-10.13,2.26
							c-6.7-3.21-3.95-1.92,0.59-2.16C98.1,105.07,99.8,104.51,100.07,104.51z"/>
					</g>
					<g>
						<path class="st23" d="M87.19,71.28c-1.61,1.97-3.18,3.91-4.13,6.29c-0.91,0.7-0.88-0.22-1.18-0.39
							c0.15-6.19,3.91-9.24,1.38-13.67c-3.91-6.82-13.51,0.3-10.42,7.18c-2.23,0.98-3.2,4.56-4.33,4.72
							c-1.93-6.53,3.64-11.81,3.74-12.49c0.06-0.39-1.73-1.73,1.57-3.93c-4.28-5.47,1.13,1.01,1.77-1.18
							c-0.25-0.64-0.25-0.64-0.49-1.28c1.95,2.25,1.47,0.21,2.36,0.2c0.29-0.01,4.51,1.96,5.31,2.56
							C86.42,62,87.91,66.92,87.19,71.28z"/>
						<path class="st23" d="M72.84,70.69c1.67,3.71,5.8,4.65,9.04,6.49c0.3,0.17,0.27,1.1,1.18,0.39c-0.74,1.85-1.66,5.71-1.77,7.67
							c-1.08,0-1.08,0-2.16,0c0.02-1.26,0.43-2.34,0.39-2.46c-0.11-0.3-1.14-0.35-1.77-0.49c-2.85-0.65-1.99,0.04-3.15,0.59
							c-0.53,0.25-0.18,0.22-0.79,0.2c0.59-0.64,0.59-0.64,1.18-1.28c-2.77-1.14-2.35-2.11-4.72,0.29c-0.09-0.04-0.31,0.04-0.39,0
							c1.98-1.92,2.71-2.88-0.59-3.44c1.6-0.5-0.23-1.36-0.79-3.24C69.64,75.25,70.61,71.67,72.84,70.69z"/>
						<g>
							<path class="st20" d="M81.89,77.18c-3.25-1.84-7.38-2.78-9.04-6.49c-3.09-6.88,6.51-13.99,10.42-7.18
								C85.8,67.93,82.03,70.98,81.89,77.18z"/>
							<path class="st5" d="M77.66,62.23c3.64-0.73,5.99,3.18,5.41,6.39c-0.68,1.25-0.2-0.56-0.59-1.77
								c-2.11-6.56-8.61-3.68-6.59,3.83C72.75,68.67,74.92,62.78,77.66,62.23z"/>
							<path class="st25" d="M79.03,64c0.64,0.34,0.64,0.34,1.28,0.69C80.56,68.48,75.58,65.5,79.03,64z"/>
						</g>
					</g>
					<g>
						<path class="st20" d="M128.49,68.72c-0.81,5.42-8.64,7.46-10.03,8.26c0.26-4.65-3.64-9.63-0.79-13.86
							C121.56,57.35,129.34,63.01,128.49,68.72z"/>
						<path class="st5" d="M121.11,62.23c4.36-0.79,6.94,5.2,3.54,7.87c1.88-8-5.15-9.08-6.59-2.65c-0.22,0.99,0.37,2.81-0.39,1.57
							C116.91,66.72,118.61,62.69,121.11,62.23z"/>
						<path class="st25" d="M121.51,64.2c4.13,0.34-0.34,4.72-0.69,0.49C121.16,64.45,121.16,64.45,121.51,64.2z"/>
					</g>
				</g>
			</g>
		</g>
	</g>
</g>
<g>
	<path class="st26" d="M34.37,122.16c0-1.86,1.51-3.38,3.37-3.38h76.67c0.68,0,1.23,0.55,1.23,1.23c0,0.68-0.55,1.23-1.23,1.23
		H37.74c-0.5,0-0.91,0.41-0.91,0.91v47.61h77.58l-4.9-9.71l3.22-3.29l-1.71-4.52l40.66-37.92H32.65c-1.55,0-2.81,1.26-2.81,2.81
		v49.84c0,1.55,1.26,2.81,2.81,2.81h1.72V122.16z M126.2,118.78h13.31c0.68,0,1.23,0.55,1.23,1.23c0,0.68-0.55,1.23-1.23,1.23H126.2
		c-0.68,0-1.23-0.55-1.23-1.23C124.97,119.34,125.52,118.78,126.2,118.78L126.2,118.78z M118.39,118.78h3.52
		c0.68,0,1.23,0.55,1.23,1.23c0,0.68-0.55,1.23-1.23,1.23h-3.52c-0.68,0-1.23-0.55-1.23-1.23
		C117.16,119.34,117.71,118.78,118.39,118.78L118.39,118.78z"/>
	<path class="st27" d="M192.08,152.49l-25.87-41.26c-0.94-1.5-3.01-1.78-4.33-0.6l-47.2,42.6c-1.28,1.15-1.53,3.05-0.6,4.5
		c0.32,0.49,0.68,1.06,1.07,1.65c-1.52,1.3-3.92,3.72-2.95,5.27c1.38,2.2,6.36,12.92,9.99,10.58c0.51-0.33,1.38-0.76,2.29-1.18
		c1.89,2.33,3.35,2.95,4.74,2.54c0.93,5.94,18.58,16.78,21.66,17.75c3.07,0.97,6.43-1.12,3.26-3.95c-3.5-2.28-7.9-9.82-9.86-13.4
		c-0.55-1.01-0.09-2.28,0.98-2.69l45.44-17.64C192.36,156.01,193.03,154,192.08,152.49L192.08,152.49z"/>
	<path class="st28" d="M154.08,128.3c2.55,0,4.64,0.33,6.26,0.99c1.63,0.66,2.9,1.47,3.8,2.42c0.91,0.95,1.49,1.94,1.78,2.97
		c0.27,1.03,0.34,1.91,0.18,2.65c-0.27,1.32-0.79,2.48-1.54,3.48c-0.76,1-1.59,1.9-2.51,2.72c-0.92,0.81-1.86,1.57-2.81,2.28
		c-0.95,0.7-1.78,1.44-2.49,2.21c-0.43,0.46-0.76,0.8-0.99,1.01c-0.23,0.21-0.55,0.32-0.95,0.32h-9.85c-0.25,0-0.44-0.08-0.58-0.25
		c-0.14-0.17-0.18-0.36-0.11-0.57c0.03-0.06,0.06-0.12,0.07-0.19c0.02-0.06,0.04-0.12,0.07-0.19c0.46-1.1,1.17-2.11,2.14-3.01
		c0.97-0.91,1.95-1.74,2.95-2.49c1-0.75,1.89-1.45,2.67-2.09c0.78-0.65,1.23-1.25,1.36-1.8c0.09-0.46,0.02-0.82-0.21-1.08
		c-0.23-0.26-0.58-0.39-1.04-0.39c-0.83,0-1.44,0.15-1.82,0.44c-0.38,0.29-0.71,0.62-0.99,0.99c-0.27,0.37-0.55,0.7-0.83,0.99
		c-0.28,0.29-0.7,0.44-1.29,0.44h-8.57c-0.37,0-0.62-0.15-0.76-0.46c-0.13-0.3-0.17-0.63-0.11-0.97c0.28-1.17,0.78-2.37,1.49-3.59
		c0.72-1.23,1.73-2.35,3.02-3.37c1.29-1.01,2.89-1.84,4.79-2.48C149.12,128.63,151.41,128.3,154.08,128.3L154.08,128.3z
		 M153.48,151.19c0.34,0,0.6,0.12,0.78,0.37c0.19,0.25,0.25,0.54,0.19,0.87l-1.56,7.32c-0.06,0.34-0.24,0.63-0.53,0.87
		c-0.29,0.25-0.61,0.37-0.94,0.37h-8.43c-0.34,0-0.61-0.12-0.8-0.37c-0.2-0.25-0.27-0.54-0.21-0.87l1.56-7.32
		c0.06-0.34,0.25-0.63,0.55-0.87c0.31-0.25,0.63-0.37,0.97-0.37H153.48z"/>
	<g>
		<path class="st29" d="M197.69,144.75c-0.02,0-0.03,0-0.04,0l-8.11-0.25c-0.68-0.02-1.21-0.59-1.19-1.27
			c0.02-0.68,0.59-1.21,1.27-1.2l8.11,0.25c0.68,0.02,1.21,0.59,1.2,1.27C198.9,144.22,198.35,144.75,197.69,144.75L197.69,144.75z"
			/>
		<path class="st29" d="M188.35,136.15c-0.53,0-1.02-0.35-1.18-0.88c-0.19-0.66,0.18-1.34,0.83-1.53l7.78-2.3
			c0.65-0.19,1.34,0.18,1.53,0.83c0.19,0.65-0.18,1.34-0.83,1.53l-7.78,2.3C188.59,136.14,188.47,136.15,188.35,136.15
			L188.35,136.15z"/>
		<path class="st29" d="M184.98,128.62c-0.42,0-0.83-0.21-1.06-0.6c-0.35-0.59-0.16-1.34,0.42-1.69l6.95-4.18
			c0.59-0.35,1.34-0.16,1.69,0.42c0.35,0.58,0.16,1.34-0.42,1.69l-6.95,4.18C185.42,128.56,185.2,128.62,184.98,128.62
			L184.98,128.62z"/>
		<path class="st29" d="M179.6,122.84c-0.3,0-0.61-0.11-0.85-0.34c-0.49-0.47-0.51-1.25-0.04-1.74l5.63-5.84
			c0.47-0.49,1.25-0.51,1.74-0.04c0.49,0.47,0.51,1.25,0.03,1.74l-5.62,5.84C180.25,122.72,179.92,122.84,179.6,122.84L179.6,122.84
			z"/>
		<path class="st29" d="M173.76,118.7c-0.19,0-0.4-0.05-0.58-0.15c-0.6-0.32-0.83-1.06-0.51-1.66l3.8-7.17
			c0.32-0.6,1.06-0.83,1.66-0.51c0.61,0.32,0.83,1.06,0.51,1.66l-3.8,7.16C174.63,118.47,174.2,118.7,173.76,118.7L173.76,118.7z"/>
		<path class="st29" d="M94.55,173.83H37.92c-0.55,0-1-0.45-1-1c0-0.55,0.45-1,1-1h56.64c0.55,0,1,0.45,1,1
			C95.55,173.39,95.11,173.83,94.55,173.83L94.55,173.83z"/>
		<path class="st29" d="M105.78,173.83h-3.37c-0.55,0-1-0.45-1-1c0-0.55,0.45-1,1-1h3.37c0.55,0,1,0.45,1,1
			C106.78,173.39,106.34,173.83,105.78,173.83L105.78,173.83z"/>
	</g>
	<path class="st28" d="M176.88,148.02c-0.22,0-0.44-0.11-0.57-0.31l-2.11-3.39c-0.2-0.31-0.1-0.72,0.21-0.92
		c0.32-0.2,0.72-0.1,0.92,0.21l2.11,3.39c0.19,0.32,0.09,0.73-0.22,0.92C177.12,147.99,177,148.02,176.88,148.02L176.88,148.02z
		 M173.01,141.8c-0.23,0-0.44-0.11-0.57-0.32l-2.11-3.39c-0.19-0.31-0.1-0.72,0.21-0.91c0.31-0.2,0.73-0.1,0.92,0.21l2.12,3.39
		c0.19,0.31,0.09,0.72-0.21,0.92C173.25,141.77,173.13,141.8,173.01,141.8L173.01,141.8z M169.13,135.58
		c-0.22,0-0.44-0.11-0.57-0.31l-2.11-3.39c-0.19-0.31-0.1-0.72,0.21-0.92c0.31-0.2,0.72-0.1,0.92,0.21l2.11,3.39
		c0.19,0.32,0.1,0.73-0.21,0.92C169.37,135.55,169.25,135.58,169.13,135.58L169.13,135.58z M165.26,129.36
		c-0.22,0-0.44-0.11-0.57-0.32l-2.11-3.39c-0.2-0.32-0.1-0.72,0.21-0.92c0.31-0.2,0.72-0.1,0.92,0.21l2.11,3.39
		c0.19,0.31,0.1,0.72-0.21,0.92C165.5,129.33,165.38,129.36,165.26,129.36L165.26,129.36z"/>
	<g>
		<path class="st26" d="M127.24,178.43c-1.3,0-2.55-0.66-3.27-1.8l-13.5-21.53c-0.97-1.54-0.72-3.56,0.59-4.82l0.03-0.02
			l43.73-39.55c0.83-0.79,1.97-1.17,3.12-1.03c1.15,0.14,2.17,0.79,2.78,1.77l24.42,38.94c0.62,0.99,0.76,2.18,0.38,3.28
			c-0.37,1.1-1.2,1.95-2.28,2.36l-54.68,22.16C128.14,178.35,127.69,178.43,127.24,178.43L127.24,178.43z M112.76,152.07
			c-0.46,0.45-0.55,1.17-0.2,1.72l13.5,21.53c0.34,0.55,1.03,0.78,1.63,0.57l54.68-22.16c0.39-0.15,0.69-0.46,0.82-0.85
			c0.13-0.4,0.08-0.82-0.14-1.18l-24.42-38.93c-0.22-0.35-0.59-0.59-1-0.64c-0.42-0.05-0.82,0.08-1.13,0.37l-0.02,0.02
			L112.76,152.07z"/>
		<path class="st26" d="M120.49,176.75c-0.3,0-0.59-0.03-0.88-0.1c-1.01-0.23-1.87-0.85-2.43-1.73l-8.03-12.8
			c-0.55-0.89-0.73-1.93-0.5-2.94c0.23-1.01,0.85-1.87,1.73-2.43l2.9-1.82l12.17,19.41l-2.9,1.82
			C121.93,176.55,121.21,176.75,120.49,176.75L120.49,176.75z M112.5,158.33l-0.81,0.51c-0.32,0.21-0.55,0.52-0.63,0.89
			c-0.09,0.37-0.02,0.75,0.18,1.08l8.03,12.81c0.2,0.32,0.52,0.55,0.89,0.63c0.37,0.08,0.76,0.02,1.08-0.18l0.81-0.51L112.5,158.33z
			"/>
		<path class="st26" d="M152.31,196.01c-0.74,0-1.48-0.22-2.12-0.64l-16.07-10.76c-1.52-1.02-2.79-2.33-3.76-3.88l-2-3.18l2.09-1.31
			l2,3.18c0.79,1.26,1.81,2.31,3.05,3.14l16.07,10.76c0.44,0.29,1,0.3,1.46,0.02c0.35-0.22,0.57-0.57,0.62-0.98
			c0.05-0.41-0.09-0.81-0.38-1.1c-5.02-5.07-13.17-14.46-11.33-20.27l2.35,0.74c-1.23,3.88,5.01,12.01,10.73,17.8
			c0.82,0.83,1.21,1.96,1.08,3.12c-0.13,1.15-0.78,2.17-1.76,2.78C153.71,195.82,153.01,196.01,152.31,196.01L152.31,196.01z"/>
		<path class="st26" d="M169.53,187.88c-2.41,0-4.38-1.97-4.38-4.38c0-2.42,1.97-4.38,4.38-4.38c2.42,0,4.38,1.96,4.38,4.38
			C173.91,185.92,171.94,187.88,169.53,187.88L169.53,187.88z M169.53,180.95c-1.4,0-2.55,1.15-2.55,2.55
			c0,1.41,1.15,2.55,2.55,2.55c1.41,0,2.55-1.15,2.55-2.55C172.08,182.1,170.94,180.95,169.53,180.95L169.53,180.95z"/>
	</g>
	<path class="st27" d="M17.51,147.8c-0.24,0-0.47-0.09-0.65-0.27c-0.36-0.36-0.36-0.93,0-1.29L20,143.1c0.48-0.49,1.27-0.49,1.76,0
		l2.4,2.39l2.78-2.78c0.49-0.49,1.28-0.49,1.76,0l2.78,2.78l2.9-2.9c0.47-0.47,1.29-0.47,1.76,0l2.78,2.78l2.69-2.69
		c0.36-0.36,0.94-0.36,1.29,0c0.36,0.36,0.36,0.93,0,1.29l-3.1,3.1c-0.49,0.48-1.28,0.48-1.76,0l-2.78-2.78l-2.9,2.91
		c-0.49,0.48-1.28,0.48-1.76,0l-2.78-2.78l-2.78,2.78c-0.49,0.48-1.27,0.48-1.76,0l-2.39-2.4l-2.72,2.72
		C17.98,147.71,17.75,147.8,17.51,147.8L17.51,147.8z"/>
</g>
<g>
	<path class="st30" d="M55.87,156.18c0,2.02-0.55,3.77-1.65,5.23c-1.12,1.5-2.66,2.46-4.6,2.88c0.38,0.78,0.94,1.49,1.7,2.13
		c0.07,0.05,0.1,0.1,0.1,0.15c0,0.3-0.93,0.46-2.8,0.46c-1.37,0-2.22-0.05-2.54-0.16c-0.17-0.06-0.28-0.2-0.33-0.42
		c-0.09-0.44-0.12-1.18-0.09-2.2c-1.86-0.46-3.33-1.45-4.43-2.94c-1.06-1.45-1.59-3.16-1.59-5.11c0-2.37,0.76-4.35,2.28-5.97
		c1.55-1.65,3.49-2.48,5.84-2.48c2.33,0,4.27,0.83,5.83,2.49C55.11,151.84,55.87,153.83,55.87,156.18z M51.56,156.16
		c0-1.17-0.34-2.15-1.01-2.93c-0.71-0.82-1.64-1.23-2.79-1.23c-1.18,0-2.12,0.41-2.81,1.22c-0.66,0.77-0.99,1.76-0.99,2.97
		c0,1.23,0.32,2.22,0.97,2.97c0.68,0.79,1.62,1.19,2.83,1.19c1.18,0,2.11-0.41,2.81-1.22C51.23,158.34,51.56,157.35,51.56,156.16z"
		/>
	<path class="st30" d="M75.82,158.56c0,1.94-0.23,3.26-0.69,3.97c-0.85,1.29-2.97,1.94-6.36,1.94c-1.53,0-2.71-0.12-3.54-0.35
		c-1.32-0.38-2.18-1.11-2.57-2.18c-0.2-0.53-0.3-1.46-0.3-2.81c0-0.31,0.01-0.78,0.03-1.39c0.02-0.62,0.03-1.08,0.03-1.38
		c0-0.88-0.04-2.21-0.13-3.97c-0.08-1.76-0.13-3.08-0.13-3.96c0-0.18,0.08-0.27,0.24-0.27c0.46,0,1.16,0.02,2.1,0.06
		c0.94,0.04,1.64,0.06,2.1,0.06c0.19,0,0.28,0.08,0.28,0.25c0,1-0.03,2.51-0.1,4.51c-0.06,2-0.1,3.51-0.1,4.51
		c0,1.19,0.12,2,0.38,2.42c0.33,0.57,1.03,0.86,2.09,0.86c1.55,0,2.33-0.76,2.33-2.27c0-1.1-0.03-2.76-0.08-4.96
		c-0.05-2.21-0.08-3.86-0.08-4.96c0-0.24,0.09-0.35,0.28-0.35c0.45,0,1.12-0.02,2.03-0.06c0.9-0.04,1.58-0.06,2.03-0.06
		c0.22,0,0.33,0.09,0.33,0.27c0,0.88-0.04,2.19-0.11,3.96c-0.07,1.77-0.11,3.09-0.11,3.97c0,0.24,0,0.61,0.01,1.1
		C75.81,157.95,75.82,158.32,75.82,158.56z"/>
	<path class="st30" d="M87.34,155.73c0,0.9,0.02,2.25,0.07,4.05c0.05,1.8,0.07,3.15,0.07,4.05c0,0.15-0.03,0.25-0.1,0.29
		c-0.02,0.01-0.11,0.02-0.3,0.05c-0.49,0.06-1.15,0.09-1.98,0.09c-1.11,0-1.81-0.03-2.12-0.09c-0.22-0.05-0.33-0.16-0.33-0.35
		c0,0.12,0.03-0.55,0.1-2.01c0.14-3.08,0.2-5.1,0.2-6.07c0-0.81-0.03-2.03-0.08-3.66c-0.05-1.63-0.08-2.85-0.08-3.66
		c0-0.17,0.09-0.25,0.26-0.25c0.24,0,0.59,0.01,1.06,0.03c0.47,0.02,0.83,0.03,1.06,0.03c0.24,0,0.58-0.01,1.04-0.03
		c0.46-0.02,0.81-0.03,1.04-0.03c0.22,0,0.33,0.08,0.33,0.25c0,0.81-0.04,2.03-0.13,3.66C87.38,153.7,87.34,154.92,87.34,155.73z"/>
	<path class="st30" d="M104.57,164.35c-0.45,0-1.12-0.02-2.01-0.07c-0.89-0.05-1.57-0.07-2.01-0.07c-0.64,0-1.59-0.01-2.86-0.02
		c-1.27-0.02-2.22-0.02-2.86-0.02c-0.27,0-0.43-0.09-0.47-0.26c-0.02-0.49-0.09-1.21-0.23-2.17c-0.09-0.37-0.14-0.58-0.14-0.63
		c0-0.04,0.93-1.51,2.79-4.42c1.86-2.91,2.79-4.47,2.79-4.69c0-0.12-0.1-0.18-0.3-0.18c-0.53,0-1.33,0.02-2.41,0.05
		c-1.07,0.03-1.88,0.05-2.42,0.05c-0.17,0-0.25-0.09-0.25-0.26c0-0.28,0.09-0.83,0.26-1.64c0.17-0.81,0.26-1.4,0.26-1.77
		c0-0.12,0.1-0.18,0.31-0.18c1.05,0,2.62,0.02,4.72,0.07c2.1,0.05,3.67,0.07,4.72,0.07c0.16,0,0.26,0.09,0.31,0.26
		c0.14,0.61,0.2,1.48,0.2,2.61c0,0.14-0.07,0.31-0.2,0.51c-0.48,0.69-1.48,2.22-3.02,4.59c-1.74,2.7-2.62,4.12-2.62,4.24
		c0,0.06,0.06,0.09,0.19,0.09c1.54,0,2.72-0.03,3.55-0.09c0.17-0.01,0.53-0.05,1.09-0.14c0.48-0.08,0.83-0.11,1.06-0.11
		c0.11,0,0.16,0.08,0.16,0.24c0,1.24-0.11,2.48-0.33,3.71C104.82,164.26,104.73,164.35,104.57,164.35z"/>
</g>
<text transform="matrix(1 0 0 1 39.2964 139.3154)" class="st30 st31 st32">KALEIEN</text>
</svg>
