<?xml version="1.0" encoding="utf-8"?>
<!-- Generator: Adobe Illustrator 28.3.0, SVG Export Plug-In . SVG Version: 6.00 Build 0)  -->
<svg version="1.1" id="Calque_1" xmlns="http://www.w3.org/2000/svg" xmlns:xlink="http://www.w3.org/1999/xlink" x="0px" y="0px"
	 viewBox="0 0 150 150" style="enable-background:new 0 0 150 150;" xml:space="preserve">
<style type="text/css">
	.st0{display:none;}
	.st1{display:inline;fill:#C6BFB3;}
	.st2{display:inline;fill:#746A64;}
	.st3{display:inline;fill:#EAE2D4;}
	.st4{fill:#07161D;}
	.st5{fill:#EAE2D4;}
	.st6{fill:#E2AC71;}
	.st7{fill:#2F1B11;}
	.st8{fill:#322826;}
	.st9{fill:#E9C69E;}
	.st10{fill:#C99053;}
	.st11{fill:#F1E3C8;}
	.st12{fill:#F7E7B4;}
	.st13{fill:#622613;}
	.st14{fill:#C9BAA2;}
	.st15{fill:#C4C1D4;}
	.st16{fill:#7C8781;}
	.st17{fill:#AF7439;}
	.st18{fill:#77451E;}
	.st19{fill:#8C572A;}
	.st20{fill:#080909;}
	.st21{fill:#9C6633;}
	.st22{fill:#552E14;}
	.st23{fill:#502519;}
	.st24{fill:#842D45;}
	.st25{fill:#FEFFFF;}
	.st26{fill:#EC6445;}
	.st27{fill:#F3A410;}
	.st28{fill:#FFFFFF;}
	.st29{fill:#05A67A;}
	.st30{fill:#FFFEFE;}
	.st31{fill:#8F326D;}
	.st32{fill:#F3E600;}
	.st33{font-family:'BerlinSansFBDemi-Bold';}
	.st34{font-size:14.0578px;}
</style>
<g>
	<g id="Background_00000065069871885275574710000005032585164776586127_" class="st0">
		<path class="st1" d="M227.65,68.1c-3.12,1.76-6.53,3.24-9.96,4.52c-2.3-0.04-2.56,0.66-3.25,0.99c-0.11,0.05-0.29-0.3-0.85,0
			c-0.41,0.22-0.65,1.09-0.71,1.13c-0.41,0.32-0.78-0.04-0.85,0c-0.37,0.24-2.79,3.26-3.89,4.03c1.39,0.55-0.12,1.64-0.57,2.54
			c-1.78,3.61-3.48,7.26-5.23,10.88c-0.23,0.47-0.89,0.71-1.13,1.27c-0.13,0.3-0.23,1.66-0.57,2.54c-0.04,0.1-0.51,0.46-0.71,0.99
			c-0.4,1.09-0.25,2.02-0.28,2.12c-0.02,0.06-0.59,0.09-0.71,0.42c-0.08,0.23,0.08,0.88,0,1.13c-0.2,0.61-0.83,1.33-0.85,1.41
			c-0.64,2.37-1.28,10.19-0.85,13c-1.06,1.5,0.13,3.02,0.28,4.52c0.27,2.73,0.64,9.25,1.13,11.45c0.04,0.18,0.64,0.85,0.71,1.13
			c0.39,1.62,0.74,2.79,1.27,4.38c0.13,0.4,0.14,1.85,0.28,2.12c0.05,0.09,0.47,0.01,0.71,0.42c0.68,1.19,0.07,1.15,0.28,1.84
			c0.18,0.57,1.09,1.06,1.13,1.13c2.03,3.16,1.07,2.88,1.13,3.11c0.32,1.29,0.7,2.05,1.06,0.92c3.85,4.86,7.85,9.51,12.58,13.57
			c2.19,1.33,6.04,4.78,7.63,5.79c5.25,3.37,16.7,5.86,23.04,7.21c2.01-0.2,1.87,0.4,1.98,0.42c0.7,0.19,0.69-0.4,0.85-0.42
			c0.3-0.04,0.41,0.19,0.71,0.14c2.94-0.43,5.92-0.98,8.9-1.27c3.01-1.32,6.35-1.53,9.19-3.11c12.6-3.17,18.52-10.29,26.22-20.14
			c6.52-10.31,9-22.55,9.19-34.63c0.77-1.46-0.26-2.94-0.28-3.11c-0.2-1.41,0.29-1.74,0.28-1.84c-0.02-0.54-0.8-0.75-0.99-1.27
			c-0.33-0.92-0.15-5.15-1.41-5.94c-0.16-1.22-1.13-5.38-1.41-6.22c-0.12-0.35-1.53-2.96-1.98-3.96c-0.08-0.17,0.08-0.82,0-0.99
			c-0.1-0.22-0.97-1.02-2.4-4.24c-0.07-0.15-0.57-0.46-0.71-0.85c-0.05-0.15,0.29-0.53,0.28-0.57c-0.35-1.4-1-0.89-1.55-1.27
			c-0.16-0.11-0.42-1.19-0.57-1.41c-0.34-0.53-1.8-2.63-1.84-3.11c-0.01-0.14,0.99-1.88-0.92-1.48c-1.86-3.58-4.71-3.37-5.94-3.96
			c-1.9-0.9-7.86-3.89-8.69-5.37c15.59,0.01,31.19-0.01,46.78,0c0,52.58,0,52.58,0,105.15c-72.36,0-72.36,0-144.72,0
			c0-52.58,0-52.58,0-105.15C195.52,68.09,211.58,68.11,227.65,68.1z"/>
		<path class="st1" d="M273.01,68.1c0.1,1.28,3.48,0.93,4.31,2.4c2.17,0.89,8.74,4.26,9.82,6.01c0.24,0.39,0.07,0.6,0.85,1.7
			c0.01,0.01-0.23,0.16-0.14,0.28c0.12,0.16,0.59,0.01,0.64,0.07c0.16,0.19-0.27,0.15-0.21,0.21c1.99,2.25,2.14,1.42,2.9,1.77
			c0.88,0.4,8.13,10.65,7.84,12.65c1.6,2.98,2.33,6.33,3.11,9.61c0.04,0.16,0.53,0.84,0.57,0.99c0.15,0.67-0.15,0.94-0.14,0.99
			c0.53,2.69,1.32,5.14,0.99,7.91c1.26,1.44,0.2,4.64,0.14,6.08c-0.06,1.46,0.29,3.03,0.14,4.52c-0.1,1.06-0.76,2.93-0.99,4.1
			c-0.01,0.04,0.27,0.22,0.14,0.85c-0.02,0.09-0.4,0.33-0.42,0.42c-0.14,0.65-0.13,1.63-0.28,2.26c-0.15,0.61-1.86,6.59-1.98,6.93
			c-1.2,3.35-4.28,7.99-5.65,11.45c-3.2,3.59-6.09,7.63-9.96,10.67c-1.73,1.36-7.55,5-9.47,5.79c-4.57,1.9-19.59,5.94-24.87,5.79
			c-8.92-1.11-19.96-3.05-26.85-9.19c-1.65-0.39-3.52-2.19-4.95-3.25c-0.21-0.16-1.76-0.92-1.84-0.99
			c-1.72-1.41-9.66-10.41-10.95-12.37c-1.94-2.94-4.73-9.06-5.65-12.44c-1.34-4.87-2.31-16.98-1.7-21.91
			c0.28-2.27,1.62-5.05,2.26-7.35c0.45-1.59,0.76-4.71,1.27-6.08c0.18-0.48,0.89-1.11,1.13-1.7c1.13-2.78,2.33-5.53,3.39-8.34
			c1.83-1.39,1.16-1.78,1.27-1.98c0.31-0.53,2.65-4.36,2.9-4.45c0.5-0.18,0.94,0.16,0.99,0.14c0.15-0.07,1.23-1.13,1.55-1.27
			c0.07-0.03,1.32,0.25,1.34-0.35c-1.27-1.29,0.39,0.13,0.99-0.85c-3.67-2.01,6.23-6.32,7.99-7.28c1.16-0.64,3.1-2.03,3.82-2.4
			c1.34-0.69,2.56-0.74,3.18-1.41C244.65,68.09,258.83,68.09,273.01,68.1z"/>
		<path class="st1" d="M230.47,68.1c-0.62,0.67-1.84,0.72-3.18,1.41c-0.72,0.37-2.66,1.77-3.82,2.4c-1.75,0.96-11.65,5.27-7.99,7.28
			c-0.6,0.98-2.26-0.45-0.99,0.85c-0.02,0.61-1.27,0.32-1.34,0.35c-0.32,0.14-1.41,1.2-1.55,1.27c-0.05,0.02-0.49-0.32-0.99-0.14
			c-0.25,0.09-2.59,3.92-2.9,4.45c-0.12,0.2,0.56,0.59-1.27,1.98c-1.06,2.81-2.27,5.55-3.39,8.34c-0.24,0.59-0.95,1.22-1.13,1.7
			c-0.51,1.36-0.83,4.49-1.27,6.08c-0.64,2.29-1.98,5.08-2.26,7.35c-0.61,4.93,0.36,17.03,1.7,21.91c0.93,3.37,3.72,9.5,5.65,12.44
			c1.29,1.96,9.23,10.95,10.95,12.37c0.08,0.07,1.63,0.83,1.84,0.99c1.42,1.06,3.3,2.86,4.95,3.25c6.89,6.14,17.93,8.08,26.85,9.19
			c5.29,0.14,20.3-3.89,24.87-5.79c1.92-0.8,7.73-4.43,9.47-5.79c3.87-3.04,6.77-7.08,9.96-10.67c1.37-3.45,4.46-8.09,5.65-11.45
			c0.12-0.34,1.83-6.32,1.98-6.93c0.15-0.63,0.14-1.61,0.28-2.26c0.02-0.09,0.41-0.34,0.42-0.42c0.13-0.62-0.15-0.81-0.14-0.85
			c0.23-1.17,0.89-3.04,0.99-4.1c0.15-1.49-0.2-3.06-0.14-4.52c0.06-1.43,1.12-4.64-0.14-6.08c0.33-2.77-0.46-5.23-0.99-7.91
			c-0.01-0.05,0.29-0.32,0.14-0.99c-0.03-0.15-0.53-0.83-0.57-0.99c-0.78-3.28-1.51-6.63-3.11-9.61c0.28-2-6.96-12.25-7.84-12.65
			c-0.76-0.35-0.91,0.49-2.9-1.77c-0.06-0.07,0.37-0.02,0.21-0.21c-0.05-0.06-0.52,0.09-0.64-0.07c-0.09-0.13,0.15-0.27,0.14-0.28
			c-0.77-1.1-0.61-1.3-0.85-1.7c-1.08-1.75-7.65-5.12-9.82-6.01c-0.83-1.47-4.21-1.12-4.31-2.4c1.46,0,2.92,0,4.38,0
			c0.84,1.48,6.8,4.47,8.69,5.37c1.23,0.58,4.08,0.38,5.94,3.96c1.91-0.4,0.91,1.35,0.92,1.48c0.04,0.47,1.5,2.57,1.84,3.11
			c0.14,0.22,0.4,1.3,0.57,1.41c0.56,0.38,1.21-0.13,1.55,1.27c0.01,0.03-0.34,0.41-0.28,0.57c0.14,0.39,0.64,0.7,0.71,0.85
			c1.44,3.22,2.3,4.02,2.4,4.24c0.08,0.17-0.08,0.82,0,0.99c0.45,1,1.86,3.61,1.98,3.96c0.29,0.84,1.25,5,1.41,6.22
			c1.26,0.79,1.09,5.02,1.41,5.94c0.19,0.52,0.97,0.73,0.99,1.27c0,0.1-0.48,0.43-0.28,1.84c0.02,0.17,1.06,1.65,0.28,3.11
			c-0.19,12.08-2.67,24.32-9.19,34.63c-7.7,9.85-13.62,16.97-26.22,20.14c-2.83,1.58-6.18,1.79-9.19,3.11
			c-2.99,0.29-5.97,0.84-8.9,1.27c-0.3,0.04-0.4-0.18-0.71-0.14c-0.15,0.02-0.14,0.61-0.85,0.42c-0.11-0.03,0.03-0.63-1.98-0.42
			c-6.34-1.35-17.78-3.84-23.04-7.21c-1.59-1.02-5.44-4.46-7.63-5.79c-4.73-4.06-8.73-8.71-12.58-13.57
			c-0.36,1.13-0.74,0.37-1.06-0.92c-0.06-0.23,0.9,0.05-1.13-3.11c-0.04-0.07-0.95-0.56-1.13-1.13c-0.21-0.69,0.4-0.64-0.28-1.84
			c-0.24-0.41-0.66-0.33-0.71-0.42c-0.14-0.27-0.15-1.72-0.28-2.12c-0.53-1.6-0.88-2.77-1.27-4.38c-0.07-0.28-0.67-0.95-0.71-1.13
			c-0.49-2.2-0.86-8.72-1.13-11.45c-0.15-1.51-1.35-3.03-0.28-4.52c-0.43-2.81,0.2-10.63,0.85-13c0.02-0.08,0.65-0.8,0.85-1.41
			c0.08-0.25-0.08-0.9,0-1.13c0.12-0.34,0.69-0.37,0.71-0.42c0.04-0.1-0.12-1.03,0.28-2.12c0.2-0.53,0.67-0.89,0.71-0.99
			c0.33-0.88,0.44-2.24,0.57-2.54c0.24-0.56,0.9-0.8,1.13-1.27c1.75-3.62,3.45-7.28,5.23-10.88c0.45-0.91,1.96-2,0.57-2.54
			c1.1-0.77,3.51-3.79,3.89-4.03c0.07-0.04,0.44,0.32,0.85,0c0.05-0.04,0.29-0.91,0.71-1.13c0.56-0.3,0.74,0.05,0.85,0
			c0.69-0.33,0.96-1.03,3.25-0.99c3.44-1.28,6.85-2.76,9.96-4.52C228.59,68.09,229.53,68.1,230.47,68.1z"/>
		<path class="st2" d="M290.33,72.19c0.16,0.14,0.33,0.27,0.14,0.42C290.22,72.71,290.17,72.26,290.33,72.19z"/>
		<path class="st3" d="M275.42,79.54c-2.05,1.68-3.33,4.69-3.6,4.81c-1.6,0.68-6.37-0.77-8.34-0.28c-0.02-1.65-0.25-1.09-2.12-0.99
			c-5.23,1.48-7.05,1.8-1.63-0.35c-3.81-0.46-4.89,1.26-2.83-0.99c-0.18-0.18-0.18-0.18-0.35-0.35c-2.62,0.42-4.67,2.54-4.95,2.54
			c-0.31,0-3.25-2.79-5.44-2.19c1.39,1.46,0.49,0.69-1.98,0.99c1.73,0.74,1.73,0.74,3.46,1.48c-3.16-0.05-8.02-2.6-7.07-0.14
			c-2.23-0.42-6.79,0.87-8.34,0.28c-0.36-0.14-2.11-3.81-4.17-5.23c2.26-0.36,3.72-1.82,4.03-1.98c0.38-0.2,0.89-0.22,1.27-0.42
			c0.04-0.02,0.27-0.57,0.57-0.71c2-0.95,9.37-2.12,12.58-3.67c6.47-1.27,12.8,0.93,19.08,2.26c1.98,1.23,4.18,1.98,6.22,3.11
			C273.3,78.53,273.48,79.41,275.42,79.54z"/>
		<path class="st3" d="M293.93,122.65c-0.04-0.32-0.12-0.66-0.14-0.99c-0.01-0.07,0.37-0.83,0.28-1.34
			c-0.32-1.89-5.09-5.44-1.13-4.1c0.51-0.85-9.07-13.82-12.44-15.12c4.07-1.54,7.18-4.96,8.76-8.97c0.92,1.02,0.92,1.02,1.84,2.05
			c3.33,8.28,4.91,14.63,5.51,23.6c-1.13,1.75-0.8,2.28-0.85,2.4c-0.16,0.42-1.23,0.73-1.27,0.85
			C294.46,121.12,295.36,121.49,293.93,122.65z"/>
		<path class="st3" d="M210.83,115.3c-0.07-0.25-0.41-0.69-0.42-0.92c-0.29-4.56,2.34-15.36,5.51-19.15
			c1.57,2.59,4.43,5.02,7.35,5.87C217.97,104.39,214.34,110.26,210.83,115.3z"/>
	</g>
	<g>
		<path class="st4" d="M239.38,157.84c1.82,1.12,3.74,2.08,5.44,3.39c1.18,0.91,2.4,1.98,3.18,3.25
			c-5.13-3.33-12.29-6.55-18.44-6.78C232.7,156.31,236.18,157.12,239.38,157.84z"/>
		<path class="st4" d="M270.75,157.13c0.49,0.04,1.14,0.03,1.63,0.14c3.43,0.8-0.34,0.6-2.54,0.99c-4.75,0.85-10.28,3.74-14.35,6.36
			C259.15,159.94,264.67,156.61,270.75,157.13z"/>
		<path class="st5" d="M293.79,121.66c0.03,0.33,0.1,0.67,0.14,0.99c0.29,2.21,1.46,6.44,0.42,6.64c-0.61-5.96-2.28-7.99-1.91-8.2
			C293.12,121.38,293.12,121.38,293.79,121.66z"/>
		<g>
			<path class="st4" d="M228.07,79.12c2.06,1.42,3.81,5.09,4.17,5.23c1.55,0.59,6.11-0.7,8.34-0.28c-0.96-2.46,3.9,0.09,7.07,0.14
				c-1.73-0.74-1.73-0.74-3.46-1.48c2.47-0.3,3.36,0.47,1.98-0.99c2.19-0.6,5.14,2.19,5.44,2.19c0.28,0,2.32-2.12,4.95-2.54
				c0.18,0.18,0.18,0.18,0.35,0.35c-2.06,2.25-0.98,0.53,2.83,0.99c-5.42,2.15-3.6,1.84,1.63,0.35c1.87-0.11,2.1-0.66,2.12,0.99
				c1.97-0.48,6.74,0.96,8.34,0.28c0.28-0.12,1.56-3.13,3.6-4.81c4.87-3.99,14.89-2.45,15.41,4.88c0.15,2.09-0.77,5.71-1.55,7.7
				c-1.58,4.02-4.69,7.43-8.76,8.97c3.37,1.3,12.94,14.27,12.44,15.12c-3.95-1.35,0.81,2.21,1.13,4.1c0.09,0.52-0.29,1.27-0.28,1.34
				c-0.67-0.28-0.67-0.28-1.34-0.57c-0.37,0.21,1.29,2.24,1.91,8.2c1.83,17.75-10.11,23.71-25.44,26.57
				c-6.38,1.19-3.55,0.53,0.07-1.13c-4.4,0.82-10.01,2.31-13.43,5.37c-3.27,2.93,1.71-0.78,4.24-1.84c2.17-0.9,6.89-2.22,1.98,0
				c-3.67,2.5-7.27,5.22-10.03,8.76c-3.27-4.02-7.38-7.17-11.8-9.82c0.08-0.23,3.26,0.78,3.6,0.92c2.52,1,8.83,5.78,3.11,0.99
				c-1.55-0.92-1.55-0.92-3.11-1.84c-3.44-1.47-17.81-5.13-4.95-0.85c0.87,0.53-1.56-0.18-2.76-0.42
				c-9.9-2.03-22.97-5.23-26.01-16.47c-1.5-5.58-1.03-13.03,1.55-18.23c-0.11-0.11-0.11-0.11-0.21-0.21
				c-3.63,1.99-0.65-2.96,1.77-5.3c-3.17,0.61-1.95,0.08-2.12-0.49c3.51-5.04,7.14-10.91,12.44-14.2c-2.92-0.84-5.78-3.27-7.35-5.87
				c-2.2-3.63-3.98-10.9-1.41-14.63C217.24,76.63,224.38,76.58,228.07,79.12z"/>
			<g>
				<path class="st5" d="M268.92,155.86c-0.61,1.88,1.32,0.4,1.84,1.27c-6.08-0.52-11.6,2.81-15.26,7.49
					c-2.76,1.78-3.49,3.25-3.75,3.25c-0.21,0-2.19-2.52-2.83-2.97c-0.05-0.03-0.21,0.04-0.92-0.42c-0.78-1.27-2-2.34-3.18-3.25
					c-1.7-1.32-3.62-2.27-5.44-3.39c-2-1.12-3.78-0.33-3.53-1.84c1.2,0.24,3.63,0.96,2.76,0.42c-12.86-4.28,1.51-0.62,4.95,0.85
					c1.55,0.92,1.55,0.92,3.11,1.84c5.72,4.79-0.59,0.02-3.11-0.99c-0.35-0.14-3.53-1.15-3.6-0.92c4.42,2.66,8.53,5.8,11.8,9.82
					c2.76-3.54,6.36-6.26,10.03-8.76c4.91-2.22,0.19-0.9-1.98,0c-2.53,1.06-7.51,4.77-4.24,1.84c3.42-3.07,9.02-4.55,13.43-5.37
					C265.37,156.4,262.54,157.05,268.92,155.86z"/>
				<path class="st6" d="M281.21,109.93c-1.02,2.05-1.04,4.53-2.54,6.36c-0.73-1.22-0.3,0.18-0.14,0.71
					c-1.52,3.98-3.12,7.66-7.77,8.2c-1.88-0.74,0.76-1.84,0.92-1.84c0.62-0.01,2.9,2.53,0.49-0.35c0.6-0.53,0.6-0.53,1.2-1.06
					c1.2,0.62,0.2-0.04,0.21-0.35c0.01-0.26,1.65-1.34,1.13-4.88c-0.38-2.62-2.75-5.44-2.83-5.87c-0.16-0.9,0.81-1.18-0.99-2.9
					c2.35-2.7-2.03,1.06-0.78-1.7c-1.17,1.18-1.5,0.38-1.91,0.42c-4.92,0.55-7.96,5.85-7.07,9.89c-1.43-0.27-3.15-3.12-3.6-3.25
					c-1.62-0.46-1.04,1.61-3.82-1.98c-0.78,1.41-0.78,1.41-1.55,2.83c-0.42-4.03-0.28-5.25-1.27-0.71c-0.78-1.2-0.78-1.2-1.55-2.4
					c-2.83,4.99-2.72,2.37-3.96,2.54c-0.22,0.03-2.56,2.84-2.9,3.25c0.51-3.14-0.56-6.67-3.18-8.62c-0.57-0.43-3.6-1.84-3.82-1.84
					c-0.64,0.01-0.3,1.48-1.7-0.14c0.18,0.46,0.18,0.46,0.35,0.92c-0.46,1.58-4.35-3.08-1.27,0.85c-2.38,1.58-1.09,2.54-1.13,2.83
					c-0.07,0.48-4.08,4.28-2.69,8.97c0.4,1.35,1.72,1.97,0.57,2.33c2.38,0.4,1.85,1.09,0.42,2.47c-2.81-1.21-4.94-4.92-4.95-7.91
					c0-0.92,0.61-2.46-0.71,0.28c-1.29-2.15-1.43-4.68-1.98-7.07c0-0.07,0-0.07,0-0.14c0.9-1.81,1.69-3.67,2.69-5.44
					c-0.42-0.14-0.42-0.14-0.85-0.28c2.54-4.08,6.93-10.63,10.81-13.36c8.63-6.07,26.23-5.88,34.49,0.85
					c3.09,2.51,7.71,8.98,9.96,12.51c-0.42,0.07-0.42,0.07-0.85,0.14C279.69,106.04,280.42,108,281.21,109.93z"/>
				<path class="st6" d="M218.04,117.42c-0.87,3.53-1.32,4.88-0.57,8.69c1.23,6.16,6.43,11.84,11.66,15.05
					c4.03,2.47,8.73,3.89,12.93,6.08c2.98,1.56,5.58,3.11,7.77,5.79c1.38,1.69,2.01,3.64,2.19,3.53c0.29-1.32,1.21-3.18,2.05-4.24
					c1.76-2.21,5.26-3.99,7.77-5.23c2.71-1.34,6.45-2.65,9.26-4.1c10.97-5.68,18.62-14.2,14.2-27.28c1.86,3.63,2.48,6.02,2.26,10.25
					c-0.42,8.16-5.08,14.18-12.08,18.02c-7.82,4.28-18.88,4.33-23.46,13.14c-6.97-10.53-18.8-8.52-28.27-16.39
					c-5.92-4.93-8.42-11.78-7.42-19.43C216.73,118.35,218.89,113.93,218.04,117.42z"/>
				<path class="st7" d="M285.31,115.72c4.41,13.08-3.23,21.6-14.2,27.28c-2.81,1.45-6.55,2.76-9.26,4.1
					c1.99-1.22,2.91-2.55,4.38-4.1c0.47-0.49,1.2-0.82,1.84-1.84c0.01,0.19-0.07,0.74,0.07,0.85c12.33-6.5,19.41-14.11,14.49-28.69
					c-0.15-0.46-0.25-0.95-0.42-1.41c0.43-0.93-0.82-3.22-0.28-3.46c0.93,1.91,1.66,4.55,2.54,6.36
					C284.95,115.8,285.21,115.52,285.31,115.72z"/>
				<path class="st7" d="M222.42,109.93c-5.68,13.73-3.18,21.55,8.9,29.54c1.45,0.96,2.93,1.76,4.38,2.69
					c0.64,0.41,1.55,0.74,1.91,0.99c1.63,1.13,2.82,2.95,4.45,4.1c-4.2-2.19-8.9-3.6-12.93-6.08c-5.23-3.21-10.43-8.89-11.66-15.05
					c-0.76-3.82-0.3-5.16,0.57-8.69c0.87,0.74,2.97-5.42,3.96-7.42c0.03-0.06,0.4-0.17,0.42-0.21
					C222.42,109.86,222.42,109.86,222.42,109.93z"/>
				<g>
					<path class="st8" d="M275.84,96.08c0-0.99,0-0.99,0-1.98c1.29-4.11,3.31-12.34,8.83-12.72c8.19-0.56,3.91,13.05-1.55,16.68
						c-1.07,0.71-4.74,2.14-4.88,1.48c2.86-2.99,6.19-4.84,0.14-2.26c0.25-0.56,2.74-5.44,2.05-5.44
						C278.67,93.17,275.73,97.59,275.84,96.08z"/>
					<path class="st9" d="M275.84,94.1c0,0.99,0,0.99,0,1.98c-0.4-0.29-1.1-2.29-1.13-2.61c-0.17-1.73,0.96-4.44-0.78-0.64
						c-0.68-1.77-0.28-3.82,0.64-5.44c-0.21,0.07-0.21,0.07-0.42,0.14c-2.46,3.71-2.08,1.89-0.14-1.7
						c-2.35,1.88-3.37,3.34-0.99-0.71c1.6-2.72,4.29-5.42,7.49-5.94c-0.84,0.51-1.77,1.08-2.47,1.77c-2.71,2.62,0.4-0.03,2.97-0.57
						c2.29-0.48,6.85-0.29,2.12,0.14C277.11,82.5,275.59,88.29,275.84,94.1z"/>
				</g>
				<path class="st9" d="M235.21,150.35c6.89,2.21,12.57,4.57,16.68,10.88c3.39-6.03,10.26-8.87,16.61-10.67
					c-5.64,2.72-13.17,5.86-16.61,11.24C247.74,156.15,241.16,153.55,235.21,150.35z"/>
				<path class="st9" d="M224.61,101.31c0.04,0.18,0.04,0.18,0.07,0.35c-2.5,2.91-7.18,6.94-2.61,4.59
					c0.11,0.11,0.11,0.11,0.21,0.21c-4.63,3.85-4.63,3.85-9.26,7.7C216.62,109.68,219.64,104.43,224.61,101.31z"/>
				<path class="st9" d="M279.02,101.45c4.7,2.69,7.5,7.69,10.74,11.87c-4.2-3.43-4.2-3.43-8.41-6.85c-0.04-0.54,2.17,0.7,2.26,0.42
					C281.32,104.17,281.32,104.17,279.02,101.45z"/>
				<path class="st9" d="M289.06,118.13c4.57,5.83,4.13,13.14-0.28,18.94C291.83,131.16,291.32,124.21,289.06,118.13z"/>
				<path class="st5" d="M290.4,143.14c-3.34,5.37-11.57,9.9-17.88,10.18c5.28-2.07,14.43-5.28,17.17-10.6
					C289.9,142.98,289.95,143.42,290.4,143.14z"/>
				<path class="st9" d="M214.57,118.41c-2.52,5.88-2.17,12.54,0.28,18.37C210.84,131.61,210.01,123.51,214.57,118.41z"/>
				<path class="st5" d="M225.1,150.92c-0.4,0.08-0.28,0.45-0.42,0.85c-4.75-1.89-10.28-5.2-12.44-10.03
					c0.16-0.03,0.47-0.28,0.49-0.28c0.27-0.05,0.35,0.74,0.35-0.28C214.32,145.63,221.15,149.16,225.1,150.92z"/>
				<path class="st10" d="M282.2,111.91c0.17,0.46,0.27,0.96,0.42,1.41c-0.79,1.75-1.28,3.62-3.39,4.1
					c-0.03-0.07-0.53-1.08-0.57-1.13c1.5-1.83,1.53-4.31,2.54-6.36C281.43,110.47,281.97,111.3,282.2,111.91z"/>
				<path class="st9" d="M290.4,143.14c-0.45,0.27-0.5-0.16-0.71-0.42c2.03-3.94,0.54-1.83-1.06-0.42
					c-3.27,2.86,0.98-1.31,2.33-3.75c0.33-0.6,1.04-2.06,1.27-2.69c0.81-2.13,1.25-4.93,0.71,0.14
					C292.65,138.73,291.82,140.86,290.4,143.14z"/>
				<path class="st9" d="M213.09,141.16c0,1.02-0.08,0.24-0.35,0.28c-0.03,0-0.33,0.25-0.49,0.28c-1.14-2.55-1.71-5.71-1.48-8.48
					c0.39,1.62,0.89,3.24,1.63,4.73c1.36,2.75,5.89,7.59,0.64,2.47C212.94,140.48,213.05,141,213.09,141.16z"/>
				<path class="st9" d="M225.1,150.92c1.88,0.84,3.84,1.53,5.79,2.19c-2.3,0.39-4.18-0.53-6.22-1.34
					C224.83,151.37,224.7,151,225.1,150.92z"/>
				<path class="st11" d="M285.38,113.18c2.62,1.21,5.08,2.86,6.29,5.58C288.53,115.97,288.53,115.97,285.38,113.18z"/>
				<path class="st12" d="M217.54,113.32c0.11,0.11,0.11,0.11,0.21,0.21c-2.09,1.53-4.01,3.37-5.58,5.44
					C212.93,116.27,215.25,114.77,217.54,113.32z"/>
				<path class="st5" d="M270.82,86.04c0.77-0.17-0.26,0.86-0.99,2.12c-0.15-1.7-1.68-0.63-4.17-1.34
					C267.4,86.64,269.17,86.68,270.82,86.04z"/>
				<path class="st9" d="M265.03,85.06c0.67,0.03,2.74,0.25,0.99,0.71C263.51,86.41,258.69,86.14,265.03,85.06z"/>
				<path class="st11" d="M236.62,85.2c6.5,0.28,5.78,0.96-0.57,0.42C235.56,85.16,236.17,85.52,236.62,85.2z"/>
				<path class="st5" d="M233.23,86.19c2.16,0.39,2.16,0.39,4.31,0.78C234.88,86.64,233.63,88.09,233.23,86.19z"/>
				<path class="st12" d="M242.27,84.77c1.59,0.18,1.59,0.18,3.18,0.35C244.53,85.64,242.98,85.63,242.27,84.77z"/>
				<path class="st13" d="M233.94,88.16c0.11,0.04,0.11,0.04,0.21,0.07C232.75,90.61,231.64,88.79,233.94,88.16z"/>
				<path class="st14" d="M260.51,84.77c3.55-0.45-1.7,0.89-1.77,0.64C258.71,85.28,260.36,84.79,260.51,84.77z"/>
				<path class="st15" d="M234.08,87.46c0.18,0.11,0.18,0.11,0.35,0.21C234.56,88.28,233.93,87.87,234.08,87.46z"/>
				<g>
					<path class="st8" d="M217.54,81.38c7.28-1.23,10.1,10.71,9.54,16.04c-4.12-5.39-6.34-8.1-2.26-0.42
						c-1.7-0.49-1.7-0.49-3.39-0.99c1.67,1.39,7.3,5.49,1.2,3.32C215.41,96.76,211.54,82.39,217.54,81.38z"/>
					<path class="st9" d="M228.21,95.51c-0.14-0.07-0.14-0.07-0.28-0.14c0.25-6.57-0.29-11.9-7.14-14.7
						c-5.77-0.63,2.13-1.48,5.94,1.7c-0.38-1.31-5.51-4.6-1.13-2.4c2.27,1.14,5.78,5.07,6.08,7.63c-4.17-4.09-0.76-0.72-0.07,1.77
						c-4.32-4.71-0.35,0.09-1.27,2.69c-0.11,0.11-0.11,0.11-0.21,0.21C227.77,89.37,230.26,90.92,228.21,95.51z"/>
					<path class="st16" d="M228.21,95.51c-0.3,0.67-0.32,0.86-0.28-0.14C228.07,95.44,228.07,95.44,228.21,95.51z"/>
				</g>
				<path class="st17" d="M224.4,117c-4.25,8.86,3.07,13.53,7.49,17.38c-0.54,1.09-1.3-0.54-1.27,0.35
					c2.86,2.44,2.86,2.44,5.72,4.88c0.84-0.59-0.77-1.98-2.05-3.25c0.92,0.46,1.68,1.55,2.4,2.26c0.12,1.02-0.04,1.56-0.28,2.4
					c-2.02-0.83-3.82-2.13-5.58-3.39c-0.9,0,0.3,0.42,0.49,1.84c-12.09-7.99-14.59-15.81-8.9-29.54
					C222.96,112.32,223.11,114.84,224.4,117z"/>
				<path class="st17" d="M269.2,133.53c-1.34-0.21-1.34-0.21-2.69-0.42c0.27-1.14,0.34-1.67,0.42-2.83
					c0.3-4.06-0.36-4.84-0.28-5.09c1.22-0.05,2.46,0.06,3.67,0c0.16-0.01,0.3,0.29,0.35,0.28c0.12-0.01,0.06-0.28,0.07-0.28
					c4.65-0.54,6.26-4.22,7.77-8.2c0.17,0.56,0.62,1.32,0.71,1.91C280.31,126.49,274.24,129.54,269.2,133.53z"/>
				<path class="st17" d="M230.05,124.63c0.06,0.03,0.22-0.03,0.28,0c0.71,0.29,1.78,0.68,2.54,0.71c0.44,0.02,0.19,0.04,0.57-0.14
					c0.51,0.06,2.35-0.23,2.26-0.42c0.46,0.1,1.19,0.13,1.27,0.35c0.03,0.08-0.27,0.86-0.28,1.77c-0.04,2.91,0.05,5.02,1.13,7.77
					c-0.47,0.08-0.49-0.98-0.57-1.06c-0.14-0.16-3.63-1.82-3.96-1.06c-5.23-4.49-11.42-7.4-8.2-15.83
					C225.11,119.71,227.24,123.42,230.05,124.63z"/>
				<path class="st7" d="M225.1,116.71c-3.22,8.42,2.97,11.34,8.2,15.83c1.45,1.25,4.13,3.26,5.09,4.24
					c0.48,0.49,0.39,0.68,0.42,0.71c-0.25,1.59-4-2.22-5.51-2.12c-0.38-0.34-1.03-0.65-1.41-0.99c-4.42-3.86-11.74-8.52-7.49-17.38
					C225.71,114.26,225.1,115.79,225.1,116.71z"/>
				<path class="st7" d="M278.67,116.29c0.03,0.05,0.54,1.07,0.57,1.13c2.33,5.59,0.65,9.93-3.53,13.85
					c-2.22,2.08-4.96,3.61-7.21,5.65c-1.01-0.6-2.47,0.89-3.25,0c0.13-0.19,0.31-0.5,0.42-0.71c0.75,0.06,2.58-1.93,3.53-2.69
					c5.04-4,11.11-7.04,10.03-14.63c-0.08-0.59-0.54-1.34-0.71-1.91C278.37,116.47,277.94,115.07,278.67,116.29z"/>
				<path class="st18" d="M247.15,148.51c2.43,1.71,1.53,0.7,1.27-0.57c-0.11-0.54-0.3-1.07-0.28-1.63
					c0.26-0.22,0.45,0.07,0.57,0.07c0.38,0.69,0.68,1.4,0.99,2.12c-1.05,1.38,0.6,3.06,0.14,4.52c-2.19-2.68-4.79-4.24-7.77-5.79
					c-1.63-1.15-2.82-2.97-4.45-4.1c-0.35-0.24-1.26-0.58-1.91-0.99c0.55-0.01,0.59-0.74,0.71-1.13c0.24-0.84,0.4-1.38,0.28-2.4
					C238.51,140.42,245.85,147.6,247.15,148.51z"/>
				<path class="st18" d="M266.23,143c-1.47,1.55-2.39,2.88-4.38,4.1c-2.51,1.24-6.01,3.02-7.77,5.23c0.31-1.32,1.16-2.4,1.84-3.53
					c-0.02,0.13,0.12,0.19,0.21,0.14c0.3-0.16,3.26-2.81,3.89-3.39c0.79,0.83,4.56-3.65,5.23-5.09c0.09-0.09,0.18-0.19,0.28-0.28
					C265.88,141.59,265.88,141.59,266.23,143z"/>
				<path class="st18" d="M257.04,146.68c-0.39,0.54-0.77,1.52-1.13,2.12c-0.68,1.13-1.53,2.21-1.84,3.53
					c-0.84,1.06-1.76,2.92-2.05,4.24c-0.18,0.11-0.81-1.84-2.19-3.53c0.45-1.46-1.19-3.14-0.14-4.52c0.73,1.71,1.24,3.54,1.98,5.23
					c0.11,0.24,0.21,0.7,0.35,0.71c0.26,0.01,1.73-4.2,1.91-4.73c0.25-0.75,0.1-2.69,0.92-1.06
					C255.69,147.89,256.57,146.11,257.04,146.68z"/>
				<path class="st17" d="M268.07,141.16c0-0.04,0.27-0.17,0.14-0.78c-0.02-0.07-0.79-0.79-0.71-1.27c0.13-0.74,8.46-5.91,8.2-7.84
					c4.19-3.92,5.86-8.26,3.53-13.85c2.11-0.48,2.61-2.35,3.39-4.1c4.92,14.58-2.15,22.19-14.49,28.69
					C268,141.9,268.08,141.36,268.07,141.16z"/>
				<path class="st19" d="M268.07,141.16c-0.64,1.02-1.37,1.35-1.84,1.84c-0.35-1.41-0.35-1.41-0.71-2.83
					c0.59-0.56,1.93-2.31,2.97-3.25c2.25-2.04,4.99-3.58,7.21-5.65c0.26,1.94-8.06,7.11-8.2,7.84c-0.09,0.48,0.69,1.2,0.71,1.27
					C268.34,141,268.07,141.12,268.07,141.16z"/>
				<path class="st19" d="M236.41,141.02c-0.11,0.39-0.15,1.12-0.71,1.13c-1.45-0.92-2.93-1.72-4.38-2.69
					c-0.2-1.41-1.39-1.83-0.49-1.84C232.59,138.9,234.38,140.19,236.41,141.02z"/>
				<path class="st20" d="M238.81,137.49c2.25,2.25,5.35,6.39,10.11,7.63c6.32,1.65,12.91-3.16,16.32-8.2c0.78,0.89,2.24-0.6,3.25,0
					c-1.04,0.94-2.38,2.69-2.97,3.25c-0.1,0.09-0.19,0.19-0.28,0.28c-1.76,1.67-3.46,3.44-5.23,5.09c-0.62,0.58-3.59,3.23-3.89,3.39
					c-0.1,0.05-0.23-0.01-0.21-0.14c0.36-0.6,0.74-1.58,1.13-2.12c0.47-0.65,2.79-2.64,1.91-2.4c-1.89,2.58-5.9,2.6-8.83,2.4
					c-0.07,0-0.2-0.26-1.41-0.28c-0.12,0-0.3-0.29-0.57-0.07c-0.01,0.56,0.17,1.09,0.28,1.63c-0.52,0.43-1.18-1.9-2.05-2.54
					c-2.83-1.44-0.49,0.45,0.78,3.11c-1.3-0.91-8.64-8.09-10.46-9.89c-0.72-0.71-1.49-1.81-2.4-2.26c-0.33-0.33-0.64-0.67-0.99-0.99
					C234.81,135.27,238.56,139.07,238.81,137.49z"/>
				<path class="st17" d="M231.89,134.38c0.39,0.34,1.04,0.65,1.41,0.99c0.35,0.32,0.66,0.66,0.99,0.99
					c1.28,1.27,2.89,2.66,2.05,3.25c-2.86-2.44-2.86-2.44-5.72-4.88C230.59,133.84,231.35,135.47,231.89,134.38z"/>
				<path class="st19" d="M269.2,133.53c-0.95,0.75-2.78,2.74-3.53,2.69c0.17-0.31,0.47-0.77,0.14-0.85
					c0.36-0.74,0.52-1.47,0.71-2.26C267.86,133.32,267.86,133.32,269.2,133.53z"/>
				<path class="st9" d="M270.33,125.19c-1.22,0.06-2.45-0.05-3.67,0C266.72,125,269.79,124.03,270.33,125.19z"/>
				<path class="st21" d="M237.82,134.66c0.21,0.52,0.41,1.08,0.71,1.55c-0.07,0.28-0.07,0.28-0.14,0.57
					c-0.96-0.98-3.64-2.99-5.09-4.24c0.33-0.76,3.82,0.9,3.96,1.06C237.33,133.69,237.35,134.74,237.82,134.66z"/>
				<path class="st6" d="M232.88,125.33c-0.76-0.03-1.83-0.42-2.54-0.71c1.7-1.73,1.4-1.03,3.39-0.21
					C233.3,124.88,233.3,124.88,232.88,125.33z"/>
				<path class="st9" d="M235.7,124.77c0.09,0.2-1.76,0.49-2.26,0.42C234.27,124.8,233.66,124.31,235.7,124.77z"/>
				<path class="st7" d="M250.12,146.68c0.71,2.3,1.33,4.66,1.55,7.07c-0.74-1.69-1.25-3.52-1.98-5.23
					c-0.31-0.72-0.61-1.43-0.99-2.12C249.91,146.42,250.05,146.67,250.12,146.68z"/>
				<path class="st22" d="M248.42,147.95c0.26,1.26,1.15,2.27-1.27,0.57c-1.27-2.66-3.61-4.55-0.78-3.11
					C247.24,146.05,247.91,148.38,248.42,147.95z"/>
				<path class="st22" d="M260.01,145.55c1.77-1.65,3.47-3.42,5.23-5.09C264.57,141.89,260.81,146.37,260.01,145.55z"/>
				<path class="st22" d="M257.04,146.68c-0.47-0.56-1.35,1.21-2.19,1.98c-0.82-1.63-0.67,0.31-0.92,1.06
					c-0.18,0.53-1.65,4.74-1.91,4.73c-0.14,0-0.25-0.46-0.35-0.71c-0.23-2.4-0.85-4.76-1.55-7.07c2.93,0.19,6.94,0.18,8.83-2.4
					C259.84,144.04,257.51,146.03,257.04,146.68z"/>
				<g>
					<path class="st9" d="M261.14,116.57c0.06,0.29,2.2,2.46,3.11,4.95c0.63,1.73,1.05,3.81,1.13,5.65
						c0.35,7.89-3.63,12.85-11.87,11.8c0.04-0.32,0.04-0.32,0.07-0.64c4.77,2.1,6.48-2.8,6.29-6.64c-0.6-12-15.64-12.01-15.97,0
						c-0.11,3.88,1.47,8.85,6.15,6.5c0.04,0.39,0.04,0.39,0.07,0.78c-0.51,0.86-12.6,1.21-11.87-12.08
						c0.08-1.41,0.74-4.18,1.27-5.51c0.68-1.71,1.81-3.11,2.97-4.52c0.33-0.41,2.68-3.22,2.9-3.25c1.24-0.18,1.13,2.45,3.96-2.54
						c0.78,1.2,0.78,1.2,1.55,2.4c0.99-4.54,0.86-3.33,1.27,0.71c0.78-1.41,0.78-1.41,1.55-2.83c2.77,3.59,2.19,1.52,3.82,1.98
						C258,113.45,259.71,116.3,261.14,116.57z"/>
					<path class="st23" d="M274.71,116.71c0.52,3.54-1.12,4.62-1.13,4.88c-0.02,0.31,0.99,0.97-0.21,0.35
						c-0.6,0.53-0.6,0.53-1.2,1.06c2.4,2.88,0.12,0.35-0.49,0.35c-0.16,0-2.8,1.09-0.92,1.84c-0.01,0,0.05,0.27-0.07,0.28
						c-0.05,0-0.2-0.29-0.35-0.28c-0.54-1.16-3.61-0.19-3.67,0c-0.08,0.24,0.58,1.03,0.28,5.09c-0.71-0.77-0.79-2.6-1.55-3.11
						c-0.08-1.84-0.5-3.92-1.13-5.65c0.41,0.06,0.49-0.44,0.71-0.57c1-0.58,6.63-2.04,7.21-5.94
						C273.69,115.4,273.73,117.42,274.71,116.71z"/>
					<path class="st23" d="M268.21,106.68c0.46,0.4,2.59,1.79,2.69,1.27c1.8,1.71,0.83,2,0.99,2.9c0.07,0.43,2.44,3.24,2.83,5.87
						c-0.98,0.7-1.02-1.31-2.54-1.7c0.61-4.11-4.98-8.17-7.77-4.03c-2.05,3.04,0.75,6.62,0.57,9.96c-0.22,0.13-0.29,0.63-0.71,0.57
						c-0.91-2.48-3.05-4.66-3.11-4.95C260.25,112.53,263.29,107.23,268.21,106.68z"/>
					<path class="st7" d="M270.89,107.95c-0.09,0.52-2.23-0.87-2.69-1.27c0.41-0.05,0.74,0.76,1.91-0.42
						C268.86,109.02,273.25,105.25,270.89,107.95z"/>
					<path class="st13" d="M259.87,131.69c-5.75,0.31-7.55,3.06-7.99,3.11c-0.43,0.05-2-2.63-7.99-3.11
						C244.23,119.69,259.27,119.69,259.87,131.69z"/>
					<path class="st11" d="M265.67,136.22c-0.11,0.21-0.29,0.51-0.42,0.71c-3.42,5.04-10.01,9.84-16.32,8.2
						c-4.75-1.24-7.86-5.38-10.11-7.63c-0.03-0.03,0.06-0.22-0.42-0.71c0.07-0.28,0.07-0.28,0.14-0.57c2.02,3.21,5.59,4,5.87,4.24
						c0.26,0.23,1.35,3.06,5.37,3.82c6.69,1.26,8.9-3.49,9.33-3.82c0.35-0.26,4.81-1.15,6.71-5.09
						C266.14,135.45,265.83,135.91,265.67,136.22z"/>
					<g>
						<path class="st20" d="M238.25,126.89c-0.73,13.29,11.36,12.95,11.87,12.08c-0.04-0.39-0.04-0.39-0.07-0.78
							c-4.68,2.34-6.26-2.62-6.15-6.5c5.98,0.48,7.55,3.16,7.99,3.11c0.44-0.05,2.24-2.8,7.99-3.11c0.19,3.85-1.52,8.74-6.29,6.64
							c-0.04,0.32-0.04,0.32-0.07,0.64c8.25,1.05,12.22-3.91,11.87-11.8c0.77,0.51,0.84,2.33,1.55,3.11
							c-0.09,1.16-0.15,1.69-0.42,2.83c-0.19,0.8-0.35,1.52-0.71,2.26c-1.9,3.93-6.37,4.83-6.71,5.09
							c-0.43,0.33-2.64,5.08-9.33,3.82c-4.02-0.76-5.11-3.59-5.37-3.82c-0.28-0.24-3.85-1.03-5.87-4.24
							c-0.3-0.48-0.5-1.03-0.71-1.55c-1.08-2.76-1.17-4.86-1.13-7.77C237.47,126.89,237.47,126.89,238.25,126.89z"/>
						<path class="st24" d="M251.74,140.74c0.61,0,2.99,0.46,5.02,0.35c-1.98,1.84-4.72,2.22-7.28,1.63
							c-4.82-2.31-2.84-1.38,0.42-1.55C250.32,141.14,251.54,140.74,251.74,140.74z"/>
					</g>
					<g>
						<path class="st23" d="M242.49,116.85c-1.16,1.42-2.28,2.81-2.97,4.52c-0.66,0.51-0.63-0.16-0.85-0.28
							c0.11-4.45,2.81-6.64,0.99-9.82c-2.81-4.9-9.71,0.21-7.49,5.16c-1.6,0.71-2.3,3.28-3.11,3.39c-1.39-4.7,2.62-8.49,2.69-8.97
							c0.04-0.28-1.25-1.25,1.13-2.83c-3.08-3.93,0.82,0.73,1.27-0.85c-0.18-0.46-0.18-0.46-0.35-0.92c1.4,1.62,1.06,0.15,1.7,0.14
							c0.21,0,3.24,1.41,3.82,1.84C241.93,110.18,243,113.72,242.49,116.85z"/>
						<path class="st23" d="M232.17,116.43c1.2,2.67,4.17,3.34,6.5,4.66c0.21,0.12,0.19,0.79,0.85,0.28
							c-0.53,1.33-1.19,4.11-1.27,5.51c-0.78,0-0.78,0-1.55,0c0.01-0.91,0.31-1.68,0.28-1.77c-0.08-0.22-0.82-0.25-1.27-0.35
							c-2.05-0.46-1.43,0.03-2.26,0.42c-0.38,0.18-0.13,0.16-0.57,0.14c0.42-0.46,0.42-0.46,0.85-0.92
							c-1.99-0.82-1.69-1.51-3.39,0.21c-0.06-0.03-0.22,0.03-0.28,0c1.43-1.38,1.95-2.07-0.42-2.47c1.15-0.36-0.17-0.98-0.57-2.33
							C229.87,119.71,230.57,117.14,232.17,116.43z"/>
						<g>
							<path class="st20" d="M238.67,121.09c-2.33-1.32-5.3-2-6.5-4.66c-2.22-4.95,4.68-10.06,7.49-5.16
								C241.48,114.45,238.78,116.64,238.67,121.09z"/>
							<path class="st5" d="M235.63,110.35c2.62-0.52,4.3,2.28,3.89,4.59c-0.49,0.9-0.15-0.4-0.42-1.27
								c-1.51-4.72-6.19-2.65-4.73,2.76C232.1,114.98,233.66,110.75,235.63,110.35z"/>
							<path class="st25" d="M236.62,111.63c0.46,0.25,0.46,0.25,0.92,0.49C237.72,114.84,234.14,112.7,236.62,111.63z"/>
						</g>
					</g>
					<g>
						<path class="st20" d="M272.17,115.02c-0.58,3.89-6.21,5.36-7.21,5.94c0.18-3.34-2.61-6.93-0.57-9.96
							C267.19,106.85,272.78,110.91,272.17,115.02z"/>
						<path class="st5" d="M266.87,110.35c3.13-0.57,4.99,3.74,2.54,5.65c1.35-5.75-3.7-6.53-4.73-1.91
							c-0.16,0.71,0.26,2.02-0.28,1.13C263.84,113.58,265.07,110.68,266.87,110.35z"/>
						<path class="st25" d="M267.15,111.77c2.97,0.24-0.24,3.39-0.49,0.35C266.9,111.94,266.9,111.94,267.15,111.77z"/>
					</g>
				</g>
			</g>
		</g>
	</g>
</g>
<g>
	<path class="st26" d="M204.52,153.43c0-1.34,1.09-2.43,2.42-2.43h55.11c0.49,0,0.89,0.4,0.89,0.89c0,0.49-0.4,0.89-0.89,0.89
		h-55.11c-0.36,0-0.65,0.29-0.65,0.65v34.22h55.76l-3.53-6.98l2.31-2.37l-1.23-3.25l29.23-27.26h-85.56c-1.11,0-2.02,0.9-2.02,2.02
		v35.82c0,1.11,0.91,2.02,2.02,2.02h1.24V153.43z M270.52,151h9.57c0.49,0,0.89,0.4,0.89,0.89c0,0.49-0.4,0.89-0.89,0.89h-9.57
		c-0.49,0-0.89-0.4-0.89-0.89C269.64,151.4,270.04,151,270.52,151L270.52,151z M264.91,151h2.53c0.49,0,0.88,0.4,0.88,0.89
		c0,0.49-0.4,0.89-0.88,0.89h-2.53c-0.49,0-0.89-0.4-0.89-0.89C264.03,151.4,264.42,151,264.91,151L264.91,151z"/>
	<path class="st27" d="M317.88,175.23l-18.6-29.66c-0.68-1.08-2.16-1.28-3.11-0.43l-33.93,30.62c-0.92,0.83-1.1,2.19-0.43,3.23
		c0.23,0.36,0.49,0.76,0.77,1.19c-1.09,0.94-2.82,2.68-2.12,3.79c0.99,1.58,4.57,9.28,7.18,7.61c0.36-0.24,0.99-0.55,1.65-0.85
		c1.36,1.67,2.4,2.12,3.41,1.83c0.67,4.27,13.36,12.06,15.57,12.76c2.21,0.69,4.63-0.81,2.34-2.84c-2.51-1.64-5.68-7.06-7.09-9.63
		c-0.4-0.73-0.06-1.64,0.71-1.94l32.66-12.68C318.08,177.76,318.56,176.32,317.88,175.23L317.88,175.23z"/>
	<path class="st28" d="M290.56,157.84c1.83,0,3.33,0.24,4.5,0.71c1.17,0.47,2.08,1.05,2.73,1.74c0.65,0.68,1.07,1.4,1.28,2.13
		c0.2,0.74,0.24,1.37,0.13,1.9c-0.2,0.95-0.57,1.78-1.11,2.5c-0.54,0.72-1.14,1.37-1.81,1.95c-0.66,0.58-1.34,1.13-2.02,1.64
		c-0.69,0.51-1.28,1.03-1.79,1.59c-0.31,0.33-0.55,0.57-0.71,0.73c-0.17,0.15-0.39,0.23-0.68,0.23h-7.08
		c-0.18,0-0.32-0.06-0.42-0.18c-0.1-0.12-0.13-0.26-0.08-0.41c0.02-0.05,0.04-0.09,0.05-0.13c0.01-0.04,0.03-0.09,0.05-0.13
		c0.33-0.79,0.84-1.52,1.54-2.17c0.7-0.65,1.4-1.25,2.12-1.79c0.72-0.54,1.36-1.04,1.92-1.5c0.56-0.47,0.89-0.9,0.98-1.29
		c0.06-0.33,0.01-0.59-0.15-0.78c-0.17-0.19-0.42-0.28-0.74-0.28c-0.6,0-1.03,0.11-1.31,0.31c-0.28,0.21-0.51,0.45-0.71,0.71
		c-0.2,0.26-0.4,0.5-0.59,0.71c-0.2,0.21-0.51,0.32-0.93,0.32h-6.16c-0.26,0-0.45-0.11-0.55-0.33c-0.1-0.22-0.13-0.45-0.08-0.69
		c0.2-0.84,0.56-1.7,1.07-2.58c0.52-0.88,1.24-1.69,2.17-2.42c0.93-0.72,2.08-1.32,3.44-1.79
		C287,158.08,288.64,157.84,290.56,157.84L290.56,157.84z M290.13,174.29c0.24,0,0.43,0.09,0.56,0.26c0.13,0.18,0.18,0.39,0.13,0.63
		l-1.12,5.26c-0.05,0.24-0.17,0.45-0.38,0.63c-0.21,0.18-0.43,0.26-0.68,0.26h-6.06c-0.24,0-0.44-0.09-0.58-0.26
		c-0.14-0.18-0.2-0.39-0.15-0.63l1.12-5.26c0.05-0.24,0.18-0.45,0.4-0.63c0.22-0.18,0.45-0.26,0.7-0.26H290.13z"/>
	<g>
		<path class="st29" d="M321.91,169.67c-0.01,0-0.02,0-0.03,0l-5.83-0.18c-0.49-0.01-0.87-0.42-0.86-0.91
			c0.02-0.49,0.43-0.87,0.91-0.86l5.83,0.18c0.49,0.01,0.87,0.42,0.86,0.91C322.78,169.29,322.38,169.67,321.91,169.67
			L321.91,169.67z"/>
		<path class="st29" d="M315.2,163.49c-0.38,0-0.74-0.25-0.85-0.63c-0.14-0.47,0.13-0.96,0.6-1.1l5.59-1.65
			c0.47-0.14,0.96,0.13,1.1,0.6c0.14,0.47-0.13,0.96-0.6,1.1l-5.59,1.65C315.37,163.47,315.28,163.49,315.2,163.49L315.2,163.49z"/>
		<path class="st29" d="M312.78,158.07c-0.3,0-0.59-0.15-0.76-0.43c-0.25-0.42-0.12-0.96,0.3-1.22l4.99-3
			c0.42-0.25,0.97-0.12,1.22,0.3c0.25,0.42,0.12,0.96-0.3,1.21l-5,3.01C313.09,158.03,312.93,158.07,312.78,158.07L312.78,158.07z"
			/>
		<path class="st29" d="M308.9,153.92c-0.22,0-0.44-0.08-0.61-0.25c-0.35-0.34-0.36-0.9-0.03-1.25l4.05-4.2
			c0.34-0.35,0.9-0.36,1.25-0.03c0.35,0.34,0.36,0.9,0.02,1.25l-4.04,4.2C309.37,153.83,309.14,153.92,308.9,153.92L308.9,153.92z"
			/>
		<path class="st29" d="M304.71,150.94c-0.14,0-0.28-0.03-0.42-0.11c-0.43-0.23-0.59-0.76-0.37-1.2l2.73-5.15
			c0.23-0.43,0.76-0.59,1.2-0.36c0.43,0.23,0.6,0.76,0.37,1.2l-2.73,5.15C305.34,150.77,305.03,150.94,304.71,150.94L304.71,150.94z
			"/>
		<path class="st29" d="M247.78,190.57h-40.71c-0.4,0-0.72-0.32-0.72-0.72c0-0.4,0.32-0.72,0.72-0.72h40.71
			c0.4,0,0.72,0.32,0.72,0.72C248.49,190.25,248.17,190.57,247.78,190.57L247.78,190.57z"/>
		<path class="st29" d="M255.85,190.57h-2.42c-0.4,0-0.72-0.32-0.72-0.72c0-0.4,0.32-0.72,0.72-0.72h2.42c0.4,0,0.72,0.32,0.72,0.72
			C256.56,190.25,256.25,190.57,255.85,190.57L255.85,190.57z"/>
	</g>
	<path class="st28" d="M306.95,172.02c-0.16,0-0.32-0.08-0.41-0.22l-1.52-2.44c-0.14-0.22-0.07-0.52,0.15-0.66
		c0.23-0.14,0.52-0.07,0.66,0.15l1.52,2.44c0.14,0.23,0.07,0.52-0.16,0.66C307.12,171.99,307.04,172.02,306.95,172.02L306.95,172.02
		z M304.17,167.54c-0.16,0-0.32-0.08-0.41-0.23l-1.52-2.44c-0.14-0.22-0.07-0.52,0.15-0.66c0.22-0.14,0.52-0.07,0.66,0.15l1.52,2.44
		c0.14,0.22,0.07,0.52-0.15,0.66C304.34,167.52,304.25,167.54,304.17,167.54L304.17,167.54z M301.38,163.07
		c-0.16,0-0.32-0.08-0.41-0.22l-1.52-2.44c-0.14-0.22-0.07-0.52,0.15-0.66c0.22-0.14,0.52-0.07,0.66,0.15l1.52,2.44
		c0.14,0.23,0.07,0.52-0.15,0.66C301.55,163.05,301.47,163.07,301.38,163.07L301.38,163.07z M298.6,158.6
		c-0.16,0-0.32-0.08-0.41-0.23l-1.52-2.44c-0.14-0.23-0.07-0.52,0.15-0.66c0.22-0.14,0.52-0.07,0.66,0.15l1.52,2.44
		c0.14,0.22,0.07,0.52-0.15,0.66C298.77,158.58,298.68,158.6,298.6,158.6L298.6,158.6z"/>
	<g>
		<path class="st26" d="M271.27,193.87c-0.93,0-1.83-0.47-2.35-1.29l-9.71-15.48c-0.69-1.11-0.51-2.56,0.43-3.46l0.02-0.02
			l31.44-28.43c0.6-0.57,1.42-0.84,2.24-0.74c0.83,0.1,1.56,0.57,2,1.27l17.55,27.99c0.44,0.71,0.54,1.57,0.27,2.36
			c-0.26,0.79-0.86,1.4-1.64,1.7l-39.3,15.93C271.92,193.82,271.59,193.87,271.27,193.87L271.27,193.87z M260.87,174.93
			c-0.33,0.32-0.39,0.84-0.14,1.23l9.71,15.47c0.25,0.4,0.74,0.56,1.17,0.41l39.3-15.93c0.28-0.11,0.49-0.33,0.59-0.61
			c0.1-0.28,0.06-0.59-0.1-0.85l-17.55-27.98c-0.16-0.25-0.42-0.42-0.72-0.46c-0.3-0.04-0.59,0.06-0.81,0.27l-0.02,0.02
			L260.87,174.93z"/>
		<path class="st26" d="M266.42,192.67c-0.21,0-0.42-0.02-0.63-0.07c-0.73-0.17-1.35-0.61-1.75-1.24l-5.77-9.2
			c-0.4-0.64-0.52-1.38-0.36-2.11c0.17-0.73,0.61-1.35,1.24-1.75l2.08-1.31l8.75,13.95l-2.08,1.3
			C267.45,192.52,266.94,192.67,266.42,192.67L266.42,192.67z M260.68,179.43l-0.58,0.36c-0.23,0.15-0.4,0.37-0.45,0.64
			c-0.06,0.26-0.01,0.54,0.13,0.77l5.77,9.2c0.14,0.23,0.37,0.39,0.64,0.45c0.27,0.06,0.54,0.01,0.78-0.13l0.58-0.36L260.68,179.43z
			"/>
		<path class="st26" d="M289.29,206.51c-0.53,0-1.06-0.16-1.52-0.46l-11.55-7.74c-1.09-0.73-2-1.67-2.7-2.79l-1.44-2.29l1.5-0.94
			l1.44,2.29c0.57,0.9,1.3,1.66,2.19,2.26l11.55,7.74c0.31,0.21,0.72,0.22,1.05,0.02c0.25-0.16,0.41-0.41,0.44-0.7
			c0.03-0.29-0.07-0.58-0.27-0.79c-3.61-3.65-9.47-10.4-8.14-14.57l1.69,0.53c-0.88,2.79,3.6,8.63,7.72,12.79
			c0.59,0.59,0.87,1.41,0.77,2.24c-0.1,0.83-0.56,1.56-1.27,2C290.3,206.37,289.8,206.51,289.29,206.51L289.29,206.51z"/>
		<path class="st26" d="M301.67,200.67c-1.73,0-3.15-1.41-3.15-3.15c0-1.74,1.41-3.15,3.15-3.15c1.74,0,3.15,1.41,3.15,3.15
			C304.82,199.25,303.4,200.67,301.67,200.67L301.67,200.67z M301.67,195.68c-1.01,0-1.83,0.82-1.83,1.83
			c0,1.01,0.82,1.84,1.83,1.84c1.01,0,1.84-0.82,1.84-1.84C303.5,196.51,302.68,195.68,301.67,195.68L301.67,195.68z"/>
	</g>
	<path class="st27" d="M192.4,171.85c-0.17,0-0.34-0.06-0.47-0.19c-0.26-0.26-0.26-0.67,0-0.93l2.25-2.25
		c0.35-0.35,0.92-0.35,1.27,0l1.72,1.72l2-2c0.35-0.35,0.92-0.35,1.26,0l2,2l2.09-2.08c0.34-0.34,0.93-0.34,1.27,0l2,2l1.94-1.94
		c0.26-0.26,0.67-0.26,0.93,0c0.26,0.26,0.26,0.67,0,0.93l-2.23,2.23c-0.35,0.35-0.92,0.35-1.27,0l-2-2l-2.09,2.09
		c-0.35,0.35-0.92,0.35-1.27,0l-2-2l-2,2c-0.35,0.35-0.92,0.35-1.27,0l-1.72-1.72l-1.96,1.95
		C192.74,171.79,192.57,171.85,192.4,171.85L192.4,171.85z"/>
</g>
<g>
	<path class="st30" d="M219.98,177.88c0,1.45-0.4,2.71-1.19,3.76c-0.81,1.08-1.91,1.77-3.3,2.07c0.27,0.56,0.68,1.07,1.22,1.53
		c0.05,0.04,0.07,0.07,0.07,0.11c0,0.22-0.67,0.33-2.01,0.33c-0.99,0-1.59-0.04-1.82-0.11c-0.13-0.04-0.2-0.14-0.24-0.3
		c-0.07-0.32-0.09-0.84-0.07-1.58c-1.34-0.33-2.4-1.04-3.18-2.12c-0.76-1.04-1.14-2.27-1.14-3.67c0-1.7,0.55-3.13,1.64-4.29
		c1.11-1.19,2.51-1.78,4.2-1.78c1.67,0,3.07,0.6,4.19,1.79C219.43,174.76,219.98,176.19,219.98,177.88z M216.88,177.86
		c0-0.84-0.24-1.54-0.73-2.11c-0.51-0.59-1.18-0.89-2-0.89c-0.85,0-1.52,0.29-2.02,0.88c-0.47,0.55-0.71,1.26-0.71,2.13
		c0,0.89,0.23,1.6,0.7,2.13c0.49,0.57,1.16,0.85,2.04,0.85c0.84,0,1.52-0.29,2.02-0.88C216.64,179.43,216.88,178.72,216.88,177.86z"
		/>
	<path class="st30" d="M234.31,179.59c0,1.39-0.17,2.35-0.5,2.85c-0.61,0.93-2.13,1.39-4.57,1.39c-1.1,0-1.95-0.08-2.54-0.25
		c-0.95-0.27-1.56-0.8-1.85-1.57c-0.14-0.38-0.21-1.05-0.21-2.02c0-0.22,0.01-0.56,0.02-1c0.02-0.44,0.02-0.77,0.02-0.99
		c0-0.63-0.03-1.59-0.09-2.85c-0.06-1.27-0.09-2.22-0.09-2.85c0-0.13,0.06-0.2,0.17-0.2c0.33,0,0.84,0.01,1.51,0.04
		c0.67,0.03,1.18,0.04,1.51,0.04c0.14,0,0.2,0.06,0.2,0.18c0,0.72-0.02,1.8-0.07,3.24c-0.05,1.44-0.07,2.52-0.07,3.24
		c0,0.86,0.09,1.44,0.27,1.74c0.24,0.41,0.74,0.62,1.5,0.62c1.12,0,1.68-0.54,1.68-1.63c0-0.79-0.02-1.98-0.06-3.57
		c-0.04-1.59-0.06-2.77-0.06-3.57c0-0.17,0.07-0.25,0.2-0.25c0.32,0,0.81-0.01,1.46-0.04c0.65-0.03,1.13-0.04,1.46-0.04
		c0.16,0,0.24,0.07,0.24,0.2c0,0.63-0.03,1.58-0.08,2.85c-0.05,1.27-0.08,2.22-0.08,2.85c0,0.17,0,0.44,0.01,0.79
		S234.31,179.42,234.31,179.59z"/>
	<path class="st30" d="M242.59,177.56c0,0.65,0.02,1.62,0.05,2.91c0.03,1.3,0.05,2.27,0.05,2.91c0,0.11-0.02,0.18-0.07,0.21
		c-0.01,0.01-0.08,0.02-0.21,0.03c-0.35,0.04-0.83,0.07-1.42,0.07c-0.8,0-1.3-0.02-1.52-0.07c-0.16-0.03-0.24-0.12-0.24-0.25
		c0,0.09,0.02-0.39,0.07-1.44c0.1-2.21,0.15-3.67,0.15-4.36c0-0.59-0.02-1.46-0.06-2.63c-0.04-1.17-0.06-2.05-0.06-2.63
		c0-0.12,0.06-0.18,0.19-0.18c0.17,0,0.42,0.01,0.76,0.02s0.6,0.02,0.76,0.02c0.17,0,0.42-0.01,0.75-0.02
		c0.33-0.02,0.58-0.02,0.75-0.02c0.16,0,0.24,0.06,0.24,0.18c0,0.59-0.03,1.46-0.09,2.63C242.62,176.1,242.59,176.98,242.59,177.56z
		"/>
	<path class="st30" d="M254.98,183.75c-0.32,0-0.8-0.02-1.45-0.05c-0.64-0.03-1.13-0.05-1.45-0.05c-0.46,0-1.14-0.01-2.05-0.02
		c-0.91-0.01-1.59-0.02-2.05-0.02c-0.2,0-0.31-0.06-0.34-0.19c-0.01-0.35-0.07-0.87-0.16-1.56c-0.07-0.27-0.1-0.42-0.1-0.45
		c0-0.03,0.67-1.09,2-3.18c1.34-2.09,2-3.22,2-3.37c0-0.09-0.07-0.13-0.21-0.13c-0.38,0-0.96,0.01-1.73,0.03
		c-0.77,0.02-1.35,0.03-1.74,0.03c-0.12,0-0.18-0.06-0.18-0.19c0-0.2,0.06-0.6,0.18-1.18c0.12-0.58,0.18-1.01,0.18-1.27
		c0-0.09,0.07-0.13,0.22-0.13c0.75,0,1.88,0.02,3.39,0.05c1.51,0.03,2.64,0.05,3.39,0.05c0.11,0,0.19,0.06,0.22,0.19
		c0.1,0.44,0.15,1.06,0.15,1.88c0,0.1-0.05,0.22-0.15,0.37c-0.34,0.5-1.07,1.6-2.17,3.3c-1.25,1.94-1.88,2.96-1.88,3.05
		c0,0.04,0.05,0.07,0.14,0.07c1.11,0,1.96-0.02,2.55-0.07c0.12-0.01,0.38-0.04,0.79-0.1c0.34-0.05,0.6-0.08,0.76-0.08
		c0.08,0,0.11,0.06,0.11,0.17c0,0.89-0.08,1.78-0.24,2.67C255.16,183.69,255.09,183.75,254.98,183.75z"/>
</g>
<text transform="matrix(1 0 0 1 208.059 165.7586)" class="st30 st33" style="font-size:14.7836px;">KALEIEN</text>
<g>
	<g id="Background_00000163046553348763520090000012446384668340114828_" class="st0">
		<path class="st1" d="M51.04,9.19c-2.96,1.68-6.21,3.08-9.47,4.3c-2.18-0.03-2.44,0.62-3.09,0.94c-0.11,0.05-0.28-0.28-0.81,0
			c-0.39,0.21-0.62,1.04-0.67,1.08c-0.39,0.3-0.74-0.04-0.81,0c-0.36,0.23-2.65,3.1-3.7,3.83c1.33,0.52-0.11,1.55-0.54,2.42
			c-1.69,3.43-3.31,6.9-4.97,10.35c-0.22,0.45-0.85,0.68-1.08,1.21c-0.12,0.29-0.22,1.58-0.54,2.42c-0.04,0.1-0.49,0.44-0.67,0.94
			c-0.39,1.04-0.24,1.92-0.27,2.02c-0.02,0.06-0.56,0.08-0.67,0.4c-0.08,0.22,0.08,0.84,0,1.08c-0.19,0.58-0.79,1.27-0.81,1.34
			c-0.61,2.26-1.22,9.69-0.81,12.36c-1.01,1.42,0.12,2.87,0.27,4.3c0.26,2.59,0.61,8.8,1.08,10.89c0.04,0.17,0.61,0.81,0.67,1.08
			c0.38,1.54,0.71,2.65,1.21,4.17c0.13,0.38,0.13,1.76,0.27,2.02c0.05,0.09,0.45,0.01,0.67,0.4c0.65,1.13,0.07,1.09,0.27,1.75
			c0.17,0.54,1.03,1.01,1.08,1.08c1.93,3,1.02,2.74,1.08,2.96c0.3,1.23,0.67,1.95,1.01,0.87c3.66,4.62,7.46,9.04,11.96,12.9
			c2.08,1.26,5.75,4.54,7.26,5.51c4.99,3.2,15.88,5.57,21.91,6.85c1.91-0.19,1.78,0.38,1.88,0.4c0.67,0.18,0.66-0.38,0.81-0.4
			c0.29-0.04,0.39,0.18,0.67,0.13c2.79-0.41,5.63-0.93,8.47-1.21c2.86-1.25,6.04-1.45,8.74-2.96c11.98-3.01,17.61-9.78,24.93-19.15
			c6.2-9.8,8.56-21.44,8.74-32.93c0.74-1.39-0.25-2.8-0.27-2.96c-0.19-1.34,0.27-1.66,0.27-1.75c-0.02-0.51-0.76-0.72-0.94-1.21
			c-0.31-0.87-0.14-4.89-1.34-5.64c-0.15-1.16-1.07-5.11-1.34-5.91c-0.11-0.33-1.45-2.82-1.88-3.76c-0.07-0.16,0.07-0.78,0-0.94
			c-0.1-0.21-0.92-0.97-2.28-4.03c-0.06-0.14-0.54-0.43-0.67-0.81c-0.05-0.15,0.28-0.51,0.27-0.54c-0.33-1.34-0.95-0.84-1.48-1.21
			c-0.15-0.11-0.4-1.13-0.54-1.34c-0.33-0.51-1.71-2.51-1.75-2.96c-0.01-0.13,0.94-1.79-0.87-1.41c-1.77-3.4-4.47-3.21-5.64-3.76
			c-1.8-0.86-7.47-3.7-8.27-5.11c14.83,0.01,29.66-0.01,44.48,0c0,49.99,0,49.99,0,99.99c-68.81,0-68.81,0-137.62,0
			c0-49.99,0-49.99,0-99.99C20.49,9.19,35.77,9.2,51.04,9.19z"/>
		<path class="st1" d="M94.18,9.19c0.1,1.22,3.31,0.89,4.1,2.28c2.06,0.84,8.31,4.05,9.34,5.71c0.23,0.37,0.07,0.57,0.81,1.61
			c0.01,0.01-0.22,0.15-0.13,0.27c0.11,0.16,0.56,0.01,0.6,0.07c0.15,0.18-0.26,0.14-0.2,0.2c1.89,2.14,2.03,1.35,2.76,1.68
			c0.84,0.38,7.73,10.13,7.46,12.03c1.52,2.84,2.21,6.02,2.96,9.14c0.04,0.15,0.51,0.8,0.54,0.94c0.14,0.64-0.14,0.89-0.13,0.94
			c0.5,2.56,1.26,4.89,0.94,7.53c1.2,1.37,0.19,4.42,0.13,5.78c-0.06,1.39,0.27,2.88,0.13,4.3c-0.1,1-0.72,2.79-0.94,3.9
			c-0.01,0.04,0.26,0.21,0.13,0.81c-0.02,0.08-0.38,0.32-0.4,0.4c-0.14,0.62-0.12,1.55-0.27,2.15c-0.14,0.58-1.77,6.26-1.88,6.59
			c-1.14,3.19-4.07,7.6-5.38,10.89c-3.04,3.41-5.8,7.25-9.47,10.15c-1.65,1.3-7.18,4.75-9,5.51c-4.35,1.81-18.63,5.65-23.65,5.51
			c-8.48-1.05-18.98-2.9-25.53-8.74c-1.56-0.37-3.35-2.08-4.7-3.09c-0.2-0.15-1.67-0.88-1.75-0.94c-1.64-1.34-9.19-9.9-10.42-11.76
			c-1.84-2.79-4.5-8.62-5.38-11.83c-1.27-4.63-2.2-16.15-1.61-20.83c0.27-2.16,1.54-4.81,2.15-6.99c0.42-1.51,0.73-4.48,1.21-5.78
			c0.17-0.45,0.85-1.05,1.08-1.61c1.07-2.65,2.21-5.26,3.23-7.93c1.74-1.32,1.1-1.69,1.21-1.88c0.29-0.51,2.52-4.15,2.76-4.23
			c0.48-0.17,0.9,0.15,0.94,0.13c0.14-0.06,1.17-1.08,1.48-1.21c0.07-0.03,1.25,0.24,1.28-0.34c-1.21-1.23,0.37,0.13,0.94-0.81
			c-3.49-1.91,5.93-6.01,7.59-6.92c1.1-0.6,2.95-1.93,3.63-2.28c1.28-0.66,2.44-0.71,3.02-1.34C67.22,9.19,80.7,9.19,94.18,9.19z"/>
		<path class="st1" d="M53.73,9.19c-0.59,0.64-1.75,0.69-3.02,1.34c-0.68,0.35-2.53,1.68-3.63,2.28c-1.67,0.91-11.08,5.01-7.59,6.92
			c-0.57,0.93-2.15-0.42-0.94,0.81c-0.02,0.58-1.21,0.31-1.28,0.34c-0.31,0.13-1.34,1.15-1.48,1.21c-0.04,0.02-0.46-0.3-0.94-0.13
			c-0.24,0.08-2.46,3.72-2.76,4.23c-0.11,0.19,0.53,0.56-1.21,1.88c-1.01,2.67-2.15,5.28-3.23,7.93c-0.23,0.56-0.91,1.16-1.08,1.61
			c-0.48,1.3-0.79,4.27-1.21,5.78c-0.61,2.18-1.88,4.83-2.15,6.99c-0.58,4.69,0.34,16.2,1.61,20.83c0.88,3.21,3.53,9.03,5.38,11.83
			c1.23,1.86,8.78,10.42,10.42,11.76c0.08,0.06,1.55,0.79,1.75,0.94c1.35,1.01,3.14,2.72,4.7,3.09c6.55,5.84,17.05,7.68,25.53,8.74
			c5.03,0.14,19.3-3.7,23.65-5.51c1.82-0.76,7.35-4.21,9-5.51c3.68-2.89,6.43-6.73,9.47-10.15c1.3-3.29,4.24-7.7,5.38-10.89
			c0.12-0.32,1.74-6.01,1.88-6.59c0.15-0.6,0.13-1.53,0.27-2.15c0.02-0.08,0.39-0.32,0.4-0.4c0.13-0.59-0.14-0.77-0.13-0.81
			c0.22-1.11,0.84-2.89,0.94-3.9c0.14-1.42-0.19-2.91-0.13-4.3c0.05-1.36,1.06-4.41-0.13-5.78c0.32-2.63-0.44-4.97-0.94-7.53
			c-0.01-0.05,0.27-0.3,0.13-0.94c-0.03-0.14-0.5-0.79-0.54-0.94c-0.74-3.12-1.44-6.3-2.96-9.14c0.27-1.9-6.62-11.64-7.46-12.03
			c-0.72-0.33-0.86,0.46-2.76-1.68c-0.06-0.06,0.35-0.02,0.2-0.2c-0.05-0.06-0.49,0.09-0.6-0.07c-0.09-0.12,0.14-0.26,0.13-0.27
			c-0.74-1.05-0.58-1.24-0.81-1.61c-1.03-1.66-7.28-4.87-9.34-5.71c-0.79-1.4-4-1.06-4.1-2.28c1.39,0,2.78,0,4.17,0
			c0.79,1.4,6.46,4.25,8.27,5.11c1.17,0.56,3.88,0.36,5.64,3.76c1.82-0.38,0.86,1.28,0.87,1.41c0.04,0.45,1.42,2.45,1.75,2.96
			c0.14,0.21,0.38,1.24,0.54,1.34c0.53,0.36,1.15-0.13,1.48,1.21c0.01,0.03-0.32,0.39-0.27,0.54c0.13,0.37,0.61,0.67,0.67,0.81
			c1.37,3.06,2.19,3.82,2.28,4.03c0.07,0.16-0.07,0.78,0,0.94c0.43,0.95,1.77,3.43,1.88,3.76c0.27,0.8,1.19,4.76,1.34,5.91
			c1.2,0.75,1.03,4.77,1.34,5.64c0.18,0.49,0.92,0.7,0.94,1.21c0,0.09-0.45,0.41-0.27,1.75c0.02,0.16,1.01,1.56,0.27,2.96
			c-0.18,11.48-2.53,23.12-8.74,32.93c-7.32,9.37-12.95,16.14-24.93,19.15c-2.69,1.51-5.87,1.71-8.74,2.96
			c-2.84,0.28-5.67,0.8-8.47,1.21c-0.29,0.04-0.38-0.17-0.67-0.13c-0.15,0.02-0.14,0.58-0.81,0.4c-0.1-0.03,0.03-0.59-1.88-0.4
			c-6.03-1.28-16.91-3.65-21.91-6.85c-1.51-0.97-5.17-4.25-7.26-5.51c-4.5-3.86-8.3-8.28-11.96-12.9c-0.34,1.07-0.71,0.35-1.01-0.87
			c-0.05-0.22,0.86,0.05-1.08-2.96c-0.04-0.06-0.91-0.54-1.08-1.08c-0.2-0.65,0.38-0.61-0.27-1.75c-0.23-0.39-0.63-0.32-0.67-0.4
			c-0.14-0.25-0.14-1.64-0.27-2.02c-0.5-1.52-0.83-2.63-1.21-4.17c-0.07-0.27-0.63-0.9-0.67-1.08c-0.47-2.09-0.81-8.29-1.08-10.89
			c-0.14-1.43-1.28-2.88-0.27-4.3c-0.41-2.67,0.19-10.11,0.81-12.36c0.02-0.08,0.62-0.77,0.81-1.34c0.08-0.24-0.08-0.86,0-1.08
			c0.11-0.32,0.65-0.35,0.67-0.4c0.03-0.1-0.12-0.98,0.27-2.02c0.19-0.5,0.63-0.84,0.67-0.94c0.32-0.84,0.42-2.13,0.54-2.42
			c0.23-0.53,0.86-0.76,1.08-1.21c1.66-3.44,3.28-6.92,4.97-10.35c0.43-0.86,1.86-1.9,0.54-2.42c1.04-0.73,3.34-3.6,3.7-3.83
			c0.07-0.04,0.42,0.3,0.81,0c0.05-0.04,0.28-0.87,0.67-1.08c0.53-0.28,0.7,0.05,0.81,0c0.66-0.32,0.91-0.98,3.09-0.94
			c3.27-1.22,6.51-2.62,9.47-4.3C51.94,9.19,52.84,9.19,53.73,9.19z"/>
		<path class="st2" d="M110.65,13.09c0.15,0.14,0.31,0.25,0.13,0.4C110.54,13.58,110.5,13.15,110.65,13.09z"/>
		<path class="st3" d="M96.47,20.08c-1.95,1.6-3.16,4.46-3.43,4.57c-1.52,0.65-6.05-0.73-7.93-0.27c-0.02-1.57-0.23-1.04-2.02-0.94
			c-4.97,1.41-6.7,1.71-1.55-0.34c-3.62-0.44-4.65,1.2-2.69-0.94c-0.17-0.17-0.17-0.17-0.34-0.34c-2.49,0.4-4.44,2.42-4.7,2.42
			c-0.29,0-3.09-2.66-5.17-2.08c1.32,1.39,0.46,0.66-1.88,0.94c1.65,0.71,1.65,0.71,3.29,1.41c-3.01-0.05-7.63-2.47-6.72-0.13
			c-2.12-0.4-6.46,0.83-7.93,0.27c-0.34-0.13-2.01-3.63-3.96-4.97c2.15-0.34,3.54-1.73,3.83-1.88c0.36-0.19,0.84-0.21,1.21-0.4
			c0.04-0.02,0.26-0.54,0.54-0.67c1.9-0.91,8.91-2.02,11.96-3.49c6.16-1.2,12.17,0.88,18.14,2.15c1.88,1.17,3.98,1.89,5.91,2.96
			C94.46,19.12,94.63,19.95,96.47,20.08z"/>
		<path class="st3" d="M114.08,61.07c-0.04-0.3-0.11-0.63-0.13-0.94c-0.01-0.07,0.35-0.79,0.27-1.28c-0.3-1.8-4.84-5.18-1.08-3.9
			c0.48-0.81-8.62-13.14-11.83-14.38c3.87-1.47,6.83-4.72,8.33-8.53c0.87,0.97,0.87,0.97,1.75,1.95c3.17,7.87,4.67,13.91,5.24,22.44
			c-1.07,1.66-0.76,2.17-0.81,2.28c-0.16,0.4-1.17,0.69-1.21,0.81C114.58,59.61,115.43,59.96,114.08,61.07z"/>
		<path class="st3" d="M35.05,54.08c-0.07-0.24-0.39-0.66-0.4-0.87C34.37,48.87,36.88,38.6,39.89,35c1.49,2.47,4.22,4.78,6.99,5.58
			C41.84,43.7,38.39,49.29,35.05,54.08z"/>
	</g>
	<g>
		<path class="st4" d="M62.2,94.53c1.73,1.07,3.55,1.97,5.17,3.23c1.12,0.87,2.28,1.89,3.02,3.09c-4.88-3.17-11.69-6.23-17.54-6.45
			C55.85,93.08,59.16,93.85,62.2,94.53z"/>
		<path class="st4" d="M92.03,93.86c0.47,0.04,1.08,0.03,1.55,0.13c3.26,0.76-0.33,0.57-2.42,0.94c-4.52,0.81-9.77,3.56-13.64,6.05
			C81,96.53,86.25,93.36,92.03,93.86z"/>
		<path class="st5" d="M113.94,60.13c0.02,0.31,0.09,0.64,0.13,0.94c0.28,2.1,1.39,6.13,0.4,6.32c-0.58-5.67-2.16-7.59-1.81-7.79
			C113.3,59.86,113.3,59.86,113.94,60.13z"/>
		<g>
			<path class="st4" d="M51.45,19.68c1.96,1.35,3.62,4.84,3.96,4.97c1.47,0.56,5.81-0.67,7.93-0.27c-0.91-2.34,3.71,0.09,6.72,0.13
				c-1.65-0.71-1.65-0.71-3.29-1.41c2.35-0.29,3.2,0.45,1.88-0.94c2.09-0.57,4.88,2.08,5.17,2.08c0.27,0,2.21-2.02,4.7-2.42
				c0.17,0.17,0.17,0.17,0.34,0.34c-1.96,2.14-0.93,0.51,2.69,0.94c-5.15,2.04-3.43,1.74,1.55,0.34c1.78-0.1,2-0.63,2.02,0.94
				c1.88-0.46,6.41,0.92,7.93,0.27c0.26-0.11,1.48-2.97,3.43-4.57c4.63-3.8,14.15-2.33,14.65,4.64c0.14,1.98-0.73,5.43-1.48,7.32
				c-1.5,3.82-4.46,7.07-8.33,8.53c3.21,1.24,12.31,13.57,11.83,14.38c-3.76-1.28,0.77,2.1,1.08,3.9c0.08,0.49-0.27,1.21-0.27,1.28
				c-0.64-0.27-0.64-0.27-1.28-0.54c-0.35,0.2,1.23,2.13,1.81,7.79c1.74,16.88-9.62,22.55-24.19,25.27
				c-6.06,1.13-3.37,0.51,0.07-1.08c-4.19,0.78-9.52,2.19-12.77,5.11c-3.11,2.79,1.63-0.74,4.03-1.75c2.06-0.86,6.55-2.11,1.88,0
				c-3.49,2.38-6.92,4.97-9.54,8.33c-3.11-3.82-7.02-6.81-11.22-9.34c0.08-0.22,3.1,0.74,3.43,0.87c2.39,0.96,8.39,5.5,2.96,0.94
				c-1.48-0.87-1.48-0.87-2.96-1.75c-3.27-1.39-16.93-4.87-4.7-0.81c0.83,0.51-1.48-0.17-2.62-0.4
				c-9.42-1.93-21.85-4.97-24.73-15.66c-1.43-5.3-0.98-12.39,1.48-17.34c-0.1-0.1-0.1-0.1-0.2-0.2c-3.45,1.89-0.62-2.81,1.68-5.04
				c-3.02,0.58-1.86,0.08-2.02-0.47c3.34-4.79,6.79-10.38,11.83-13.51c-2.77-0.8-5.5-3.11-6.99-5.58
				c-2.09-3.45-3.78-10.37-1.34-13.91C41.15,17.3,47.94,17.26,51.45,19.68z"/>
			<g>
				<path class="st5" d="M90.29,92.65c-0.58,1.79,1.26,0.38,1.75,1.21c-5.79-0.5-11.03,2.67-14.51,7.12
					c-2.62,1.69-3.32,3.09-3.56,3.09c-0.2,0-2.08-2.39-2.69-2.82c-0.04-0.03-0.2,0.04-0.87-0.4c-0.74-1.21-1.9-2.23-3.02-3.09
					c-1.62-1.25-3.44-2.16-5.17-3.23c-1.9-1.06-3.6-0.31-3.36-1.75c1.14,0.23,3.45,0.91,2.62,0.4c-12.23-4.07,1.43-0.59,4.7,0.81
					c1.48,0.87,1.48,0.87,2.96,1.75c5.44,4.56-0.56,0.01-2.96-0.94c-0.33-0.13-3.35-1.09-3.43-0.87c4.21,2.53,8.11,5.52,11.22,9.34
					c2.63-3.37,6.05-5.95,9.54-8.33c4.67-2.11,0.18-0.86-1.88,0c-2.41,1-7.14,4.54-4.03,1.75c3.25-2.91,8.58-4.33,12.77-5.11
					C86.92,93.16,84.22,93.78,90.29,92.65z"/>
				<path class="st6" d="M101.98,48.97c-0.97,1.95-0.99,4.31-2.42,6.05c-0.69-1.16-0.29,0.17-0.13,0.67
					c-1.44,3.79-2.97,7.28-7.39,7.79c-1.79-0.71,0.72-1.75,0.87-1.75c0.59-0.01,2.75,2.4,0.47-0.34c0.57-0.5,0.57-0.5,1.14-1.01
					c1.14,0.59,0.19-0.04,0.2-0.34c0.01-0.24,1.57-1.27,1.08-4.64c-0.37-2.49-2.62-5.17-2.69-5.58c-0.15-0.85,0.77-1.13-0.94-2.76
					c2.24-2.57-1.94,1.01-0.74-1.61c-1.11,1.12-1.43,0.36-1.81,0.4c-4.68,0.52-7.57,5.56-6.72,9.41c-1.36-0.26-2.99-2.97-3.43-3.09
					c-1.54-0.44-0.99,1.53-3.63-1.88c-0.74,1.34-0.74,1.34-1.48,2.69c-0.4-3.83-0.27-4.99-1.21-0.67c-0.74-1.14-0.74-1.14-1.48-2.28
					c-2.69,4.75-2.58,2.25-3.76,2.42c-0.2,0.03-2.44,2.7-2.76,3.09c0.49-2.98-0.53-6.34-3.02-8.2c-0.54-0.4-3.43-1.75-3.63-1.75
					c-0.61,0.01-0.28,1.41-1.61-0.13c0.17,0.44,0.17,0.44,0.34,0.87c-0.43,1.5-4.14-2.93-1.21,0.81c-2.26,1.5-1.04,2.42-1.08,2.69
					c-0.06,0.46-3.88,4.07-2.55,8.53c0.38,1.28,1.63,1.87,0.54,2.22c2.26,0.38,1.76,1.04,0.4,2.35c-2.68-1.15-4.7-4.68-4.7-7.53
					c0-0.88,0.58-2.34-0.67,0.27c-1.22-2.05-1.36-4.45-1.88-6.72c0-0.07,0-0.07,0-0.13c0.85-1.72,1.61-3.49,2.55-5.17
					c-0.4-0.13-0.4-0.13-0.81-0.27c2.42-3.88,6.59-10.1,10.28-12.7c8.21-5.77,24.94-5.59,32.79,0.81c2.93,2.39,7.33,8.54,9.47,11.89
					c-0.4,0.07-0.4,0.07-0.81,0.13C100.53,45.27,101.23,47.13,101.98,48.97z"/>
				<path class="st6" d="M41.91,56.1c-0.83,3.36-1.26,4.64-0.54,8.27c1.17,5.86,6.11,11.26,11.09,14.31c3.84,2.35,8.3,3.7,12.3,5.78
					c2.84,1.48,5.31,2.96,7.39,5.51c1.31,1.61,1.91,3.46,2.08,3.36c0.27-1.26,1.15-3.03,1.95-4.03c1.68-2.1,5-3.79,7.39-4.97
					c2.58-1.28,6.13-2.52,8.8-3.9c10.43-5.4,17.7-13.5,13.51-25.94c1.77,3.45,2.36,5.73,2.15,9.74c-0.4,7.76-4.83,13.49-11.49,17.14
					c-7.43,4.07-17.95,4.12-22.31,12.5c-6.62-10.02-17.88-8.1-26.88-15.59c-5.63-4.69-8.01-11.2-7.06-18.48
					C40.66,56.98,42.72,52.78,41.91,56.1z"/>
				<path class="st7" d="M105.88,54.48c4.19,12.44-3.07,20.54-13.51,25.94c-2.67,1.38-6.23,2.62-8.8,3.9
					c1.89-1.16,2.77-2.43,4.17-3.9c0.44-0.47,1.14-0.78,1.75-1.75c0.01,0.18-0.06,0.7,0.07,0.81C101.28,73.3,108,66.07,103.32,52.2
					c-0.15-0.44-0.24-0.9-0.4-1.34c0.41-0.89-0.78-3.06-0.27-3.29c0.88,1.82,1.58,4.33,2.42,6.05
					C105.53,54.55,105.78,54.29,105.88,54.48z"/>
				<path class="st7" d="M46.07,48.97c-5.4,13.05-3.03,20.49,8.47,28.09c1.38,0.91,2.78,1.68,4.17,2.55
					c0.61,0.39,1.48,0.71,1.81,0.94c1.55,1.07,2.68,2.81,4.23,3.9c-3.99-2.08-8.46-3.43-12.3-5.78c-4.97-3.05-9.92-8.45-11.09-14.31
					c-0.72-3.63-0.29-4.9,0.54-8.27c0.83,0.7,2.83-5.16,3.76-7.06c0.03-0.06,0.38-0.16,0.4-0.2C46.07,48.91,46.07,48.91,46.07,48.97
					z"/>
				<g>
					<path class="st8" d="M96.87,35.8c0-0.94,0-0.94,0-1.88c1.23-3.91,3.14-11.74,8.4-12.1c7.78-0.53,3.72,12.41-1.48,15.86
						c-1.02,0.68-4.51,2.03-4.64,1.41c2.72-2.84,5.88-4.6,0.13-2.15c0.24-0.53,2.61-5.17,1.95-5.17
						C99.57,33.04,96.77,37.24,96.87,35.8z"/>
					<path class="st9" d="M96.87,33.92c0,0.94,0,0.94,0,1.88c-0.38-0.27-1.04-2.18-1.08-2.49c-0.16-1.65,0.91-4.22-0.74-0.6
						c-0.65-1.68-0.26-3.63,0.6-5.17c-0.2,0.07-0.2,0.07-0.4,0.13c-2.34,3.53-1.98,1.8-0.13-1.61c-2.23,1.79-3.21,3.17-0.94-0.67
						c1.52-2.58,4.08-5.15,7.12-5.64c-0.8,0.48-1.68,1.03-2.35,1.68c-2.58,2.49,0.38-0.03,2.82-0.54c2.18-0.45,6.51-0.28,2.02,0.13
						C98.08,22.89,96.64,28.39,96.87,33.92z"/>
				</g>
				<path class="st9" d="M58.23,87.41c6.55,2.1,11.95,4.35,15.86,10.35c3.22-5.73,9.75-8.43,15.79-10.15
					c-5.36,2.58-12.52,5.57-15.79,10.68C70.15,92.93,63.9,90.46,58.23,87.41z"/>
				<path class="st9" d="M48.15,40.78c0.03,0.17,0.03,0.17,0.07,0.34c-2.38,2.77-6.83,6.6-2.49,4.37c0.1,0.1,0.1,0.1,0.2,0.2
					c-4.4,3.66-4.4,3.66-8.8,7.32C40.56,48.73,43.43,43.75,48.15,40.78z"/>
				<path class="st9" d="M99.9,40.91c4.47,2.55,7.14,7.31,10.21,11.29c-4-3.26-4-3.26-8-6.52c-0.04-0.51,2.06,0.66,2.15,0.4
					C102.08,43.5,102.08,43.5,99.9,40.91z"/>
				<path class="st9" d="M109.44,56.77c4.35,5.55,3.92,12.5-0.27,18.01C112.08,69.16,111.59,62.55,109.44,56.77z"/>
				<path class="st5" d="M110.72,80.56c-3.18,5.1-11.01,9.41-17,9.68c5.02-1.96,13.72-5.02,16.33-10.08
					C110.24,80.4,110.28,80.82,110.72,80.56z"/>
				<path class="st9" d="M38.61,57.04c-2.4,5.59-2.07,11.93,0.27,17.47C35.07,69.59,34.28,61.89,38.61,57.04z"/>
				<path class="st5" d="M48.63,87.95c-0.39,0.08-0.26,0.43-0.4,0.81c-4.51-1.8-9.77-4.95-11.83-9.54c0.16-0.03,0.44-0.26,0.47-0.27
					c0.26-0.04,0.33,0.7,0.34-0.27C38.38,82.92,44.87,86.27,48.63,87.95z"/>
				<path class="st10" d="M102.92,50.85c0.16,0.44,0.26,0.91,0.4,1.34c-0.75,1.67-1.22,3.44-3.23,3.9
					c-0.03-0.06-0.51-1.02-0.54-1.08c1.43-1.74,1.45-4.09,2.42-6.05C102.19,49.49,102.7,50.27,102.92,50.85z"/>
				<path class="st9" d="M110.72,80.56c-0.43,0.26-0.48-0.15-0.67-0.4c1.93-3.74,0.52-1.74-1.01-0.4c-3.11,2.72,0.93-1.24,2.22-3.56
					c0.32-0.57,0.99-1.96,1.21-2.55c0.77-2.03,1.19-4.68,0.67,0.13C112.86,76.36,112.07,78.39,110.72,80.56z"/>
				<path class="st9" d="M37.2,78.67c0,0.97-0.08,0.23-0.34,0.27c-0.03,0-0.31,0.24-0.47,0.27c-1.08-2.42-1.63-5.43-1.41-8.06
					c0.37,1.54,0.84,3.08,1.55,4.5c1.29,2.61,5.6,7.22,0.6,2.35C37.06,78.02,37.16,78.52,37.2,78.67z"/>
				<path class="st9" d="M48.63,87.95c1.79,0.8,3.66,1.45,5.51,2.08c-2.19,0.37-3.98-0.51-5.91-1.28
					C48.36,88.38,48.24,88.03,48.63,87.95z"/>
				<path class="st11" d="M105.94,52.06c2.49,1.15,4.83,2.72,5.98,5.31C108.93,54.72,108.93,54.72,105.94,52.06z"/>
				<path class="st12" d="M41.44,52.2c0.1,0.1,0.1,0.1,0.2,0.2c-1.98,1.45-3.81,3.21-5.31,5.17C37.05,55,39.26,53.57,41.44,52.2z"/>
				<path class="st5" d="M92.1,26.26c0.73-0.16-0.24,0.81-0.94,2.02c-0.15-1.62-1.6-0.6-3.96-1.28
					C88.84,26.82,90.53,26.86,92.1,26.26z"/>
				<path class="st9" d="M86.59,25.32c0.64,0.03,2.6,0.24,0.94,0.67C85.14,26.61,80.57,26.35,86.59,25.32z"/>
				<path class="st11" d="M59.58,25.45c6.18,0.27,5.5,0.91-0.54,0.4C58.57,25.42,59.15,25.76,59.58,25.45z"/>
				<path class="st5" d="M56.35,26.4c2.05,0.37,2.05,0.37,4.1,0.74C57.92,26.83,56.74,28.2,56.35,26.4z"/>
				<path class="st12" d="M64.95,25.05c1.51,0.17,1.51,0.17,3.02,0.34C67.1,25.88,65.62,25.86,64.95,25.05z"/>
				<path class="st13" d="M57.02,28.28c0.1,0.03,0.1,0.03,0.2,0.07C55.9,30.6,54.84,28.87,57.02,28.28z"/>
				<path class="st14" d="M82.29,25.05c3.37-0.43-1.62,0.84-1.68,0.6C80.58,25.54,82.15,25.07,82.29,25.05z"/>
				<path class="st15" d="M57.16,27.6c0.17,0.1,0.17,0.1,0.34,0.2C57.62,28.38,57.02,27.99,57.16,27.6z"/>
				<g>
					<path class="st8" d="M41.44,21.83c6.92-1.17,9.6,10.18,9.07,15.25c-3.92-5.12-6.03-7.7-2.15-0.4
						c-1.61-0.47-1.61-0.47-3.23-0.94c1.58,1.32,6.94,5.22,1.14,3.16C39.4,36.45,35.73,22.79,41.44,21.83z"/>
					<path class="st9" d="M51.58,35.27c-0.13-0.07-0.13-0.07-0.27-0.13c0.24-6.25-0.28-11.32-6.79-13.98
						c-5.48-0.6,2.02-1.41,5.64,1.61c-0.36-1.25-5.24-4.37-1.08-2.28c2.16,1.08,5.5,4.82,5.78,7.26c-3.96-3.89-0.73-0.69-0.07,1.68
						c-4.11-4.48-0.33,0.09-1.21,2.55c-0.1,0.1-0.1,0.1-0.2,0.2C51.16,29.42,53.53,30.9,51.58,35.27z"/>
					<path class="st16" d="M51.58,35.27c-0.29,0.64-0.31,0.82-0.27-0.13C51.45,35.2,51.45,35.2,51.58,35.27z"/>
				</g>
				<path class="st17" d="M47.95,55.69c-4.04,8.43,2.92,12.86,7.12,16.53c-0.51,1.04-1.23-0.51-1.21,0.34
					c2.72,2.32,2.72,2.32,5.44,4.64c0.8-0.56-0.73-1.88-1.95-3.09c0.87,0.43,1.6,1.47,2.28,2.15c0.12,0.97-0.04,1.49-0.27,2.28
					c-1.93-0.79-3.63-2.02-5.31-3.23c-0.85,0,0.28,0.4,0.47,1.75c-11.49-7.6-13.87-15.03-8.47-28.09
					C46.59,51.24,46.73,53.65,47.95,55.69z"/>
				<path class="st17" d="M90.56,71.42c-1.28-0.2-1.28-0.2-2.55-0.4c0.26-1.08,0.32-1.59,0.4-2.69c0.28-3.86-0.34-4.61-0.27-4.84
					c1.16-0.04,2.33,0.06,3.49,0c0.15-0.01,0.28,0.27,0.34,0.27c0.11-0.01,0.05-0.27,0.07-0.27c4.42-0.51,5.95-4.01,7.39-7.79
					c0.16,0.54,0.59,1.25,0.67,1.81C101.12,64.72,95.35,67.62,90.56,71.42z"/>
				<path class="st17" d="M53.33,62.95c0.06,0.02,0.21-0.02,0.27,0c0.68,0.28,1.69,0.65,2.42,0.67c0.42,0.02,0.18,0.03,0.54-0.13
					c0.48,0.06,2.23-0.22,2.15-0.4c0.43,0.1,1.14,0.13,1.21,0.34c0.03,0.08-0.26,0.82-0.27,1.68c-0.03,2.77,0.05,4.77,1.08,7.39
					c-0.45,0.07-0.47-0.93-0.54-1.01c-0.13-0.15-3.45-1.73-3.76-1.01c-4.97-4.27-10.86-7.04-7.79-15.05
					C48.63,58.27,50.65,61.8,53.33,62.95z"/>
				<path class="st7" d="M48.63,55.42c-3.06,8.01,2.82,10.78,7.79,15.05c1.38,1.19,3.92,3.1,4.84,4.03c0.46,0.47,0.38,0.64,0.4,0.67
					c-0.24,1.51-3.81-2.11-5.24-2.02c-0.36-0.32-0.98-0.62-1.34-0.94c-4.21-3.67-11.16-8.1-7.12-16.53
					C49.2,53.09,48.62,54.55,48.63,55.42z"/>
				<path class="st7" d="M99.56,55.02c0.03,0.05,0.51,1.01,0.54,1.08c2.22,5.31,0.62,9.44-3.36,13.17
					c-2.11,1.97-4.71,3.44-6.85,5.38c-0.96-0.57-2.35,0.84-3.09,0c0.12-0.18,0.3-0.47,0.4-0.67c0.71,0.05,2.46-1.84,3.36-2.55
					c4.79-3.8,10.56-6.69,9.54-13.91c-0.08-0.56-0.51-1.28-0.67-1.81C99.28,55.19,98.87,53.86,99.56,55.02z"/>
				<path class="st18" d="M69.59,85.66c2.31,1.62,1.45,0.66,1.21-0.54c-0.1-0.51-0.28-1.02-0.27-1.55c0.25-0.21,0.42,0.06,0.54,0.07
					c0.36,0.65,0.65,1.33,0.94,2.02c-1,1.31,0.57,2.91,0.13,4.3c-2.08-2.55-4.55-4.03-7.39-5.51c-1.55-1.09-2.68-2.83-4.23-3.9
					c-0.34-0.23-1.2-0.55-1.81-0.94c0.53-0.01,0.57-0.7,0.67-1.08c0.23-0.8,0.38-1.31,0.27-2.28
					C61.37,77.97,68.36,84.79,69.59,85.66z"/>
				<path class="st18" d="M87.73,80.42c-1.4,1.47-2.27,2.73-4.17,3.9c-2.39,1.18-5.71,2.87-7.39,4.97c0.29-1.26,1.1-2.28,1.75-3.36
					c-0.01,0.13,0.11,0.18,0.2,0.13c0.29-0.15,3.1-2.67,3.7-3.23c0.75,0.79,4.34-3.47,4.97-4.84c0.09-0.08,0.17-0.18,0.27-0.27
					C87.4,79.08,87.4,79.08,87.73,80.42z"/>
				<path class="st18" d="M79,83.92c-0.37,0.51-0.73,1.45-1.08,2.02c-0.64,1.08-1.46,2.1-1.75,3.36c-0.8,1.01-1.68,2.77-1.95,4.03
					c-0.17,0.1-0.77-1.75-2.08-3.36c0.43-1.39-1.13-2.99-0.13-4.3c0.7,1.63,1.18,3.36,1.88,4.97c0.1,0.23,0.2,0.67,0.34,0.67
					c0.24,0.01,1.64-4,1.81-4.5c0.24-0.71,0.09-2.56,0.87-1.01C77.71,85.07,78.55,83.38,79,83.92z"/>
				<path class="st17" d="M89.48,78.67c0-0.04,0.26-0.16,0.13-0.74c-0.01-0.07-0.75-0.75-0.67-1.21c0.13-0.7,8.04-5.62,7.79-7.46
					c3.98-3.73,5.58-7.86,3.36-13.17c2.01-0.45,2.48-2.23,3.23-3.9c4.68,13.87-2.05,21.1-13.78,27.28
					C89.42,79.38,89.49,78.86,89.48,78.67z"/>
				<path class="st19" d="M89.48,78.67c-0.61,0.97-1.3,1.28-1.75,1.75c-0.34-1.34-0.34-1.34-0.67-2.69
					c0.56-0.53,1.83-2.19,2.82-3.09c2.14-1.94,4.74-3.4,6.85-5.38c0.25,1.84-7.67,6.76-7.79,7.46c-0.08,0.46,0.66,1.14,0.67,1.21
					C89.74,78.52,89.48,78.64,89.48,78.67z"/>
				<path class="st19" d="M59.38,78.54c-0.11,0.37-0.14,1.07-0.67,1.08c-1.38-0.88-2.78-1.64-4.17-2.55
					c-0.19-1.34-1.32-1.74-0.47-1.75C55.74,76.52,57.45,77.75,59.38,78.54z"/>
				<path class="st20" d="M61.66,75.18c2.14,2.14,5.09,6.08,9.61,7.26c6.01,1.57,12.27-3,15.52-7.79c0.74,0.84,2.13-0.57,3.09,0
					c-0.99,0.9-2.26,2.56-2.82,3.09c-0.1,0.09-0.18,0.19-0.27,0.27c-1.68,1.59-3.29,3.27-4.97,4.84c-0.59,0.55-3.41,3.07-3.7,3.23
					c-0.09,0.05-0.22-0.01-0.2-0.13c0.34-0.57,0.7-1.5,1.08-2.02c0.44-0.61,2.66-2.51,1.81-2.28c-1.8,2.45-5.61,2.47-8.4,2.28
					c-0.07,0-0.19-0.25-1.34-0.27c-0.11,0-0.29-0.28-0.54-0.07c-0.01,0.53,0.17,1.04,0.27,1.55c-0.49,0.41-1.13-1.81-1.95-2.42
					c-2.69-1.37-0.47,0.43,0.74,2.96c-1.24-0.87-8.22-7.7-9.95-9.41c-0.68-0.68-1.41-1.72-2.28-2.15c-0.32-0.31-0.61-0.64-0.94-0.94
					C57.86,73.07,61.42,76.69,61.66,75.18z"/>
				<path class="st17" d="M55.08,72.22c0.37,0.32,0.99,0.62,1.34,0.94c0.34,0.3,0.62,0.63,0.94,0.94c1.22,1.21,2.74,2.53,1.95,3.09
					c-2.72-2.32-2.72-2.32-5.44-4.64C53.84,71.71,54.57,73.26,55.08,72.22z"/>
				<path class="st19" d="M90.56,71.42c-0.9,0.72-2.65,2.61-3.36,2.55c0.16-0.29,0.45-0.73,0.13-0.81c0.34-0.71,0.49-1.39,0.67-2.15
					C89.28,71.22,89.28,71.22,90.56,71.42z"/>
				<path class="st9" d="M91.63,63.49c-1.16,0.06-2.33-0.04-3.49,0C88.19,63.31,91.12,62.38,91.63,63.49z"/>
				<path class="st21" d="M60.72,72.49c0.2,0.5,0.39,1.02,0.67,1.48c-0.07,0.27-0.07,0.27-0.13,0.54c-0.92-0.93-3.46-2.85-4.84-4.03
					c0.31-0.73,3.63,0.85,3.76,1.01C60.25,71.56,60.27,72.57,60.72,72.49z"/>
				<path class="st6" d="M56.02,63.62c-0.72-0.03-1.74-0.4-2.42-0.67c1.62-1.64,1.33-0.98,3.23-0.2
					C56.42,63.19,56.42,63.19,56.02,63.62z"/>
				<path class="st9" d="M58.7,63.08c0.08,0.19-1.67,0.46-2.15,0.4C57.35,63.11,56.76,62.64,58.7,63.08z"/>
				<path class="st7" d="M72.41,83.92c0.67,2.19,1.26,4.43,1.48,6.72c-0.7-1.61-1.18-3.35-1.88-4.97c-0.29-0.68-0.58-1.36-0.94-2.02
					C72.22,83.67,72.34,83.91,72.41,83.92z"/>
				<path class="st22" d="M70.8,85.13c0.24,1.2,1.1,2.16-1.21,0.54c-1.21-2.53-3.43-4.33-0.74-2.96
					C69.67,83.32,70.31,85.54,70.8,85.13z"/>
				<path class="st22" d="M81.82,82.84c1.68-1.57,3.3-3.25,4.97-4.84C86.16,79.37,82.57,83.63,81.82,82.84z"/>
				<path class="st22" d="M79,83.92c-0.45-0.54-1.28,1.15-2.08,1.88c-0.78-1.55-0.63,0.3-0.87,1.01c-0.17,0.5-1.57,4.51-1.81,4.5
					c-0.13,0-0.23-0.44-0.34-0.67c-0.22-2.29-0.8-4.53-1.48-6.72c2.79,0.18,6.6,0.17,8.4-2.28C81.66,81.41,79.44,83.3,79,83.92z"/>
				<g>
					<path class="st9" d="M82.9,55.29c0.06,0.27,2.09,2.34,2.96,4.7c0.6,1.65,1,3.63,1.08,5.38c0.33,7.5-3.45,12.22-11.29,11.22
						c0.03-0.3,0.03-0.3,0.07-0.6c4.54,2,6.16-2.66,5.98-6.32c-0.57-11.41-14.87-11.42-15.19,0c-0.1,3.69,1.4,8.41,5.85,6.18
						c0.03,0.37,0.03,0.37,0.07,0.74c-0.48,0.82-11.98,1.15-11.29-11.49c0.07-1.34,0.7-3.98,1.21-5.24c0.65-1.63,1.72-2.95,2.82-4.3
						c0.32-0.39,2.55-3.06,2.76-3.09c1.18-0.17,1.07,2.33,3.76-2.42c0.74,1.14,0.74,1.14,1.48,2.28c0.94-4.32,0.81-3.16,1.21,0.67
						c0.74-1.34,0.74-1.34,1.48-2.69c2.64,3.41,2.09,1.45,3.63,1.88C79.9,52.32,81.53,55.03,82.9,55.29z"/>
					<path class="st23" d="M95.8,55.42c0.49,3.36-1.06,4.39-1.08,4.64c-0.02,0.29,0.94,0.92-0.2,0.34c-0.57,0.5-0.57,0.5-1.14,1.01
						c2.28,2.74,0.11,0.33-0.47,0.34c-0.15,0-2.66,1.04-0.87,1.75c-0.01,0,0.04,0.26-0.07,0.27c-0.05,0-0.19-0.28-0.34-0.27
						c-0.51-1.11-3.44-0.18-3.49,0c-0.07,0.23,0.55,0.98,0.27,4.84c-0.68-0.74-0.75-2.47-1.48-2.96c-0.08-1.75-0.47-3.73-1.08-5.38
						c0.39,0.06,0.46-0.42,0.67-0.54c0.95-0.55,6.3-1.94,6.85-5.64C94.82,54.18,94.87,56.09,95.8,55.42z"/>
					<path class="st23" d="M89.62,45.88c0.43,0.38,2.46,1.7,2.55,1.21c1.71,1.63,0.79,1.9,0.94,2.76c0.07,0.41,2.32,3.08,2.69,5.58
						c-0.93,0.67-0.97-1.25-2.42-1.61c0.58-3.91-4.74-7.77-7.39-3.83c-1.95,2.89,0.71,6.29,0.54,9.47c-0.21,0.12-0.28,0.6-0.67,0.54
						c-0.86-2.36-2.9-4.43-2.96-4.7C82.04,51.44,84.94,46.4,89.62,45.88z"/>
					<path class="st7" d="M92.17,47.09c-0.09,0.49-2.12-0.83-2.55-1.21c0.39-0.04,0.7,0.72,1.81-0.4
						C90.23,48.1,94.41,44.52,92.17,47.09z"/>
					<path class="st13" d="M81.69,69.67c-5.46,0.29-7.18,2.91-7.59,2.96c-0.41,0.04-1.91-2.5-7.59-2.96
						C66.82,58.25,81.12,58.26,81.69,69.67z"/>
					<path class="st11" d="M87.2,73.97c-0.11,0.2-0.28,0.49-0.4,0.67c-3.25,4.79-9.51,9.36-15.52,7.79
						c-4.52-1.18-7.47-5.12-9.61-7.26c-0.03-0.03,0.05-0.21-0.4-0.67c0.07-0.27,0.07-0.27,0.13-0.54c1.92,3.05,5.31,3.8,5.58,4.03
						c0.24,0.21,1.29,2.91,5.11,3.63c6.36,1.2,8.46-3.32,8.87-3.63c0.33-0.25,4.58-1.1,6.38-4.84
						C87.64,73.24,87.35,73.68,87.2,73.97z"/>
					<g>
						<path class="st20" d="M61.12,65.1c-0.69,12.64,10.8,12.31,11.29,11.49c-0.03-0.37-0.03-0.37-0.07-0.74
							c-4.45,2.23-5.95-2.49-5.85-6.18c5.69,0.45,7.18,3,7.59,2.96c0.41-0.04,2.13-2.67,7.59-2.96c0.18,3.66-1.44,8.31-5.98,6.32
							c-0.03,0.3-0.03,0.3-0.07,0.6c7.84,1,11.62-3.72,11.29-11.22c0.73,0.49,0.8,2.22,1.48,2.96c-0.08,1.1-0.15,1.61-0.4,2.69
							c-0.18,0.76-0.33,1.44-0.67,2.15c-1.81,3.74-6.06,4.59-6.38,4.84c-0.41,0.31-2.51,4.83-8.87,3.63
							c-3.82-0.72-4.86-3.41-5.11-3.63c-0.26-0.23-3.66-0.98-5.58-4.03c-0.29-0.45-0.48-0.98-0.67-1.48
							c-1.03-2.62-1.11-4.62-1.08-7.39C60.38,65.1,60.38,65.1,61.12,65.1z"/>
						<path class="st24" d="M73.96,78.27c0.58,0,2.84,0.43,4.77,0.34c-1.88,1.75-4.48,2.11-6.92,1.55c-4.58-2.2-2.7-1.31,0.4-1.48
							C72.61,78.65,73.77,78.27,73.96,78.27z"/>
					</g>
					<g>
						<path class="st23" d="M65.16,55.56c-1.1,1.35-2.17,2.67-2.82,4.3c-0.62,0.48-0.6-0.15-0.81-0.27c0.1-4.23,2.68-6.32,0.94-9.34
							c-2.67-4.66-9.24,0.2-7.12,4.91c-1.52,0.67-2.19,3.12-2.96,3.23c-1.32-4.47,2.49-8.07,2.55-8.53
							c0.04-0.27-1.19-1.18,1.08-2.69c-2.93-3.74,0.78,0.69,1.21-0.81c-0.17-0.44-0.17-0.44-0.34-0.87c1.33,1.54,1,0.14,1.61,0.13
							c0.2,0,3.09,1.34,3.63,1.75C64.62,49.22,65.64,52.58,65.16,55.56z"/>
						<path class="st23" d="M55.34,55.16c1.14,2.53,3.96,3.18,6.18,4.43c0.2,0.12,0.18,0.75,0.81,0.27c-0.5,1.27-1.14,3.9-1.21,5.24
							c-0.74,0-0.74,0-1.48,0c0.01-0.86,0.3-1.6,0.27-1.68c-0.07-0.21-0.78-0.24-1.21-0.34c-1.95-0.44-1.36,0.03-2.15,0.4
							c-0.36,0.17-0.12,0.15-0.54,0.13c0.4-0.44,0.4-0.44,0.81-0.87c-1.89-0.78-1.61-1.44-3.23,0.2c-0.06-0.02-0.21,0.02-0.27,0
							c1.36-1.31,1.86-1.97-0.4-2.35c1.1-0.34-0.16-0.93-0.54-2.22C53.16,58.27,53.82,55.83,55.34,55.16z"/>
						<g>
							<path class="st20" d="M61.53,59.59c-2.22-1.26-5.04-1.9-6.18-4.43c-2.11-4.7,4.45-9.56,7.12-4.91
								C64.2,53.27,61.63,55.36,61.53,59.59z"/>
							<path class="st5" d="M58.64,49.38c2.49-0.5,4.09,2.17,3.7,4.37c-0.47,0.85-0.14-0.38-0.4-1.21c-1.44-4.49-5.88-2.52-4.5,2.62
								C55.28,53.77,56.77,49.75,58.64,49.38z"/>
							<path class="st25" d="M59.58,50.59c0.44,0.24,0.44,0.24,0.87,0.47C60.62,53.65,57.21,51.61,59.58,50.59z"/>
						</g>
					</g>
					<g>
						<path class="st20" d="M93.38,53.81c-0.55,3.7-5.9,5.1-6.85,5.64c0.17-3.18-2.48-6.59-0.54-9.47
							C88.64,46.04,93.96,49.91,93.38,53.81z"/>
						<path class="st5" d="M88.34,49.38c2.98-0.54,4.74,3.55,2.42,5.38c1.29-5.47-3.52-6.2-4.5-1.81c-0.15,0.68,0.25,1.92-0.27,1.08
							C85.46,52.44,86.63,49.69,88.34,49.38z"/>
						<path class="st25" d="M88.61,50.72c2.82,0.23-0.23,3.23-0.47,0.34C88.37,50.89,88.37,50.89,88.61,50.72z"/>
					</g>
				</g>
			</g>
		</g>
	</g>
</g>
<g>
	<path class="st31" d="M29.05,90.34c0-1.27,1.04-2.31,2.31-2.31h52.4c0.46,0,0.84,0.38,0.84,0.84c0,0.46-0.38,0.84-0.84,0.84h-52.4
		c-0.34,0-0.62,0.28-0.62,0.62v32.54h53.03l-3.35-6.64l2.2-2.25l-1.17-3.09l27.79-25.92H27.87c-1.06,0-1.92,0.86-1.92,1.92v34.06
		c0,1.06,0.86,1.92,1.92,1.92h1.18V90.34z M91.82,88.03h9.1c0.47,0,0.84,0.38,0.84,0.84c0,0.46-0.38,0.84-0.84,0.84h-9.1
		c-0.46,0-0.84-0.38-0.84-0.84C90.97,88.41,91.35,88.03,91.82,88.03L91.82,88.03z M86.48,88.03h2.41c0.46,0,0.84,0.38,0.84,0.84
		c0,0.46-0.38,0.84-0.84,0.84h-2.41c-0.47,0-0.84-0.38-0.84-0.84C85.64,88.41,86.02,88.03,86.48,88.03L86.48,88.03z"/>
	<path class="st32" d="M136.84,111.07l-17.68-28.2c-0.64-1.02-2.06-1.22-2.96-0.41l-32.26,29.12c-0.87,0.79-1.04,2.09-0.41,3.07
		c0.22,0.34,0.47,0.72,0.73,1.13c-1.04,0.89-2.68,2.54-2.02,3.6c0.94,1.51,4.34,8.83,6.83,7.23c0.35-0.23,0.94-0.52,1.57-0.81
		c1.29,1.59,2.29,2.02,3.24,1.74c0.63,4.06,12.7,11.47,14.8,12.13c2.1,0.66,4.4-0.77,2.23-2.7c-2.39-1.56-5.4-6.71-6.74-9.16
		c-0.38-0.69-0.06-1.56,0.67-1.84l31.06-12.06C137.04,113.47,137.5,112.1,136.84,111.07L136.84,111.07z"/>
	<path class="st28" d="M110.87,94.53c1.74,0,3.17,0.23,4.28,0.68c1.11,0.45,1.98,1,2.6,1.65c0.62,0.65,1.02,1.33,1.21,2.03
		c0.19,0.7,0.23,1.31,0.12,1.81c-0.19,0.9-0.54,1.69-1.05,2.38c-0.52,0.68-1.09,1.3-1.72,1.86c-0.63,0.55-1.27,1.07-1.92,1.56
		c-0.65,0.48-1.22,0.98-1.7,1.51c-0.29,0.31-0.52,0.54-0.68,0.69c-0.16,0.15-0.37,0.22-0.65,0.22h-6.73c-0.17,0-0.3-0.06-0.39-0.17
		c-0.09-0.11-0.12-0.25-0.08-0.39c0.02-0.04,0.04-0.08,0.05-0.13c0.01-0.04,0.03-0.08,0.05-0.13c0.31-0.75,0.8-1.44,1.46-2.06
		c0.66-0.62,1.33-1.19,2.01-1.7c0.68-0.51,1.29-0.99,1.83-1.43c0.53-0.44,0.84-0.85,0.93-1.23c0.06-0.31,0.01-0.56-0.14-0.74
		c-0.16-0.18-0.39-0.27-0.71-0.27c-0.57,0-0.98,0.1-1.24,0.3c-0.26,0.2-0.49,0.42-0.68,0.68c-0.19,0.25-0.38,0.48-0.57,0.68
		c-0.19,0.2-0.48,0.3-0.88,0.3h-5.86c-0.25,0-0.42-0.11-0.52-0.32c-0.09-0.21-0.12-0.43-0.08-0.66c0.19-0.8,0.53-1.62,1.02-2.45
		c0.49-0.84,1.18-1.61,2.06-2.3c0.88-0.69,1.97-1.26,3.27-1.7C107.48,94.76,109.05,94.53,110.87,94.53L110.87,94.53z M110.46,110.18
		c0.23,0,0.41,0.08,0.53,0.25c0.13,0.17,0.17,0.37,0.13,0.6l-1.07,5.01c-0.04,0.23-0.17,0.43-0.36,0.6
		c-0.2,0.17-0.41,0.25-0.64,0.25h-5.76c-0.23,0-0.42-0.08-0.55-0.25c-0.14-0.17-0.19-0.37-0.14-0.6l1.07-5.01
		c0.04-0.23,0.17-0.43,0.38-0.6c0.21-0.17,0.43-0.25,0.66-0.25H110.46z"/>
	<g>
		<path class="st29" d="M140.68,105.78c-0.01,0-0.02,0-0.03,0l-5.54-0.17c-0.46-0.01-0.83-0.4-0.82-0.87
			c0.02-0.47,0.41-0.82,0.87-0.82l5.54,0.17c0.46,0.01,0.83,0.4,0.82,0.87C141.5,105.42,141.13,105.78,140.68,105.78L140.68,105.78z
			"/>
		<path class="st29" d="M134.3,99.9c-0.36,0-0.7-0.24-0.81-0.6c-0.13-0.45,0.12-0.92,0.57-1.05l5.32-1.57
			c0.45-0.13,0.92,0.12,1.05,0.57c0.13,0.45-0.12,0.91-0.57,1.05l-5.31,1.57C134.46,99.89,134.38,99.9,134.3,99.9L134.3,99.9z"/>
		<path class="st29" d="M131.99,94.75c-0.29,0-0.56-0.15-0.72-0.41c-0.24-0.4-0.11-0.92,0.29-1.16l4.75-2.86
			c0.4-0.24,0.92-0.11,1.16,0.29c0.24,0.4,0.11,0.92-0.29,1.15l-4.75,2.86C132.29,94.71,132.14,94.75,131.99,94.75L131.99,94.75z"/>
		<path class="st29" d="M128.31,90.8c-0.21,0-0.42-0.08-0.58-0.23c-0.34-0.32-0.35-0.86-0.02-1.19l3.85-3.99
			c0.32-0.34,0.86-0.35,1.19-0.02c0.34,0.32,0.35,0.86,0.02,1.19l-3.84,3.99C128.76,90.72,128.53,90.8,128.31,90.8L128.31,90.8z"/>
		<path class="st29" d="M124.33,87.97c-0.13,0-0.27-0.03-0.39-0.1c-0.41-0.22-0.56-0.73-0.35-1.14l2.6-4.9
			c0.22-0.41,0.73-0.56,1.14-0.35c0.41,0.22,0.57,0.73,0.35,1.14l-2.6,4.9C124.92,87.81,124.63,87.97,124.33,87.97L124.33,87.97z"/>
		<path class="st29" d="M70.18,125.65H31.47c-0.38,0-0.68-0.31-0.68-0.68c0-0.38,0.31-0.68,0.68-0.68h38.71
			c0.38,0,0.68,0.31,0.68,0.68C70.87,125.35,70.56,125.65,70.18,125.65L70.18,125.65z"/>
		<path class="st29" d="M77.86,125.65h-2.3c-0.38,0-0.68-0.31-0.68-0.68c0-0.38,0.31-0.68,0.68-0.68h2.3c0.38,0,0.68,0.31,0.68,0.68
			C78.54,125.35,78.24,125.65,77.86,125.65L77.86,125.65z"/>
	</g>
	<path class="st28" d="M126.45,108.01c-0.15,0-0.3-0.08-0.39-0.21l-1.44-2.32c-0.14-0.21-0.07-0.49,0.14-0.63
		c0.22-0.14,0.49-0.07,0.63,0.15l1.44,2.32c0.13,0.22,0.06,0.5-0.15,0.63C126.62,107.99,126.54,108.01,126.45,108.01L126.45,108.01z
		 M123.81,103.76c-0.15,0-0.3-0.08-0.39-0.22l-1.44-2.32c-0.13-0.21-0.07-0.49,0.15-0.62c0.21-0.14,0.5-0.07,0.63,0.15l1.45,2.32
		c0.13,0.21,0.06,0.49-0.15,0.63C123.97,103.74,123.89,103.76,123.81,103.76L123.81,103.76z M121.16,99.51
		c-0.15,0-0.3-0.08-0.39-0.21l-1.44-2.32c-0.13-0.21-0.07-0.49,0.15-0.63c0.21-0.14,0.49-0.07,0.63,0.15l1.44,2.32
		c0.13,0.22,0.07,0.5-0.15,0.63C121.32,99.49,121.24,99.51,121.16,99.51L121.16,99.51z M118.51,95.26c-0.15,0-0.3-0.08-0.39-0.22
		l-1.44-2.32c-0.14-0.22-0.07-0.49,0.15-0.63c0.21-0.14,0.49-0.07,0.63,0.15l1.44,2.32c0.13,0.21,0.07,0.49-0.15,0.63
		C118.68,95.23,118.59,95.26,118.51,95.26L118.51,95.26z"/>
	<g>
		<path class="st26" d="M92.53,128.79c-0.89,0-1.74-0.45-2.23-1.23l-9.23-14.72c-0.66-1.05-0.49-2.44,0.41-3.29l0.02-0.02
			l29.89-27.03c0.57-0.54,1.35-0.8,2.13-0.7c0.79,0.1,1.48,0.54,1.9,1.21l16.69,26.61c0.42,0.67,0.52,1.49,0.26,2.24
			c-0.25,0.75-0.82,1.34-1.56,1.61l-37.37,15.15C93.14,128.74,92.83,128.79,92.53,128.79L92.53,128.79z M82.63,110.78
			c-0.31,0.31-0.37,0.8-0.14,1.17l9.23,14.71c0.23,0.38,0.7,0.54,1.12,0.39l37.37-15.15c0.26-0.1,0.47-0.31,0.56-0.58
			c0.09-0.27,0.06-0.56-0.09-0.81l-16.69-26.61c-0.15-0.24-0.4-0.4-0.68-0.44c-0.28-0.04-0.56,0.06-0.77,0.25l-0.02,0.02
			L82.63,110.78z"/>
		<path class="st26" d="M87.92,127.65c-0.2,0-0.4-0.02-0.6-0.07c-0.69-0.16-1.28-0.58-1.66-1.18l-5.49-8.75
			c-0.38-0.61-0.5-1.32-0.34-2.01c0.16-0.69,0.58-1.28,1.18-1.66l1.98-1.24L91.3,126l-1.98,1.24
			C88.89,127.51,88.41,127.65,87.92,127.65L87.92,127.65z M82.45,115.06l-0.55,0.35c-0.22,0.14-0.38,0.35-0.43,0.61
			c-0.06,0.25-0.01,0.51,0.12,0.74l5.49,8.75c0.14,0.22,0.35,0.37,0.61,0.43c0.25,0.06,0.52,0.01,0.74-0.12l0.55-0.35L82.45,115.06z
			"/>
		<path class="st26" d="M109.66,140.81c-0.51,0-1.01-0.15-1.45-0.44l-10.99-7.36c-1.04-0.7-1.91-1.59-2.57-2.65l-1.37-2.18l1.43-0.9
			l1.37,2.18c0.54,0.86,1.24,1.58,2.08,2.15l10.98,7.36c0.3,0.2,0.69,0.21,0.99,0.02c0.24-0.15,0.39-0.39,0.42-0.67
			c0.03-0.28-0.06-0.55-0.26-0.75c-3.43-3.47-9-9.89-7.74-13.86l1.61,0.51c-0.84,2.65,3.43,8.21,7.34,12.16
			c0.56,0.56,0.82,1.34,0.74,2.13c-0.09,0.79-0.53,1.48-1.2,1.9C110.62,140.68,110.14,140.81,109.66,140.81L109.66,140.81z"/>
		<path class="st26" d="M121.43,135.26c-1.65,0-2.99-1.34-2.99-3c0-1.65,1.34-2.99,2.99-2.99c1.65,0,3,1.34,3,2.99
			C124.43,133.91,123.08,135.26,121.43,135.26L121.43,135.26z M121.43,130.52c-0.96,0-1.74,0.78-1.74,1.74
			c0,0.96,0.78,1.75,1.74,1.75c0.96,0,1.75-0.78,1.75-1.75C123.18,131.3,122.39,130.52,121.43,130.52L121.43,130.52z"/>
	</g>
	<path class="st27" d="M17.53,107.86c-0.16,0-0.32-0.06-0.44-0.18c-0.24-0.24-0.24-0.64,0-0.88l2.14-2.14c0.33-0.33,0.87-0.33,1.2,0
		l1.64,1.64l1.9-1.9c0.33-0.33,0.87-0.33,1.2,0l1.9,1.9l1.98-1.98c0.32-0.32,0.88-0.32,1.21,0l1.9,1.9l1.84-1.84
		c0.25-0.24,0.64-0.24,0.88,0c0.24,0.24,0.24,0.64,0,0.88l-2.12,2.12c-0.33,0.33-0.87,0.33-1.21,0l-1.9-1.9l-1.98,1.99
		c-0.33,0.33-0.87,0.33-1.2,0l-1.9-1.9l-1.9,1.9c-0.33,0.33-0.87,0.33-1.2,0l-1.64-1.64l-1.86,1.86
		C17.85,107.8,17.69,107.86,17.53,107.86L17.53,107.86z"/>
</g>
<g>
	<path class="st30" d="M43.75,113.59c0,1.38-0.38,2.57-1.13,3.57c-0.77,1.02-1.81,1.68-3.14,1.97c0.26,0.53,0.65,1.02,1.16,1.46
		c0.05,0.04,0.07,0.07,0.07,0.1c0,0.21-0.64,0.31-1.91,0.31c-0.94,0-1.52-0.04-1.73-0.11c-0.12-0.04-0.19-0.14-0.23-0.29
		c-0.06-0.3-0.08-0.8-0.06-1.51c-1.27-0.32-2.28-0.99-3.03-2.01c-0.73-0.99-1.09-2.16-1.09-3.49c0-1.62,0.52-2.98,1.56-4.08
		c1.06-1.13,2.39-1.69,3.99-1.69c1.59,0,2.92,0.57,3.98,1.7C43.23,110.62,43.75,111.98,43.75,113.59z M40.8,113.57
		c0-0.8-0.23-1.47-0.69-2c-0.49-0.56-1.12-0.84-1.91-0.84c-0.81,0-1.45,0.28-1.92,0.83c-0.45,0.53-0.68,1.2-0.68,2.03
		c0,0.84,0.22,1.52,0.66,2.03c0.46,0.54,1.11,0.81,1.94,0.81c0.8,0,1.44-0.28,1.92-0.83C40.58,115.06,40.8,114.39,40.8,113.57z"/>
	<path class="st30" d="M57.38,115.22c0,1.33-0.16,2.23-0.47,2.71c-0.58,0.88-2.03,1.33-4.35,1.33c-1.05,0-1.85-0.08-2.42-0.24
		c-0.9-0.26-1.49-0.76-1.76-1.49c-0.13-0.36-0.2-1-0.2-1.92c0-0.21,0.01-0.53,0.02-0.95c0.02-0.42,0.02-0.74,0.02-0.94
		c0-0.6-0.03-1.51-0.09-2.71c-0.06-1.21-0.09-2.11-0.09-2.71c0-0.12,0.05-0.19,0.16-0.19c0.32,0,0.79,0.01,1.43,0.04
		c0.64,0.03,1.12,0.04,1.43,0.04c0.13,0,0.19,0.06,0.19,0.17c0,0.69-0.02,1.71-0.07,3.08c-0.04,1.37-0.07,2.4-0.07,3.08
		c0,0.82,0.09,1.37,0.26,1.65c0.23,0.39,0.7,0.58,1.43,0.58c1.06,0,1.59-0.52,1.59-1.55c0-0.75-0.02-1.88-0.05-3.39
		c-0.04-1.51-0.05-2.64-0.05-3.39c0-0.16,0.06-0.24,0.19-0.24c0.31,0,0.77-0.01,1.38-0.04c0.62-0.03,1.08-0.04,1.38-0.04
		c0.15,0,0.23,0.06,0.23,0.19c0,0.6-0.02,1.5-0.07,2.71c-0.05,1.21-0.07,2.11-0.07,2.71c0,0.17,0,0.42,0.01,0.75
		C57.38,114.8,57.38,115.05,57.38,115.22z"/>
	<path class="st30" d="M65.25,113.28c0,0.61,0.02,1.54,0.05,2.77c0.03,1.23,0.05,2.15,0.05,2.77c0,0.1-0.02,0.17-0.07,0.2
		c-0.01,0.01-0.08,0.02-0.2,0.03c-0.34,0.04-0.79,0.06-1.35,0.06c-0.76,0-1.24-0.02-1.45-0.06c-0.15-0.03-0.23-0.11-0.23-0.24
		c0,0.08,0.02-0.37,0.07-1.37c0.09-2.11,0.14-3.49,0.14-4.15c0-0.56-0.02-1.39-0.05-2.5c-0.04-1.11-0.05-1.95-0.05-2.5
		c0-0.11,0.06-0.17,0.18-0.17c0.16,0,0.4,0.01,0.73,0.02s0.57,0.02,0.73,0.02c0.16,0,0.4-0.01,0.71-0.02
		c0.31-0.02,0.55-0.02,0.71-0.02c0.15,0,0.23,0.06,0.23,0.17c0,0.56-0.03,1.39-0.09,2.5C65.28,111.89,65.25,112.73,65.25,113.28z"/>
	<path class="st30" d="M77.03,119.17c-0.31,0-0.76-0.02-1.38-0.05c-0.61-0.03-1.07-0.05-1.38-0.05c-0.44,0-1.09-0.01-1.95-0.02
		c-0.87-0.01-1.52-0.02-1.95-0.02c-0.19,0-0.29-0.06-0.32-0.18c-0.01-0.33-0.06-0.83-0.16-1.48c-0.06-0.25-0.09-0.4-0.09-0.43
		c0-0.03,0.64-1.03,1.91-3.02c1.27-1.99,1.91-3.06,1.91-3.21c0-0.08-0.07-0.12-0.2-0.12c-0.36,0-0.91,0.01-1.64,0.03
		c-0.73,0.02-1.28,0.03-1.65,0.03c-0.11,0-0.17-0.06-0.17-0.18c0-0.19,0.06-0.57,0.17-1.12c0.12-0.56,0.18-0.96,0.18-1.21
		c0-0.08,0.07-0.12,0.21-0.12c0.72,0,1.79,0.02,3.22,0.05c1.43,0.03,2.51,0.05,3.22,0.05c0.11,0,0.18,0.06,0.21,0.18
		c0.09,0.42,0.14,1.01,0.14,1.79c0,0.09-0.05,0.21-0.14,0.35c-0.33,0.47-1.01,1.52-2.06,3.14c-1.19,1.85-1.79,2.81-1.79,2.9
		c0,0.04,0.04,0.06,0.13,0.06c1.05,0,1.86-0.02,2.43-0.06c0.11-0.01,0.36-0.04,0.75-0.09c0.33-0.05,0.57-0.08,0.72-0.08
		c0.07,0,0.11,0.05,0.11,0.16c0,0.85-0.08,1.69-0.23,2.53C77.21,119.11,77.14,119.17,77.03,119.17z"/>
</g>
<text transform="matrix(1 0 0 1 32.4186 102.062)" class="st30 st33 st34">KALEIEN</text>
</svg>
