<?xml version="1.0" encoding="utf-8"?>
<!-- Generator: Adobe Illustrator 28.3.0, SVG Export Plug-In . SVG Version: 6.00 Build 0)  -->
<svg version="1.1" id="Calque_1" xmlns="http://www.w3.org/2000/svg" xmlns:xlink="http://www.w3.org/1999/xlink" x="0px" y="0px"
	 viewBox="0 0 500 500" style="enable-background:new 0 0 500 500;" xml:space="preserve">
<style type="text/css">
	.st0{display:none;}
	.st1{display:inline;fill:#C6C4C0;}
	.st2{display:inline;fill:#736E6B;}
	.st3{display:inline;fill:#EBE8E3;}
	.st4{fill:#E62746;}
	.st5{fill:#BB163A;}
	.st6{fill:#EBF2F2;}
	.st7{fill:#C3DBDB;}
	.st8{fill:#08151D;}
	.st9{fill:#EBE8E3;}
	.st10{fill:#E2B580;}
	.st11{fill:#311D10;}
	.st12{fill:#322B29;}
	.st13{fill:#E9CEAD;}
	.st14{fill:#C89860;}
	.st15{fill:#F1E9D8;}
	.st16{fill:#F6EBC4;}
	.st17{fill:#632C18;}
	.st18{fill:#C9BFAE;}
	.st19{fill:#CFCED3;}
	.st20{fill:#858786;}
	.st21{fill:#AF7C45;}
	.st22{fill:#774A26;}
	.st23{fill:#8C5D33;}
	.st24{fill:#080909;}
	.st25{fill:#9C6D3D;}
	.st26{fill:#563319;}
	.st27{fill:#502A1E;}
	.st28{fill:#833547;}
	.st29{fill:#FEFFFF;}
	.st30{opacity:0.65;fill:#FFFFFF;enable-background:new    ;}
</style>
<g id="Background_00000081616523121970102420000004186530603010970809_" class="st0">
	<path class="st1" d="M-944.8,7.8c-14.2,8-29.8,14.8-45.5,20.6c-10.5-0.2-11.7,3-14.8,4.5c-0.5,0.2-1.3-1.4-3.9,0
		c-1.9,1-3,5-3.2,5.2c-1.9,1.4-3.5-0.2-3.9,0c-1.7,1.1-12.7,14.9-17.7,18.4c6.4,2.5-0.5,7.5-2.6,11.6c-8.1,16.5-15.9,33.1-23.8,49.6
		c-1,2.2-4.1,3.2-5.2,5.8c-0.6,1.4-1.1,7.6-2.6,11.6c-0.2,0.5-2.3,2.1-3.2,4.5c-1.8,5-1.1,9.2-1.3,9.7c-0.1,0.3-2.7,0.4-3.2,1.9
		c-0.4,1,0.4,4,0,5.2c-0.9,2.8-3.8,6.1-3.9,6.4c-2.9,10.8-5.8,46.5-3.9,59.3c-4.9,6.8,0.6,13.8,1.3,20.6c1.2,12.4,2.9,42.2,5.2,52.2
		c0.2,0.8,2.9,3.9,3.2,5.2c1.8,7.4,3.4,12.7,5.8,20c0.6,1.8,0.6,8.5,1.3,9.7c0.2,0.4,2.1,0,3.2,1.9c3.1,5.4,0.3,5.2,1.3,8.4
		c0.8,2.6,5,4.9,5.2,5.2c9.3,14.4,4.9,13.1,5.2,14.2c1.4,5.9,3.2,9.3,4.8,4.2c17.6,22.2,35.8,43.4,57.4,61.9
		c10,6.1,27.6,21.8,34.8,26.4c24,15.4,76.2,26.7,105.1,32.9c9.2-0.9,8.5,1.8,9,1.9c3.2,0.9,3.2-1.8,3.9-1.9c1.4-0.2,1.8,0.8,3.2,0.6
		c13.4-2,27-4.5,40.6-5.8c13.7-6,29-7,41.9-14.2c57.5-14.4,84.5-46.9,119.6-91.9c29.7-47,41-102.9,41.9-157.9
		c3.5-6.7-1.2-13.4-1.3-14.2c-0.9-6.4,1.3-7.9,1.3-8.4c-0.1-2.4-3.7-3.4-4.5-5.8c-1.5-4.2-0.7-23.5-6.5-27.1
		c-0.7-5.5-5.1-24.5-6.5-28.4c-0.5-1.6-7-13.5-9-18.1c-0.3-0.8,0.3-3.8,0-4.5c-0.5-1-4.4-4.7-11-19.3c-0.3-0.7-2.6-2.1-3.2-3.9
		c-0.2-0.7,1.3-2.4,1.3-2.6c-1.6-6.4-4.5-4.1-7.1-5.8c-0.7-0.5-1.9-5.4-2.6-6.4c-1.6-2.4-8.2-12-8.4-14.2c0-0.6,4.5-8.6-4.2-6.8
		c-8.5-16.3-21.5-15.4-27.1-18c-8.7-4.1-35.8-17.8-39.7-24.5c71.1,0.1,142.3,0,213.4,0c0,239.8,0,239.8,0,479.6
		c-330.1,0-330.1,0-660.1,0c0-239.8,0-239.8,0-479.6C-1091.3,7.8-1018.1,7.8-944.8,7.8z"/>
	<path class="st1" d="M-737.8,7.8c0.5,5.8,15.9,4.3,19.7,11c9.9,4.1,39.9,19.4,44.8,27.4c1.1,1.8,0.3,2.7,3.9,7.7
		c0,0.1-1.1,0.7-0.6,1.3c0.5,0.8,2.7,0.1,2.9,0.3c0.7,0.9-1.2,0.7-1,1c9.1,10.3,9.8,6.5,13.2,8.1c4,1.8,37.1,48.6,35.8,57.7
		c7.3,13.6,10.6,28.9,14.2,43.8c0.2,0.7,2.4,3.9,2.6,4.5c0.7,3.1-0.7,4.3-0.6,4.5c2.4,12.3,6,23.5,4.5,36.1
		c5.8,6.6,0.9,21.2,0.6,27.7c-0.3,6.7,1.3,13.8,0.6,20.6c-0.5,4.8-3.5,13.4-4.5,18.7c0,0.2,1.2,1,0.6,3.9c-0.1,0.4-1.8,1.5-1.9,1.9
		c-0.7,3-0.6,7.5-1.3,10.3c-0.7,2.8-8.5,30-9,31.6c-5.5,15.3-19.5,36.5-25.8,52.2c-14.6,16.4-27.8,34.8-45.5,48.7
		c-7.9,6.2-34.4,22.8-43.2,26.4c-20.9,8.7-89.3,27.1-113.5,26.4c-40.7-5.1-91-13.9-122.5-41.9c-7.5-1.8-16.1-10-22.6-14.8
		c-1-0.7-8-4.2-8.4-4.5c-7.8-6.4-44.1-47.5-50-56.4c-8.8-13.4-21.6-41.3-25.8-56.7c-6.1-22.2-10.5-77.4-7.7-99.9
		c1.3-10.3,7.4-23.1,10.3-33.5c2-7.2,3.5-21.5,5.8-27.7c0.8-2.2,4.1-5.1,5.2-7.7c5.1-12.7,10.6-25.2,15.5-38c8.3-6.3,5.3-8.1,5.8-9
		c1.4-2.4,12.1-19.9,13.2-20.3c2.3-0.8,4.3,0.7,4.5,0.6c0.7-0.3,5.6-5.2,7.1-5.8c0.3-0.1,6,1.2,6.1-1.6c-5.8-5.9,1.8,0.6,4.5-3.9
		c-16.7-9.2,28.4-28.8,36.4-33.2c5.3-2.9,14.1-9.3,17.4-11c6.1-3.1,11.7-3.4,14.5-6.4C-867.2,7.7-802.5,7.7-737.8,7.8z"/>
	<path class="st1" d="M-931.9,7.8c-2.8,3.1-8.4,3.3-14.5,6.4c-3.3,1.7-12.1,8.1-17.4,11c-8,4.4-53.2,24-36.4,33.2
		c-2.7,4.5-10.3-2-4.5,3.9c-0.1,2.8-5.8,1.5-6.1,1.6c-1.5,0.6-6.4,5.5-7.1,5.8c-0.2,0.1-2.2-1.4-4.5-0.6
		c-1.1,0.4-11.8,17.9-13.2,20.3c-0.5,0.9,2.6,2.7-5.8,9c-4.8,12.8-10.3,25.3-15.5,38c-1.1,2.7-4.3,5.6-5.2,7.7
		c-2.3,6.2-3.8,20.5-5.8,27.7c-2.9,10.5-9,23.2-10.3,33.5c-2.8,22.5,1.6,77.7,7.7,99.9c4.2,15.4,16.9,43.3,25.8,56.7
		c5.9,8.9,42.1,50,50,56.4c0.4,0.3,7.4,3.8,8.4,4.5c6.5,4.8,15.1,13,22.6,14.8c31.4,28,81.8,36.9,122.5,41.9
		c24.1,0.7,92.6-17.7,113.5-26.4c8.8-3.6,35.3-20.2,43.2-26.4c17.7-13.9,30.9-32.3,45.5-48.7c6.2-15.8,20.3-36.9,25.8-52.2
		c0.5-1.5,8.3-28.8,9-31.6c0.7-2.9,0.6-7.3,1.3-10.3c0.1-0.4,1.8-1.5,1.9-1.9c0.6-2.8-0.7-3.7-0.6-3.9c1.1-5.3,4-13.9,4.5-18.7
		c0.7-6.8-0.9-14-0.6-20.6c0.3-6.5,5.1-21.1-0.6-27.7c1.5-12.6-2.1-23.8-4.5-36.1c0-0.2,1.3-1.4,0.6-4.5c-0.1-0.7-2.4-3.8-2.6-4.5
		c-3.6-15-6.9-30.2-14.2-43.8c1.3-9.1-31.8-55.9-35.8-57.7c-3.5-1.6-4.1,2.2-13.2-8.1c-0.3-0.3,1.7-0.1,1-1
		c-0.2-0.3-2.4,0.4-2.9-0.3c-0.4-0.6,0.7-1.2,0.6-1.3c-3.5-5-2.8-6-3.9-7.7c-4.9-8-34.9-23.4-44.8-27.4c-3.8-6.7-19.2-5.1-19.7-11
		c6.7,0,13.3,0,20,0c3.8,6.7,31,20.4,39.7,24.5c5.6,2.7,18.6,1.7,27.1,18c8.7-1.8,4.1,6.2,4.2,6.8c0.2,2.2,6.8,11.8,8.4,14.2
		c0.7,1,1.8,5.9,2.6,6.4c2.5,1.8,5.5-0.6,7.1,5.8c0,0.1-1.5,1.9-1.3,2.6c0.6,1.8,2.9,3.2,3.2,3.9c6.6,14.7,10.5,18.3,11,19.3
		c0.3,0.8-0.3,3.7,0,4.5c2,4.5,8.5,16.5,9,18c1.3,3.8,5.7,22.8,6.5,28.4c5.8,3.6,5,22.9,6.5,27.1c0.8,2.4,4.4,3.4,4.5,5.8
		c0,0.4-2.2,1.9-1.3,8.4c0.1,0.8,4.8,7.5,1.3,14.2c-0.8,55.1-12.2,110.9-41.9,157.9c-35.1,44.9-62.1,77.4-119.6,91.9
		c-12.9,7.2-28.2,8.2-41.9,14.2c-13.6,1.3-27.2,3.9-40.6,5.8c-1.4,0.2-1.8-0.8-3.2-0.6c-0.7,0.1-0.7,2.8-3.9,1.9
		c-0.5-0.1,0.1-2.9-9-1.9c-28.9-6.1-81.1-17.5-105.1-32.9c-7.2-4.6-24.8-20.4-34.8-26.4c-21.6-18.5-39.8-39.7-57.4-61.9
		c-1.6,5.1-3.4,1.7-4.8-4.2c-0.3-1,4.1,0.2-5.2-14.2c-0.2-0.3-4.3-2.6-5.2-5.2c-1-3.1,1.8-2.9-1.3-8.4c-1.1-1.9-3-1.5-3.2-1.9
		c-0.7-1.2-0.7-7.9-1.3-9.7c-2.4-7.3-4-12.6-5.8-20c-0.3-1.3-3-4.3-3.2-5.2c-2.2-10-3.9-39.8-5.2-52.2c-0.7-6.9-6.2-13.8-1.3-20.6
		c-2-12.8,0.9-48.5,3.9-59.3c0.1-0.4,3-3.7,3.9-6.4c0.4-1.1-0.4-4.1,0-5.2c0.6-1.5,3.1-1.7,3.2-1.9c0.2-0.5-0.6-4.7,1.3-9.7
		c0.9-2.4,3.1-4,3.2-4.5c1.5-4,2-10.2,2.6-11.6c1.1-2.6,4.1-3.7,5.2-5.8c8-16.5,15.8-33.2,23.8-49.6c2-4.2,8.9-9.1,2.6-11.6
		c5-3.5,16-17.3,17.7-18.4c0.3-0.2,2,1.4,3.9,0c0.2-0.2,1.3-4.2,3.2-5.2c2.5-1.4,3.3,0.2,3.9,0c3.2-1.5,4.4-4.7,14.8-4.5
		c15.7-5.9,31.2-12.6,45.5-20.6C-940.5,7.8-936.2,7.8-931.9,7.8z"/>
	<path class="st2" d="M-658.9,26.5c0.7,0.6,1.5,1.2,0.6,1.9C-659.4,28.8-659.6,26.8-658.9,26.5z"/>
	<path class="st3" d="M-726.9,60c-9.3,7.7-15.2,21.4-16.4,21.9c-7.3,3.1-29-3.5-38-1.3c-0.1-7.5-1.1-5-9.7-4.5
		c-23.8,6.8-32.1,8.2-7.4-1.6c-17.4-2.1-22.3,5.7-12.9-4.5c-0.8-0.8-0.8-0.8-1.6-1.6c-12,1.9-21.3,11.6-22.6,11.6
		c-1.4,0-14.8-12.7-24.8-10c6.3,6.7,2.2,3.1-9,4.5c7.9,3.4,7.9,3.4,15.8,6.8c-14.4-0.2-36.6-11.9-32.2-0.6c-10.2-1.9-31,4-38,1.3
		c-1.6-0.6-9.6-17.4-19-23.8c10.3-1.6,17-8.3,18.4-9c1.7-0.9,4-1,5.8-1.9c0.2-0.1,1.2-2.6,2.6-3.2c9.1-4.3,42.8-9.7,57.4-16.8
		c29.5-5.8,58.4,4.2,87,10.3c9,5.6,19.1,9,28.4,14.2C-736.5,55.4-735.7,59.4-726.9,60z"/>
	<path class="st3" d="M-642.4,256.6c-0.2-1.5-0.5-3-0.6-4.5c0-0.3,1.7-3.8,1.3-6.1c-1.4-8.6-23.2-24.8-5.2-18.7
		c2.3-3.9-41.4-63.1-56.7-69c18.6-7,32.8-22.6,40-40.9c4.2,4.7,4.2,4.7,8.4,9.3c15.2,37.8,22.4,66.7,25.1,107.7
		c-5.2,8-3.7,10.4-3.9,11c-0.8,1.9-5.6,3.3-5.8,3.9C-640,249.6-635.9,251.3-642.4,256.6z"/>
	<path class="st3" d="M-1021.5,223.1c-0.3-1.1-1.9-3.1-1.9-4.2c-1.3-20.8,10.7-70.1,25.1-87.4c7.2,11.8,20.2,22.9,33.5,26.8
		C-988.9,173.3-1005.5,200.1-1021.5,223.1z"/>
</g>
<g id="Background_00000013902825640855333600000007852814482380937913_" class="st0">
	<path class="st1" d="M786.8,8.4c-14.2,8-29.8,14.8-45.5,20.6c-10.5-0.2-11.7,3-14.8,4.5c-0.5,0.2-1.3-1.4-3.9,0c-1.9,1-3,5-3.2,5.2
		c-1.9,1.4-3.5-0.2-3.9,0c-1.7,1.1-12.7,14.9-17.7,18.4c6.4,2.5-0.5,7.5-2.6,11.6c-8.1,16.5-15.9,33.1-23.8,49.6
		c-1,2.2-4.1,3.2-5.2,5.8c-0.6,1.4-1.1,7.6-2.6,11.6c-0.2,0.5-2.3,2.1-3.2,4.5c-1.8,5-1.1,9.2-1.3,9.7c-0.1,0.3-2.7,0.4-3.2,1.9
		c-0.4,1,0.4,4,0,5.2c-0.9,2.8-3.8,6.1-3.9,6.4c-2.9,10.8-5.8,46.5-3.9,59.3c-4.9,6.8,0.6,13.8,1.3,20.6c1.2,12.4,2.9,42.2,5.2,52.2
		c0.2,0.8,2.9,3.9,3.2,5.2c1.8,7.4,3.4,12.7,5.8,20c0.6,1.8,0.6,8.5,1.3,9.7c0.2,0.4,2.1,0,3.2,1.9c3.1,5.4,0.3,5.2,1.3,8.4
		c0.8,2.6,5,4.9,5.2,5.2c9.3,14.4,4.9,13.1,5.2,14.2c1.5,5.9,3.2,9.3,4.8,4.2c17.6,22.2,35.8,43.4,57.4,61.9
		c10,6.1,27.6,21.8,34.8,26.4c24,15.4,76.2,26.7,105.1,32.9c9.2-0.9,8.5,1.8,9,1.9c3.2,0.9,3.2-1.8,3.9-1.9c1.4-0.2,1.8,0.8,3.2,0.6
		c13.4-2,27-4.5,40.6-5.8c13.7-6,29-7,41.9-14.2c57.5-14.4,84.5-46.9,119.6-91.9c29.7-47,41.1-102.9,41.9-157.9
		c3.5-6.7-1.2-13.4-1.3-14.2c-0.9-6.4,1.3-7.9,1.3-8.4c-0.1-2.4-3.7-3.4-4.5-5.8c-1.5-4.2-0.7-23.5-6.4-27.1
		c-0.7-5.5-5.1-24.5-6.4-28.4c-0.6-1.6-7-13.5-9-18.1c-0.3-0.8,0.3-3.8,0-4.5c-0.5-1-4.4-4.7-11-19.3c-0.3-0.7-2.6-2.1-3.2-3.9
		c-0.2-0.7,1.3-2.4,1.3-2.6c-1.6-6.4-4.6-4.1-7.1-5.8c-0.7-0.5-1.9-5.4-2.6-6.4c-1.6-2.4-8.2-12-8.4-14.2c-0.1-0.6,4.5-8.6-4.2-6.8
		c-8.5-16.3-21.5-15.4-27.1-18c-8.7-4.1-35.8-17.8-39.7-24.5c71.1,0.1,142.3,0,213.4,0c0,239.8,0,239.8,0,479.6
		c-330.1,0-330.1,0-660.1,0c0-239.8,0-239.8,0-479.6C640.2,8.4,713.5,8.5,786.8,8.4z"/>
	<path class="st1" d="M993.7,8.4c0.5,5.9,15.9,4.3,19.7,11c9.9,4,39.9,19.4,44.8,27.4c1.1,1.8,0.3,2.7,3.9,7.7
		c0,0.1-1.1,0.7-0.6,1.3c0.5,0.8,2.7,0.1,2.9,0.3c0.7,0.9-1.2,0.7-1,1c9.1,10.3,9.8,6.5,13.2,8.1c4,1.8,37.1,48.6,35.8,57.7
		c7.3,13.6,10.6,28.9,14.2,43.8c0.2,0.7,2.4,3.9,2.6,4.5c0.7,3.1-0.7,4.3-0.6,4.5c2.4,12.3,6,23.5,4.5,36.1
		c5.8,6.6,0.9,21.2,0.6,27.7c-0.3,6.7,1.3,13.8,0.6,20.6c-0.5,4.8-3.4,13.4-4.5,18.7c0,0.2,1.2,1,0.6,3.9c-0.1,0.4-1.8,1.5-1.9,1.9
		c-0.7,3-0.6,7.5-1.3,10.3c-0.7,2.8-8.5,30-9,31.6c-5.5,15.3-19.5,36.5-25.8,52.2c-14.6,16.4-27.8,34.8-45.4,48.7
		c-7.9,6.2-34.4,22.8-43.2,26.4c-20.9,8.7-89.3,27.1-113.5,26.4c-40.7-5.1-91-13.9-122.5-41.9c-7.5-1.8-16.1-10-22.6-14.8
		c-1-0.7-8-4.2-8.4-4.5c-7.8-6.4-44.1-47.5-50-56.4c-8.8-13.4-21.6-41.3-25.8-56.7c-6.1-22.2-10.5-77.4-7.7-99.9
		c1.3-10.3,7.4-23.1,10.3-33.5c2-7.2,3.5-21.5,5.8-27.7c0.8-2.2,4.1-5.1,5.2-7.7c5.1-12.7,10.6-25.2,15.5-38c8.3-6.3,5.3-8.1,5.8-9
		c1.4-2.4,12.1-19.9,13.2-20.3c2.3-0.8,4.3,0.7,4.5,0.6c0.7-0.3,5.6-5.2,7.1-5.8c0.3-0.1,6,1.2,6.1-1.6c-5.8-5.9,1.8,0.6,4.5-3.9
		c-16.7-9.2,28.4-28.8,36.4-33.2c5.3-2.9,14.1-9.3,17.4-11c6.1-3.1,11.7-3.4,14.5-6.4C864.4,8.4,929,8.4,993.7,8.4z"/>
	<path class="st1" d="M799.7,8.4c-2.8,3.1-8.4,3.3-14.5,6.4c-3.3,1.7-12.1,8.1-17.4,11c-8,4.4-53.2,24-36.4,33.2
		c-2.7,4.5-10.3-2-4.5,3.9c-0.1,2.8-5.8,1.5-6.1,1.6c-1.5,0.6-6.4,5.5-7.1,5.8c-0.2,0.1-2.2-1.4-4.5-0.6
		c-1.1,0.4-11.8,17.9-13.2,20.3c-0.5,0.9,2.5,2.7-5.8,9c-4.8,12.8-10.3,25.3-15.5,38c-1.1,2.7-4.3,5.6-5.2,7.7
		c-2.3,6.2-3.8,20.5-5.8,27.7c-2.9,10.5-9,23.2-10.3,33.5c-2.8,22.5,1.6,77.7,7.7,99.9c4.2,15.4,17,43.3,25.8,56.7
		c5.9,8.9,42.1,50,50,56.4c0.4,0.3,7.4,3.8,8.4,4.5c6.5,4.8,15.1,13,22.6,14.8c31.4,28,81.8,36.9,122.5,41.9
		c24.1,0.7,92.6-17.7,113.5-26.4c8.8-3.6,35.3-20.2,43.2-26.4c17.7-13.9,30.9-32.3,45.4-48.7c6.2-15.8,20.3-36.9,25.8-52.2
		c0.6-1.5,8.3-28.8,9-31.6c0.7-2.9,0.6-7.3,1.3-10.3c0.1-0.4,1.8-1.5,1.9-1.9c0.6-2.8-0.7-3.7-0.6-3.9c1.1-5.3,4-13.9,4.5-18.7
		c0.7-6.8-0.9-14-0.6-20.6c0.3-6.5,5.1-21.1-0.6-27.7c1.5-12.6-2.1-23.8-4.5-36.1c0-0.2,1.3-1.4,0.6-4.5c-0.1-0.7-2.4-3.8-2.6-4.5
		c-3.6-15-6.9-30.2-14.2-43.8c1.3-9.1-31.8-55.9-35.8-57.7c-3.5-1.6-4.1,2.2-13.2-8.1c-0.3-0.3,1.7-0.1,1-1
		c-0.2-0.3-2.4,0.4-2.9-0.3c-0.4-0.6,0.7-1.2,0.6-1.3c-3.5-5-2.8-6-3.9-7.7c-4.9-8-34.9-23.4-44.8-27.4c-3.8-6.7-19.2-5.1-19.7-11
		c6.7,0,13.3,0,20,0c3.8,6.7,31,20.4,39.7,24.5c5.6,2.7,18.6,1.7,27.1,18c8.7-1.8,4.1,6.2,4.2,6.8c0.2,2.2,6.8,11.8,8.4,14.2
		c0.7,1,1.8,5.9,2.6,6.4c2.5,1.8,5.5-0.6,7.1,5.8c0,0.1-1.5,1.9-1.3,2.6c0.6,1.8,2.9,3.2,3.2,3.9c6.6,14.7,10.5,18.3,11,19.3
		c0.3,0.8-0.3,3.7,0,4.5c2.1,4.5,8.5,16.5,9,18c1.3,3.8,5.7,22.8,6.4,28.4c5.8,3.6,5,22.9,6.4,27.1c0.8,2.4,4.4,3.4,4.5,5.8
		c0,0.4-2.2,1.9-1.3,8.4c0.1,0.8,4.8,7.5,1.3,14.2c-0.8,55.1-12.2,110.9-41.9,157.9c-35.1,44.9-62.1,77.4-119.6,91.9
		c-12.9,7.2-28.2,8.2-41.9,14.2c-13.6,1.3-27.2,3.9-40.6,5.8c-1.4,0.2-1.8-0.8-3.2-0.6c-0.7,0.1-0.7,2.8-3.9,1.9
		c-0.5-0.1,0.1-2.9-9-1.9c-28.9-6.1-81.1-17.5-105.1-32.9c-7.2-4.6-24.8-20.4-34.8-26.4c-21.6-18.5-39.8-39.7-57.4-61.9
		c-1.6,5.1-3.4,1.7-4.8-4.2c-0.3-1,4.1,0.2-5.2-14.2c-0.2-0.3-4.3-2.6-5.2-5.2c-1-3.1,1.8-2.9-1.3-8.4c-1.1-1.9-3-1.5-3.2-1.9
		c-0.7-1.2-0.7-7.9-1.3-9.7c-2.4-7.3-4-12.6-5.8-20c-0.3-1.3-3-4.3-3.2-5.2c-2.2-10-3.9-39.8-5.2-52.2c-0.7-6.9-6.2-13.8-1.3-20.6
		c-2-12.8,0.9-48.5,3.9-59.3c0.1-0.4,3-3.7,3.9-6.4c0.4-1.1-0.4-4.1,0-5.2c0.5-1.5,3.1-1.7,3.2-1.9c0.2-0.5-0.6-4.7,1.3-9.7
		c0.9-2.4,3-4,3.2-4.5c1.5-4,2-10.2,2.6-11.6c1.1-2.6,4.1-3.7,5.2-5.8c8-16.5,15.8-33.2,23.8-49.6c2-4.2,8.9-9.1,2.6-11.6
		c5-3.5,16-17.3,17.7-18.4c0.3-0.2,2,1.4,3.9,0c0.2-0.2,1.3-4.2,3.2-5.2c2.5-1.4,3.3,0.2,3.9,0c3.2-1.5,4.4-4.7,14.8-4.5
		c15.7-5.9,31.2-12.6,45.5-20.6C791.1,8.4,795.4,8.4,799.7,8.4z"/>
	<path class="st2" d="M1072.7,27.1c0.7,0.6,1.5,1.2,0.6,1.9C1072.2,29.5,1072,27.4,1072.7,27.1z"/>
	<path class="st3" d="M1004.7,60.6c-9.3,7.7-15.2,21.4-16.4,21.9c-7.3,3.1-29-3.5-38-1.3c-0.1-7.5-1.1-5-9.7-4.5
		c-23.8,6.8-32.1,8.2-7.4-1.6c-17.4-2.1-22.3,5.7-12.9-4.5c-0.8-0.8-0.8-0.8-1.6-1.6c-12,1.9-21.3,11.6-22.6,11.6
		c-1.4,0-14.8-12.7-24.8-10c6.3,6.7,2.2,3.1-9,4.5c7.9,3.4,7.9,3.4,15.8,6.8c-14.4-0.2-36.6-11.9-32.2-0.6c-10.2-1.9-31,4-38,1.3
		c-1.6-0.6-9.6-17.4-19-23.8c10.3-1.6,17-8.3,18.4-9c1.7-0.9,4-1,5.8-1.9c0.2-0.1,1.2-2.6,2.6-3.2c9.1-4.3,42.8-9.7,57.4-16.8
		c29.5-5.8,58.4,4.2,87,10.3c9,5.6,19.1,9,28.4,14.2C995,56,995.8,60,1004.7,60.6z"/>
	<path class="st3" d="M1089.1,257.3c-0.2-1.5-0.5-3-0.6-4.5c0-0.3,1.7-3.8,1.3-6.1c-1.4-8.6-23.2-24.8-5.2-18.7
		c2.3-3.9-41.4-63.1-56.7-69c18.6-7,32.8-22.6,40-40.9c4.2,4.7,4.2,4.7,8.4,9.3c15.2,37.8,22.4,66.7,25.1,107.7
		c-5.2,8-3.7,10.4-3.9,11c-0.8,1.9-5.6,3.3-5.8,3.9C1091.6,250.3,1095.6,251.9,1089.1,257.3z"/>
	<path class="st3" d="M710.1,223.7c-0.3-1.1-1.9-3.1-1.9-4.2c-1.3-20.8,10.7-70.1,25.1-87.3c7.2,11.8,20.2,22.9,33.5,26.8
		C742.6,174,726.1,200.8,710.1,223.7z"/>
</g>
<g>
	<g>
		<path class="st4" d="M274.8,452.6l38-60.2c1.1-1.7,3.1-2.5,5.1-2.1l69.3,16.4c3.7,0.9,6.9-2.8,5.4-6.4l-58.9-144.2l-126.2,51.5
			l58.9,144.2C267.9,455.4,272.8,455.8,274.8,452.6z"/>
		<polygon class="st5" points="295.9,324.4 254.7,423 214.5,324.4 		"/>
		<path class="st4" d="M292.4,307.6l-6.9,16.8l-25.3,62.1l-1,2.6l-9.1,22.3l-16.5,40.4c-1.4,3.5-6.3,4-8.3,0.7l-38-60.2
			c-1.1-1.7-3.1-2.5-5.1-2.1l-69.3,16.4c-3.7,0.9-6.9-2.8-5.4-6.4l58.8-144.2L292.4,307.6z"/>
		<path class="st5" d="M351.1,298.4c-5.5,4.9-44.4,38.5-101.1,38.5c-10.7,0-21.3-1.1-31.8-3.3c-25.6-5.5-49.8-17.7-69.3-35.1
			l17.2-42.3l19.8,8.1l1.8,0.7l62.3,25.4l62.3-25.4l1.8-0.7l19.8-8.1L351.1,298.4z"/>
	</g>
	<g>
		<circle class="st6" cx="250" cy="184.8" r="139.6"/>
		<path class="st7" d="M250,312c-70.1,0-127.2-57.1-127.2-127.2S179.9,57.7,250,57.7s127.2,57,127.2,127.2S320.1,312,250,312z"/>
		<circle class="st6" cx="250" cy="184.8" r="119.4"/>
		<g>
			<path class="st8" d="M222.9,278.8c3.9,2.4,8.1,4.5,11.8,7.4c2.6,2,5.2,4.3,6.9,7c-11.1-7.2-26.7-14.2-40-14.7
				C208.4,275.5,215.9,277.2,222.9,278.8z"/>
			<path class="st8" d="M290.9,277.2c1.1,0.1,2.5,0.1,3.5,0.3c7.4,1.7-0.7,1.3-5.5,2.1c-10.3,1.8-22.3,8.1-31.1,13.8
				C265.8,283.3,277.7,276.1,290.9,277.2z"/>
			<path class="st9" d="M340.9,200.3c0,0.7,0.2,1.4,0.3,2.1c0.6,4.8,3.2,14,0.9,14.4c-1.3-12.9-4.9-17.3-4.1-17.8
				C339.4,199.7,339.4,199.7,340.9,200.3z"/>
			<g>
				<path class="st8" d="M198.4,108c4.5,3.1,8.3,11.1,9,11.3c3.4,1.3,13.2-1.5,18.1-0.6c-2.1-5.3,8.5,0.2,15.3,0.3
					c-3.8-1.6-3.8-1.6-7.5-3.2c5.4-0.7,7.3,1,4.3-2.2c4.8-1.3,11.1,4.8,11.8,4.8c0.6,0,5-4.6,10.7-5.5c0.4,0.4,0.4,0.4,0.8,0.8
					c-4.5,4.9-2.1,1.2,6.1,2.2c-11.8,4.7-7.8,4,3.5,0.8c4.1-0.2,4.6-1.4,4.6,2.2c4.3-1.1,14.6,2.1,18.1,0.6
					c0.6-0.3,3.4-6.8,7.8-10.4c10.6-8.7,32.3-5.3,33.4,10.6c0.3,4.5-1.7,12.4-3.4,16.7c-3.4,8.7-10.2,16.1-19,19.5
					c7.3,2.8,28.1,31,27,32.8c-8.6-2.9,1.8,4.8,2.5,8.9c0.2,1.1-0.6,2.8-0.6,2.9c-1.5-0.6-1.5-0.6-2.9-1.2
					c-0.8,0.5,2.8,4.9,4.1,17.8c4,38.5-21.9,51.4-55.2,57.6c-13.8,2.6-7.7,1.2,0.1-2.5c-9.5,1.8-21.7,5-29.1,11.6
					c-7.1,6.4,3.7-1.7,9.2-4c4.7-2,14.9-4.8,4.3,0c-8,5.4-15.8,11.3-21.8,19c-7.1-8.7-16-15.5-25.6-21.3c0.2-0.5,7.1,1.7,7.8,2
					c5.5,2.2,19.1,12.5,6.7,2.1c-3.4-2-3.4-2-6.7-4c-7.5-3.2-38.6-11.1-10.7-1.8c1.9,1.2-3.4-0.4-6-0.9
					c-21.5-4.4-49.8-11.3-56.4-35.7c-3.3-12.1-2.2-28.3,3.4-39.6c-0.2-0.2-0.2-0.2-0.5-0.5c-7.9,4.3-1.4-6.4,3.8-11.5
					c-6.9,1.3-4.2,0.2-4.6-1.1c7.6-10.9,15.5-23.7,27-30.8c-6.3-1.8-12.5-7.1-15.9-12.7c-4.8-7.9-8.6-23.7-3.1-31.7
					C174.9,102.6,190.3,102.5,198.4,108z"/>
				<g>
					<path class="st9" d="M287,274.5c-1.3,4.1,2.9,0.9,4,2.8c-13.2-1.1-25.2,6.1-33.1,16.2c-6,3.9-7.6,7-8.1,7
						c-0.4,0-4.8-5.5-6.1-6.4c-0.1-0.1-0.4,0.1-2-0.9c-1.7-2.8-4.3-5.1-6.9-7c-3.7-2.9-7.9-4.9-11.8-7.4c-4.4-2.4-8.2-0.7-7.7-4
						c2.6,0.5,7.9,2.1,6,0.9c-27.9-9.3,3.3-1.3,10.7,1.8c3.4,2,3.4,2,6.7,4c12.4,10.4-1.3,0-6.7-2.1c-0.8-0.3-7.6-2.5-7.8-2
						c9.6,5.8,18.5,12.6,25.6,21.3c6-7.7,13.8-13.6,21.8-19c10.6-4.8,0.4-2-4.3,0c-5.5,2.3-16.3,10.4-9.2,4
						c7.4-6.6,19.6-9.9,29.1-11.6C279.3,275.6,273.1,277,287,274.5z"/>
					<path class="st10" d="M313.6,174.8c-2.2,4.5-2.3,9.8-5.5,13.8c-1.6-2.6-0.6,0.4-0.3,1.5c-3.3,8.6-6.8,16.6-16.9,17.8
						c-4.1-1.6,1.6-4,2-4c1.3,0,6.3,5.5,1.1-0.8c1.3-1.1,1.3-1.1,2.6-2.3c2.6,1.3,0.4-0.1,0.5-0.8c0-0.6,3.6-2.9,2.5-10.6
						c-0.8-5.7-6-11.8-6.1-12.7c-0.3-1.9,1.8-2.6-2.1-6.3c5.1-5.9-4.4,2.3-1.7-3.7c-2.5,2.6-3.3,0.8-4.1,0.9
						c-10.7,1.2-17.3,12.7-15.3,21.5c-3.1-0.6-6.8-6.8-7.8-7.1c-3.5-1-2.3,3.5-8.3-4.3c-1.7,3.1-1.7,3.1-3.4,6.1
						c-0.9-8.8-0.6-11.4-2.8-1.5c-1.7-2.6-1.7-2.6-3.4-5.2c-6.1,10.8-5.9,5.1-8.6,5.5c-0.5,0.1-5.6,6.2-6.3,7.1
						c1.1-6.8-1.2-14.5-6.9-18.7c-1.2-0.9-7.8-4-8.3-4c-1.4,0-0.6,3.2-3.7-0.3c0.4,1,0.4,1,0.8,2c-1,3.4-9.4-6.7-2.8,1.8
						c-5.2,3.4-2.4,5.5-2.4,6.1c-0.1,1.1-8.8,9.3-5.8,19.5c0.9,2.9,3.7,4.3,1.2,5.1c5.1,0.9,4,2.4,0.9,5.4
						c-6.1-2.6-10.7-10.7-10.7-17.2c0-2,1.3-5.3-1.5,0.6c-2.8-4.7-3.1-10.1-4.3-15.3c0-0.1,0-0.1,0-0.3c1.9-3.9,3.7-8,5.8-11.8
						c-0.9-0.3-0.9-0.3-1.8-0.6c5.5-8.8,15-23.1,23.4-29c18.7-13.2,56.9-12.8,74.8,1.8c6.7,5.4,16.7,19.5,21.6,27.1
						c-0.9,0.1-0.9,0.1-1.8,0.3C310.3,166.4,311.9,170.6,313.6,174.8z"/>
					<path class="st10" d="M176.6,191.1c-1.9,7.7-2.9,10.6-1.2,18.9c2.7,13.4,13.9,25.7,25.3,32.6c8.8,5.4,18.9,8.4,28.1,13.2
						c6.5,3.4,12.1,6.8,16.9,12.6c3,3.7,4.4,7.9,4.8,7.7c0.6-2.9,2.6-6.9,4.4-9.2c3.8-4.8,11.4-8.6,16.9-11.3
						c5.9-2.9,14-5.7,20.1-8.9c23.8-12.3,40.4-30.8,30.8-59.2c4,7.9,5.4,13.1,4.9,22.2c-0.9,17.7-11,30.8-26.2,39.1
						c-17,9.3-41,9.4-50.9,28.5c-15.1-22.9-40.8-18.5-61.3-35.6c-12.9-10.7-18.3-25.6-16.1-42.1
						C173.8,193.1,178.4,183.5,176.6,191.1z"/>
					<path class="st11" d="M322.5,187.4c9.6,28.4-7,46.9-30.8,59.2c-6.1,3.1-14.2,6-20.1,8.9c4.3-2.6,6.3-5.5,9.5-8.9
						c1-1.1,2.6-1.8,4-4c0,0.4-0.1,1.6,0.1,1.8c26.8-14.1,42.1-30.6,31.4-62.2c-0.3-1-0.5-2.1-0.9-3.1c0.9-2-1.8-7-0.6-7.5
						c2,4.1,3.6,9.9,5.5,13.8C321.7,187.6,322.3,187,322.5,187.4z"/>
					<path class="st11" d="M186.1,174.8c-12.3,29.8-6.9,46.7,19.3,64.1c3.1,2.1,6.4,3.8,9.5,5.8c1.4,0.9,3.4,1.6,4.1,2.1
						c3.5,2.4,6.1,6.4,9.7,8.9c-9.1-4.8-19.3-7.8-28.1-13.2c-11.4-7-22.6-19.3-25.3-32.6c-1.6-8.3-0.7-11.2,1.2-18.9
						c1.9,1.6,6.4-11.8,8.6-16.1c0.1-0.1,0.9-0.4,0.9-0.5C186.1,174.7,186.1,174.7,186.1,174.8z"/>
					<g>
						<path class="st12" d="M302,144.8c0-2.1,0-2.1,0-4.3c2.8-8.9,7.2-26.8,19.2-27.6c17.8-1.2,8.5,28.3-3.4,36.2
							c-2.3,1.5-10.3,4.6-10.6,3.2c6.2-6.5,13.4-10.5,0.3-4.9c0.5-1.2,6-11.8,4.5-11.8C308.1,138.5,301.7,148.1,302,144.8z"/>
						<path class="st13" d="M302,140.5c0,2.1,0,2.1,0,4.3c-0.9-0.6-2.4-5-2.5-5.7c-0.4-3.8,2.1-9.6-1.7-1.4
							c-1.5-3.8-0.6-8.3,1.4-11.8c-0.5,0.2-0.5,0.2-0.9,0.3c-5.3,8.1-4.5,4.1-0.3-3.7c-5.1,4.1-7.3,7.2-2.1-1.5
							c3.5-5.9,9.3-11.8,16.2-12.9c-1.8,1.1-3.8,2.3-5.4,3.8c-5.9,5.7,0.9-0.1,6.4-1.2c5-1,14.9-0.6,4.6,0.3
							C304.7,115.4,301.4,127.9,302,140.5z"/>
					</g>
					<path class="st13" d="M213.8,262.5c14.9,4.8,27.3,9.9,36.2,23.6c7.4-13.1,22.2-19.2,36-23.1c-12.2,5.9-28.6,12.7-36,24.4
						C241,275.1,226.8,269.5,213.8,262.5z"/>
					<path class="st13" d="M190.8,156.1c0.1,0.4,0.1,0.4,0.1,0.8c-5.4,6.3-15.6,15.1-5.7,10c0.2,0.2,0.2,0.2,0.5,0.5
						c-10,8.4-10,8.4-20.1,16.7C173.5,174.3,180.1,162.9,190.8,156.1z"/>
					<path class="st13" d="M308.9,156.4c10.2,5.8,16.3,16.7,23.3,25.8c-9.1-7.4-9.1-7.4-18.2-14.9c-0.1-1.2,4.7,1.5,4.9,0.9
						C313.9,162.4,313.9,162.4,308.9,156.4z"/>
					<path class="st13" d="M330.6,192.6c9.9,12.6,9,28.5-0.6,41.1C336.6,220.9,335.5,205.8,330.6,192.6z"/>
					<path class="st9" d="M333.5,246.9c-7.2,11.6-25.1,21.5-38.8,22.1c11.5-4.5,31.3-11.5,37.2-23
						C332.5,246.5,332.6,247.5,333.5,246.9z"/>
					<path class="st13" d="M169.1,193.2c-5.5,12.8-4.7,27.2,0.6,39.8C161,221.9,159.2,204.3,169.1,193.2z"/>
					<path class="st9" d="M191.9,263.7c-0.9,0.2-0.6,1-0.9,1.8c-10.3-4.1-22.3-11.3-27-21.8c0.4-0.1,1-0.6,1.1-0.6
						c0.6-0.1,0.8,1.6,0.8-0.6C168.5,252.3,183.4,259.9,191.9,263.7z"/>
					<path class="st14" d="M315.8,179.1c0.4,1,0.6,2.1,0.9,3.1c-1.7,3.8-2.8,7.9-7.4,8.9c-0.1-0.1-1.2-2.3-1.2-2.4
						c3.3-4,3.3-9.3,5.5-13.8C314.1,176,315.3,177.8,315.8,179.1z"/>
					<path class="st13" d="M333.5,246.9c-1,0.6-1.1-0.4-1.5-0.9c4.4-8.5,1.2-4-2.3-0.9c-7.1,6.2,2.1-2.8,5.1-8.1
						c0.7-1.3,2.2-4.5,2.8-5.8c1.8-4.6,2.7-10.7,1.5,0.3C338.4,237.3,336.6,241.9,333.5,246.9z"/>
					<path class="st13" d="M165.9,242.6c0,2.2-0.2,0.5-0.8,0.6c-0.1,0-0.7,0.5-1.1,0.6c-2.5-5.5-3.7-12.4-3.2-18.4
						c0.9,3.5,1.9,7,3.5,10.3c2.9,6,12.8,16.5,1.4,5.4C165.5,241.1,165.8,242.2,165.9,242.6z"/>
					<path class="st13" d="M191.9,263.7c4.1,1.8,8.3,3.3,12.6,4.8c-5,0.9-9.1-1.1-13.5-2.9C191.3,264.7,191,263.9,191.9,263.7z"/>
					<path class="st15" d="M322.7,181.9c5.7,2.6,11,6.2,13.6,12.1C329.5,187.9,329.5,187.9,322.7,181.9z"/>
					<path class="st16" d="M175.5,182.2c0.2,0.2,0.2,0.2,0.5,0.5c-4.5,3.3-8.7,7.3-12.1,11.8C165.5,188.6,170.6,185.3,175.5,182.2z"
						/>
					<path class="st9" d="M291.1,123c1.7-0.4-0.6,1.9-2.1,4.6c-0.3-3.7-3.6-1.4-9-2.9C283.6,124.3,287.5,124.4,291.1,123z"/>
					<path class="st13" d="M278.5,120.9c1.5,0.1,5.9,0.6,2.1,1.5C275.2,123.8,264.8,123.2,278.5,120.9z"/>
					<path class="st15" d="M216.9,121.2c14.1,0.6,12.5,2.1-1.2,0.9C214.6,121.1,215.9,121.9,216.9,121.2z"/>
					<path class="st9" d="M209.5,123.3c4.7,0.8,4.7,0.8,9.4,1.7C213.1,124.3,210.4,127.5,209.5,123.3z"/>
					<path class="st16" d="M229.2,120.3c3.4,0.4,3.4,0.4,6.9,0.8C234.1,122.2,230.7,122.1,229.2,120.3z"/>
					<path class="st17" d="M211.1,127.6c0.2,0.1,0.2,0.1,0.5,0.2C208.5,132.9,206.1,129,211.1,127.6z"/>
					<path class="st18" d="M268.7,120.3c7.7-1-3.7,1.9-3.8,1.4C264.8,121.4,268.4,120.3,268.7,120.3z"/>
					<path class="st19" d="M211.4,126.1c0.4,0.2,0.4,0.2,0.8,0.5C212.4,127.9,211.1,127,211.4,126.1z"/>
					<g>
						<path class="st12" d="M175.5,112.9c15.8-2.7,21.9,23.2,20.7,34.8c-8.9-11.7-13.8-17.6-4.9-0.9c-3.7-1.1-3.7-1.1-7.4-2.1
							c3.6,3,15.8,11.9,2.6,7.2C170.9,146.3,162.5,115.1,175.5,112.9z"/>
						<path class="st13" d="M198.7,143.6c-0.3-0.1-0.3-0.1-0.6-0.3c0.6-14.2-0.6-25.8-15.5-31.9c-12.5-1.4,4.6-3.2,12.9,3.7
							c-0.8-2.8-12-10-2.4-5.2c4.9,2.5,12.5,11,13.2,16.5c-9-8.9-1.7-1.6-0.1,3.8c-9.4-10.2-0.8,0.2-2.8,5.8
							c-0.2,0.2-0.2,0.2-0.5,0.5C197.7,130.2,203.1,133.6,198.7,143.6z"/>
						<path class="st20" d="M198.7,143.6c-0.6,1.5-0.7,1.9-0.6-0.3C198.4,143.4,198.4,143.4,198.7,143.6z"/>
					</g>
					<path class="st21" d="M190.4,190.2c-9.2,19.2,6.6,29.3,16.2,37.7c-1.2,2.4-2.8-1.2-2.8,0.8c6.2,5.3,6.2,5.3,12.4,10.6
						c1.8-1.3-1.7-4.3-4.4-7.1c2,1,3.6,3.4,5.2,4.9c0.3,2.2-0.1,3.4-0.6,5.2c-4.4-1.8-8.3-4.6-12.1-7.4c-1.9,0,0.6,0.9,1.1,4
						c-26.2-17.3-31.6-34.3-19.3-64.1C187.3,180,187.6,185.5,190.4,190.2z"/>
					<path class="st21" d="M287.6,226c-2.9-0.5-2.9-0.5-5.8-0.9c0.6-2.5,0.7-3.6,0.9-6.1c0.6-8.8-0.8-10.5-0.6-11
						c2.6-0.1,5.3,0.1,8,0c0.3,0,0.6,0.6,0.8,0.6c0.2,0,0.1-0.6,0.1-0.6c10.1-1.2,13.6-9.1,16.9-17.8c0.4,1.2,1.4,2.9,1.5,4.1
						C311.6,210.8,298.5,217.4,287.6,226z"/>
					<path class="st21" d="M202.6,206.7c0.1,0.1,0.5-0.1,0.6,0c1.6,0.6,3.9,1.5,5.5,1.5c0.9,0,0.4,0.1,1.2-0.3
						c1.1,0.1,5.1-0.5,4.9-0.9c1,0.2,2.6,0.3,2.8,0.8c0.1,0.2-0.6,1.9-0.6,3.8c-0.1,6.3,0.1,10.9,2.4,16.9c-1,0.2-1.1-2.1-1.2-2.3
						c-0.3-0.4-7.9-4-8.6-2.3c-11.3-9.7-24.8-16.1-17.8-34.3C191.9,196.1,196.5,204.1,202.6,206.7z"/>
					<path class="st11" d="M191.9,189.6c-7,18.3,6.4,24.6,17.8,34.3c3.1,2.7,8.9,7.1,11,9.2c1.1,1.1,0.9,1.5,0.9,1.5
						c-0.5,3.4-8.7-4.8-12-4.6c-0.8-0.7-2.2-1.4-3.1-2.1c-9.6-8.4-25.5-18.5-16.2-37.7C193.2,184.2,191.9,187.6,191.9,189.6z"/>
					<path class="st11" d="M308.1,188.6c0.1,0.1,1.2,2.3,1.2,2.4c5.1,12.1,1.4,21.5-7.7,30c-4.8,4.5-10.8,7.8-15.6,12.3
						c-2.2-1.3-5.4,1.9-7,0c0.3-0.4,0.7-1.1,0.9-1.5c1.6,0.1,5.6-4.2,7.7-5.8c10.9-8.7,24.1-15.3,21.8-31.7
						c-0.2-1.3-1.2-2.9-1.5-4.1C307.5,189,306.5,186,308.1,188.6z"/>
					<path class="st22" d="M239.7,258.5c5.3,3.7,3.3,1.5,2.8-1.2c-0.2-1.2-0.6-2.3-0.6-3.5c0.6-0.5,1,0.1,1.2,0.1
						c0.8,1.5,1.5,3,2.1,4.6c-2.3,3,1.3,6.6,0.3,9.8c-4.8-5.8-10.4-9.2-16.9-12.6c-3.6-2.5-6.1-6.4-9.7-8.9
						c-0.8-0.5-2.7-1.3-4.1-2.1c1.2,0,1.3-1.6,1.5-2.4c0.5-1.8,0.9-3,0.6-5.2C221,241,236.9,256.5,239.7,258.5z"/>
					<path class="st22" d="M281.1,246.6c-3.2,3.4-5.2,6.2-9.5,8.9c-5.4,2.7-13,6.5-16.9,11.3c0.7-2.9,2.5-5.2,4-7.7
						c0,0.3,0.2,0.4,0.5,0.3c0.6-0.4,7.1-6.1,8.4-7.4c1.7,1.8,9.9-7.9,11.3-11c0.2-0.2,0.4-0.4,0.6-0.6
						C280.4,243.5,280.4,243.5,281.1,246.6z"/>
					<path class="st22" d="M261.2,254.6c-0.8,1.2-1.7,3.3-2.5,4.6c-1.5,2.5-3.3,4.8-4,7.7c-1.8,2.3-3.8,6.3-4.4,9.2
						c-0.4,0.2-1.8-4-4.8-7.7c1-3.2-2.6-6.8-0.3-9.8c1.6,3.7,2.7,7.7,4.3,11.3c0.2,0.5,0.5,1.5,0.8,1.5c0.6,0,3.8-9.1,4.1-10.3
						c0.6-1.6,0.2-5.8,2-2.3C258.3,257.2,260.2,253.3,261.2,254.6z"/>
					<path class="st21" d="M285.1,242.6c0-0.1,0.6-0.4,0.3-1.7c0-0.1-1.7-1.7-1.5-2.8c0.3-1.6,18.3-12.8,17.8-17
						c9.1-8.5,12.7-17.9,7.7-30c4.6-1,5.6-5.1,7.4-8.9c10.7,31.6-4.7,48.1-31.4,62.2C285,244.2,285.1,243,285.1,242.6z"/>
					<path class="st23" d="M285.1,242.6c-1.4,2.2-3,2.9-4,4c-0.8-3.1-0.8-3.1-1.5-6.1c1.3-1.2,4.2-5,6.4-7.1
						c4.9-4.4,10.8-7.8,15.6-12.3c0.6,4.2-17.5,15.4-17.8,17c-0.2,1.1,1.5,2.6,1.5,2.8C285.7,242.2,285.1,242.5,285.1,242.6z"/>
					<path class="st23" d="M216.4,242.3c-0.2,0.9-0.3,2.4-1.5,2.4c-3.1-2-6.4-3.7-9.5-5.8c-0.4-3.1-3-4-1.1-4
						C208.1,237.7,212.1,240.5,216.4,242.3z"/>
					<path class="st24" d="M221.6,234.6c4.9,4.9,11.6,13.9,21.9,16.6c13.7,3.6,28-6.9,35.4-17.8c1.7,1.9,4.9-1.3,7,0
						c-2.3,2.1-5.2,5.8-6.4,7.1c-0.2,0.2-0.4,0.4-0.6,0.6c-3.8,3.6-7.5,7.5-11.3,11c-1.4,1.3-7.8,7-8.4,7.4c-0.2,0.1-0.5,0-0.5-0.3
						c0.8-1.3,1.6-3.4,2.5-4.6c1-1.4,6.1-5.7,4.1-5.2c-4.1,5.6-12.8,5.6-19.2,5.2c-0.2,0-0.4-0.6-3.1-0.6c-0.3,0-0.6-0.6-1.2-0.1
						c0,1.2,0.4,2.4,0.6,3.5c-1.1,0.9-2.6-4.1-4.4-5.5c-6.1-3.1-1.1,1,1.7,6.7c-2.8-2-18.8-17.6-22.7-21.5c-1.6-1.6-3.2-3.9-5.2-4.9
						c-0.7-0.7-1.4-1.5-2.1-2.1C213,229.8,221.1,238.1,221.6,234.6z"/>
					<path class="st21" d="M206.6,227.9c0.8,0.7,2.2,1.4,3.1,2.1c0.8,0.7,1.4,1.4,2.1,2.1c2.8,2.8,6.3,5.8,4.4,7.1
						c-6.2-5.3-6.2-5.3-12.4-10.6C203.8,226.7,205.5,230.2,206.6,227.9z"/>
					<path class="st23" d="M287.6,226c-2.1,1.6-6,5.9-7.7,5.8c0.4-0.7,1-1.7,0.3-1.8c0.8-1.6,1.1-3.2,1.5-4.9
						C284.6,225.6,284.6,225.6,287.6,226z"/>
					<path class="st13" d="M290,207.9c-2.6,0.1-5.3-0.1-8,0C282.2,207.5,288.9,205.4,290,207.9z"/>
					<path class="st25" d="M219.5,228.5c0.4,1.1,0.9,2.3,1.5,3.4c-0.1,0.6-0.1,0.6-0.3,1.2c-2.1-2.1-7.9-6.5-11-9.2
						c0.7-1.7,8.3,1.9,8.6,2.3C218.4,226.4,218.5,228.7,219.5,228.5z"/>
					<path class="st10" d="M208.8,208.3c-1.6-0.1-4-0.9-5.5-1.5c3.7-3.7,3-2.2,7.4-0.5C209.7,207.3,209.7,207.3,208.8,208.3z"/>
					<path class="st13" d="M214.9,207c0.2,0.4-3.8,1.1-4.9,0.9C211.8,207.1,210.5,206,214.9,207z"/>
					<path class="st11" d="M246.2,254.6c1.5,5,2.9,10.1,3.4,15.3c-1.6-3.7-2.7-7.6-4.3-11.3c-0.7-1.6-1.3-3.1-2.1-4.6
						C245.7,254,246,254.5,246.2,254.6z"/>
					<path class="st26" d="M242.5,257.3c0.6,2.7,2.5,4.9-2.8,1.2c-2.8-5.8-7.8-9.9-1.7-6.7C239.9,253.2,241.4,258.2,242.5,257.3z"/>
					<path class="st26" d="M267.6,252.1c3.8-3.6,7.5-7.4,11.3-11C277.5,244.2,269.4,253.9,267.6,252.1z"/>
					<path class="st26" d="M261.2,254.6c-1-1.2-2.9,2.6-4.8,4.3c-1.8-3.5-1.4,0.7-2,2.3c-0.4,1.1-3.6,10.3-4.1,10.3
						c-0.3,0-0.5-1-0.8-1.5c-0.5-5.2-1.8-10.3-3.4-15.3c6.4,0.4,15.1,0.4,19.2-5.2C267.3,248.8,262.2,253.1,261.2,254.6z"/>
					<g>
						<path class="st13" d="M270.1,189.2c0.1,0.6,4.8,5.3,6.7,10.7c1.4,3.8,2.3,8.3,2.5,12.3c0.8,17.1-7.9,27.9-25.8,25.6
							c0.1-0.7,0.1-0.7,0.1-1.4c10.4,4.6,14.1-6.1,13.6-14.4c-1.3-26-33.9-26.1-34.6,0c-0.2,8.4,3.2,19.2,13.3,14.1
							c0.1,0.8,0.1,0.8,0.1,1.7c-1.1,1.9-27.3,2.6-25.8-26.2c0.2-3.1,1.6-9.1,2.8-12c1.5-3.7,3.9-6.7,6.4-9.8c0.7-0.9,5.8-7,6.3-7.1
							c2.7-0.4,2.4,5.3,8.6-5.5c1.7,2.6,1.7,2.6,3.4,5.2c2.1-9.9,1.9-7.2,2.8,1.5c1.7-3.1,1.7-3.1,3.4-6.1c6,7.8,4.8,3.3,8.3,4.3
							C263.3,182.5,267,188.7,270.1,189.2z"/>
						<path class="st27" d="M299.5,189.6c1.1,7.7-2.4,10-2.5,10.6c0,0.7,2.1,2.1-0.5,0.8c-1.3,1.1-1.3,1.1-2.6,2.3
							c5.2,6.2,0.3,0.8-1.1,0.8c-0.4,0-6.1,2.4-2,4c0,0,0.1,0.6-0.1,0.6c-0.1,0-0.4-0.6-0.8-0.6c-1.2-2.5-7.8-0.4-8,0
							c-0.2,0.5,1.3,2.2,0.6,11c-1.5-1.7-1.7-5.6-3.4-6.7c-0.2-4-1.1-8.5-2.5-12.3c0.9,0.1,1.1-0.9,1.5-1.2
							c2.2-1.2,14.4-4.4,15.6-12.9C297.3,186.7,297.4,191.1,299.5,189.6z"/>
						<path class="st27" d="M285.4,167.8c1,0.9,5.6,3.9,5.8,2.8c3.9,3.7,1.8,4.3,2.1,6.3c0.2,0.9,5.3,7,6.1,12.7
							c-2.1,1.5-2.2-2.9-5.5-3.7c1.3-8.9-10.8-17.7-16.9-8.7c-4.4,6.6,1.6,14.4,1.2,21.6c-0.5,0.3-0.6,1.4-1.5,1.2
							c-2-5.4-6.6-10.1-6.7-10.7C268.1,180.5,274.8,169,285.4,167.8z"/>
						<path class="st11" d="M291.2,170.6c-0.2,1.1-4.8-1.9-5.8-2.8c0.9-0.1,1.6,1.6,4.1-0.9C286.8,172.9,296.3,164.7,291.2,170.6z"
							/>
						<path class="st17" d="M267.3,222.1c-12.5,0.7-16.4,6.6-17.3,6.7s-4.4-5.7-17.3-6.7C233.4,196,266,196,267.3,222.1z"/>
						<path class="st15" d="M279.9,231.9c-0.2,0.4-0.6,1.1-0.9,1.5c-7.4,10.9-21.7,21.4-35.4,17.8c-10.3-2.7-17-11.7-21.9-16.6
							c-0.1-0.1,0.1-0.5-0.9-1.5c0.1-0.6,0.1-0.6,0.3-1.2c4.4,7,12.1,8.7,12.7,9.2c0.6,0.5,2.9,6.6,11.6,8.3
							c14.5,2.7,19.3-7.6,20.2-8.3c0.8-0.6,10.4-2.5,14.6-11C280.9,230.2,280.2,231.2,279.9,231.9z"/>
						<g>
							<path class="st24" d="M220.4,211.6c-1.6,28.8,24.6,28.1,25.8,26.2c-0.1-0.8-0.1-0.8-0.1-1.7c-10.1,5.1-13.6-5.7-13.3-14.1
								c13,1,16.4,6.8,17.3,6.7c0.9-0.1,4.9-6.1,17.3-6.7c0.4,8.3-3.3,19-13.6,14.4c-0.1,0.7-0.1,0.7-0.1,1.4
								c17.9,2.3,26.5-8.5,25.8-25.6c1.7,1.1,1.8,5.1,3.4,6.7c-0.2,2.5-0.3,3.7-0.9,6.1c-0.4,1.7-0.8,3.3-1.5,4.9
								c-4.1,8.5-13.8,10.5-14.6,11c-0.9,0.7-5.7,11-20.2,8.3c-8.7-1.6-11.1-7.8-11.6-8.3c-0.6-0.5-8.4-2.2-12.7-9.2
								c-0.6-1-1.1-2.2-1.5-3.4c-2.4-6-2.5-10.5-2.4-16.9C218.7,211.6,218.7,211.6,220.4,211.6z"/>
							<path class="st28" d="M249.7,241.7c1.3,0,6.5,1,10.9,0.8c-4.3,4-10.2,4.8-15.8,3.5c-10.4-5-6.2-3,0.9-3.4
								C246.6,242.5,249.3,241.7,249.7,241.7z"/>
						</g>
						<g>
							<path class="st27" d="M229.6,189.9c-2.5,3.1-4.9,6.1-6.4,9.8c-1.4,1.1-1.4-0.4-1.8-0.6c0.2-9.6,6.1-14.4,2.1-21.3
								c-6.1-10.6-21.1,0.5-16.2,11.2c-3.5,1.5-5,7.1-6.7,7.4c-3-10.2,5.7-18.4,5.8-19.5c0.1-0.6-2.7-2.7,2.4-6.1
								c-6.7-8.5,1.8,1.6,2.8-1.8c-0.4-1-0.4-1-0.8-2c3,3.5,2.3,0.3,3.7,0.3c0.5,0,7,3.1,8.3,4C228.4,175.4,230.7,183.1,229.6,189.9
								z"/>
							<path class="st27" d="M207.2,188.9c2.6,5.8,9,7.2,14.1,10.1c0.5,0.3,0.4,1.7,1.8,0.6c-1.1,2.9-2.6,8.9-2.8,12
								c-1.7,0-1.7,0-3.4,0c0-2,0.7-3.6,0.6-3.8c-0.2-0.5-1.8-0.5-2.8-0.8c-4.4-1-3.1,0.1-4.9,0.9c-0.8,0.4-0.3,0.3-1.2,0.3
								c0.9-1,0.9-1,1.8-2c-4.3-1.8-3.7-3.3-7.4,0.5c-0.1-0.1-0.5,0.1-0.6,0c3.1-3,4.2-4.5-0.9-5.4c2.5-0.8-0.4-2.1-1.2-5.1
								C202.2,196.1,203.8,190.5,207.2,188.9z"/>
							<g>
								<path class="st24" d="M221.3,199.1c-5.1-2.9-11.5-4.3-14.1-10.1c-4.8-10.7,10.1-21.8,16.2-11.2
									C227.4,184.6,221.6,189.4,221.3,199.1z"/>
								<path class="st9" d="M214.8,175.8c5.7-1.1,9.3,4.9,8.4,10c-1.1,1.9-0.3-0.9-0.9-2.8c-3.3-10.2-13.4-5.7-10.3,6
									C207.1,185.8,210.5,176.6,214.8,175.8z"/>
								<path class="st29" d="M216.9,178.5c1,0.5,1,0.5,2,1.1C219.3,185.5,211.5,180.9,216.9,178.5z"/>
							</g>
						</g>
						<g>
							<path class="st24" d="M294,185.9c-1.3,8.4-13.5,11.6-15.6,12.9c0.4-7.3-5.7-15-1.2-21.6C283.2,168.1,295.3,177,294,185.9z"/>
							<path class="st9" d="M282.5,175.8c6.8-1.2,10.8,8.1,5.5,12.3c2.9-12.5-8-14.1-10.3-4.1c-0.4,1.5,0.6,4.4-0.6,2.4
								C275.9,182.8,278.6,176.5,282.5,175.8z"/>
							<path class="st29" d="M283.1,178.8c6.4,0.5-0.5,7.4-1.1,0.8C282.6,179.2,282.6,179.2,283.1,178.8z"/>
						</g>
					</g>
				</g>
			</g>
		</g>
		<path class="st30" d="M307.9,81.8L140.2,237.3c-7.8-15.8-12.1-33.6-12.1-52.4c0-13.9,2.4-27.3,6.8-39.8l83.9-76.1
			c9.2-2.3,18.8-3.5,28.7-3.5C269.5,65.4,290.1,71.4,307.9,81.8z"/>
		<path class="st30" d="M358.5,141L195.4,292.2c-16.4-8-30.8-19.7-41.9-33.9l176.3-160C342.2,110.2,352.1,124.7,358.5,141z"/>
	</g>
</g>
</svg>
