<?xml version="1.0" encoding="utf-8"?>
<!-- Generator: Adobe Illustrator 28.3.0, SVG Export Plug-In . SVG Version: 6.00 Build 0)  -->
<svg version="1.1" id="Calque_1" xmlns="http://www.w3.org/2000/svg" xmlns:xlink="http://www.w3.org/1999/xlink" x="0px" y="0px"
	 viewBox="0 0 500 500" style="enable-background:new 0 0 500 500;" xml:space="preserve">
<style type="text/css">
	.st0{display:none;}
	.st1{display:inline;fill:#C6C4C0;}
	.st2{display:inline;fill:#736E6B;}
	.st3{display:inline;fill:#EBE8E3;}
	.st4{fill:#E62746;}
	.st5{fill:#BB163A;}
	.st6{fill:#E48022;}
	.st7{fill:#BA6117;}
	.st8{fill:#08151D;}
	.st9{fill:#EBE8E3;}
	.st10{fill:#E2B580;}
	.st11{fill:#311D10;}
	.st12{fill:#322B29;}
	.st13{fill:#E9CEAD;}
	.st14{fill:#C89860;}
	.st15{fill:#F1E9D8;}
	.st16{fill:#F6EBC4;}
	.st17{fill:#632C18;}
	.st18{fill:#C9BFAE;}
	.st19{fill:#CFCED3;}
	.st20{fill:#858786;}
	.st21{fill:#AF7C45;}
	.st22{fill:#774A26;}
	.st23{fill:#8C5D33;}
	.st24{fill:#080909;}
	.st25{fill:#9C6D3D;}
	.st26{fill:#563319;}
	.st27{fill:#502A1E;}
	.st28{fill:#833547;}
	.st29{fill:#FEFFFF;}
	.st30{opacity:0.64;fill:#F49A50;enable-background:new    ;}
</style>
<g id="Background_00000081616523121970102420000004186530603010970809_" class="st0">
	<path class="st1" d="M-944.8,7.8c-14.2,8-29.8,14.8-45.5,20.6c-10.5-0.2-11.7,3-14.8,4.5c-0.5,0.2-1.3-1.4-3.9,0
		c-1.9,1-3,5-3.2,5.2c-1.9,1.4-3.5-0.2-3.9,0c-1.7,1.1-12.7,14.9-17.7,18.4c6.4,2.5-0.5,7.5-2.6,11.6c-8.1,16.5-15.9,33.1-23.8,49.6
		c-1,2.2-4.1,3.2-5.2,5.8c-0.6,1.4-1.1,7.6-2.6,11.6c-0.2,0.5-2.3,2.1-3.2,4.5c-1.8,5-1.1,9.2-1.3,9.7c-0.1,0.3-2.7,0.4-3.2,1.9
		c-0.4,1,0.4,4,0,5.2c-0.9,2.8-3.8,6.1-3.9,6.4c-2.9,10.8-5.8,46.5-3.9,59.3c-4.9,6.8,0.6,13.8,1.3,20.6c1.2,12.4,2.9,42.2,5.2,52.2
		c0.2,0.8,2.9,3.9,3.2,5.2c1.8,7.4,3.4,12.7,5.8,20c0.6,1.8,0.6,8.5,1.3,9.7c0.2,0.4,2.1,0,3.2,1.9c3.1,5.4,0.3,5.2,1.3,8.4
		c0.8,2.6,5,4.9,5.2,5.2c9.3,14.4,4.9,13.1,5.2,14.2c1.4,5.9,3.2,9.3,4.8,4.2c17.6,22.2,35.8,43.4,57.4,61.9
		c10,6.1,27.6,21.8,34.8,26.4c24,15.4,76.2,26.7,105.1,32.9c9.2-0.9,8.5,1.8,9,1.9c3.2,0.9,3.2-1.8,3.9-1.9c1.4-0.2,1.8,0.8,3.2,0.6
		c13.4-2,27-4.5,40.6-5.8c13.7-6,29-7,41.9-14.2c57.5-14.4,84.5-46.9,119.6-91.9c29.7-47,41-102.9,41.9-157.9
		c3.5-6.7-1.2-13.4-1.3-14.2c-0.9-6.4,1.3-7.9,1.3-8.4c-0.1-2.4-3.7-3.4-4.5-5.8c-1.5-4.2-0.7-23.5-6.5-27.1
		c-0.7-5.5-5.1-24.5-6.5-28.4c-0.5-1.6-7-13.5-9-18.1c-0.3-0.8,0.3-3.8,0-4.5c-0.5-1-4.4-4.7-11-19.3c-0.3-0.7-2.6-2.1-3.2-3.9
		c-0.2-0.7,1.3-2.4,1.3-2.6c-1.6-6.4-4.5-4.1-7.1-5.8c-0.7-0.5-1.9-5.4-2.6-6.4c-1.6-2.4-8.2-12-8.4-14.2c0-0.6,4.5-8.6-4.2-6.8
		c-8.5-16.3-21.5-15.4-27.1-18c-8.7-4.1-35.8-17.8-39.7-24.5c71.1,0.1,142.3,0,213.4,0c0,239.8,0,239.8,0,479.6
		c-330.1,0-330.1,0-660.1,0c0-239.8,0-239.8,0-479.6C-1091.3,7.8-1018.1,7.8-944.8,7.8z"/>
	<path class="st1" d="M-737.8,7.8c0.5,5.8,15.9,4.3,19.7,11c9.9,4.1,39.9,19.4,44.8,27.4c1.1,1.8,0.3,2.7,3.9,7.7
		c0,0.1-1.1,0.7-0.6,1.3c0.5,0.8,2.7,0.1,2.9,0.3c0.7,0.9-1.2,0.7-1,1c9.1,10.3,9.8,6.5,13.2,8.1c4,1.8,37.1,48.6,35.8,57.7
		c7.3,13.6,10.6,28.9,14.2,43.8c0.2,0.7,2.4,3.9,2.6,4.5c0.7,3.1-0.7,4.3-0.6,4.5c2.4,12.3,6,23.5,4.5,36.1
		c5.8,6.6,0.9,21.2,0.6,27.7c-0.3,6.7,1.3,13.8,0.6,20.6c-0.5,4.8-3.5,13.4-4.5,18.7c0,0.2,1.2,1,0.6,3.9c-0.1,0.4-1.8,1.5-1.9,1.9
		c-0.7,3-0.6,7.5-1.3,10.3c-0.7,2.8-8.5,30-9,31.6c-5.5,15.3-19.5,36.5-25.8,52.2c-14.6,16.4-27.8,34.8-45.5,48.7
		c-7.9,6.2-34.4,22.8-43.2,26.4c-20.9,8.7-89.3,27.1-113.5,26.4c-40.7-5.1-91-13.9-122.5-41.9c-7.5-1.8-16.1-10-22.6-14.8
		c-1-0.7-8-4.2-8.4-4.5c-7.8-6.4-44.1-47.5-50-56.4c-8.8-13.4-21.6-41.3-25.8-56.7c-6.1-22.2-10.5-77.4-7.7-99.9
		c1.3-10.3,7.4-23.1,10.3-33.5c2-7.2,3.5-21.5,5.8-27.7c0.8-2.2,4.1-5.1,5.2-7.7c5.1-12.7,10.6-25.2,15.5-38c8.3-6.3,5.3-8.1,5.8-9
		c1.4-2.4,12.1-19.9,13.2-20.3c2.3-0.8,4.3,0.7,4.5,0.6c0.7-0.3,5.6-5.2,7.1-5.8c0.3-0.1,6,1.2,6.1-1.6c-5.8-5.9,1.8,0.6,4.5-3.9
		c-16.7-9.2,28.4-28.8,36.4-33.2c5.3-2.9,14.1-9.3,17.4-11c6.1-3.1,11.7-3.4,14.5-6.4C-867.2,7.7-802.5,7.7-737.8,7.8z"/>
	<path class="st1" d="M-931.9,7.8c-2.8,3.1-8.4,3.3-14.5,6.4c-3.3,1.7-12.1,8.1-17.4,11c-8,4.4-53.2,24-36.4,33.2
		c-2.7,4.5-10.3-2-4.5,3.9c-0.1,2.8-5.8,1.5-6.1,1.6c-1.5,0.6-6.4,5.5-7.1,5.8c-0.2,0.1-2.2-1.4-4.5-0.6
		c-1.1,0.4-11.8,17.9-13.2,20.3c-0.5,0.9,2.6,2.7-5.8,9c-4.8,12.8-10.3,25.3-15.5,38c-1.1,2.7-4.3,5.6-5.2,7.7
		c-2.3,6.2-3.8,20.5-5.8,27.7c-2.9,10.5-9,23.2-10.3,33.5c-2.8,22.5,1.6,77.7,7.7,99.9c4.2,15.4,16.9,43.3,25.8,56.7
		c5.9,8.9,42.1,50,50,56.4c0.4,0.3,7.4,3.8,8.4,4.5c6.5,4.8,15.1,13,22.6,14.8c31.4,28,81.8,36.9,122.5,41.9
		c24.1,0.7,92.6-17.7,113.5-26.4c8.8-3.6,35.3-20.2,43.2-26.4c17.7-13.9,30.9-32.3,45.5-48.7c6.2-15.8,20.3-36.9,25.8-52.2
		c0.5-1.5,8.3-28.8,9-31.6c0.7-2.9,0.6-7.3,1.3-10.3c0.1-0.4,1.8-1.5,1.9-1.9c0.6-2.8-0.7-3.7-0.6-3.9c1.1-5.3,4-13.9,4.5-18.7
		c0.7-6.8-0.9-14-0.6-20.6c0.3-6.5,5.1-21.1-0.6-27.7c1.5-12.6-2.1-23.8-4.5-36.1c0-0.2,1.3-1.4,0.6-4.5c-0.1-0.7-2.4-3.8-2.6-4.5
		c-3.6-15-6.9-30.2-14.2-43.8c1.3-9.1-31.8-55.9-35.8-57.7c-3.5-1.6-4.1,2.2-13.2-8.1c-0.3-0.3,1.7-0.1,1-1
		c-0.2-0.3-2.4,0.4-2.9-0.3c-0.4-0.6,0.7-1.2,0.6-1.3c-3.5-5-2.8-6-3.9-7.7c-4.9-8-34.9-23.4-44.8-27.4c-3.8-6.7-19.2-5.1-19.7-11
		c6.7,0,13.3,0,20,0c3.8,6.7,31,20.4,39.7,24.5c5.6,2.7,18.6,1.7,27.1,18c8.7-1.8,4.1,6.2,4.2,6.8c0.2,2.2,6.8,11.8,8.4,14.2
		c0.7,1,1.8,5.9,2.6,6.4c2.5,1.8,5.5-0.6,7.1,5.8c0,0.1-1.5,1.9-1.3,2.6c0.6,1.8,2.9,3.2,3.2,3.9c6.6,14.7,10.5,18.3,11,19.3
		c0.3,0.8-0.3,3.7,0,4.5c2,4.5,8.5,16.5,9,18c1.3,3.8,5.7,22.8,6.5,28.4c5.8,3.6,5,22.9,6.5,27.1c0.8,2.4,4.4,3.4,4.5,5.8
		c0,0.4-2.2,1.9-1.3,8.4c0.1,0.8,4.8,7.5,1.3,14.2c-0.8,55.1-12.2,110.9-41.9,157.9c-35.1,44.9-62.1,77.4-119.6,91.9
		c-12.9,7.2-28.2,8.2-41.9,14.2c-13.6,1.3-27.2,3.9-40.6,5.8c-1.4,0.2-1.8-0.8-3.2-0.6c-0.7,0.1-0.7,2.8-3.9,1.9
		c-0.5-0.1,0.1-2.9-9-1.9c-28.9-6.1-81.1-17.5-105.1-32.9c-7.2-4.6-24.8-20.4-34.8-26.4c-21.6-18.5-39.8-39.7-57.4-61.9
		c-1.6,5.1-3.4,1.7-4.8-4.2c-0.3-1,4.1,0.2-5.2-14.2c-0.2-0.3-4.3-2.6-5.2-5.2c-1-3.1,1.8-2.9-1.3-8.4c-1.1-1.9-3-1.5-3.2-1.9
		c-0.7-1.2-0.7-7.9-1.3-9.7c-2.4-7.3-4-12.6-5.8-20c-0.3-1.3-3-4.3-3.2-5.2c-2.2-10-3.9-39.8-5.2-52.2c-0.7-6.9-6.2-13.8-1.3-20.6
		c-2-12.8,0.9-48.5,3.9-59.3c0.1-0.4,3-3.7,3.9-6.4c0.4-1.1-0.4-4.1,0-5.2c0.6-1.5,3.1-1.7,3.2-1.9c0.2-0.5-0.6-4.7,1.3-9.7
		c0.9-2.4,3.1-4,3.2-4.5c1.5-4,2-10.2,2.6-11.6c1.1-2.6,4.1-3.7,5.2-5.8c8-16.5,15.8-33.2,23.8-49.6c2-4.2,8.9-9.1,2.6-11.6
		c5-3.5,16-17.3,17.7-18.4c0.3-0.2,2,1.4,3.9,0c0.2-0.2,1.3-4.2,3.2-5.2c2.5-1.4,3.3,0.2,3.9,0c3.2-1.5,4.4-4.7,14.8-4.5
		c15.7-5.9,31.2-12.6,45.5-20.6C-940.5,7.8-936.2,7.8-931.9,7.8z"/>
	<path class="st2" d="M-658.9,26.5c0.7,0.6,1.5,1.2,0.6,1.9C-659.4,28.8-659.6,26.8-658.9,26.5z"/>
	<path class="st3" d="M-726.9,60c-9.3,7.7-15.2,21.4-16.4,21.9c-7.3,3.1-29-3.5-38-1.3c-0.1-7.5-1.1-5-9.7-4.5
		c-23.8,6.8-32.1,8.2-7.4-1.6c-17.4-2.1-22.3,5.7-12.9-4.5c-0.8-0.8-0.8-0.8-1.6-1.6c-12,1.9-21.3,11.6-22.6,11.6
		c-1.4,0-14.8-12.7-24.8-10c6.3,6.7,2.2,3.1-9,4.5c7.9,3.4,7.9,3.4,15.8,6.8c-14.4-0.2-36.6-11.9-32.2-0.6c-10.2-1.9-31,4-38,1.3
		c-1.6-0.6-9.6-17.4-19-23.8c10.3-1.6,17-8.3,18.4-9c1.7-0.9,4-1,5.8-1.9c0.2-0.1,1.2-2.6,2.6-3.2c9.1-4.3,42.8-9.7,57.4-16.8
		c29.5-5.8,58.4,4.2,87,10.3c9,5.6,19.1,9,28.4,14.2C-736.5,55.4-735.7,59.4-726.9,60z"/>
	<path class="st3" d="M-642.4,256.6c-0.2-1.5-0.5-3-0.6-4.5c0-0.3,1.7-3.8,1.3-6.1c-1.4-8.6-23.2-24.8-5.2-18.7
		c2.3-3.9-41.4-63.1-56.7-69c18.6-7,32.8-22.6,40-40.9c4.2,4.7,4.2,4.7,8.4,9.3c15.2,37.8,22.4,66.7,25.1,107.7
		c-5.2,8-3.7,10.4-3.9,11c-0.8,1.9-5.6,3.3-5.8,3.9C-640,249.6-635.9,251.3-642.4,256.6z"/>
	<path class="st3" d="M-1021.5,223.1c-0.3-1.1-1.9-3.1-1.9-4.2c-1.3-20.8,10.7-70.1,25.1-87.4c7.2,11.8,20.2,22.9,33.5,26.8
		C-988.9,173.3-1005.5,200.1-1021.5,223.1z"/>
</g>
<g id="Background_00000013902825640855333600000007852814482380937913_" class="st0">
	<path class="st1" d="M786.8,8.4c-14.2,8-29.8,14.8-45.5,20.6c-10.5-0.2-11.7,3-14.8,4.5c-0.5,0.2-1.3-1.4-3.9,0c-1.9,1-3,5-3.2,5.2
		c-1.9,1.4-3.5-0.2-3.9,0c-1.7,1.1-12.7,14.9-17.7,18.4c6.4,2.5-0.5,7.5-2.6,11.6c-8.1,16.5-15.9,33.1-23.8,49.6
		c-1,2.2-4.1,3.2-5.2,5.8c-0.6,1.4-1.1,7.6-2.6,11.6c-0.2,0.5-2.3,2.1-3.2,4.5c-1.8,5-1.1,9.2-1.3,9.7c-0.1,0.3-2.7,0.4-3.2,1.9
		c-0.4,1,0.4,4,0,5.2c-0.9,2.8-3.8,6.1-3.9,6.4c-2.9,10.8-5.8,46.5-3.9,59.3c-4.9,6.8,0.6,13.8,1.3,20.6c1.2,12.4,2.9,42.2,5.2,52.2
		c0.2,0.8,2.9,3.9,3.2,5.2c1.8,7.4,3.4,12.7,5.8,20c0.6,1.8,0.6,8.5,1.3,9.7c0.2,0.4,2.1,0,3.2,1.9c3.1,5.4,0.3,5.2,1.3,8.4
		c0.8,2.6,5,4.9,5.2,5.2c9.3,14.4,4.9,13.1,5.2,14.2c1.5,5.9,3.2,9.3,4.8,4.2c17.6,22.2,35.8,43.4,57.4,61.9
		c10,6.1,27.6,21.8,34.8,26.4c24,15.4,76.2,26.7,105.1,32.9c9.2-0.9,8.5,1.8,9,1.9c3.2,0.9,3.2-1.8,3.9-1.9c1.4-0.2,1.8,0.8,3.2,0.6
		c13.4-2,27-4.5,40.6-5.8c13.7-6,29-7,41.9-14.2c57.5-14.4,84.5-46.9,119.6-91.9c29.7-47,41.1-102.9,41.9-157.9
		c3.5-6.7-1.2-13.4-1.3-14.2c-0.9-6.4,1.3-7.9,1.3-8.4c-0.1-2.4-3.7-3.4-4.5-5.8c-1.5-4.2-0.7-23.5-6.4-27.1
		c-0.7-5.5-5.1-24.5-6.4-28.4c-0.6-1.6-7-13.5-9-18.1c-0.3-0.8,0.3-3.8,0-4.5c-0.5-1-4.4-4.7-11-19.3c-0.3-0.7-2.6-2.1-3.2-3.9
		c-0.2-0.7,1.3-2.4,1.3-2.6c-1.6-6.4-4.6-4.1-7.1-5.8c-0.7-0.5-1.9-5.4-2.6-6.4c-1.6-2.4-8.2-12-8.4-14.2c-0.1-0.6,4.5-8.6-4.2-6.8
		c-8.5-16.3-21.5-15.4-27.1-18c-8.7-4.1-35.8-17.8-39.7-24.5c71.1,0.1,142.3,0,213.4,0c0,239.8,0,239.8,0,479.6
		c-330.1,0-330.1,0-660.1,0c0-239.8,0-239.8,0-479.6C640.2,8.4,713.5,8.5,786.8,8.4z"/>
	<path class="st1" d="M993.7,8.4c0.5,5.9,15.9,4.3,19.7,11c9.9,4,39.9,19.4,44.8,27.4c1.1,1.8,0.3,2.7,3.9,7.7
		c0,0.1-1.1,0.7-0.6,1.3c0.5,0.8,2.7,0.1,2.9,0.3c0.7,0.9-1.2,0.7-1,1c9.1,10.3,9.8,6.5,13.2,8.1c4,1.8,37.1,48.6,35.8,57.7
		c7.3,13.6,10.6,28.9,14.2,43.8c0.2,0.7,2.4,3.9,2.6,4.5c0.7,3.1-0.7,4.3-0.6,4.5c2.4,12.3,6,23.5,4.5,36.1
		c5.8,6.6,0.9,21.2,0.6,27.7c-0.3,6.7,1.3,13.8,0.6,20.6c-0.5,4.8-3.4,13.4-4.5,18.7c0,0.2,1.2,1,0.6,3.9c-0.1,0.4-1.8,1.5-1.9,1.9
		c-0.7,3-0.6,7.5-1.3,10.3c-0.7,2.8-8.5,30-9,31.6c-5.5,15.3-19.5,36.5-25.8,52.2c-14.6,16.4-27.8,34.8-45.4,48.7
		c-7.9,6.2-34.4,22.8-43.2,26.4c-20.9,8.7-89.3,27.1-113.5,26.4c-40.7-5.1-91-13.9-122.5-41.9c-7.5-1.8-16.1-10-22.6-14.8
		c-1-0.7-8-4.2-8.4-4.5c-7.8-6.4-44.1-47.5-50-56.4c-8.8-13.4-21.6-41.3-25.8-56.7c-6.1-22.2-10.5-77.4-7.7-99.9
		c1.3-10.3,7.4-23.1,10.3-33.5c2-7.2,3.5-21.5,5.8-27.7c0.8-2.2,4.1-5.1,5.2-7.7c5.1-12.7,10.6-25.2,15.5-38c8.3-6.3,5.3-8.1,5.8-9
		c1.4-2.4,12.1-19.9,13.2-20.3c2.3-0.8,4.3,0.7,4.5,0.6c0.7-0.3,5.6-5.2,7.1-5.8c0.3-0.1,6,1.2,6.1-1.6c-5.8-5.9,1.8,0.6,4.5-3.9
		c-16.7-9.2,28.4-28.8,36.4-33.2c5.3-2.9,14.1-9.3,17.4-11c6.1-3.1,11.7-3.4,14.5-6.4C864.4,8.4,929,8.4,993.7,8.4z"/>
	<path class="st1" d="M799.7,8.4c-2.8,3.1-8.4,3.3-14.5,6.4c-3.3,1.7-12.1,8.1-17.4,11c-8,4.4-53.2,24-36.4,33.2
		c-2.7,4.5-10.3-2-4.5,3.9c-0.1,2.8-5.8,1.5-6.1,1.6c-1.5,0.6-6.4,5.5-7.1,5.8c-0.2,0.1-2.2-1.4-4.5-0.6
		c-1.1,0.4-11.8,17.9-13.2,20.3c-0.5,0.9,2.5,2.7-5.8,9c-4.8,12.8-10.3,25.3-15.5,38c-1.1,2.7-4.3,5.6-5.2,7.7
		c-2.3,6.2-3.8,20.5-5.8,27.7c-2.9,10.5-9,23.2-10.3,33.5c-2.8,22.5,1.6,77.7,7.7,99.9c4.2,15.4,17,43.3,25.8,56.7
		c5.9,8.9,42.1,50,50,56.4c0.4,0.3,7.4,3.8,8.4,4.5c6.5,4.8,15.1,13,22.6,14.8c31.4,28,81.8,36.9,122.5,41.9
		c24.1,0.7,92.6-17.7,113.5-26.4c8.8-3.6,35.3-20.2,43.2-26.4c17.7-13.9,30.9-32.3,45.4-48.7c6.2-15.8,20.3-36.9,25.8-52.2
		c0.6-1.5,8.3-28.8,9-31.6c0.7-2.9,0.6-7.3,1.3-10.3c0.1-0.4,1.8-1.5,1.9-1.9c0.6-2.8-0.7-3.7-0.6-3.9c1.1-5.3,4-13.9,4.5-18.7
		c0.7-6.8-0.9-14-0.6-20.6c0.3-6.5,5.1-21.1-0.6-27.7c1.5-12.6-2.1-23.8-4.5-36.1c0-0.2,1.3-1.4,0.6-4.5c-0.1-0.7-2.4-3.8-2.6-4.5
		c-3.6-15-6.9-30.2-14.2-43.8c1.3-9.1-31.8-55.9-35.8-57.7c-3.5-1.6-4.1,2.2-13.2-8.1c-0.3-0.3,1.7-0.1,1-1
		c-0.2-0.3-2.4,0.4-2.9-0.3c-0.4-0.6,0.7-1.2,0.6-1.3c-3.5-5-2.8-6-3.9-7.7c-4.9-8-34.9-23.4-44.8-27.4c-3.8-6.7-19.2-5.1-19.7-11
		c6.7,0,13.3,0,20,0c3.8,6.7,31,20.4,39.7,24.5c5.6,2.7,18.6,1.7,27.1,18c8.7-1.8,4.1,6.2,4.2,6.8c0.2,2.2,6.8,11.8,8.4,14.2
		c0.7,1,1.8,5.9,2.6,6.4c2.5,1.8,5.5-0.6,7.1,5.8c0,0.1-1.5,1.9-1.3,2.6c0.6,1.8,2.9,3.2,3.2,3.9c6.6,14.7,10.5,18.3,11,19.3
		c0.3,0.8-0.3,3.7,0,4.5c2.1,4.5,8.5,16.5,9,18c1.3,3.8,5.7,22.8,6.4,28.4c5.8,3.6,5,22.9,6.4,27.1c0.8,2.4,4.4,3.4,4.5,5.8
		c0,0.4-2.2,1.9-1.3,8.4c0.1,0.8,4.8,7.5,1.3,14.2c-0.8,55.1-12.2,110.9-41.9,157.9c-35.1,44.9-62.1,77.4-119.6,91.9
		c-12.9,7.2-28.2,8.2-41.9,14.2c-13.6,1.3-27.2,3.9-40.6,5.8c-1.4,0.2-1.8-0.8-3.2-0.6c-0.7,0.1-0.7,2.8-3.9,1.9
		c-0.5-0.1,0.1-2.9-9-1.9c-28.9-6.1-81.1-17.5-105.1-32.9c-7.2-4.6-24.8-20.4-34.8-26.4c-21.6-18.5-39.8-39.7-57.4-61.9
		c-1.6,5.1-3.4,1.7-4.8-4.2c-0.3-1,4.1,0.2-5.2-14.2c-0.2-0.3-4.3-2.6-5.2-5.2c-1-3.1,1.8-2.9-1.3-8.4c-1.1-1.9-3-1.5-3.2-1.9
		c-0.7-1.2-0.7-7.9-1.3-9.7c-2.4-7.3-4-12.6-5.8-20c-0.3-1.3-3-4.3-3.2-5.2c-2.2-10-3.9-39.8-5.2-52.2c-0.7-6.9-6.2-13.8-1.3-20.6
		c-2-12.8,0.9-48.5,3.9-59.3c0.1-0.4,3-3.7,3.9-6.4c0.4-1.1-0.4-4.1,0-5.2c0.5-1.5,3.1-1.7,3.2-1.9c0.2-0.5-0.6-4.7,1.3-9.7
		c0.9-2.4,3-4,3.2-4.5c1.5-4,2-10.2,2.6-11.6c1.1-2.6,4.1-3.7,5.2-5.8c8-16.5,15.8-33.2,23.8-49.6c2-4.2,8.9-9.1,2.6-11.6
		c5-3.5,16-17.3,17.7-18.4c0.3-0.2,2,1.4,3.9,0c0.2-0.2,1.3-4.2,3.2-5.2c2.5-1.4,3.3,0.2,3.9,0c3.2-1.5,4.4-4.7,14.8-4.5
		c15.7-5.9,31.2-12.6,45.5-20.6C791.1,8.4,795.4,8.4,799.7,8.4z"/>
	<path class="st2" d="M1072.7,27.1c0.7,0.6,1.5,1.2,0.6,1.9C1072.2,29.5,1072,27.4,1072.7,27.1z"/>
	<path class="st3" d="M1004.7,60.6c-9.3,7.7-15.2,21.4-16.4,21.9c-7.3,3.1-29-3.5-38-1.3c-0.1-7.5-1.1-5-9.7-4.5
		c-23.8,6.8-32.1,8.2-7.4-1.6c-17.4-2.1-22.3,5.7-12.9-4.5c-0.8-0.8-0.8-0.8-1.6-1.6c-12,1.9-21.3,11.6-22.6,11.6
		c-1.4,0-14.8-12.7-24.8-10c6.3,6.7,2.2,3.1-9,4.5c7.9,3.4,7.9,3.4,15.8,6.8c-14.4-0.2-36.6-11.9-32.2-0.6c-10.2-1.9-31,4-38,1.3
		c-1.6-0.6-9.6-17.4-19-23.8c10.3-1.6,17-8.3,18.4-9c1.7-0.9,4-1,5.8-1.9c0.2-0.1,1.2-2.6,2.6-3.2c9.1-4.3,42.8-9.7,57.4-16.8
		c29.5-5.8,58.4,4.2,87,10.3c9,5.6,19.1,9,28.4,14.2C995,56,995.8,60,1004.7,60.6z"/>
	<path class="st3" d="M1089.1,257.3c-0.2-1.5-0.5-3-0.6-4.5c0-0.3,1.7-3.8,1.3-6.1c-1.4-8.6-23.2-24.8-5.2-18.7
		c2.3-3.9-41.4-63.1-56.7-69c18.6-7,32.8-22.6,40-40.9c4.2,4.7,4.2,4.7,8.4,9.3c15.2,37.8,22.4,66.7,25.1,107.7
		c-5.2,8-3.7,10.4-3.9,11c-0.8,1.9-5.6,3.3-5.8,3.9C1091.6,250.3,1095.6,251.9,1089.1,257.3z"/>
	<path class="st3" d="M710.1,223.7c-0.3-1.1-1.9-3.1-1.9-4.2c-1.3-20.8,10.7-70.1,25.1-87.3c7.2,11.8,20.2,22.9,33.5,26.8
		C742.6,174,726.1,200.8,710.1,223.7z"/>
</g>
<g>
	<g>
		<path class="st4" d="M274.8,452.6l38-60.2c1.1-1.7,3.1-2.5,5.1-2.1l69.3,16.4c3.7,0.9,6.9-2.8,5.4-6.4l-58.9-144.2l-126.2,51.5
			l58.9,144.2C267.9,455.4,272.8,455.8,274.8,452.6z"/>
		<polygon class="st5" points="295.9,324.4 254.7,423 214.5,324.4 		"/>
		<path class="st4" d="M292.4,307.6l-6.9,16.8l-25.3,62.1l-1,2.6l-9.1,22.3l-16.5,40.4c-1.4,3.5-6.3,4-8.3,0.7l-38-60.2
			c-1.1-1.7-3.1-2.5-5.1-2.1l-69.3,16.4c-3.7,0.9-6.9-2.8-5.4-6.4l58.8-144.2L292.4,307.6z"/>
		<path class="st5" d="M351.1,298.4c-5.5,4.9-44.4,38.5-101.1,38.5c-10.7,0-21.3-1.1-31.8-3.3c-25.6-5.5-49.8-17.7-69.3-35.1
			l17.2-42.3l19.8,8.1l1.8,0.7l62.3,25.4l62.3-25.4l1.8-0.7l19.8-8.1L351.1,298.4z"/>
	</g>
	<g>
		<circle class="st6" cx="250" cy="184.8" r="139.6"/>
		<path class="st7" d="M250,312c-70.1,0-127.2-57.1-127.2-127.2S179.9,57.7,250,57.7s127.2,57,127.2,127.2S320.1,312,250,312z"/>
		<circle class="st6" cx="250" cy="184.8" r="119.4"/>
		<g>
			<path class="st8" d="M226.1,273.9c3.9,2.4,8,4.4,11.6,7.2c2.5,2,5.1,4.2,6.8,7c-11-7.1-26.3-14-39.4-14.5
				C211.9,270.6,219.3,272.3,226.1,273.9z"/>
			<path class="st8" d="M293.2,272.3c1.1,0.1,2.4,0.1,3.5,0.3c7.3,1.7-0.7,1.3-5.4,2.1c-10.2,1.8-22,8-30.7,13.6
				C268.4,278.3,280.2,271.2,293.2,272.3z"/>
			<path class="st9" d="M342.5,196.5c0,0.7,0.2,1.4,0.3,2.1c0.6,4.7,3.1,13.8,0.9,14.2c-1.3-12.8-4.9-17.1-4.1-17.5
				C341.1,195.9,341.1,195.9,342.5,196.5z"/>
			<g>
				<path class="st8" d="M201.9,105.5c4.4,3,8.1,10.9,8.9,11.2c3.3,1.3,13.1-1.5,17.8-0.6c-2.1-5.3,8.4,0.2,15.1,0.3
					c-3.7-1.6-3.7-1.6-7.4-3.2c5.3-0.6,7.2,1,4.2-2.1c4.7-1.3,11,4.7,11.6,4.7c0.6,0,5-4.5,10.6-5.4c0.4,0.4,0.4,0.4,0.8,0.8
					c-4.4,4.8-2.1,1.1,6,2.1c-11.6,4.6-7.7,3.9,3.5,0.8c4-0.2,4.5-1.4,4.5,2.1c4.2-1,14.4,2.1,17.8,0.6c0.6-0.2,3.3-6.7,7.7-10.3
					c10.4-8.5,31.8-5.2,33,10.4c0.3,4.5-1.6,12.2-3.3,16.5c-3.4,8.6-10,15.9-18.7,19.2c7.2,2.8,27.7,30.5,26.6,32.3
					c-8.5-2.9,1.7,4.7,2.4,8.8c0.2,1.1-0.6,2.7-0.6,2.9c-1.4-0.6-1.4-0.6-2.9-1.2c-0.8,0.4,2.8,4.8,4.1,17.5
					c3.9,38-21.6,50.7-54.4,56.8c-13.6,2.5-7.6,1.1,0.1-2.4c-9.4,1.8-21.4,4.9-28.7,11.5c-7,6.3,3.7-1.7,9.1-3.9
					c4.6-1.9,14.7-4.7,4.2,0c-7.9,5.4-15.5,11.2-21.5,18.7c-7-8.6-15.8-15.3-25.2-21c0.2-0.5,7,1.7,7.7,2c5.4,2.1,18.9,12.4,6.6,2.1
					c-3.3-2-3.3-2-6.6-3.9c-7.4-3.1-38.1-11-10.6-1.8c1.9,1.1-3.3-0.4-5.9-0.9c-21.2-4.3-49.1-11.2-55.6-35.2
					c-3.2-11.9-2.2-27.9,3.3-39c-0.2-0.2-0.2-0.2-0.4-0.4c-7.8,4.2-1.4-6.3,3.8-11.3c-6.8,1.3-4.2,0.2-4.5-1.1
					c7.5-10.8,15.3-23.3,26.6-30.4c-6.2-1.8-12.4-7-15.7-12.5c-4.7-7.8-8.5-23.3-3-31.3C178.8,100.1,194.1,100.1,201.9,105.5z"/>
				<g>
					<path class="st9" d="M289.3,269.6c-1.3,4,2.8,0.9,3.9,2.7c-13-1.1-24.8,6-32.6,16c-5.9,3.8-7.5,7-8,7c-0.4,0-4.7-5.4-6.1-6.4
						c-0.1-0.1-0.4,0.1-2-0.9c-1.7-2.7-4.3-5-6.8-7c-3.6-2.8-7.7-4.9-11.6-7.2c-4.3-2.4-8.1-0.7-7.6-3.9c2.6,0.5,7.8,2,5.9,0.9
						c-27.5-9.1,3.2-1.3,10.6,1.8c3.3,2,3.3,2,6.6,3.9c12.2,10.2-1.3,0-6.6-2.1c-0.7-0.3-7.5-2.5-7.7-2c9.5,5.7,18.2,12.4,25.2,21
						c5.9-7.6,13.6-13.4,21.5-18.7c10.5-4.7,0.4-1.9-4.2,0c-5.4,2.3-16.1,10.2-9.1,3.9c7.3-6.6,19.3-9.7,28.7-11.5
						C281.7,270.8,275.7,272.2,289.3,269.6z"/>
					<path class="st10" d="M315.6,171.4c-2.2,4.4-2.2,9.7-5.4,13.6c-1.5-2.6-0.6,0.4-0.3,1.5c-3.2,8.5-6.7,16.4-16.6,17.5
						c-4-1.6,1.6-3.9,2-3.9c1.3,0,6.2,5.4,1.1-0.8c1.3-1.1,1.3-1.1,2.6-2.3c2.6,1.3,0.4-0.1,0.5-0.8c0-0.6,3.5-2.9,2.4-10.4
						c-0.8-5.6-5.9-11.6-6-12.5c-0.3-1.9,1.7-2.5-2.1-6.2c5-5.8-4.4,2.3-1.7-3.6c-2.5,2.5-3.2,0.8-4.1,0.9
						c-10.5,1.2-17,12.5-15.1,21.2c-3.1-0.6-6.7-6.7-7.7-6.9c-3.5-1-2.2,3.4-8.2-4.2c-1.7,3-1.7,3-3.3,6.1
						c-0.9-8.6-0.6-11.2-2.7-1.5c-1.7-2.6-1.7-2.6-3.3-5.1c-6.1,10.7-5.8,5.1-8.5,5.4c-0.5,0.1-5.5,6.1-6.2,6.9
						c1.1-6.7-1.2-14.3-6.8-18.4c-1.2-0.9-7.7-3.9-8.2-3.9c-1.4,0-0.6,3.2-3.6-0.3c0.4,1,0.4,1,0.8,2c-1,3.4-9.3-6.6-2.7,1.8
						c-5.1,3.4-2.3,5.4-2.4,6.1c-0.1,1-8.7,9.1-5.7,19.2c0.9,2.9,3.7,4.2,1.2,5c5.1,0.9,4,2.3,0.9,5.3c-6-2.6-10.6-10.5-10.6-16.9
						c0-2,1.3-5.2-1.5,0.6c-2.8-4.6-3.1-10-4.2-15.1c0-0.1,0-0.1,0-0.3c1.9-3.9,3.6-7.9,5.7-11.6c-0.9-0.3-0.9-0.3-1.8-0.6
						c5.4-8.7,14.8-22.7,23.1-28.6c18.5-13,56.1-12.6,73.8,1.8c6.6,5.4,16.5,19.2,21.3,26.8c-0.9,0.1-0.9,0.1-1.8,0.3
						C312.4,163,313.9,167.2,315.6,171.4z"/>
					<path class="st10" d="M180.5,187.4c-1.9,7.6-2.8,10.4-1.2,18.6c2.6,13.2,13.8,25.3,24.9,32.2c8.6,5.3,18.7,8.3,27.7,13
						c6.4,3.3,11.9,6.7,16.6,12.4c2.9,3.6,4.3,7.8,4.7,7.6c0.6-2.8,2.6-6.8,4.4-9.1c3.8-4.7,11.3-8.5,16.6-11.2
						c5.8-2.9,13.8-5.7,19.8-8.8c23.5-12.1,39.8-30.4,30.4-58.3c4,7.8,5.3,12.9,4.8,21.9c-0.9,17.4-10.9,30.3-25.9,38.5
						c-16.7,9.1-40.4,9.3-50.2,28.1c-14.9-22.5-40.2-18.2-60.5-35.1c-12.7-10.5-18-25.2-15.9-41.6
						C177.7,189.4,182.3,179.9,180.5,187.4z"/>
					<path class="st11" d="M324.4,183.8c9.4,28-6.9,46.2-30.4,58.3c-6,3.1-14,5.9-19.8,8.8c4.3-2.6,6.2-5.5,9.4-8.8
						c1-1.1,2.6-1.8,3.9-3.9c0,0.4-0.1,1.6,0.1,1.8c26.4-13.9,41.5-30.2,31-61.4c-0.3-1-0.5-2-0.9-3c0.9-2-1.8-6.9-0.6-7.4
						c2,4.1,3.5,9.7,5.4,13.6C323.6,183.9,324.2,183.3,324.4,183.8z"/>
					<path class="st11" d="M189.9,171.4c-12.2,29.4-6.8,46.1,19,63.2c3.1,2.1,6.3,3.8,9.4,5.7c1.4,0.9,3.3,1.6,4.1,2.1
						c3.5,2.4,6,6.3,9.5,8.8c-9-4.7-19-7.7-27.7-13c-11.2-6.9-22.3-19-24.9-32.2c-1.6-8.2-0.6-11,1.2-18.6
						c1.9,1.6,6.4-11.6,8.5-15.9c0.1-0.1,0.9-0.4,0.9-0.4C189.9,171.2,189.9,171.2,189.9,171.4z"/>
					<g>
						<path class="st12" d="M304.1,141.8c0-2.1,0-2.1,0-4.2c2.8-8.8,7.1-26.4,18.9-27.2c17.5-1.2,8.4,27.9-3.3,35.7
							c-2.3,1.5-10.1,4.6-10.4,3.2c6.1-6.4,13.2-10.3,0.3-4.8c0.5-1.2,5.9-11.6,4.4-11.6C310.2,135.5,303.9,145,304.1,141.8z"/>
						<path class="st13" d="M304.1,137.5c0,2.1,0,2.1,0,4.2c-0.9-0.6-2.4-4.9-2.4-5.6c-0.4-3.7,2-9.5-1.7-1.4
							c-1.5-3.8-0.6-8.2,1.4-11.6c-0.5,0.2-0.5,0.2-0.9,0.3c-5.3,7.9-4.5,4-0.3-3.6c-5,4-7.2,7.1-2.1-1.5c3.4-5.8,9.2-11.6,16-12.7
							c-1.8,1.1-3.8,2.3-5.3,3.8c-5.8,5.6,0.9-0.1,6.4-1.2c4.9-1,14.6-0.6,4.5,0.3C306.9,112.7,303.6,125.1,304.1,137.5z"/>
					</g>
					<path class="st13" d="M217.2,257.8c14.7,4.7,26.9,9.8,35.7,23.3c7.3-12.9,21.9-19,35.5-22.8c-12,5.8-28.2,12.5-35.5,24
						C244,270.2,229.9,264.7,217.2,257.8z"/>
					<path class="st13" d="M194.6,152.9c0.1,0.4,0.1,0.4,0.1,0.8c-5.4,6.2-15.4,14.8-5.6,9.8c0.2,0.2,0.2,0.2,0.4,0.4
						c-9.9,8.2-9.9,8.2-19.8,16.5C177.5,170.8,183.9,159.6,194.6,152.9z"/>
					<path class="st13" d="M310.9,153.2c10.1,5.7,16,16.4,23,25.4c-9-7.3-9-7.3-18-14.7c-0.1-1.1,4.6,1.5,4.8,0.9
						C315.8,159.1,315.8,159.1,310.9,153.2z"/>
					<path class="st13" d="M332.4,188.9c9.8,12.5,8.8,28.1-0.6,40.5C338.3,216.8,337.2,201.9,332.4,188.9z"/>
					<path class="st9" d="M335.3,242.4c-7.1,11.5-24.8,21.2-38.2,21.8c11.3-4.4,30.9-11.3,36.7-22.7
						C334.2,242.1,334.3,243,335.3,242.4z"/>
					<path class="st13" d="M173.1,189.5c-5.4,12.6-4.6,26.8,0.6,39.3C165.1,217.7,163.3,200.4,173.1,189.5z"/>
					<path class="st9" d="M195.6,259c-0.9,0.2-0.6,1-0.9,1.8c-10.1-4-22-11.1-26.6-21.5c0.4-0.1,1-0.6,1.1-0.6
						c0.6-0.1,0.8,1.6,0.8-0.6C172.6,247.7,187.2,255.3,195.6,259z"/>
					<path class="st14" d="M317.7,175.6c0.4,1,0.6,2,0.9,3c-1.7,3.8-2.7,7.8-7.2,8.8c-0.1-0.1-1.1-2.3-1.2-2.4
						c3.2-3.9,3.3-9.2,5.4-13.6C316.1,172.5,317.2,174.3,317.7,175.6z"/>
					<path class="st13" d="M335.3,242.4c-1,0.6-1.1-0.3-1.5-0.9c4.3-8.4,1.2-3.9-2.3-0.9c-7,6.1,2.1-2.8,5-8
						c0.7-1.3,2.2-4.4,2.7-5.7c1.7-4.6,2.7-10.5,1.5,0.3C340.1,233,338.3,237.5,335.3,242.4z"/>
					<path class="st13" d="M169.9,238.2c0,2.2-0.2,0.5-0.8,0.6c-0.1,0-0.7,0.5-1.1,0.6c-2.4-5.4-3.7-12.2-3.2-18.1
						c0.8,3.4,1.9,6.9,3.5,10.1c2.9,5.9,12.6,16.2,1.4,5.3C169.6,236.7,169.8,237.8,169.9,238.2z"/>
					<path class="st13" d="M195.6,259c4,1.8,8.2,3.3,12.4,4.7c-4.9,0.8-8.9-1.1-13.3-2.9C195,260,194.7,259.2,195.6,259z"/>
					<path class="st15" d="M324.5,178.3c5.6,2.6,10.9,6.1,13.5,11.9C331.3,184.3,331.3,184.3,324.5,178.3z"/>
					<path class="st16" d="M179.4,178.6c0.2,0.2,0.2,0.2,0.4,0.4c-4.5,3.3-8.6,7.2-11.9,11.6C169.6,184.9,174.5,181.7,179.4,178.6z"
						/>
					<path class="st9" d="M293.4,120.3c1.6-0.4-0.5,1.8-2.1,4.5c-0.3-3.7-3.6-1.3-8.9-2.9C286.1,121.6,289.9,121.6,293.4,120.3z"/>
					<path class="st13" d="M281,118.2c1.4,0.1,5.9,0.5,2.1,1.5C277.8,121.1,267.5,120.5,281,118.2z"/>
					<path class="st15" d="M220.2,118.5c13.9,0.6,12.4,2.1-1.2,0.9C218,118.4,219.3,119.2,220.2,118.5z"/>
					<path class="st9" d="M213,120.6c4.6,0.8,4.6,0.8,9.2,1.7C216.5,121.6,213.9,124.7,213,120.6z"/>
					<path class="st16" d="M232.3,117.6c3.4,0.4,3.4,0.4,6.8,0.8C237.1,119.4,233.8,119.4,232.3,117.6z"/>
					<path class="st17" d="M214.5,124.8c0.2,0.1,0.2,0.1,0.4,0.2C212,130.1,209.6,126.2,214.5,124.8z"/>
					<path class="st18" d="M271.3,117.6c7.6-1-3.6,1.9-3.8,1.4C267.5,118.7,271,117.6,271.3,117.6z"/>
					<path class="st19" d="M214.8,123.3c0.4,0.2,0.4,0.2,0.8,0.4C215.8,125.1,214.5,124.2,214.8,123.3z"/>
					<g>
						<path class="st12" d="M179.4,110.3c15.6-2.6,21.6,22.9,20.4,34.3c-8.8-11.5-13.6-17.3-4.8-0.9c-3.6-1.1-3.6-1.1-7.2-2.1
							c3.6,3,15.6,11.7,2.6,7.1C174.9,143.2,166.6,112.5,179.4,110.3z"/>
						<path class="st13" d="M202.3,140.5c-0.3-0.1-0.3-0.1-0.6-0.3c0.5-14.1-0.6-25.5-15.3-31.4c-12.3-1.3,4.6-3.2,12.7,3.6
							c-0.8-2.8-11.8-9.8-2.4-5.1c4.9,2.4,12.4,10.8,13,16.3c-8.9-8.8-1.6-1.6-0.1,3.8c-9.2-10.1-0.8,0.2-2.7,5.7
							c-0.2,0.2-0.2,0.2-0.4,0.4C201.3,127.4,206.6,130.7,202.3,140.5z"/>
						<path class="st20" d="M202.3,140.5c-0.6,1.4-0.7,1.8-0.6-0.3C201.9,140.4,201.9,140.4,202.3,140.5z"/>
					</g>
					<path class="st21" d="M194.1,186.5c-9.1,19,6.6,28.9,16,37.2c-1.1,2.3-2.8-1.1-2.7,0.8c6.1,5.2,6.1,5.2,12.2,10.4
						c1.8-1.2-1.6-4.2-4.4-6.9c2,1,3.6,3.3,5.1,4.8c0.3,2.2-0.1,3.3-0.6,5.1c-4.3-1.8-8.2-4.6-11.9-7.2c-1.9,0,0.6,0.9,1.1,3.9
						c-25.9-17.1-31.2-33.8-19-63.2C191,176.5,191.3,181.9,194.1,186.5z"/>
					<path class="st21" d="M289.9,221.9c-2.9-0.4-2.9-0.4-5.7-0.9c0.6-2.4,0.7-3.6,0.9-6.1c0.6-8.7-0.8-10.4-0.6-10.9
						c2.6-0.1,5.2,0.1,7.9,0c0.3,0,0.6,0.6,0.8,0.6c0.2,0,0.1-0.6,0.1-0.6c9.9-1.1,13.4-9,16.6-17.5c0.4,1.2,1.3,2.8,1.5,4.1
						C313.7,206.8,300.7,213.3,289.9,221.9z"/>
					<path class="st21" d="M206.2,202.8c0.1,0.1,0.5-0.1,0.6,0c1.5,0.6,3.8,1.4,5.4,1.5c0.9,0,0.4,0.1,1.2-0.3
						c1.1,0.1,5-0.5,4.8-0.9c1,0.2,2.6,0.3,2.7,0.8c0.1,0.2-0.6,1.8-0.6,3.8c-0.1,6.2,0.1,10.7,2.4,16.6c-1,0.2-1.1-2.1-1.2-2.3
						c-0.3-0.4-7.8-3.9-8.5-2.3c-11.2-9.6-24.4-15.8-17.5-33.9C195.6,192.3,200.2,200.2,206.2,202.8z"/>
					<path class="st11" d="M195.6,185.9c-6.9,18,6.4,24.2,17.5,33.9c3.1,2.7,8.8,7,10.9,9.1c1,1.1,0.8,1.4,0.9,1.5
						c-0.5,3.4-8.6-4.8-11.8-4.5c-0.8-0.7-2.2-1.4-3-2.1c-9.5-8.2-25.1-18.2-16-37.2C196.9,180.6,195.6,183.9,195.6,185.9z"/>
					<path class="st11" d="M310.2,185c0.1,0.1,1.1,2.3,1.2,2.4c5,11.9,1.4,21.2-7.6,29.6c-4.7,4.4-10.6,7.7-15.4,12.1
						c-2.2-1.3-5.3,1.9-7,0c0.3-0.4,0.7-1.1,0.9-1.5c1.6,0.1,5.5-4.1,7.6-5.7c10.8-8.6,23.8-15.1,21.5-31.3
						c-0.2-1.3-1.1-2.9-1.5-4.1C309.5,185.4,308.6,182.4,310.2,185z"/>
					<path class="st22" d="M242.8,253.9c5.2,3.6,3.3,1.5,2.7-1.2c-0.2-1.1-0.6-2.3-0.6-3.5c0.6-0.5,0.9,0.1,1.2,0.1
						c0.8,1.5,1.5,3,2.1,4.5c-2.2,3,1.3,6.5,0.3,9.7c-4.7-5.7-10.2-9.1-16.6-12.4c-3.5-2.5-6-6.4-9.5-8.8c-0.8-0.5-2.7-1.2-4.1-2.1
						c1.2,0,1.3-1.6,1.5-2.4c0.5-1.8,0.9-2.9,0.6-5.1C224.3,236.6,240,251.9,242.8,253.9z"/>
					<path class="st22" d="M283.6,242.1c-3.1,3.3-5.1,6.1-9.4,8.8c-5.4,2.7-12.9,6.5-16.6,11.2c0.6-2.8,2.5-5.1,3.9-7.6
						c0,0.3,0.2,0.4,0.5,0.3c0.6-0.3,7-6,8.3-7.2c1.7,1.8,9.8-7.8,11.2-10.9c0.2-0.2,0.4-0.4,0.6-0.6
						C282.8,239.1,282.8,239.1,283.6,242.1z"/>
					<path class="st22" d="M263.9,250c-0.8,1.1-1.6,3.2-2.4,4.5c-1.5,2.4-3.3,4.7-3.9,7.6c-1.8,2.3-3.8,6.2-4.4,9.1
						c-0.4,0.2-1.7-3.9-4.7-7.6c1-3.1-2.5-6.7-0.3-9.7c1.6,3.7,2.6,7.6,4.2,11.2c0.2,0.5,0.4,1.5,0.8,1.5c0.6,0,3.7-9,4.1-10.1
						c0.5-1.6,0.2-5.8,2-2.3C261,252.6,262.9,248.8,263.9,250z"/>
					<path class="st21" d="M287.5,238.2c0-0.1,0.6-0.4,0.3-1.7c0-0.1-1.7-1.7-1.5-2.7c0.3-1.6,18.1-12.6,17.5-16.8
						c9-8.4,12.5-17.7,7.6-29.6c4.5-1,5.6-5,7.2-8.8c10.5,31.2-4.6,47.5-31,61.4C287.4,239.8,287.5,238.6,287.5,238.2z"/>
					<path class="st23" d="M287.5,238.2c-1.4,2.2-2.9,2.9-3.9,3.9c-0.8-3-0.8-3-1.5-6.1c1.3-1.2,4.1-4.9,6.4-6.9
						c4.8-4.4,10.7-7.6,15.4-12.1c0.5,4.1-17.2,15.2-17.5,16.8c-0.2,1,1.5,2.6,1.5,2.7C288.1,237.8,287.5,238.1,287.5,238.2z"/>
					<path class="st23" d="M219.8,237.9c-0.2,0.8-0.3,2.4-1.5,2.4c-3.1-2-6.3-3.7-9.4-5.7c-0.4-3-3-3.9-1.1-3.9
						C211.6,233.3,215.5,236.1,219.8,237.9z"/>
					<path class="st24" d="M224.9,230.3c4.8,4.8,11.4,13.7,21.6,16.3c13.5,3.5,27.6-6.8,34.9-17.5c1.7,1.9,4.8-1.3,7,0
						c-2.2,2-5.1,5.8-6.4,6.9c-0.2,0.2-0.4,0.4-0.6,0.6c-3.8,3.6-7.4,7.4-11.2,10.9c-1.3,1.2-7.7,6.9-8.3,7.2
						c-0.2,0.1-0.5,0-0.5-0.3c0.8-1.3,1.6-3.4,2.4-4.5c1-1.4,6-5.6,4.1-5.1c-4,5.5-12.6,5.6-18.9,5.1c-0.1,0-0.4-0.6-3-0.6
						c-0.3,0-0.6-0.6-1.2-0.1c0,1.2,0.4,2.3,0.6,3.5c-1.1,0.9-2.5-4.1-4.4-5.4c-6.1-3.1-1.1,1,1.7,6.6c-2.8-2-18.5-17.3-22.4-21.2
						c-1.5-1.5-3.2-3.9-5.1-4.8c-0.7-0.7-1.4-1.4-2.1-2.1C216.4,225.6,224.4,233.7,224.9,230.3z"/>
					<path class="st21" d="M210.1,223.7c0.8,0.7,2.2,1.4,3,2.1c0.8,0.7,1.4,1.4,2.1,2.1c2.7,2.7,6.2,5.7,4.4,6.9
						c-6.1-5.2-6.1-5.2-12.2-10.4C207.4,222.5,209,226,210.1,223.7z"/>
					<path class="st23" d="M289.9,221.9c-2,1.6-6,5.9-7.6,5.7c0.4-0.6,1-1.6,0.3-1.8c0.8-1.6,1.1-3.1,1.5-4.8
						C287,221.4,287,221.4,289.9,221.9z"/>
					<path class="st13" d="M292.3,204c-2.6,0.1-5.2-0.1-7.9,0C284.6,203.6,291.2,201.5,292.3,204z"/>
					<path class="st25" d="M222.8,224.3c0.4,1.1,0.9,2.3,1.5,3.3c-0.1,0.6-0.1,0.6-0.3,1.2c-2.1-2.1-7.8-6.4-10.9-9.1
						c0.7-1.6,8.2,1.9,8.5,2.3C221.8,222.2,221.8,224.4,222.8,224.3z"/>
					<path class="st10" d="M212.2,204.3c-1.6-0.1-3.9-0.9-5.4-1.5c3.6-3.7,3-2.2,7.2-0.4C213.1,203.3,213.1,203.3,212.2,204.3z"/>
					<path class="st13" d="M218.3,203.1c0.2,0.4-3.8,1-4.8,0.9C215.2,203.2,213.9,202.1,218.3,203.1z"/>
					<path class="st11" d="M249.1,250c1.5,4.9,2.8,10,3.3,15.1c-1.6-3.6-2.7-7.5-4.2-11.2c-0.7-1.5-1.3-3.1-2.1-4.5
						C248.7,249.4,249,250,249.1,250z"/>
					<path class="st26" d="M245.5,252.7c0.6,2.7,2.5,4.9-2.7,1.2c-2.7-5.7-7.7-9.7-1.7-6.6C242.9,248.6,244.4,253.6,245.5,252.7z"/>
					<path class="st26" d="M270.3,247.6c3.8-3.5,7.4-7.3,11.2-10.9C280,239.7,272,249.3,270.3,247.6z"/>
					<path class="st26" d="M263.9,250c-1-1.2-2.9,2.6-4.7,4.2c-1.8-3.5-1.4,0.7-2,2.3c-0.4,1.1-3.5,10.1-4.1,10.1
						c-0.3,0-0.5-1-0.8-1.5c-0.5-5.1-1.8-10.2-3.3-15.1c6.3,0.4,14.8,0.4,18.9-5.1C269.9,244.3,264.9,248.6,263.9,250z"/>
					<g>
						<path class="st13" d="M272.7,185.6c0.1,0.6,4.7,5.3,6.6,10.6c1.4,3.7,2.2,8.1,2.4,12.1c0.7,16.9-7.8,27.5-25.4,25.2
							c0.1-0.7,0.1-0.7,0.1-1.4c10.2,4.5,13.9-6,13.5-14.2c-1.3-25.7-33.4-25.7-34.2,0c-0.2,8.3,3.1,18.9,13.1,13.9
							c0.1,0.8,0.1,0.8,0.1,1.7c-1.1,1.9-26.9,2.6-25.4-25.9c0.2-3,1.6-8.9,2.7-11.8c1.5-3.7,3.9-6.6,6.4-9.7
							c0.7-0.9,5.7-6.9,6.2-6.9c2.6-0.4,2.4,5.2,8.5-5.4c1.7,2.6,1.7,2.6,3.3,5.1c2.1-9.7,1.8-7.1,2.7,1.5c1.7-3,1.7-3,3.3-6.1
							c5.9,7.7,4.7,3.2,8.2,4.2C266,178.9,269.6,185,272.7,185.6z"/>
						<path class="st27" d="M301.7,185.9c1.1,7.6-2.4,9.9-2.4,10.4c0,0.7,2.1,2.1-0.5,0.8c-1.3,1.1-1.3,1.1-2.6,2.3
							c5.1,6.2,0.3,0.7-1.1,0.8c-0.3,0-6,2.3-2,3.9c0,0,0.1,0.6-0.1,0.6c-0.1,0-0.4-0.6-0.8-0.6c-1.1-2.5-7.7-0.4-7.9,0
							c-0.2,0.5,1.2,2.2,0.6,10.9c-1.5-1.7-1.7-5.6-3.3-6.6c-0.2-3.9-1.1-8.4-2.4-12.1c0.9,0.1,1-0.9,1.5-1.2
							c2.1-1.2,14.2-4.4,15.4-12.7C299.5,183.1,299.6,187.4,301.7,185.9z"/>
						<path class="st27" d="M287.8,164.4c1,0.9,5.5,3.8,5.7,2.7c3.9,3.7,1.8,4.3,2.1,6.2c0.2,0.9,5.2,6.9,6,12.5
							c-2.1,1.5-2.2-2.8-5.4-3.6c1.3-8.8-10.6-17.5-16.6-8.6c-4.4,6.5,1.6,14.2,1.2,21.3c-0.5,0.3-0.6,1.3-1.5,1.2
							c-1.9-5.3-6.5-10-6.6-10.6C270.8,176.9,277.3,165.6,287.8,164.4z"/>
						<path class="st11" d="M293.5,167.1c-0.2,1.1-4.8-1.9-5.7-2.7c0.9-0.1,1.6,1.6,4.1-0.9C289.2,169.4,298.6,161.4,293.5,167.1z"
							/>
						<path class="st17" d="M270,217.9c-12.3,0.6-16.1,6.6-17.1,6.6c-0.9,0.1-4.3-5.6-17.1-6.6C236.5,192.2,268.7,192.2,270,217.9z"
							/>
						<path class="st15" d="M282.4,227.6c-0.2,0.4-0.6,1.1-0.9,1.5c-7.3,10.8-21.4,21.1-34.9,17.5c-10.2-2.6-16.8-11.5-21.6-16.3
							c-0.1-0.1,0.1-0.5-0.9-1.5c0.1-0.6,0.1-0.6,0.3-1.2c4.3,6.9,11.9,8.6,12.5,9.1c0.6,0.5,2.9,6.5,11.5,8.2
							c14.3,2.7,19-7.5,20-8.2c0.7-0.6,10.3-2.5,14.4-10.9C283.4,225.9,282.7,226.9,282.4,227.6z"/>
						<g>
							<path class="st24" d="M223.7,207.6c-1.6,28.4,24.3,27.7,25.4,25.9c-0.1-0.8-0.1-0.8-0.1-1.7c-10,5-13.4-5.6-13.1-13.9
								c12.8,1,16.1,6.8,17.1,6.6c0.9-0.1,4.8-6,17.1-6.6c0.4,8.2-3.2,18.7-13.5,14.2c-0.1,0.7-0.1,0.7-0.1,1.4
								c17.6,2.2,26.1-8.4,25.4-25.2c1.6,1.1,1.8,5,3.3,6.6c-0.2,2.5-0.3,3.6-0.9,6.1c-0.4,1.7-0.7,3.2-1.5,4.8
								c-4.1,8.4-13.6,10.3-14.4,10.9c-0.9,0.7-5.6,10.9-19.9,8.2c-8.6-1.6-10.9-7.7-11.5-8.2c-0.6-0.5-8.2-2.2-12.5-9.1
								c-0.6-1-1.1-2.2-1.5-3.3c-2.3-5.9-2.5-10.4-2.4-16.6C222.1,207.6,222.1,207.6,223.7,207.6z"/>
							<path class="st28" d="M252.6,237.3c1.3,0,6.4,1,10.7,0.8c-4.2,3.9-10.1,4.8-15.6,3.5c-10.3-4.9-6.1-3,0.9-3.3
								C249.6,238.1,252.2,237.3,252.6,237.3z"/>
						</g>
						<g>
							<path class="st27" d="M232.8,186.2c-2.5,3-4.9,6-6.4,9.7c-1.4,1.1-1.4-0.3-1.8-0.6c0.2-9.5,6-14.2,2.1-21
								c-6-10.5-20.8,0.4-16,11c-3.4,1.5-4.9,7-6.6,7.2c-3-10,5.6-18.2,5.7-19.2c0.1-0.6-2.7-2.7,2.4-6.1c-6.6-8.4,1.7,1.6,2.7-1.8
								c-0.4-1-0.4-1-0.8-2c3,3.5,2.3,0.3,3.6,0.3c0.4,0,6.9,3,8.2,3.9C231.6,171.9,233.9,179.5,232.8,186.2z"/>
							<path class="st27" d="M210.7,185.3c2.6,5.7,8.9,7.1,13.9,10c0.5,0.3,0.4,1.7,1.8,0.6c-1.1,2.9-2.6,8.8-2.7,11.8
								c-1.7,0-1.7,0-3.3,0c0-1.9,0.7-3.6,0.6-3.8c-0.2-0.5-1.7-0.5-2.7-0.8c-4.4-1-3.1,0.1-4.8,0.9c-0.8,0.4-0.3,0.3-1.2,0.3
								c0.9-1,0.9-1,1.8-2c-4.3-1.8-3.6-3.2-7.2,0.4c-0.1-0.1-0.5,0.1-0.6,0c3.1-3,4.2-4.4-0.9-5.3c2.5-0.8-0.4-2.1-1.2-5
								C205.8,192.3,207.3,186.8,210.7,185.3z"/>
							<g>
								<path class="st24" d="M224.6,195.2c-5-2.8-11.3-4.3-13.9-10c-4.8-10.6,10-21.5,16-11C230.6,181,224.9,185.7,224.6,195.2z"/>
								<path class="st9" d="M218.1,172.3c5.6-1.1,9.2,4.9,8.3,9.8c-1.1,1.9-0.3-0.9-0.9-2.7c-3.2-10.1-13.2-5.7-10.1,5.9
									C210.6,182.2,213.9,173.1,218.1,172.3z"/>
								<path class="st29" d="M220.2,175c1,0.5,1,0.5,2,1.1C222.6,181.9,214.9,177.3,220.2,175z"/>
							</g>
						</g>
						<g>
							<path class="st24" d="M296.3,182.2c-1.2,8.3-13.3,11.5-15.4,12.7c0.4-7.1-5.6-14.8-1.2-21.3
								C285.6,164.8,297.6,173.5,296.3,182.2z"/>
							<path class="st9" d="M284.9,172.3c6.7-1.2,10.7,8,5.4,12.1c2.9-12.3-7.9-14-10.1-4.1c-0.3,1.5,0.6,4.3-0.6,2.4
								C278.5,179.2,281.1,173,284.9,172.3z"/>
							<path class="st29" d="M285.5,175.3c6.3,0.5-0.5,7.3-1.1,0.8C285,175.7,285,175.7,285.5,175.3z"/>
						</g>
					</g>
				</g>
			</g>
		</g>
		<path class="st30" d="M309.1,81.8L141.5,237.3c-7.8-15.8-12.1-33.6-12.1-52.4c0-13.9,2.4-27.3,6.8-39.8L220,68.9
			c9.2-2.3,18.8-3.5,28.7-3.5C270.8,65.4,291.4,71.4,309.1,81.8z"/>
		<path class="st30" d="M359.8,141L196.6,292.2c-16.4-8-30.8-19.7-41.9-33.9L331,98.3C343.5,110.2,353.4,124.7,359.8,141z"/>
	</g>
</g>
</svg>
